<svg width="171" height="235" viewBox="0 0 171 235" fill="none" xmlns="http://www.w3.org/2000/svg">
<rect x="0.406738" y="0.240479" width="170" height="234.27" rx="2.93103" fill="white"/>
<g clip-path="url(#clip0_6508_8209)">
<path d="M169.581 111.417V117.287H0.897949V106.929L57.7692 59.0038L116.747 109.646L143.232 85.514L169.581 111.417Z" fill="#EBEBEB"/>
<circle cx="115.597" cy="26.1635" r="14.6552" fill="#EBEBEB"/>
<path d="M5.7959 15.0946C5.7959 10.2142 9.75225 6.25781 14.6327 6.25781V6.25781C19.5131 6.25781 23.4694 10.2142 23.4694 15.0946V15.0946C23.4694 19.975 19.5131 23.9313 14.6327 23.9313V23.9313C9.75225 23.9313 5.7959 19.975 5.7959 15.0946V15.0946Z" fill="#DEDEDE"/>
<path d="M14.6328 19.0425C14.506 19.0425 14.3832 19.0262 14.281 18.9894C12.7182 18.4534 10.2349 16.5511 10.2349 13.7405C10.2349 12.3086 11.3926 11.1467 12.8163 11.1467C13.5077 11.1467 14.1541 11.4167 14.6328 11.8995C15.1114 11.4167 15.7578 11.1467 16.4492 11.1467C17.8729 11.1467 19.0307 12.3127 19.0307 13.7405C19.0307 16.5552 16.5474 18.4534 14.9846 18.9894C14.8823 19.0262 14.7596 19.0425 14.6328 19.0425ZM12.8163 11.7604C11.7322 11.7604 10.8485 12.6482 10.8485 13.7405C10.8485 16.5347 13.5364 18.0893 14.4814 18.4125C14.5551 18.4371 14.7146 18.4371 14.7883 18.4125C15.7292 18.0893 18.4211 16.5388 18.4211 13.7405C18.4211 12.6482 17.5375 11.7604 16.4533 11.7604C15.8315 11.7604 15.2546 12.0509 14.8823 12.5541C14.7678 12.7095 14.506 12.7095 14.3914 12.5541C14.0109 12.0468 13.4382 11.7604 12.8163 11.7604Z" fill="white"/>
</g>
<path d="M170.407 116.921H0.406738V117.653H170.407V116.921Z" fill="#DEDEDE"/>
<path d="M10.4402 142.935L8.62482 136.389H9.66353L10.9387 141.458H10.9995L12.3258 136.389H13.3549L14.6813 141.461H14.742L16.014 136.389H17.0559L15.2374 142.935H14.2434L12.8659 138.032H12.8148L11.4373 142.935H10.4402ZM19.5121 143.034C19.0284 143.034 18.6119 142.931 18.2624 142.724C17.9151 142.515 17.6467 142.222 17.457 141.845C17.2695 141.466 17.1758 141.021 17.1758 140.512C17.1758 140.009 17.2695 139.566 17.457 139.183C17.6467 138.799 17.9109 138.5 18.2496 138.285C18.5906 138.069 18.989 137.962 19.445 137.962C19.7219 137.962 19.9904 138.008 20.2504 138.099C20.5103 138.191 20.7436 138.335 20.9503 138.531C21.157 138.727 21.32 138.981 21.4393 139.295C21.5586 139.606 21.6183 139.984 21.6183 140.429V140.768H17.7159V140.052H20.6818C20.6818 139.801 20.6307 139.578 20.5284 139.384C20.4261 139.188 20.2823 139.034 20.0969 138.921C19.9137 138.808 19.6985 138.751 19.4513 138.751C19.1829 138.751 18.9485 138.817 18.7482 138.949C18.5501 139.079 18.3967 139.25 18.288 139.461C18.1815 139.67 18.1282 139.896 18.1282 140.141V140.701C18.1282 141.029 18.1857 141.308 18.3008 141.538C18.418 141.768 18.581 141.944 18.7898 142.065C18.9986 142.185 19.2425 142.244 19.5217 142.244C19.7028 142.244 19.8679 142.219 20.017 142.168C20.1662 142.115 20.2951 142.036 20.4038 141.931C20.5124 141.827 20.5955 141.698 20.6531 141.545L21.5575 141.708C21.4851 141.974 21.3551 142.207 21.1676 142.407C20.9822 142.606 20.7489 142.76 20.4677 142.871C20.1886 142.98 19.87 143.034 19.5121 143.034ZM22.7552 142.935V136.389H23.7108V138.822H23.7684C23.8238 138.719 23.9037 138.601 24.0081 138.467C24.1125 138.333 24.2574 138.215 24.4427 138.115C24.6281 138.013 24.8731 137.962 25.1778 137.962C25.5741 137.962 25.9278 138.062 26.2389 138.262C26.55 138.463 26.7939 138.751 26.9708 139.128C27.1498 139.505 27.2393 139.959 27.2393 140.49C27.2393 141.02 27.1508 141.475 26.974 141.855C26.7971 142.232 26.5542 142.523 26.2453 142.727C25.9363 142.929 25.5837 143.031 25.1874 143.031C24.8891 143.031 24.6452 142.981 24.4555 142.88C24.268 142.78 24.121 142.663 24.0145 142.529C23.9079 142.395 23.8259 142.275 23.7684 142.171H23.6885V142.935H22.7552ZM23.6917 140.48C23.6917 140.825 23.7417 141.128 23.8419 141.388C23.942 141.648 24.0869 141.851 24.2765 141.998C24.4662 142.143 24.6984 142.216 24.9733 142.216C25.2588 142.216 25.4974 142.14 25.6892 141.989C25.8809 141.835 26.0258 141.628 26.1238 141.366C26.224 141.103 26.2741 140.808 26.2741 140.48C26.2741 140.156 26.2251 139.866 26.127 139.608C26.0312 139.35 25.8863 139.146 25.6924 138.997C25.5006 138.848 25.2609 138.774 24.9733 138.774C24.6963 138.774 24.4619 138.845 24.2702 138.988C24.0805 139.13 23.9367 139.33 23.8387 139.585C23.7407 139.841 23.6917 140.139 23.6917 140.48ZM32.8898 142.935H30.7709V136.389H32.9569C33.5983 136.389 34.1491 136.52 34.6093 136.782C35.0695 137.042 35.4221 137.416 35.6672 137.904C35.9143 138.39 36.0379 138.973 36.0379 139.652C36.0379 140.334 35.9133 140.92 35.664 141.41C35.4168 141.9 35.0589 142.277 34.5901 142.542C34.1214 142.804 33.5546 142.935 32.8898 142.935ZM31.7584 142.072H32.8355C33.3341 142.072 33.7485 141.978 34.0787 141.791C34.409 141.601 34.6562 141.327 34.8202 140.969C34.9843 140.609 35.0663 140.17 35.0663 139.652C35.0663 139.139 34.9843 138.703 34.8202 138.345C34.6583 137.987 34.4165 137.716 34.0947 137.53C33.773 137.345 33.3735 137.252 32.8962 137.252H31.7584V142.072ZM39.305 143.034C38.8214 143.034 38.4048 142.931 38.0554 142.724C37.7081 142.515 37.4396 142.222 37.25 141.845C37.0625 141.466 36.9688 141.021 36.9688 140.512C36.9688 140.009 37.0625 139.566 37.25 139.183C37.4396 138.799 37.7038 138.5 38.0426 138.285C38.3835 138.069 38.782 137.962 39.2379 137.962C39.5149 137.962 39.7834 138.008 40.0433 138.099C40.3033 138.191 40.5366 138.335 40.7433 138.531C40.9499 138.727 41.1129 138.981 41.2322 139.295C41.3516 139.606 41.4112 139.984 41.4112 140.429V140.768H37.5089V140.052H40.4748C40.4748 139.801 40.4237 139.578 40.3214 139.384C40.2191 139.188 40.0753 139.034 39.8899 138.921C39.7067 138.808 39.4915 138.751 39.2443 138.751C38.9759 138.751 38.7415 138.817 38.5412 138.949C38.343 139.079 38.1896 139.25 38.081 139.461C37.9744 139.67 37.9212 139.896 37.9212 140.141V140.701C37.9212 141.029 37.9787 141.308 38.0938 141.538C38.2109 141.768 38.3739 141.944 38.5827 142.065C38.7915 142.185 39.0355 142.244 39.3146 142.244C39.4957 142.244 39.6609 142.219 39.81 142.168C39.9592 142.115 40.0881 142.036 40.1967 141.931C40.3054 141.827 40.3885 141.698 40.446 141.545L41.3505 141.708C41.2781 141.974 41.1481 142.207 40.9606 142.407C40.7752 142.606 40.5419 142.76 40.2607 142.871C39.9815 142.98 39.663 143.034 39.305 143.034ZM46.5305 138.026L44.7503 142.935H43.7275L41.9442 138.026H42.9701L44.2133 141.803H44.2645L45.5045 138.026H46.5305ZM49.3773 143.034C48.8936 143.034 48.4771 142.931 48.1277 142.724C47.7804 142.515 47.5119 142.222 47.3223 141.845C47.1348 141.466 47.041 141.021 47.041 140.512C47.041 140.009 47.1348 139.566 47.3223 139.183C47.5119 138.799 47.7761 138.5 48.1149 138.285C48.4558 138.069 48.8542 137.962 49.3102 137.962C49.5872 137.962 49.8556 138.008 50.1156 138.099C50.3755 138.191 50.6088 138.335 50.8155 138.531C51.0222 138.727 51.1852 138.981 51.3045 139.295C51.4238 139.606 51.4835 139.984 51.4835 140.429V140.768H47.5811V140.052H50.5471C50.5471 139.801 50.4959 139.578 50.3936 139.384C50.2914 139.188 50.1475 139.034 49.9622 138.921C49.7789 138.808 49.5637 138.751 49.3166 138.751C49.0481 138.751 48.8137 138.817 48.6135 138.949C48.4153 139.079 48.2619 139.25 48.1532 139.461C48.0467 139.67 47.9934 139.896 47.9934 140.141V140.701C47.9934 141.029 48.051 141.308 48.166 141.538C48.2832 141.768 48.4462 141.944 48.655 142.065C48.8638 142.185 49.1078 142.244 49.3869 142.244C49.568 142.244 49.7331 142.219 49.8823 142.168C50.0314 142.115 50.1603 142.036 50.269 141.931C50.3777 141.827 50.4608 141.698 50.5183 141.545L51.4228 141.708C51.3503 141.974 51.2203 142.207 51.0328 142.407C50.8475 142.606 50.6142 142.76 50.3329 142.871C50.0538 142.98 49.7353 143.034 49.3773 143.034ZM53.4994 136.389V142.935H52.5438V136.389H53.4994ZM56.8528 143.034C56.3926 143.034 55.9909 142.928 55.6479 142.717C55.3049 142.507 55.0385 142.211 54.8489 141.832C54.6593 141.453 54.5645 141.01 54.5645 140.503C54.5645 139.993 54.6593 139.548 54.8489 139.167C55.0385 138.785 55.3049 138.489 55.6479 138.278C55.9909 138.067 56.3926 137.962 56.8528 137.962C57.313 137.962 57.7147 138.067 58.0577 138.278C58.4007 138.489 58.6671 138.785 58.8567 139.167C59.0463 139.548 59.1412 139.993 59.1412 140.503C59.1412 141.01 59.0463 141.453 58.8567 141.832C58.6671 142.211 58.4007 142.507 58.0577 142.717C57.7147 142.928 57.313 143.034 56.8528 143.034ZM56.856 142.232C57.1543 142.232 57.4015 142.153 57.5975 141.995C57.7935 141.838 57.9384 141.628 58.0321 141.366C58.128 141.103 58.176 140.815 58.176 140.499C58.176 140.186 58.128 139.899 58.0321 139.637C57.9384 139.372 57.7935 139.16 57.5975 139.001C57.4015 138.841 57.1543 138.761 56.856 138.761C56.5556 138.761 56.3063 138.841 56.1081 139.001C55.9121 139.16 55.7662 139.372 55.6703 139.637C55.5765 139.899 55.5297 140.186 55.5297 140.499C55.5297 140.815 55.5765 141.103 55.6703 141.366C55.7662 141.628 55.9121 141.838 56.1081 141.995C56.3063 142.153 56.5556 142.232 56.856 142.232ZM60.2078 144.776V138.026H61.1411V138.822H61.221C61.2764 138.719 61.3563 138.601 61.4607 138.467C61.5651 138.333 61.71 138.215 61.8953 138.115C62.0807 138.013 62.3257 137.962 62.6304 137.962C63.0267 137.962 63.3804 138.062 63.6915 138.262C64.0026 138.463 64.2465 138.751 64.4234 139.128C64.6024 139.505 64.6919 139.959 64.6919 140.49C64.6919 141.02 64.6034 141.475 64.4266 141.855C64.2497 142.232 64.0068 142.523 63.6979 142.727C63.3889 142.929 63.0363 143.031 62.64 143.031C62.3417 143.031 62.0977 142.981 61.9081 142.88C61.7206 142.78 61.5736 142.663 61.4671 142.529C61.3605 142.395 61.2785 142.275 61.221 142.171H61.1634V144.776H60.2078ZM61.1443 140.48C61.1443 140.825 61.1943 141.128 61.2945 141.388C61.3946 141.648 61.5395 141.851 61.7291 141.998C61.9188 142.143 62.151 142.216 62.4259 142.216C62.7114 142.216 62.95 142.14 63.1418 141.989C63.3335 141.835 63.4784 141.628 63.5764 141.366C63.6766 141.103 63.7267 140.808 63.7267 140.48C63.7267 140.156 63.6776 139.866 63.5796 139.608C63.4838 139.35 63.3389 139.146 63.145 138.997C62.9532 138.848 62.7135 138.774 62.4259 138.774C62.1489 138.774 61.9145 138.845 61.7227 138.988C61.5331 139.13 61.3893 139.33 61.2913 139.585C61.1933 139.841 61.1443 140.139 61.1443 140.48ZM65.7625 142.935V138.026H66.6798V138.825H66.7405C66.8428 138.554 67.01 138.343 67.2423 138.192C67.4745 138.039 67.7526 137.962 68.0764 137.962C68.4046 137.962 68.6794 138.039 68.901 138.192C69.1247 138.345 69.2899 138.556 69.3964 138.825H69.4475C69.5647 138.563 69.7512 138.354 70.0068 138.198C70.2625 138.041 70.5672 137.962 70.9209 137.962C71.3662 137.962 71.7295 138.101 72.0107 138.38C72.2941 138.66 72.4358 139.08 72.4358 139.643V142.935H71.4802V139.732C71.4802 139.4 71.3896 139.159 71.2085 139.01C71.0274 138.861 70.8112 138.786 70.5597 138.786C70.2487 138.786 70.0068 138.882 69.8343 139.074C69.6617 139.264 69.5754 139.508 69.5754 139.806V142.935H68.623V139.672C68.623 139.405 68.5399 139.191 68.3737 139.029C68.2075 138.867 67.9912 138.786 67.7249 138.786C67.5438 138.786 67.3765 138.834 67.2231 138.93C67.0718 139.024 66.9493 139.155 66.8556 139.323C66.7639 139.492 66.7181 139.687 66.7181 139.908V142.935H65.7625ZM75.8324 143.034C75.3487 143.034 74.9322 142.931 74.5827 142.724C74.2354 142.515 73.967 142.222 73.7773 141.845C73.5898 141.466 73.4961 141.021 73.4961 140.512C73.4961 140.009 73.5898 139.566 73.7773 139.183C73.967 138.799 74.2312 138.5 74.57 138.285C74.9109 138.069 75.3093 137.962 75.7653 137.962C76.0423 137.962 76.3107 138.008 76.5707 138.099C76.8306 138.191 77.0639 138.335 77.2706 138.531C77.4773 138.727 77.6403 138.981 77.7596 139.295C77.8789 139.606 77.9386 139.984 77.9386 140.429V140.768H74.0362V140.052H77.0021C77.0021 139.801 76.951 139.578 76.8487 139.384C76.7464 139.188 76.6026 139.034 76.4173 138.921C76.234 138.808 76.0188 138.751 75.7717 138.751C75.5032 138.751 75.2688 138.817 75.0685 138.949C74.8704 139.079 74.717 139.25 74.6083 139.461C74.5018 139.67 74.4485 139.896 74.4485 140.141V140.701C74.4485 141.029 74.506 141.308 74.6211 141.538C74.7383 141.768 74.9013 141.944 75.1101 142.065C75.3189 142.185 75.5629 142.244 75.842 142.244C76.0231 142.244 76.1882 142.219 76.3374 142.168C76.4865 142.115 76.6154 142.036 76.7241 141.931C76.8327 141.827 76.9158 141.698 76.9734 141.545L77.8778 141.708C77.8054 141.974 77.6754 142.207 77.4879 142.407C77.3026 142.606 77.0692 142.76 76.788 142.871C76.5089 142.98 76.1903 143.034 75.8324 143.034ZM79.9545 140.02V142.935H78.9988V138.026H79.9161V138.825H79.9768C80.0898 138.565 80.2666 138.356 80.5074 138.198C80.7503 138.041 81.056 137.962 81.4246 137.962C81.7591 137.962 82.0521 138.032 82.3035 138.173C82.555 138.311 82.7499 138.518 82.8884 138.793C83.0269 139.068 83.0961 139.407 83.0961 139.812V142.935H82.1405V139.927C82.1405 139.572 82.0479 139.293 81.8625 139.093C81.6771 138.891 81.4225 138.79 81.0986 138.79C80.877 138.79 80.68 138.838 80.5074 138.933C80.3369 139.029 80.2016 139.17 80.1015 139.355C80.0035 139.539 79.9545 139.76 79.9545 140.02ZM86.6693 138.026V138.793H83.9878V138.026H86.6693ZM84.7069 136.85H85.6626V141.493C85.6626 141.679 85.6903 141.818 85.7456 141.912C85.801 142.004 85.8724 142.067 85.9598 142.101C86.0493 142.133 86.1462 142.149 86.2506 142.149C86.3273 142.149 86.3944 142.143 86.452 142.133C86.5095 142.122 86.5542 142.113 86.5862 142.107L86.7588 142.896C86.7034 142.918 86.6246 142.939 86.5223 142.96C86.42 142.984 86.2922 142.997 86.1388 142.999C85.8873 143.003 85.653 142.958 85.4356 142.865C85.2183 142.771 85.0425 142.626 84.9083 142.43C84.7741 142.234 84.7069 141.988 84.7069 141.692V136.85Z" fill="#949494"/>
<rect x="8.26172" y="153.771" width="154.29" height="4.39655" rx="2.19828" fill="#EBEBEB"/>
<rect x="8.26172" y="164.03" width="90.2455" height="4.39655" rx="2.19828" fill="#EBEBEB"/>
<rect x="8.26172" y="180.131" width="39.1405" height="4.39655" rx="2.19828" fill="#EBEBEB"/>
<line x1="8.26172" y1="192.998" x2="162.552" y2="192.998" stroke="#EBEBEB" stroke-width="0.732759"/>
<path d="M10.8697 218.223V210.041H11.3938V218.223H10.8697ZM12.6339 212.496C12.5955 212.172 12.44 211.921 12.1673 211.742C11.8945 211.563 11.56 211.473 11.1637 211.473C10.8739 211.473 10.6204 211.52 10.4031 211.614C10.1879 211.708 10.0195 211.836 9.89808 212.001C9.77876 212.165 9.71911 212.351 9.71911 212.56C9.71911 212.735 9.76065 212.885 9.84375 213.01C9.92898 213.134 10.0376 213.237 10.1697 213.321C10.3018 213.401 10.4403 213.469 10.5852 213.522C10.7301 213.573 10.8633 213.615 10.9847 213.647L11.6495 213.825C11.82 213.87 12.0096 213.932 12.2184 214.011C12.4293 214.09 12.6307 214.197 12.8224 214.334C13.0163 214.468 13.1761 214.64 13.3018 214.851C13.4276 215.062 13.4904 215.321 13.4904 215.628C13.4904 215.982 13.3977 216.301 13.2124 216.587C13.0291 216.872 12.7607 217.099 12.407 217.268C12.0554 217.436 11.6282 217.52 11.1254 217.52C10.6566 217.52 10.2507 217.444 9.90767 217.293C9.56676 217.142 9.2983 216.931 9.10227 216.66C8.90838 216.39 8.79865 216.075 8.77308 215.718H9.59126C9.61257 215.965 9.69567 216.169 9.84055 216.331C9.98757 216.491 10.1729 216.61 10.3967 216.689C10.6225 216.766 10.8654 216.804 11.1254 216.804C11.4279 216.804 11.6996 216.755 11.9403 216.657C12.1811 216.557 12.3718 216.419 12.5124 216.242C12.6531 216.063 12.7234 215.854 12.7234 215.615C12.7234 215.398 12.6626 215.221 12.5412 215.085C12.4197 214.948 12.2599 214.838 12.0618 214.752C11.8636 214.667 11.6495 214.593 11.4194 214.529L10.614 214.298C10.1026 214.151 9.6978 213.942 9.3995 213.669C9.10121 213.396 8.95206 213.039 8.95206 212.598C8.95206 212.232 9.05114 211.912 9.24929 211.639C9.44957 211.365 9.71804 211.151 10.0547 211C10.3935 210.847 10.7717 210.77 11.1893 210.77C11.6112 210.77 11.9862 210.846 12.3143 210.997C12.6424 211.146 12.9023 211.351 13.0941 211.611C13.288 211.871 13.3903 212.166 13.4009 212.496H12.6339ZM16.7623 210.77C17.0308 210.772 17.2993 210.823 17.5677 210.923C17.8362 211.024 18.0812 211.19 18.3028 211.422C18.5244 211.652 18.7023 211.966 18.8366 212.365C18.9708 212.763 19.0379 213.263 19.0379 213.864C19.0379 214.446 18.9825 214.962 18.8717 215.414C18.7631 215.863 18.6054 216.243 18.3987 216.552C18.1942 216.861 17.9449 217.095 17.6508 217.255C17.3589 217.415 17.0287 217.495 16.6601 217.495C16.2936 217.495 15.9665 217.422 15.6789 217.277C15.3934 217.13 15.159 216.927 14.9758 216.667C14.7947 216.405 14.6785 216.101 14.6274 215.756H15.4072C15.4775 216.056 15.6171 216.305 15.8259 216.501C16.0368 216.694 16.3149 216.791 16.6601 216.791C17.165 216.791 17.5635 216.571 17.8554 216.13C18.1494 215.689 18.2964 215.066 18.2964 214.26H18.2453C18.126 214.439 17.9843 214.594 17.8202 214.724C17.6562 214.854 17.474 214.954 17.2737 215.024C17.0734 215.094 16.8604 215.129 16.6345 215.129C16.2595 215.129 15.9154 215.037 15.6022 214.851C15.2911 214.664 15.0418 214.407 14.8543 214.081C14.6689 213.753 14.5763 213.378 14.5763 212.956C14.5763 212.556 14.6657 212.189 14.8447 211.857C15.0258 211.522 15.2794 211.256 15.6054 211.058C15.9335 210.86 16.3192 210.764 16.7623 210.77ZM16.7623 211.473C16.4939 211.473 16.252 211.54 16.0368 211.675C15.8238 211.807 15.6544 211.986 15.5287 212.211C15.4051 212.435 15.3433 212.683 15.3433 212.956C15.3433 213.229 15.403 213.477 15.5223 213.701C15.6437 213.922 15.8089 214.099 16.0177 214.231C16.2286 214.361 16.4683 214.426 16.7368 214.426C16.9392 214.426 17.1278 214.387 17.3025 214.308C17.4772 214.227 17.6295 214.117 17.7595 213.979C17.8916 213.838 17.9949 213.68 18.0695 213.503C18.1441 213.324 18.1814 213.137 18.1814 212.943C18.1814 212.688 18.1196 212.448 17.996 212.224C17.8746 212.001 17.7062 211.819 17.491 211.681C17.278 211.542 17.0351 211.473 16.7623 211.473ZM22.3786 210.77C22.647 210.772 22.9155 210.823 23.1839 210.923C23.4524 211.024 23.6974 211.19 23.919 211.422C24.1406 211.652 24.3185 211.966 24.4528 212.365C24.587 212.763 24.6541 213.263 24.6541 213.864C24.6541 214.446 24.5987 214.962 24.4879 215.414C24.3793 215.863 24.2216 216.243 24.0149 216.552C23.8104 216.861 23.5611 217.095 23.267 217.255C22.9751 217.415 22.6449 217.495 22.2763 217.495C21.9098 217.495 21.5827 217.422 21.2951 217.277C21.0096 217.13 20.7752 216.927 20.592 216.667C20.4109 216.405 20.2947 216.101 20.2436 215.756H21.0234C21.0938 216.056 21.2333 216.305 21.4421 216.501C21.6531 216.694 21.9311 216.791 22.2763 216.791C22.7813 216.791 23.1797 216.571 23.4716 216.13C23.7656 215.689 23.9126 215.066 23.9126 214.26H23.8615C23.7422 214.439 23.6005 214.594 23.4364 214.724C23.2724 214.854 23.0902 214.954 22.8899 215.024C22.6896 215.094 22.4766 215.129 22.2507 215.129C21.8757 215.129 21.5316 215.037 21.2184 214.851C20.9073 214.664 20.658 214.407 20.4705 214.081C20.2852 213.753 20.1925 213.378 20.1925 212.956C20.1925 212.556 20.282 212.189 20.4609 211.857C20.642 211.522 20.8956 211.256 21.2216 211.058C21.5497 210.86 21.9354 210.764 22.3786 210.77ZM22.3786 211.473C22.1101 211.473 21.8683 211.54 21.6531 211.675C21.44 211.807 21.2706 211.986 21.1449 212.211C21.0213 212.435 20.9595 212.683 20.9595 212.956C20.9595 213.229 21.0192 213.477 21.1385 213.701C21.2599 213.922 21.4251 214.099 21.6339 214.231C21.8448 214.361 22.0845 214.426 22.353 214.426C22.5554 214.426 22.744 214.387 22.9187 214.308C23.0934 214.227 23.2457 214.117 23.3757 213.979C23.5078 213.838 23.6112 213.68 23.6857 213.503C23.7603 213.324 23.7976 213.137 23.7976 212.943C23.7976 212.688 23.7358 212.448 23.6122 212.224C23.4908 212.001 23.3224 211.819 23.1072 211.681C22.8942 211.542 22.6513 211.473 22.3786 211.473ZM26.2449 217.456C26.0873 217.456 25.952 217.4 25.839 217.287C25.7261 217.174 25.6697 217.039 25.6697 216.881C25.6697 216.723 25.7261 216.588 25.839 216.475C25.952 216.362 26.0873 216.306 26.2449 216.306C26.4026 216.306 26.5379 216.362 26.6508 216.475C26.7638 216.588 26.8202 216.723 26.8202 216.881C26.8202 216.985 26.7936 217.081 26.7403 217.169C26.6892 217.256 26.6199 217.326 26.5326 217.379C26.4474 217.431 26.3515 217.456 26.2449 217.456ZM30.1832 210.77C30.4517 210.772 30.7202 210.823 30.9886 210.923C31.2571 211.024 31.5021 211.19 31.7237 211.422C31.9453 211.652 32.1232 211.966 32.2575 212.365C32.3917 212.763 32.4588 213.263 32.4588 213.864C32.4588 214.446 32.4034 214.962 32.2926 215.414C32.1839 215.863 32.0263 216.243 31.8196 216.552C31.6151 216.861 31.3658 217.095 31.0717 217.255C30.7798 217.415 30.4496 217.495 30.081 217.495C29.7145 217.495 29.3874 217.422 29.0998 217.277C28.8143 217.13 28.5799 216.927 28.3967 216.667C28.2156 216.405 28.0994 216.101 28.0483 215.756H28.8281C28.8984 216.056 29.038 216.305 29.2468 216.501C29.4577 216.694 29.7358 216.791 30.081 216.791C30.5859 216.791 30.9844 216.571 31.2763 216.13C31.5703 215.689 31.7173 215.066 31.7173 214.26H31.6662C31.5469 214.439 31.4052 214.594 31.2411 214.724C31.0771 214.854 30.8949 214.954 30.6946 215.024C30.4943 215.094 30.2813 215.129 30.0554 215.129C29.6804 215.129 29.3363 215.037 29.0231 214.851C28.712 214.664 28.4627 214.407 28.2752 214.081C28.0898 213.753 27.9972 213.378 27.9972 212.956C27.9972 212.556 28.0866 212.189 28.2656 211.857C28.4467 211.522 28.7003 211.256 29.0263 211.058C29.3544 210.86 29.7401 210.764 30.1832 210.77ZM30.1832 211.473C29.9148 211.473 29.6729 211.54 29.4577 211.675C29.2447 211.807 29.0753 211.986 28.9496 212.211C28.826 212.435 28.7642 212.683 28.7642 212.956C28.7642 213.229 28.8239 213.477 28.9432 213.701C29.0646 213.922 29.2298 214.099 29.4386 214.231C29.6495 214.361 29.8892 214.426 30.1577 214.426C30.3601 214.426 30.5487 214.387 30.7234 214.308C30.8981 214.227 31.0504 214.117 31.1804 213.979C31.3125 213.838 31.4158 213.68 31.4904 213.503C31.565 213.324 31.6023 213.137 31.6023 212.943C31.6023 212.688 31.5405 212.448 31.4169 212.224C31.2955 212.001 31.1271 211.819 30.9119 211.681C30.6989 211.542 30.456 211.473 30.1832 211.473ZM35.7994 210.77C36.0679 210.772 36.3364 210.823 36.6048 210.923C36.8733 211.024 37.1183 211.19 37.3399 211.422C37.5615 211.652 37.7394 211.966 37.8737 212.365C38.0079 212.763 38.075 213.263 38.075 213.864C38.075 214.446 38.0196 214.962 37.9088 215.414C37.8002 215.863 37.6425 216.243 37.4358 216.552C37.2313 216.861 36.982 217.095 36.6879 217.255C36.396 217.415 36.0658 217.495 35.6972 217.495C35.3307 217.495 35.0036 217.422 34.716 217.277C34.4305 217.13 34.1961 216.927 34.0129 216.667C33.8318 216.405 33.7156 216.101 33.6645 215.756H34.4443C34.5146 216.056 34.6542 216.305 34.863 216.501C35.074 216.694 35.352 216.791 35.6972 216.791C36.2021 216.791 36.6006 216.571 36.8925 216.13C37.1865 215.689 37.3335 215.066 37.3335 214.26H37.2824C37.1631 214.439 37.0214 214.594 36.8573 214.724C36.6933 214.854 36.5111 214.954 36.3108 215.024C36.1105 215.094 35.8975 215.129 35.6716 215.129C35.2966 215.129 34.9525 215.037 34.6393 214.851C34.3282 214.664 34.0789 214.407 33.8914 214.081C33.7061 213.753 33.6134 213.378 33.6134 212.956C33.6134 212.556 33.7029 212.189 33.8818 211.857C34.0629 211.522 34.3165 211.256 34.6425 211.058C34.9706 210.86 35.3563 210.764 35.7994 210.77ZM35.7994 211.473C35.531 211.473 35.2892 211.54 35.074 211.675C34.8609 211.807 34.6915 211.986 34.5658 212.211C34.4422 212.435 34.3804 212.683 34.3804 212.956C34.3804 213.229 34.4401 213.477 34.5594 213.701C34.6808 213.922 34.846 214.099 35.0548 214.231C35.2657 214.361 35.5054 214.426 35.7739 214.426C35.9763 214.426 36.1649 214.387 36.3396 214.308C36.5143 214.227 36.6666 214.117 36.7966 213.979C36.9287 213.838 37.032 213.68 37.1066 213.503C37.1812 213.324 37.2185 213.137 37.2185 212.943C37.2185 212.688 37.1567 212.448 37.0331 212.224C36.9117 212.001 36.7433 211.819 36.5281 211.681C36.3151 211.542 36.0722 211.473 35.7994 211.473Z" fill="#949494"/>
<path d="M44.5111 217.632V210.36H44.977V217.632H44.5111ZM46.0792 212.541C46.0451 212.254 45.9069 212.03 45.6645 211.871C45.422 211.712 45.1247 211.632 44.7724 211.632C44.5148 211.632 44.2895 211.674 44.0963 211.757C43.905 211.841 43.7554 211.955 43.6474 212.101C43.5414 212.247 43.4883 212.413 43.4883 212.598C43.4883 212.754 43.5253 212.887 43.5991 212.999C43.6749 213.109 43.7715 213.2 43.8889 213.274C44.0063 213.346 44.1294 213.406 44.2582 213.453C44.387 213.499 44.5054 213.536 44.6133 213.564L45.2042 213.723C45.3558 213.763 45.5243 213.818 45.7099 213.888C45.8974 213.958 46.0764 214.054 46.2468 214.175C46.4192 214.294 46.5612 214.448 46.673 214.635C46.7847 214.823 46.8406 215.053 46.8406 215.325C46.8406 215.64 46.7582 215.924 46.5934 216.178C46.4306 216.432 46.1919 216.633 45.8775 216.783C45.565 216.932 45.1853 217.007 44.7383 217.007C44.3217 217.007 43.9609 216.94 43.6559 216.806C43.3529 216.671 43.1143 216.484 42.94 216.243C42.7677 216.003 42.6701 215.723 42.6474 215.405H43.3747C43.3936 215.625 43.4675 215.807 43.5963 215.95C43.727 216.093 43.8917 216.199 44.0906 216.269C44.2914 216.337 44.5073 216.371 44.7383 216.371C45.0073 216.371 45.2487 216.327 45.4628 216.24C45.6768 216.151 45.8463 216.028 45.9713 215.871C46.0963 215.712 46.1588 215.526 46.1588 215.314C46.1588 215.121 46.1048 214.964 45.9968 214.843C45.8889 214.721 45.7468 214.623 45.5707 214.547C45.3946 214.471 45.2042 214.405 44.9997 214.348L44.2838 214.144C43.8292 214.013 43.4694 213.826 43.2042 213.584C42.9391 213.342 42.8065 213.024 42.8065 212.632C42.8065 212.307 42.8946 212.022 43.0707 211.78C43.2487 211.536 43.4874 211.346 43.7866 211.212C44.0878 211.075 44.4239 211.007 44.7951 211.007C45.1701 211.007 45.5035 211.075 45.7951 211.209C46.0868 211.342 46.3179 211.523 46.4883 211.754C46.6607 211.986 46.7516 212.248 46.7611 212.541H46.0792ZM49.9422 211.087V216.905H49.2376V211.825H49.2035L47.7831 212.769V212.053L49.2376 211.087H49.9422ZM51.6155 216.905V216.394L53.5359 214.291C53.7613 214.045 53.9469 213.831 54.0927 213.649C54.2386 213.466 54.3465 213.293 54.4166 213.132C54.4886 212.969 54.5245 212.799 54.5245 212.621C54.5245 212.416 54.4753 212.239 54.3768 212.09C54.2802 211.94 54.1477 211.825 53.9791 211.743C53.8105 211.662 53.6211 211.621 53.4109 211.621C53.1874 211.621 52.9924 211.667 52.8257 211.76C52.6609 211.851 52.5331 211.979 52.4422 212.144C52.3531 212.308 52.3086 212.502 52.3086 212.723H51.6382C51.6382 212.382 51.7168 212.083 51.874 211.825C52.0312 211.568 52.2452 211.367 52.516 211.223C52.7888 211.079 53.0946 211.007 53.4336 211.007C53.7745 211.007 54.0766 211.079 54.3399 211.223C54.6031 211.367 54.8096 211.561 54.9592 211.806C55.1088 212.05 55.1836 212.322 55.1836 212.621C55.1836 212.835 55.1448 213.044 55.0672 213.249C54.9914 213.451 54.8588 213.678 54.6694 213.928C54.4819 214.176 54.2215 214.479 53.8882 214.837L52.5814 216.235V216.28H55.2859V216.905H51.6155ZM56.1978 215.712V215.132L58.7547 211.087H59.1751V211.985H58.891L56.9592 215.041V215.087H60.4024V215.712H56.1978ZM58.9365 216.905V215.536V215.266V211.087H59.6069V216.905H58.9365ZM61.6936 216.95C61.5534 216.95 61.4332 216.9 61.3328 216.8C61.2324 216.7 61.1822 216.579 61.1822 216.439C61.1822 216.299 61.2324 216.179 61.3328 216.078C61.4332 215.978 61.5534 215.928 61.6936 215.928C61.8337 215.928 61.954 215.978 62.0544 216.078C62.1548 216.179 62.2049 216.299 62.2049 216.439C62.2049 216.532 62.1813 216.617 62.1339 216.695C62.0885 216.772 62.0269 216.835 61.9493 216.882C61.8735 216.928 61.7883 216.95 61.6936 216.95ZM65.1943 211.007C65.4329 211.009 65.6716 211.055 65.9102 211.144C66.1488 211.233 66.3666 211.38 66.5636 211.587C66.7606 211.791 66.9187 212.071 67.038 212.425C67.1574 212.779 67.217 213.223 67.217 213.757C67.217 214.274 67.1678 214.734 67.0693 215.135C66.9727 215.535 66.8325 215.872 66.6488 216.147C66.467 216.421 66.2454 216.629 65.9841 216.772C65.7246 216.914 65.431 216.985 65.1034 216.985C64.7776 216.985 64.4869 216.92 64.2312 216.791C63.9774 216.661 63.7691 216.48 63.6062 216.249C63.4452 216.016 63.342 215.746 63.2966 215.439H63.9897C64.0522 215.706 64.1763 215.927 64.3619 216.101C64.5494 216.273 64.7966 216.36 65.1034 216.36C65.5522 216.36 65.9064 216.164 66.1659 215.772C66.4272 215.379 66.5579 214.825 66.5579 214.11H66.5125C66.4064 214.269 66.2805 214.406 66.1346 214.522C65.9888 214.637 65.8269 214.726 65.6488 214.789C65.4708 214.851 65.2814 214.882 65.0807 214.882C64.7473 214.882 64.4415 214.8 64.163 214.635C63.8865 214.468 63.6649 214.24 63.4983 213.95C63.3335 213.659 63.2511 213.325 63.2511 212.95C63.2511 212.594 63.3307 212.269 63.4897 211.973C63.6507 211.676 63.8761 211.439 64.1659 211.263C64.4575 211.087 64.8004 211.002 65.1943 211.007ZM65.1943 211.632C64.9557 211.632 64.7407 211.692 64.5494 211.811C64.36 211.929 64.2094 212.088 64.0977 212.289C63.9879 212.487 63.9329 212.708 63.9329 212.95C63.9329 213.193 63.986 213.414 64.092 213.612C64.2 213.809 64.3468 213.967 64.5324 214.084C64.7199 214.2 64.9329 214.257 65.1716 214.257C65.3515 214.257 65.5191 214.222 65.6744 214.152C65.8297 214.08 65.9651 213.983 66.0807 213.86C66.1981 213.735 66.2899 213.593 66.3562 213.436C66.4225 213.277 66.4557 213.111 66.4557 212.939C66.4557 212.712 66.4007 212.499 66.2909 212.3C66.1829 212.101 66.0333 211.94 65.842 211.817C65.6526 211.694 65.4367 211.632 65.1943 211.632ZM70.1865 211.007C70.4251 211.009 70.6638 211.055 70.9024 211.144C71.141 211.233 71.3588 211.38 71.5558 211.587C71.7528 211.791 71.9109 212.071 72.0302 212.425C72.1495 212.779 72.2092 213.223 72.2092 213.757C72.2092 214.274 72.16 214.734 72.0615 215.135C71.9649 215.535 71.8247 215.872 71.641 216.147C71.4592 216.421 71.2376 216.629 70.9763 216.772C70.7168 216.914 70.4232 216.985 70.0956 216.985C69.7698 216.985 69.4791 216.92 69.2234 216.791C68.9696 216.661 68.7613 216.48 68.5984 216.249C68.4374 216.016 68.3342 215.746 68.2888 215.439H68.9819C69.0444 215.706 69.1685 215.927 69.3541 216.101C69.5416 216.273 69.7888 216.36 70.0956 216.36C70.5444 216.36 70.8986 216.164 71.1581 215.772C71.4194 215.379 71.5501 214.825 71.5501 214.11H71.5047C71.3986 214.269 71.2727 214.406 71.1268 214.522C70.981 214.637 70.8191 214.726 70.641 214.789C70.463 214.851 70.2736 214.882 70.0728 214.882C69.7395 214.882 69.4336 214.8 69.1552 214.635C68.8787 214.468 68.6571 214.24 68.4905 213.95C68.3257 213.659 68.2433 213.325 68.2433 212.95C68.2433 212.594 68.3228 212.269 68.4819 211.973C68.6429 211.676 68.8683 211.439 69.1581 211.263C69.4497 211.087 69.7925 211.002 70.1865 211.007ZM70.1865 211.632C69.9478 211.632 69.7329 211.692 69.5416 211.811C69.3522 211.929 69.2016 212.088 69.0899 212.289C68.98 212.487 68.9251 212.708 68.9251 212.95C68.9251 213.193 68.9781 213.414 69.0842 213.612C69.1922 213.809 69.3389 213.967 69.5245 214.084C69.712 214.2 69.9251 214.257 70.1638 214.257C70.3437 214.257 70.5113 214.222 70.6666 214.152C70.8219 214.08 70.9573 213.983 71.0728 213.86C71.1903 213.735 71.2821 213.593 71.3484 213.436C71.4147 213.277 71.4478 213.111 71.4478 212.939C71.4478 212.712 71.3929 212.499 71.2831 212.3C71.1751 212.101 71.0255 211.94 70.8342 211.817C70.6448 211.694 70.4289 211.632 70.1865 211.632Z" fill="#C7C7C7"/>
<path d="M42.1929 214.286H47.2951V214.831H42.1929V214.286ZM47.2944 214.286H55.8541V214.831H47.2944V214.286ZM55.7319 214.286H60.8683V214.831H55.7319V214.286ZM60.5913 214.286H62.7959V214.831H60.5913V214.286ZM62.7397 214.286H72.7206V214.831H62.7397V214.286Z" fill="#C7C7C7"/>
<path d="M114.41 210.368L115.144 211.834C115.244 212.038 115.51 212.234 115.735 212.272L117.065 212.493C117.915 212.634 118.115 213.251 117.502 213.859L116.469 214.893C116.294 215.068 116.198 215.405 116.252 215.647L116.548 216.926C116.781 217.938 116.244 218.33 115.348 217.801L114.102 217.063C113.877 216.93 113.506 216.93 113.277 217.063L112.031 217.801C111.14 218.33 110.598 217.934 110.831 216.926L111.127 215.647C111.181 215.405 111.085 215.068 110.91 214.893L109.877 213.859C109.269 213.251 109.465 212.634 110.315 212.493L111.644 212.272C111.865 212.234 112.131 212.038 112.231 211.834L112.965 210.368C113.365 209.572 114.015 209.572 114.41 210.368Z" fill="#C7C7C7"/>
<path d="M122.145 216.063V215.411L125.022 210.86H125.495V211.87H125.175L123.002 215.308V215.36H126.875V216.063H122.145ZM125.226 217.405V215.865V215.561V210.86H125.98V217.405H125.226ZM128.328 217.456C128.17 217.456 128.035 217.4 127.922 217.287C127.809 217.174 127.753 217.039 127.753 216.881C127.753 216.723 127.809 216.588 127.922 216.475C128.035 216.362 128.17 216.306 128.328 216.306C128.486 216.306 128.621 216.362 128.734 216.475C128.847 216.588 128.903 216.723 128.903 216.881C128.903 216.985 128.877 217.081 128.823 217.169C128.772 217.256 128.703 217.326 128.616 217.379C128.53 217.431 128.434 217.456 128.328 217.456ZM132.266 210.77C132.535 210.772 132.803 210.823 133.072 210.923C133.34 211.024 133.585 211.19 133.807 211.422C134.028 211.652 134.206 211.966 134.34 212.365C134.475 212.763 134.542 213.263 134.542 213.864C134.542 214.446 134.486 214.962 134.376 215.414C134.267 215.863 134.109 216.243 133.903 216.552C133.698 216.861 133.449 217.095 133.155 217.255C132.863 217.415 132.533 217.495 132.164 217.495C131.797 217.495 131.47 217.422 131.183 217.277C130.897 217.13 130.663 216.927 130.48 216.667C130.299 216.405 130.182 216.101 130.131 215.756H130.911C130.981 216.056 131.121 216.305 131.33 216.501C131.541 216.694 131.819 216.791 132.164 216.791C132.669 216.791 133.067 216.571 133.359 216.13C133.653 215.689 133.8 215.066 133.8 214.26H133.749C133.63 214.439 133.488 214.594 133.324 214.724C133.16 214.854 132.978 214.954 132.778 215.024C132.577 215.094 132.364 215.129 132.138 215.129C131.763 215.129 131.419 215.037 131.106 214.851C130.795 214.664 130.546 214.407 130.358 214.081C130.173 213.753 130.08 213.378 130.08 212.956C130.08 212.556 130.17 212.189 130.349 211.857C130.53 211.522 130.783 211.256 131.109 211.058C131.437 210.86 131.823 210.764 132.266 210.77ZM132.266 211.473C131.998 211.473 131.756 211.54 131.541 211.675C131.328 211.807 131.158 211.986 131.033 212.211C130.909 212.435 130.847 212.683 130.847 212.956C130.847 213.229 130.907 213.477 131.026 213.701C131.148 213.922 131.313 214.099 131.522 214.231C131.733 214.361 131.972 214.426 132.241 214.426C132.443 214.426 132.632 214.387 132.806 214.308C132.981 214.227 133.133 214.117 133.263 213.979C133.396 213.838 133.499 213.68 133.573 213.503C133.648 213.324 133.685 213.137 133.685 212.943C133.685 212.688 133.623 212.448 133.5 212.224C133.378 212.001 133.21 211.819 132.995 211.681C132.782 211.542 132.539 211.473 132.266 211.473Z" fill="#949494"/>
<path d="M139.511 214.132C139.511 213.327 139.615 212.586 139.824 211.911C140.035 211.234 140.336 210.61 140.726 210.041H141.39C141.237 210.252 141.093 210.512 140.959 210.821C140.827 211.128 140.711 211.466 140.61 211.834C140.51 212.201 140.432 212.58 140.374 212.972C140.319 213.364 140.291 213.751 140.291 214.132C140.291 214.639 140.34 215.154 140.438 215.676C140.536 216.198 140.668 216.683 140.834 217.13C141 217.578 141.186 217.942 141.39 218.223H140.726C140.336 217.654 140.035 217.032 139.824 216.357C139.615 215.679 139.511 214.938 139.511 214.132ZM142.491 217.405V216.83L144.651 214.465C144.905 214.188 145.113 213.947 145.277 213.742C145.442 213.536 145.563 213.342 145.642 213.161C145.723 212.977 145.763 212.786 145.763 212.585C145.763 212.355 145.708 212.156 145.597 211.988C145.488 211.819 145.339 211.689 145.15 211.598C144.96 211.506 144.747 211.46 144.51 211.46C144.259 211.46 144.04 211.513 143.852 211.617C143.667 211.719 143.523 211.863 143.421 212.048C143.32 212.234 143.27 212.451 143.27 212.7H142.516C142.516 212.317 142.605 211.98 142.781 211.691C142.958 211.401 143.199 211.175 143.504 211.013C143.811 210.851 144.155 210.77 144.536 210.77C144.92 210.77 145.259 210.851 145.556 211.013C145.852 211.175 146.084 211.393 146.252 211.668C146.421 211.943 146.505 212.249 146.505 212.585C146.505 212.826 146.461 213.062 146.374 213.292C146.288 213.52 146.139 213.774 145.926 214.056C145.715 214.335 145.422 214.676 145.047 215.078L143.577 216.651V216.702H146.62V217.405H142.491ZM150.151 217.495C149.73 217.495 149.353 217.422 149.023 217.277C148.695 217.132 148.434 216.931 148.24 216.673C148.048 216.413 147.944 216.112 147.927 215.769H148.732C148.749 215.98 148.822 216.162 148.95 216.315C149.078 216.466 149.245 216.584 149.451 216.667C149.658 216.75 149.887 216.791 150.139 216.791C150.42 216.791 150.669 216.742 150.886 216.644C151.104 216.546 151.274 216.41 151.398 216.235C151.521 216.061 151.583 215.858 151.583 215.628C151.583 215.387 151.524 215.175 151.404 214.992C151.285 214.807 151.11 214.662 150.88 214.557C150.65 214.453 150.369 214.401 150.036 214.401H149.512V213.698H150.036C150.296 213.698 150.524 213.651 150.72 213.557C150.918 213.463 151.073 213.331 151.184 213.161C151.297 212.99 151.353 212.79 151.353 212.56C151.353 212.338 151.304 212.145 151.206 211.981C151.108 211.817 150.97 211.689 150.791 211.598C150.614 211.506 150.405 211.46 150.164 211.46C149.938 211.46 149.725 211.502 149.525 211.585C149.327 211.666 149.165 211.784 149.039 211.94C148.913 212.093 148.845 212.279 148.835 212.496H148.068C148.08 212.153 148.184 211.852 148.378 211.595C148.572 211.335 148.825 211.132 149.138 210.987C149.454 210.843 149.8 210.77 150.177 210.77C150.582 210.77 150.929 210.852 151.219 211.016C151.509 211.178 151.731 211.392 151.887 211.659C152.042 211.925 152.12 212.213 152.12 212.522C152.12 212.89 152.023 213.204 151.829 213.464C151.638 213.724 151.377 213.904 151.046 214.004V214.056C151.46 214.124 151.782 214.3 152.015 214.583C152.247 214.864 152.363 215.213 152.363 215.628C152.363 215.984 152.266 216.303 152.072 216.587C151.88 216.868 151.618 217.09 151.286 217.252C150.954 217.414 150.575 217.495 150.151 217.495ZM153.517 216.063V215.411L156.393 210.86H156.866V211.87H156.547L154.373 215.308V215.36H158.247V216.063H153.517ZM156.598 217.405V215.865V215.561V210.86H157.352V217.405H156.598ZM161.068 214.132C161.068 214.938 160.963 215.679 160.752 216.357C160.543 217.032 160.244 217.654 159.854 218.223H159.189C159.342 218.012 159.485 217.752 159.617 217.443C159.751 217.137 159.869 216.8 159.969 216.433C160.069 216.065 160.147 215.685 160.202 215.292C160.26 214.898 160.288 214.512 160.288 214.132C160.288 213.625 160.239 213.111 160.141 212.589C160.043 212.067 159.911 211.582 159.745 211.134C159.579 210.687 159.394 210.323 159.189 210.041H159.854C160.244 210.61 160.543 211.234 160.752 211.911C160.963 212.586 161.068 213.327 161.068 214.132Z" fill="#949494"/>
<defs>
<clipPath id="clip0_6508_8209">
<path d="M0.406738 1.28687H170.407V117.287H0.406738V1.28687Z" fill="white"/>
</clipPath>
</defs>
</svg>
