<svg width="170" height="235" viewBox="0 0 170 235" fill="none" xmlns="http://www.w3.org/2000/svg">
<rect width="170" height="234.271" rx="2.9893" fill="white"/>
<g clip-path="url(#clip0_6508_8491)">
<path d="M164.1 89.6713V95.6577H8.96777V85.0936L55.4691 41.1586L109.215 87.8649L136.226 63.2532L164.1 89.6713Z" fill="#EBEBEB"/>
<circle cx="126.448" cy="34.339" r="14.9465" fill="#EBEBEB"/>
<path d="M139.394 22.0304C139.394 17.0529 143.429 13.0179 148.406 13.0179V13.0179C153.383 13.0179 157.418 17.0529 157.418 22.0304V22.0304C157.418 27.0078 153.383 31.0428 148.406 31.0428V31.0428C143.429 31.0428 139.394 27.0078 139.394 22.0304V22.0304Z" fill="#DEDEDE"/>
<path d="M148.406 26.0567C148.276 26.0567 148.151 26.04 148.047 26.0024C146.453 25.4559 143.92 23.5157 143.92 20.6492C143.92 19.1889 145.101 18.0039 146.553 18.0039C147.258 18.0039 147.918 18.2793 148.406 18.7716C148.894 18.2793 149.553 18.0039 150.258 18.0039C151.71 18.0039 152.891 19.193 152.891 20.6492C152.891 23.5198 150.358 25.4559 148.765 26.0024C148.66 26.04 148.535 26.0567 148.406 26.0567ZM146.553 18.6298C145.448 18.6298 144.546 19.5352 144.546 20.6492C144.546 23.499 147.288 25.0845 148.251 25.4141C148.326 25.4392 148.489 25.4392 148.564 25.4141C149.524 25.0845 152.269 23.5032 152.269 20.6492C152.269 19.5352 151.368 18.6298 150.262 18.6298C149.628 18.6298 149.04 18.926 148.66 19.4392C148.543 19.5978 148.276 19.5978 148.16 19.4392C147.772 18.9218 147.187 18.6298 146.553 18.6298Z" fill="white"/>
</g>
<rect x="8.96777" y="8.9679" width="152.064" height="86.6898" rx="2.9893" stroke="#DEDEDE" stroke-width="0.747326"/>
<rect x="8.96777" y="104.625" width="90.9572" height="16.9786" rx="2.00276" fill="#F5F5F5"/>
<path d="M17.1247 116.615L15.3094 110.069H16.3481L17.6233 115.138H17.684L19.0104 110.069H20.0395L21.3659 115.141H21.4266L22.6986 110.069H23.7405L21.922 116.615H20.928L19.5505 111.712H19.4994L18.1219 116.615H17.1247ZM26.1966 116.714C25.713 116.714 25.2964 116.61 24.947 116.404C24.5997 116.195 24.3312 115.902 24.1416 115.525C23.9541 115.146 23.8604 114.701 23.8604 114.192C23.8604 113.689 23.9541 113.246 24.1416 112.863C24.3312 112.479 24.5954 112.18 24.9342 111.965C25.2751 111.749 25.6736 111.642 26.1295 111.642C26.4065 111.642 26.675 111.688 26.9349 111.779C27.1949 111.871 27.4282 112.015 27.6349 112.211C27.8415 112.407 28.0045 112.661 28.1238 112.974C28.2432 113.286 28.3028 113.664 28.3028 114.109V114.448H24.4005V113.732H27.3664C27.3664 113.481 27.3153 113.258 27.213 113.064C27.1107 112.868 26.9669 112.713 26.7815 112.601C26.5983 112.488 26.3831 112.431 26.1359 112.431C25.8675 112.431 25.6331 112.497 25.4328 112.629C25.2346 112.759 25.0812 112.93 24.9726 113.141C24.866 113.349 24.8128 113.576 24.8128 113.821V114.381C24.8128 114.709 24.8703 114.988 24.9854 115.218C25.1025 115.448 25.2655 115.624 25.4743 115.745C25.6831 115.865 25.9271 115.924 26.2062 115.924C26.3873 115.924 26.5525 115.899 26.7016 115.848C26.8508 115.794 26.9797 115.716 27.0883 115.611C27.197 115.507 27.2801 115.378 27.3376 115.224L28.2421 115.387C28.1697 115.654 28.0397 115.887 27.8522 116.087C27.6668 116.286 27.4335 116.44 27.1523 116.551C26.8731 116.659 26.5546 116.714 26.1966 116.714ZM29.4398 116.615V110.069H30.3954V112.501H30.4529C30.5083 112.399 30.5882 112.281 30.6926 112.147C30.7971 112.012 30.9419 111.895 31.1273 111.795C31.3127 111.693 31.5577 111.642 31.8624 111.642C32.2587 111.642 32.6124 111.742 32.9235 111.942C33.2346 112.142 33.4785 112.431 33.6554 112.808C33.8343 113.185 33.9238 113.639 33.9238 114.17C33.9238 114.7 33.8354 115.155 33.6586 115.534C33.4817 115.912 33.2388 116.202 32.9299 116.407C32.6209 116.609 32.2683 116.711 31.872 116.711C31.5737 116.711 31.3297 116.661 31.1401 116.56C30.9526 116.46 30.8056 116.343 30.699 116.209C30.5925 116.075 30.5105 115.955 30.4529 115.851H30.373V116.615H29.4398ZM30.3762 114.16C30.3762 114.505 30.4263 114.808 30.5265 115.068C30.6266 115.328 30.7715 115.531 30.9611 115.678C31.1507 115.823 31.383 115.896 31.6578 115.896C31.9434 115.896 32.182 115.82 32.3738 115.669C32.5655 115.515 32.7104 115.308 32.8084 115.045C32.9086 114.783 32.9586 114.488 32.9586 114.16C32.9586 113.836 32.9096 113.545 32.8116 113.288C32.7157 113.03 32.5708 112.826 32.377 112.677C32.1852 112.528 31.9455 112.454 31.6578 112.454C31.3809 112.454 31.1465 112.525 30.9547 112.668C30.7651 112.81 30.6213 113.01 30.5233 113.265C30.4252 113.521 30.3762 113.819 30.3762 114.16ZM39.5744 116.615H37.4554V110.069H39.6415C40.2828 110.069 40.8336 110.2 41.2939 110.462C41.7541 110.722 42.1067 111.096 42.3517 111.584C42.5989 112.07 42.7225 112.653 42.7225 113.332C42.7225 114.014 42.5978 114.6 42.3485 115.09C42.1014 115.58 41.7434 115.957 41.2747 116.222C40.8059 116.484 40.2392 116.615 39.5744 116.615ZM38.443 115.752H39.5201C40.0186 115.752 40.4331 115.658 40.7633 115.471C41.0936 115.281 41.3407 115.007 41.5048 114.649C41.6689 114.289 41.7509 113.85 41.7509 113.332C41.7509 112.819 41.6689 112.383 41.5048 112.025C41.3429 111.667 41.101 111.396 40.7793 111.21C40.4576 111.025 40.0581 110.932 39.5808 110.932H38.443V115.752ZM45.9896 116.714C45.5059 116.714 45.0894 116.61 44.74 116.404C44.3927 116.195 44.1242 115.902 43.9346 115.525C43.7471 115.146 43.6533 114.701 43.6533 114.192C43.6533 113.689 43.7471 113.246 43.9346 112.863C44.1242 112.479 44.3884 112.18 44.7272 111.965C45.0681 111.749 45.4665 111.642 45.9225 111.642C46.1995 111.642 46.468 111.688 46.7279 111.779C46.9878 111.871 47.2211 112.015 47.4278 112.211C47.6345 112.407 47.7975 112.661 47.9168 112.974C48.0361 113.286 48.0958 113.664 48.0958 114.109V114.448H44.1934V113.732H47.1594C47.1594 113.481 47.1082 113.258 47.0059 113.064C46.9037 112.868 46.7599 112.713 46.5745 112.601C46.3912 112.488 46.176 112.431 45.9289 112.431C45.6604 112.431 45.426 112.497 45.2258 112.629C45.0276 112.759 44.8742 112.93 44.7655 113.141C44.659 113.349 44.6057 113.576 44.6057 113.821V114.381C44.6057 114.709 44.6633 114.988 44.7783 115.218C44.8955 115.448 45.0585 115.624 45.2673 115.745C45.4761 115.865 45.7201 115.924 45.9992 115.924C46.1803 115.924 46.3454 115.899 46.4946 115.848C46.6437 115.794 46.7726 115.716 46.8813 115.611C46.99 115.507 47.0731 115.378 47.1306 115.224L48.0351 115.387C47.9626 115.654 47.8327 115.887 47.6452 116.087C47.4598 116.286 47.2265 116.44 46.9452 116.551C46.6661 116.659 46.3476 116.714 45.9896 116.714ZM53.215 111.706L51.4348 116.615H50.4121L48.6287 111.706H49.6547L50.8979 115.483H50.949L52.1891 111.706H53.215ZM56.0619 116.714C55.5782 116.714 55.1617 116.61 54.8122 116.404C54.4649 116.195 54.1965 115.902 54.0068 115.525C53.8193 115.146 53.7256 114.701 53.7256 114.192C53.7256 113.689 53.8193 113.246 54.0068 112.863C54.1965 112.479 54.4607 112.18 54.7994 111.965C55.1404 111.749 55.5388 111.642 55.9948 111.642C56.2718 111.642 56.5402 111.688 56.8002 111.779C57.0601 111.871 57.2934 112.015 57.5001 112.211C57.7068 112.407 57.8698 112.661 57.9891 112.974C58.1084 113.286 58.1681 113.664 58.1681 114.109V114.448H54.2657V113.732H57.2316C57.2316 113.481 57.1805 113.258 57.0782 113.064C56.9759 112.868 56.8321 112.713 56.6468 112.601C56.4635 112.488 56.2483 112.431 56.0012 112.431C55.7327 112.431 55.4983 112.497 55.298 112.629C55.0999 112.759 54.9465 112.93 54.8378 113.141C54.7313 113.349 54.678 113.576 54.678 113.821V114.381C54.678 114.709 54.7355 114.988 54.8506 115.218C54.9678 115.448 55.1308 115.624 55.3396 115.745C55.5484 115.865 55.7923 115.924 56.0715 115.924C56.2526 115.924 56.4177 115.899 56.5669 115.848C56.716 115.794 56.8449 115.716 56.9536 115.611C57.0622 115.507 57.1453 115.378 57.2029 115.224L58.1073 115.387C58.0349 115.654 57.9049 115.887 57.7174 116.087C57.532 116.286 57.2987 116.44 57.0175 116.551C56.7384 116.659 56.4198 116.714 56.0619 116.714ZM60.1839 110.069V116.615H59.2283V110.069H60.1839ZM63.5374 116.714C63.0771 116.714 62.6755 116.608 62.3325 116.397C61.9894 116.186 61.7231 115.891 61.5335 115.512C61.3438 115.133 61.249 114.69 61.249 114.183C61.249 113.673 61.3438 113.228 61.5335 112.847C61.7231 112.465 61.9894 112.169 62.3325 111.958C62.6755 111.747 63.0771 111.642 63.5374 111.642C63.9976 111.642 64.3992 111.747 64.7423 111.958C65.0853 112.169 65.3517 112.465 65.5413 112.847C65.7309 113.228 65.8257 113.673 65.8257 114.183C65.8257 114.69 65.7309 115.133 65.5413 115.512C65.3517 115.891 65.0853 116.186 64.7423 116.397C64.3992 116.608 63.9976 116.714 63.5374 116.714ZM63.5406 115.912C63.8389 115.912 64.086 115.833 64.282 115.675C64.4781 115.517 64.623 115.308 64.7167 115.045C64.8126 114.783 64.8605 114.495 64.8605 114.179C64.8605 113.866 64.8126 113.579 64.7167 113.316C64.623 113.052 64.4781 112.84 64.282 112.68C64.086 112.521 63.8389 112.441 63.5406 112.441C63.2401 112.441 62.9909 112.521 62.7927 112.68C62.5967 112.84 62.4507 113.052 62.3548 113.316C62.2611 113.579 62.2142 113.866 62.2142 114.179C62.2142 114.495 62.2611 114.783 62.3548 115.045C62.4507 115.308 62.5967 115.517 62.7927 115.675C62.9909 115.833 63.2401 115.912 63.5406 115.912ZM66.8924 118.456V111.706H67.8256V112.501H67.9055C67.9609 112.399 68.0408 112.281 68.1452 112.147C68.2496 112.012 68.3945 111.895 68.5799 111.795C68.7653 111.693 69.0103 111.642 69.315 111.642C69.7113 111.642 70.065 111.742 70.3761 111.942C70.6871 112.142 70.9311 112.431 71.108 112.808C71.2869 113.185 71.3764 113.639 71.3764 114.17C71.3764 114.7 71.288 115.155 71.1112 115.534C70.9343 115.912 70.6914 116.202 70.3825 116.407C70.0735 116.609 69.7209 116.711 69.3246 116.711C69.0263 116.711 68.7823 116.661 68.5927 116.56C68.4052 116.46 68.2582 116.343 68.1516 116.209C68.0451 116.075 67.9631 115.955 67.9055 115.851H67.848V118.456H66.8924ZM67.8288 114.16C67.8288 114.505 67.8789 114.808 67.979 115.068C68.0792 115.328 68.2241 115.531 68.4137 115.678C68.6033 115.823 68.8356 115.896 69.1104 115.896C69.396 115.896 69.6346 115.82 69.8263 115.669C70.0181 115.515 70.163 115.308 70.261 115.045C70.3612 114.783 70.4112 114.488 70.4112 114.16C70.4112 113.836 70.3622 113.545 70.2642 113.288C70.1683 113.03 70.0234 112.826 69.8295 112.677C69.6378 112.528 69.3981 112.454 69.1104 112.454C68.8335 112.454 68.5991 112.525 68.4073 112.668C68.2177 112.81 68.0739 113.01 67.9759 113.265C67.8778 113.521 67.8288 113.819 67.8288 114.16ZM72.4471 116.615V111.706H73.3643V112.505H73.4251C73.5273 112.234 73.6946 112.023 73.9268 111.872C74.1591 111.718 74.4371 111.642 74.761 111.642C75.0891 111.642 75.364 111.718 75.5856 111.872C75.8093 112.025 75.9744 112.236 76.081 112.505H76.1321C76.2493 112.243 76.4357 112.034 76.6914 111.878C76.9471 111.721 77.2518 111.642 77.6055 111.642C78.0508 111.642 78.4141 111.781 78.6953 112.06C78.9787 112.34 79.1204 112.76 79.1204 113.323V116.615H78.1648V113.412C78.1648 113.08 78.0742 112.839 77.8931 112.69C77.712 112.541 77.4957 112.466 77.2443 112.466C76.9332 112.466 76.6914 112.562 76.5188 112.754C76.3462 112.944 76.2599 113.188 76.2599 113.486V116.615H75.3075V113.352C75.3075 113.085 75.2244 112.871 75.0582 112.709C74.892 112.547 74.6758 112.466 74.4094 112.466C74.2283 112.466 74.0611 112.514 73.9077 112.61C73.7564 112.704 73.6339 112.835 73.5401 113.003C73.4485 113.172 73.4027 113.367 73.4027 113.588V116.615H72.4471ZM82.517 116.714C82.0333 116.714 81.6167 116.61 81.2673 116.404C80.92 116.195 80.6515 115.902 80.4619 115.525C80.2744 115.146 80.1807 114.701 80.1807 114.192C80.1807 113.689 80.2744 113.246 80.4619 112.863C80.6515 112.479 80.9157 112.18 81.2545 111.965C81.5954 111.749 81.9939 111.642 82.4498 111.642C82.7268 111.642 82.9953 111.688 83.2552 111.779C83.5152 111.871 83.7485 112.015 83.9552 112.211C84.1618 112.407 84.3248 112.661 84.4442 112.974C84.5635 113.286 84.6231 113.664 84.6231 114.109V114.448H80.7208V113.732H83.6867C83.6867 113.481 83.6356 113.258 83.5333 113.064C83.431 112.868 83.2872 112.713 83.1018 112.601C82.9186 112.488 82.7034 112.431 82.4562 112.431C82.1878 112.431 81.9534 112.497 81.7531 112.629C81.555 112.759 81.4015 112.93 81.2929 113.141C81.1863 113.349 81.1331 113.576 81.1331 113.821V114.381C81.1331 114.709 81.1906 114.988 81.3057 115.218C81.4229 115.448 81.5858 115.624 81.7947 115.745C82.0035 115.865 82.2474 115.924 82.5265 115.924C82.7077 115.924 82.8728 115.899 83.0219 115.848C83.1711 115.794 83.3 115.716 83.4086 115.611C83.5173 115.507 83.6004 115.378 83.6579 115.224L84.5624 115.387C84.49 115.654 84.36 115.887 84.1725 116.087C83.9871 116.286 83.7538 116.44 83.4726 116.551C83.1934 116.659 82.8749 116.714 82.517 116.714ZM86.639 113.7V116.615H85.6834V111.706H86.6007V112.505H86.6614C86.7743 112.245 86.9512 112.036 87.1919 111.878C87.4348 111.721 87.7406 111.642 88.1092 111.642C88.4437 111.642 88.7367 111.712 88.9881 111.853C89.2395 111.991 89.4345 112.198 89.573 112.473C89.7115 112.748 89.7807 113.087 89.7807 113.492V116.615H88.8251V113.607C88.8251 113.251 88.7324 112.973 88.5471 112.773C88.3617 112.571 88.1071 112.47 87.7832 112.47C87.5616 112.47 87.3645 112.517 87.1919 112.613C87.0215 112.709 86.8862 112.85 86.786 113.035C86.688 113.218 86.639 113.44 86.639 113.7ZM93.3539 111.706V112.473H90.6724V111.706H93.3539ZM91.3915 110.53H92.3471V115.173C92.3471 115.359 92.3748 115.498 92.4302 115.592C92.4856 115.684 92.557 115.746 92.6444 115.781C92.7338 115.813 92.8308 115.829 92.9352 115.829C93.0119 115.829 93.079 115.823 93.1365 115.813C93.1941 115.802 93.2388 115.793 93.2708 115.787L93.4434 116.576C93.388 116.598 93.3091 116.619 93.2069 116.64C93.1046 116.664 92.9767 116.677 92.8233 116.679C92.5719 116.683 92.3375 116.638 92.1202 116.544C91.9029 116.451 91.7271 116.306 91.5929 116.11C91.4586 115.914 91.3915 115.668 91.3915 115.371V110.53Z" fill="#949494"/>
<path d="M11.5757 141.9V133.718H12.0999V141.9H11.5757ZM13.3399 136.173C13.3016 135.849 13.146 135.597 12.8733 135.418C12.6006 135.239 12.2661 135.15 11.8698 135.15C11.58 135.15 11.3264 135.197 11.1091 135.291C10.8939 135.384 10.7256 135.513 10.6041 135.677C10.4848 135.841 10.4252 136.028 10.4252 136.237C10.4252 136.411 10.4667 136.562 10.5498 136.687C10.635 136.811 10.7437 136.914 10.8758 136.997C11.0079 137.078 11.1464 137.145 11.2913 137.199C11.4362 137.25 11.5693 137.291 11.6908 137.323L12.3556 137.502C12.526 137.547 12.7156 137.609 12.9244 137.688C13.1354 137.766 13.3367 137.874 13.5285 138.01C13.7224 138.145 13.8822 138.317 14.0079 138.528C14.1336 138.739 14.1965 138.998 14.1965 139.305C14.1965 139.658 14.1038 139.978 13.9184 140.264C13.7352 140.549 13.4667 140.776 13.113 140.944C12.7615 141.113 12.3343 141.197 11.8314 141.197C11.3627 141.197 10.9568 141.121 10.6137 140.97C10.2728 140.819 10.0044 140.608 9.80833 140.337C9.61444 140.067 9.50471 139.752 9.47914 139.394H10.2973C10.3186 139.641 10.4017 139.846 10.5466 140.008C10.6936 140.168 10.879 140.287 11.1027 140.366C11.3286 140.443 11.5715 140.481 11.8314 140.481C12.134 140.481 12.4056 140.432 12.6464 140.334C12.8872 140.234 13.0779 140.095 13.2185 139.918C13.3591 139.739 13.4294 139.531 13.4294 139.292C13.4294 139.075 13.3687 138.898 13.2472 138.761C13.1258 138.625 12.966 138.514 12.7678 138.429C12.5697 138.344 12.3556 138.269 12.1254 138.205L11.32 137.975C10.8087 137.828 10.4039 137.618 10.1056 137.346C9.80726 137.073 9.65811 136.716 9.65811 136.275C9.65811 135.908 9.75719 135.589 9.95534 135.316C10.1556 135.041 10.4241 134.828 10.7607 134.677C11.0995 134.524 11.4777 134.447 11.8953 134.447C12.3172 134.447 12.6922 134.522 13.0203 134.674C13.3485 134.823 13.6084 135.027 13.8002 135.287C13.9941 135.547 14.0963 135.842 14.107 136.173H13.3399ZM17.4684 134.447C17.7369 134.449 18.0053 134.5 18.2738 134.6C18.5423 134.7 18.7873 134.867 19.0089 135.099C19.2305 135.329 19.4084 135.643 19.5426 136.042C19.6768 136.44 19.744 136.94 19.744 137.541C19.744 138.122 19.6886 138.639 19.5778 139.091C19.4691 139.54 19.3114 139.92 19.1048 140.228C18.9002 140.537 18.6509 140.772 18.3569 140.932C18.065 141.091 17.7347 141.171 17.3661 141.171C16.9996 141.171 16.6726 141.099 16.3849 140.954C16.0994 140.807 15.8651 140.603 15.6818 140.344C15.5007 140.081 15.3846 139.778 15.3335 139.433H16.1133C16.1836 139.733 16.3232 139.981 16.532 140.177C16.7429 140.371 17.021 140.468 17.3661 140.468C17.8711 140.468 18.2695 140.248 18.5614 139.807C18.8555 139.366 19.0025 138.742 19.0025 137.937H18.9513C18.832 138.116 18.6903 138.27 18.5263 138.4C18.3622 138.53 18.18 138.63 17.9798 138.701C17.7795 138.771 17.5664 138.806 17.3406 138.806C16.9656 138.806 16.6214 138.714 16.3082 138.528C15.9972 138.341 15.7479 138.084 15.5604 137.758C15.375 137.43 15.2823 137.055 15.2823 136.633C15.2823 136.232 15.3718 135.866 15.5508 135.533C15.7319 135.199 15.9854 134.933 16.3114 134.734C16.6396 134.536 17.0252 134.44 17.4684 134.447ZM17.4684 135.15C17.1999 135.15 16.9581 135.217 16.7429 135.351C16.5298 135.483 16.3604 135.662 16.2347 135.888C16.1112 136.112 16.0494 136.36 16.0494 136.633C16.0494 136.906 16.109 137.154 16.2283 137.378C16.3498 137.599 16.5149 137.776 16.7237 137.908C16.9347 138.038 17.1744 138.103 17.4428 138.103C17.6452 138.103 17.8338 138.064 18.0085 137.985C18.1832 137.904 18.3356 137.794 18.4656 137.656C18.5977 137.515 18.701 137.356 18.7756 137.179C18.8501 137 18.8874 136.814 18.8874 136.62C18.8874 136.364 18.8256 136.125 18.7021 135.901C18.5806 135.677 18.4123 135.496 18.1971 135.358C17.984 135.219 17.7411 135.15 17.4684 135.15ZM23.0846 134.447C23.3531 134.449 23.6215 134.5 23.89 134.6C24.1585 134.7 24.4035 134.867 24.6251 135.099C24.8467 135.329 25.0246 135.643 25.1588 136.042C25.2931 136.44 25.3602 136.94 25.3602 137.541C25.3602 138.122 25.3048 138.639 25.194 139.091C25.0853 139.54 24.9276 139.92 24.721 140.228C24.5164 140.537 24.2671 140.772 23.9731 140.932C23.6812 141.091 23.3509 141.171 22.9823 141.171C22.6159 141.171 22.2888 141.099 22.0012 140.954C21.7156 140.807 21.4813 140.603 21.298 140.344C21.1169 140.081 21.0008 139.778 20.9497 139.433H21.7295C21.7998 139.733 21.9394 139.981 22.1482 140.177C22.3591 140.371 22.6372 140.468 22.9823 140.468C23.4873 140.468 23.8857 140.248 24.1776 139.807C24.4717 139.366 24.6187 138.742 24.6187 137.937H24.5676C24.4482 138.116 24.3066 138.27 24.1425 138.4C23.9784 138.53 23.7963 138.63 23.596 138.701C23.3957 138.771 23.1826 138.806 22.9568 138.806C22.5818 138.806 22.2377 138.714 21.9244 138.528C21.6134 138.341 21.3641 138.084 21.1766 137.758C20.9912 137.43 20.8985 137.055 20.8985 136.633C20.8985 136.232 20.988 135.866 21.167 135.533C21.3481 135.199 21.6017 134.933 21.9276 134.734C22.2558 134.536 22.6414 134.44 23.0846 134.447ZM23.0846 135.15C22.8161 135.15 22.5743 135.217 22.3591 135.351C22.146 135.483 21.9767 135.662 21.8509 135.888C21.7274 136.112 21.6656 136.36 21.6656 136.633C21.6656 136.906 21.7252 137.154 21.8445 137.378C21.966 137.599 22.1311 137.776 22.3399 137.908C22.5509 138.038 22.7906 138.103 23.059 138.103C23.2615 138.103 23.45 138.064 23.6247 137.985C23.7994 137.904 23.9518 137.794 24.0818 137.656C24.2139 137.515 24.3172 137.356 24.3918 137.179C24.4664 137 24.5036 136.814 24.5036 136.62C24.5036 136.364 24.4419 136.125 24.3183 135.901C24.1968 135.677 24.0285 135.496 23.8133 135.358C23.6002 135.219 23.3573 135.15 23.0846 135.15ZM26.951 141.133C26.7933 141.133 26.658 141.076 26.5451 140.964C26.4322 140.851 26.3757 140.715 26.3757 140.558C26.3757 140.4 26.4322 140.265 26.5451 140.152C26.658 140.039 26.7933 139.982 26.951 139.982C27.1087 139.982 27.244 140.039 27.3569 140.152C27.4698 140.265 27.5263 140.4 27.5263 140.558C27.5263 140.662 27.4996 140.758 27.4464 140.845C27.3952 140.933 27.326 141.003 27.2386 141.056C27.1534 141.107 27.0575 141.133 26.951 141.133ZM30.8893 134.447C31.1578 134.449 31.4262 134.5 31.6947 134.6C31.9632 134.7 32.2082 134.867 32.4298 135.099C32.6514 135.329 32.8293 135.643 32.9635 136.042C33.0977 136.44 33.1649 136.94 33.1649 137.541C33.1649 138.122 33.1095 138.639 32.9987 139.091C32.89 139.54 32.7323 139.92 32.5257 140.228C32.3211 140.537 32.0718 140.772 31.7778 140.932C31.4859 141.091 31.1556 141.171 30.787 141.171C30.4205 141.171 30.0935 141.099 29.8058 140.954C29.5203 140.807 29.286 140.603 29.1027 140.344C28.9216 140.081 28.8055 139.778 28.7544 139.433H29.5342C29.6045 139.733 29.7441 139.981 29.9529 140.177C30.1638 140.371 30.4419 140.468 30.787 140.468C31.292 140.468 31.6904 140.248 31.9823 139.807C32.2764 139.366 32.4234 138.742 32.4234 137.937H32.3722C32.2529 138.116 32.1112 138.27 31.9472 138.4C31.7831 138.53 31.6009 138.63 31.4007 138.701C31.2004 138.771 30.9873 138.806 30.7615 138.806C30.3865 138.806 30.0423 138.714 29.7291 138.528C29.4181 138.341 29.1688 138.084 28.9813 137.758C28.7959 137.43 28.7032 137.055 28.7032 136.633C28.7032 136.232 28.7927 135.866 28.9717 135.533C29.1528 135.199 29.4063 134.933 29.7323 134.734C30.0605 134.536 30.4461 134.44 30.8893 134.447ZM30.8893 135.15C30.6208 135.15 30.379 135.217 30.1638 135.351C29.9507 135.483 29.7813 135.662 29.6556 135.888C29.532 136.112 29.4703 136.36 29.4703 136.633C29.4703 136.906 29.5299 137.154 29.6492 137.378C29.7707 137.599 29.9358 137.776 30.1446 137.908C30.3556 138.038 30.5953 138.103 30.8637 138.103C31.0661 138.103 31.2547 138.064 31.4294 137.985C31.6041 137.904 31.7565 137.794 31.8865 137.656C32.0186 137.515 32.1219 137.356 32.1965 137.179C32.271 137 32.3083 136.814 32.3083 136.62C32.3083 136.364 32.2465 136.125 32.123 135.901C32.0015 135.677 31.8332 135.496 31.618 135.358C31.4049 135.219 31.162 135.15 30.8893 135.15ZM36.5055 134.447C36.774 134.449 37.0424 134.5 37.3109 134.6C37.5794 134.7 37.8244 134.867 38.046 135.099C38.2676 135.329 38.4455 135.643 38.5797 136.042C38.714 136.44 38.7811 136.94 38.7811 137.541C38.7811 138.122 38.7257 138.639 38.6149 139.091C38.5062 139.54 38.3485 139.92 38.1419 140.228C37.9373 140.537 37.688 140.772 37.394 140.932C37.1021 141.091 36.7718 141.171 36.4032 141.171C36.0368 141.171 35.7097 141.099 35.4221 140.954C35.1365 140.807 34.9022 140.603 34.7189 140.344C34.5378 140.081 34.4217 139.778 34.3706 139.433H35.1504C35.2207 139.733 35.3603 139.981 35.5691 140.177C35.78 140.371 36.0581 140.468 36.4032 140.468C36.9082 140.468 37.3066 140.248 37.5985 139.807C37.8926 139.366 38.0396 138.742 38.0396 137.937H37.9885C37.8691 138.116 37.7275 138.27 37.5634 138.4C37.3993 138.53 37.2172 138.63 37.0169 138.701C36.8166 138.771 36.6035 138.806 36.3777 138.806C36.0027 138.806 35.6586 138.714 35.3453 138.528C35.0343 138.341 34.785 138.084 34.5975 137.758C34.4121 137.43 34.3194 137.055 34.3194 136.633C34.3194 136.232 34.4089 135.866 34.5879 135.533C34.769 135.199 35.0225 134.933 35.3485 134.734C35.6767 134.536 36.0623 134.44 36.5055 134.447ZM36.5055 135.15C36.237 135.15 35.9952 135.217 35.78 135.351C35.5669 135.483 35.3975 135.662 35.2718 135.888C35.1483 136.112 35.0865 136.36 35.0865 136.633C35.0865 136.906 35.1461 137.154 35.2654 137.378C35.3869 137.599 35.552 137.776 35.7608 137.908C35.9718 138.038 36.2115 138.103 36.4799 138.103C36.6824 138.103 36.8709 138.064 37.0456 137.985C37.2203 137.904 37.3727 137.794 37.5027 137.656C37.6348 137.515 37.7381 137.356 37.8127 137.179C37.8873 137 37.9245 136.814 37.9245 136.62C37.9245 136.364 37.8627 136.125 37.7392 135.901C37.6177 135.677 37.4494 135.496 37.2342 135.358C37.0211 135.219 36.7782 135.15 36.5055 135.15Z" fill="#949494"/>
<path d="M45.2752 141.309V134.036H45.7411V141.309H45.2752ZM46.8434 136.218C46.8093 135.93 46.671 135.707 46.4286 135.548C46.1862 135.389 45.8888 135.309 45.5366 135.309C45.279 135.309 45.0536 135.351 44.8604 135.434C44.6692 135.517 44.5195 135.632 44.4116 135.778C44.3055 135.924 44.2525 136.089 44.2525 136.275C44.2525 136.43 44.2894 136.564 44.3633 136.676C44.439 136.785 44.5356 136.877 44.6531 136.951C44.7705 137.023 44.8936 137.083 45.0224 137.13C45.1512 137.176 45.2695 137.212 45.3775 137.241L45.9684 137.4C46.1199 137.44 46.2885 137.495 46.4741 137.565C46.6616 137.635 46.8406 137.73 47.011 137.852C47.1834 137.971 47.3254 138.124 47.4371 138.312C47.5489 138.499 47.6048 138.73 47.6048 139.002C47.6048 139.317 47.5224 139.601 47.3576 139.855C47.1947 140.108 46.9561 140.31 46.6417 140.46C46.3292 140.609 45.9495 140.684 45.5025 140.684C45.0858 140.684 44.725 140.617 44.4201 140.482C44.1171 140.348 43.8784 140.16 43.7042 139.92C43.5318 139.679 43.4343 139.4 43.4116 139.082H44.1388C44.1578 139.301 44.2317 139.483 44.3604 139.627C44.4911 139.769 44.6559 139.875 44.8548 139.945C45.0555 140.014 45.2714 140.048 45.5025 140.048C45.7714 140.048 46.0129 140.004 46.2269 139.917C46.4409 139.828 46.6104 139.705 46.7354 139.548C46.8604 139.389 46.9229 139.203 46.9229 138.991C46.9229 138.798 46.869 138.64 46.761 138.519C46.6531 138.398 46.511 138.3 46.3349 138.224C46.1587 138.148 45.9684 138.082 45.7638 138.025L45.0479 137.82C44.5934 137.69 44.2335 137.503 43.9684 137.261C43.7032 137.018 43.5707 136.701 43.5707 136.309C43.5707 135.983 43.6587 135.699 43.8349 135.457C44.0129 135.212 44.2515 135.023 44.5508 134.889C44.8519 134.752 45.1881 134.684 45.5593 134.684C45.9343 134.684 46.2676 134.751 46.5593 134.886C46.851 135.018 47.082 135.2 47.2525 135.431C47.4248 135.662 47.5157 135.925 47.5252 136.218H46.8434ZM50.7063 134.764V140.582H50.0018V135.502H49.9677L48.5472 136.445V135.73L50.0018 134.764H50.7063ZM52.3796 140.582V140.07L54.3001 137.968C54.5254 137.722 54.7111 137.508 54.8569 137.326C55.0027 137.142 55.1107 136.97 55.1808 136.809C55.2527 136.646 55.2887 136.476 55.2887 136.298C55.2887 136.093 55.2395 135.916 55.141 135.766C55.0444 135.617 54.9118 135.501 54.7433 135.42C54.5747 135.338 54.3853 135.298 54.1751 135.298C53.9516 135.298 53.7565 135.344 53.5898 135.437C53.4251 135.528 53.2972 135.656 53.2063 135.82C53.1173 135.985 53.0728 136.178 53.0728 136.4H52.4023C52.4023 136.059 52.4809 135.76 52.6381 135.502C52.7953 135.245 53.0094 135.044 53.2802 134.9C53.5529 134.756 53.8588 134.684 54.1978 134.684C54.5387 134.684 54.8408 134.756 55.104 134.9C55.3673 135.044 55.5737 135.238 55.7234 135.482C55.873 135.727 55.9478 135.998 55.9478 136.298C55.9478 136.512 55.909 136.721 55.8313 136.926C55.7556 137.128 55.623 137.355 55.4336 137.605C55.2461 137.853 54.9857 138.156 54.6523 138.514L53.3455 139.911V139.957H56.0501V140.582H52.3796ZM56.962 139.389V138.809L59.5188 134.764H59.9393V135.661H59.6552L57.7234 138.718V138.764H61.1665V139.389H56.962ZM59.7006 140.582V139.212V138.943V134.764H60.3711V140.582H59.7006ZM62.4577 140.627C62.3176 140.627 62.1973 140.577 62.0969 140.477C61.9966 140.376 61.9464 140.256 61.9464 140.116C61.9464 139.976 61.9966 139.855 62.0969 139.755C62.1973 139.655 62.3176 139.605 62.4577 139.605C62.5979 139.605 62.7182 139.655 62.8185 139.755C62.9189 139.855 62.9691 139.976 62.9691 140.116C62.9691 140.209 62.9454 140.294 62.8981 140.372C62.8526 140.449 62.7911 140.512 62.7134 140.559C62.6377 140.605 62.5524 140.627 62.4577 140.627ZM65.9585 134.684C66.1971 134.686 66.4357 134.731 66.6744 134.82C66.913 134.909 67.1308 135.057 67.3278 135.264C67.5247 135.468 67.6829 135.748 67.8022 136.102C67.9215 136.456 67.9812 136.9 67.9812 137.434C67.9812 137.951 67.9319 138.41 67.8335 138.812C67.7369 139.212 67.5967 139.549 67.413 139.823C67.2312 140.098 67.0096 140.306 66.7482 140.448C66.4888 140.59 66.1952 140.661 65.8675 140.661C65.5418 140.661 65.2511 140.597 64.9954 140.468C64.7416 140.337 64.5333 140.157 64.3704 139.926C64.2094 139.693 64.1062 139.423 64.0607 139.116H64.7539C64.8164 139.383 64.9405 139.604 65.1261 139.778C65.3136 139.95 65.5607 140.036 65.8675 140.036C66.3164 140.036 66.6706 139.84 66.93 139.448C67.1914 139.056 67.3221 138.502 67.3221 137.786H67.2766C67.1706 137.945 67.0446 138.083 66.8988 138.198C66.753 138.314 66.591 138.403 66.413 138.465C66.235 138.528 66.0456 138.559 65.8448 138.559C65.5115 138.559 65.2056 138.477 64.9272 138.312C64.6507 138.145 64.4291 137.917 64.2624 137.627C64.0977 137.336 64.0153 137.002 64.0153 136.627C64.0153 136.271 64.0948 135.945 64.2539 135.65C64.4149 135.353 64.6403 135.116 64.93 134.94C65.2217 134.764 65.5645 134.678 65.9585 134.684ZM65.9585 135.309C65.7198 135.309 65.5049 135.369 65.3136 135.488C65.1242 135.605 64.9736 135.765 64.8619 135.965C64.752 136.164 64.6971 136.385 64.6971 136.627C64.6971 136.87 64.7501 137.09 64.8562 137.289C64.9641 137.486 65.1109 137.643 65.2965 137.761C65.484 137.876 65.6971 137.934 65.9357 137.934C66.1156 137.934 66.2833 137.899 66.4386 137.829C66.5939 137.757 66.7293 137.659 66.8448 137.536C66.9622 137.411 67.0541 137.27 67.1204 137.113C67.1867 136.954 67.2198 136.788 67.2198 136.616C67.2198 136.389 67.1649 136.176 67.055 135.977C66.9471 135.778 66.7975 135.617 66.6062 135.494C66.4168 135.371 66.2009 135.309 65.9585 135.309ZM70.9506 134.684C71.1893 134.686 71.4279 134.731 71.6665 134.82C71.9052 134.909 72.123 135.057 72.32 135.264C72.5169 135.468 72.6751 135.748 72.7944 136.102C72.9137 136.456 72.9734 136.9 72.9734 137.434C72.9734 137.951 72.9241 138.41 72.8256 138.812C72.729 139.212 72.5889 139.549 72.4052 139.823C72.2234 140.098 72.0018 140.306 71.7404 140.448C71.4809 140.59 71.1874 140.661 70.8597 140.661C70.534 140.661 70.2433 140.597 69.9876 140.468C69.7338 140.337 69.5254 140.157 69.3626 139.926C69.2016 139.693 69.0984 139.423 69.0529 139.116H69.7461C69.8086 139.383 69.9326 139.604 70.1183 139.778C70.3058 139.95 70.5529 140.036 70.8597 140.036C71.3086 140.036 71.6628 139.84 71.9222 139.448C72.1836 139.056 72.3143 138.502 72.3143 137.786H72.2688C72.1628 137.945 72.0368 138.083 71.891 138.198C71.7451 138.314 71.5832 138.403 71.4052 138.465C71.2272 138.528 71.0378 138.559 70.837 138.559C70.5037 138.559 70.1978 138.477 69.9194 138.312C69.6429 138.145 69.4213 137.917 69.2546 137.627C69.0898 137.336 69.0075 137.002 69.0075 136.627C69.0075 136.271 69.087 135.945 69.2461 135.65C69.4071 135.353 69.6325 135.116 69.9222 134.94C70.2139 134.764 70.5567 134.678 70.9506 134.684ZM70.9506 135.309C70.712 135.309 70.497 135.369 70.3058 135.488C70.1164 135.605 69.9658 135.765 69.854 135.965C69.7442 136.164 69.6893 136.385 69.6893 136.627C69.6893 136.87 69.7423 137.09 69.8484 137.289C69.9563 137.486 70.1031 137.643 70.2887 137.761C70.4762 137.876 70.6893 137.934 70.9279 137.934C71.1078 137.934 71.2754 137.899 71.4308 137.829C71.5861 137.757 71.7215 137.659 71.837 137.536C71.9544 137.411 72.0463 137.27 72.1126 137.113C72.1789 136.954 72.212 136.788 72.212 136.616C72.212 136.389 72.1571 136.176 72.0472 135.977C71.9393 135.778 71.7897 135.617 71.5984 135.494C71.409 135.371 71.1931 135.309 70.9506 135.309Z" fill="#C7C7C7"/>
<path d="M42.957 137.962H48.0593V138.508H42.957V137.962ZM48.0586 137.962H56.6183V138.508H48.0586V137.962ZM56.4961 137.962H61.6325V138.508H56.4961V137.962ZM61.3555 137.962H63.56V138.508H61.3555V137.962ZM63.5039 137.962H73.4847V138.508H63.5039V137.962Z" fill="#C7C7C7"/>
<path d="M139.764 134.044L140.497 135.511C140.597 135.715 140.864 135.911 141.089 135.948L142.418 136.169C143.268 136.311 143.468 136.928 142.855 137.536L141.822 138.569C141.647 138.744 141.551 139.082 141.605 139.323L141.901 140.603C142.134 141.615 141.597 142.007 140.701 141.478L139.455 140.74C139.23 140.607 138.859 140.607 138.63 140.74L137.384 141.478C136.493 142.007 135.951 141.611 136.184 140.603L136.48 139.323C136.534 139.082 136.439 138.744 136.264 138.569L135.23 137.536C134.622 136.928 134.818 136.311 135.668 136.169L136.997 135.948C137.218 135.911 137.484 135.715 137.584 135.511L138.318 134.044C138.718 133.248 139.368 133.248 139.764 134.044Z" fill="#C7C7C7"/>
<path d="M147.556 139.739V139.087L150.432 134.536H150.905V135.546H150.586L148.412 138.985V139.036H152.286V139.739H147.556ZM150.637 141.082V139.541V139.238V134.536H151.391V141.082H150.637ZM153.739 141.133C153.581 141.133 153.446 141.076 153.333 140.964C153.22 140.851 153.163 140.715 153.163 140.558C153.163 140.4 153.22 140.265 153.333 140.152C153.446 140.039 153.581 139.982 153.739 139.982C153.896 139.982 154.032 140.039 154.144 140.152C154.257 140.265 154.314 140.4 154.314 140.558C154.314 140.662 154.287 140.758 154.234 140.845C154.183 140.933 154.114 141.003 154.026 141.056C153.941 141.107 153.845 141.133 153.739 141.133ZM157.677 134.447C157.945 134.449 158.214 134.5 158.482 134.6C158.751 134.7 158.996 134.867 159.217 135.099C159.439 135.329 159.617 135.643 159.751 136.042C159.885 136.44 159.952 136.94 159.952 137.541C159.952 138.122 159.897 138.639 159.786 139.091C159.678 139.54 159.52 139.92 159.313 140.228C159.109 140.537 158.859 140.772 158.565 140.932C158.273 141.091 157.943 141.171 157.575 141.171C157.208 141.171 156.881 141.099 156.593 140.954C156.308 140.807 156.074 140.603 155.89 140.344C155.709 140.081 155.593 139.778 155.542 139.433H156.322C156.392 139.733 156.532 139.981 156.74 140.177C156.951 140.371 157.229 140.468 157.575 140.468C158.08 140.468 158.478 140.248 158.77 139.807C159.064 139.366 159.211 138.742 159.211 137.937H159.16C159.041 138.116 158.899 138.27 158.735 138.4C158.571 138.53 158.389 138.63 158.188 138.701C157.988 138.771 157.775 138.806 157.549 138.806C157.174 138.806 156.83 138.714 156.517 138.528C156.206 138.341 155.956 138.084 155.769 137.758C155.583 137.43 155.491 137.055 155.491 136.633C155.491 136.232 155.58 135.866 155.759 135.533C155.94 135.199 156.194 134.933 156.52 134.734C156.848 134.536 157.234 134.44 157.677 134.447ZM157.677 135.15C157.408 135.15 157.167 135.217 156.951 135.351C156.738 135.483 156.569 135.662 156.443 135.888C156.32 136.112 156.258 136.36 156.258 136.633C156.258 136.906 156.318 137.154 156.437 137.378C156.558 137.599 156.723 137.776 156.932 137.908C157.143 138.038 157.383 138.103 157.651 138.103C157.854 138.103 158.042 138.064 158.217 137.985C158.392 137.904 158.544 137.794 158.674 137.656C158.806 137.515 158.909 137.356 158.984 137.179C159.059 137 159.096 136.814 159.096 136.62C159.096 136.364 159.034 136.125 158.911 135.901C158.789 135.677 158.621 135.496 158.406 135.358C158.193 135.219 157.95 135.15 157.677 135.15Z" fill="#949494"/>
<rect x="8.96777" y="153.559" width="152.064" height="4.48395" rx="2.24198" fill="#EBEBEB"/>
<rect x="8.96777" y="164.022" width="152.064" height="4.48395" rx="2.24198" fill="#EBEBEB"/>
<rect x="8.96777" y="174.484" width="152.064" height="4.48395" rx="2.24198" fill="#EBEBEB"/>
<rect x="8.96777" y="184.947" width="68.754" height="4.48395" rx="2.24198" fill="#EBEBEB"/>
<line x1="8.96777" y1="198.025" x2="161.032" y2="198.025" stroke="#EBEBEB" stroke-width="0.747326"/>
<g opacity="0.7" clip-path="url(#clip1_6508_8491)">
<path d="M23.9133 216.333C23.9133 218.347 23.1149 220.175 21.8188 221.519C20.4588 222.927 18.5527 223.805 16.4392 223.805C14.3274 223.805 12.4179 222.929 11.0596 221.519C9.76346 220.175 8.9668 218.346 8.9668 216.333C8.9668 212.206 12.3124 208.862 16.4409 208.862C20.5677 208.862 23.9133 212.206 23.9133 216.333Z" fill="#DFE0E1"/>
<path d="M14.9595 212.226C14.9595 211.887 15.2342 211.611 15.5747 211.611H17.149C18.1306 211.611 18.9272 212.407 18.9272 213.389V215.297H15.1824L14.9595 212.226Z" fill="#535A5F"/>
<path d="M14.3728 215.518H13.8457V212.956C13.8457 212.383 14.4333 211.998 14.9586 212.224C15.0796 212.861 14.3728 215.518 14.3728 215.518Z" fill="#535A5F"/>
<path d="M17.5809 217.55C17.415 218.276 16.9674 218.797 16.4404 218.797C15.9133 218.797 15.464 218.276 15.2998 217.548L15.4277 217.056L15.4657 216.909H17.415L17.5602 217.472L17.574 217.522L17.5809 217.55Z" fill="#D3D6DC"/>
<path d="M18.8916 214.787C19.8628 213.698 19.2148 216.36 18.6773 216.048C17.7338 215.502 18.8916 214.787 18.8916 214.787Z" fill="#F4F4F4"/>
<path d="M21.8188 221.52C21.3142 222.041 20.7353 222.491 20.0976 222.85C19.1143 223.403 17.9945 223.74 16.8004 223.797C16.6811 223.803 16.5602 223.805 16.4392 223.805C15.8361 223.805 15.252 223.734 14.6904 223.6C13.9092 223.413 13.1748 223.102 12.5112 222.691C11.9789 222.361 11.4916 221.967 11.0596 221.52L11.1875 221.012C11.3827 220.25 11.9824 219.657 12.7479 219.474L12.8326 219.455L13.771 219.231L14.0268 219.17C14.1356 219.144 14.2376 219.108 14.3361 219.06C14.4173 219.02 14.4951 218.975 14.5694 218.921C14.6489 218.864 14.7232 218.801 14.7889 218.731C14.9686 218.543 15.1016 218.31 15.169 218.047L15.2693 217.66L15.2952 217.557L15.2969 217.548L15.4248 217.056L15.4628 216.909H17.4121L17.5573 217.472L17.5711 217.522L17.578 217.55L17.5798 217.557L17.6074 217.662L17.7076 218.047C17.801 218.407 18.0153 218.714 18.3073 218.921C18.4663 219.037 18.6495 219.122 18.8482 219.17L19.085 219.227L20.1287 219.476C20.8943 219.659 21.4957 220.252 21.6892 221.014L21.8188 221.52Z" fill="#F4F4F4"/>
<path d="M17.5799 217.55C17.414 218.275 16.9665 218.797 16.4394 218.797C15.9123 218.797 15.463 218.275 15.2988 217.548L15.4267 217.056L15.4647 216.909H17.414L17.5592 217.472L17.573 217.522L17.5799 217.55Z" fill="#D3D6DC"/>
<path d="M13.987 214.786C13.0158 213.698 13.6639 216.36 14.2013 216.047C15.1449 215.501 13.987 214.786 13.987 214.786Z" fill="#F4F4F4"/>
<path d="M18.6968 214.002C18.6968 214.084 18.6916 214.166 18.6829 214.245C18.676 214.318 18.6432 214.63 18.5844 215.029L18.5827 215.031C18.5516 215.252 18.5101 215.499 18.46 215.746C18.4583 215.75 18.4583 215.753 18.4583 215.755C18.339 216.36 18.1714 216.961 17.9502 217.178C17.7014 217.427 17.5026 217.652 17.2763 217.814C17.0481 217.978 16.7941 218.078 16.4364 218.078C16.0787 218.078 15.8246 217.977 15.5965 217.814C15.3701 217.652 15.1697 217.425 14.9226 217.178C14.7031 216.959 14.5337 216.356 14.4145 215.753V215.755C14.4128 215.753 14.4128 215.753 14.4128 215.752C14.3972 215.674 14.3834 215.596 14.3696 215.518C14.3644 215.487 14.3575 215.454 14.3523 215.423C14.3281 215.289 14.3073 215.156 14.2901 215.031C14.2227 214.573 14.1898 214.23 14.1898 214.23C14.1829 214.155 14.1777 214.079 14.1777 214.002C14.1777 213.983 14.1777 213.962 14.1795 213.943C14.1846 213.765 14.2088 213.592 14.252 213.426C14.2538 213.419 14.2555 213.411 14.2572 213.404C14.5078 212.486 15.3235 211.802 16.3051 211.747C16.3483 211.744 16.3897 211.744 16.4347 211.744C17.0585 211.744 17.6236 211.996 18.0314 212.405C18.384 212.758 18.6207 213.228 18.6795 213.751C18.6916 213.834 18.6968 213.917 18.6968 214.002Z" fill="#F4F4F4"/>
<path d="M16.7938 216.032C16.7938 216.187 16.6348 216.313 16.4378 216.313C16.2425 216.313 16.0835 216.187 16.0835 216.032C16.0835 216.013 16.0852 215.994 16.0904 215.976C16.1215 216.106 16.2649 216.204 16.4378 216.204C16.6106 216.204 16.754 216.106 16.7851 215.976C16.792 215.994 16.7938 216.013 16.7938 216.032Z" fill="#DFE0E1"/>
<path d="M18.7664 214.021C18.7664 214.106 18.7612 214.189 18.7525 214.273C18.7456 214.349 18.5866 215.032 18.5866 215.032C15.3395 214.242 15.0803 212.864 15.0803 212.864C15.0906 214.182 14.294 215.033 14.294 215.033C14.2249 214.562 14.1264 214.256 14.1264 214.256C14.1194 214.18 14.1143 214.1 14.1143 214.021C14.1143 214 14.1143 213.98 14.116 213.961C14.1212 213.777 14.1454 213.6 14.192 213.428C14.1938 213.422 14.1955 213.413 14.1972 213.406C14.4564 212.461 15.2946 211.756 16.3072 211.701C16.3522 211.698 16.3954 211.698 16.4403 211.698C17.0832 211.698 17.6655 211.958 18.0855 212.378C18.4501 212.741 18.6938 213.225 18.7525 213.764C18.7629 213.848 18.7664 213.933 18.7664 214.021Z" fill="#535A5F"/>
<path d="M21.8193 221.523C20.4593 222.931 18.5515 223.807 16.4397 223.807C14.3279 223.807 12.4184 222.931 11.0601 221.521L11.1879 221.015C11.3832 220.252 11.9829 219.661 12.7484 219.478L13.7732 219.234L14.0272 219.174C14.1413 219.146 14.2536 219.106 14.3556 219.055C14.8757 219.609 15.6154 219.955 16.4362 219.955C17.2571 219.955 17.9967 219.607 18.5169 219.055C18.6206 219.105 18.7295 219.146 18.8452 219.174L19.0716 219.227L20.1292 219.48C20.8948 219.663 21.4962 220.255 21.6897 221.017L21.8193 221.523Z" fill="#6E7375"/>
<path d="M19.0719 219.227C18.842 219.505 18.0004 220.385 16.4382 220.447C14.6392 220.52 13.8218 219.307 13.7734 219.234L14.0275 219.174C14.1415 219.146 14.2539 219.106 14.3558 219.055C14.876 219.609 15.6156 219.955 16.4365 219.955C17.2573 219.955 17.997 219.607 18.5171 219.055C18.6208 219.105 18.7297 219.146 18.8455 219.174L19.0719 219.227Z" fill="#535A5F"/>
</g>
<rect x="29.8931" y="214.093" width="55.9454" height="4.48395" rx="2.24198" fill="#EBEBEB"/>
<path d="M140.107 210.356C140.107 208.705 141.445 207.367 143.096 207.367H158.043C159.694 207.367 161.032 208.705 161.032 210.356V222.313C161.032 223.964 159.694 225.303 158.043 225.303H143.096C141.445 225.303 140.107 223.964 140.107 222.313V210.356Z" fill="#7B68EE"/>
<g clip-path="url(#clip2_6508_8491)">
<path d="M154.148 213.913C154.121 213.882 154.088 213.856 154.051 213.839C154.014 213.822 153.973 213.813 153.932 213.813H148.281L148.068 212.642C148.057 212.577 148.022 212.519 147.972 212.476C147.922 212.434 147.858 212.411 147.793 212.411H146.926C146.852 212.411 146.781 212.441 146.728 212.493C146.676 212.546 146.646 212.617 146.646 212.692C146.646 212.766 146.676 212.837 146.728 212.89C146.781 212.942 146.852 212.972 146.926 212.972H147.557L148.452 217.886C148.479 218.032 148.543 218.168 148.639 218.281C148.507 218.405 148.411 218.563 148.363 218.737C148.315 218.912 148.316 219.097 148.366 219.271C148.417 219.445 148.514 219.601 148.648 219.723C148.782 219.845 148.947 219.928 149.125 219.962C149.303 219.995 149.487 219.979 149.656 219.915C149.826 219.851 149.974 219.741 150.085 219.597C150.196 219.454 150.264 219.283 150.284 219.103C150.303 218.922 150.272 218.74 150.194 218.577H151.785C151.723 218.708 151.69 218.852 151.69 218.997C151.69 219.191 151.748 219.381 151.856 219.542C151.964 219.703 152.117 219.829 152.296 219.903C152.475 219.978 152.672 219.997 152.863 219.959C153.053 219.921 153.228 219.828 153.365 219.691C153.502 219.554 153.595 219.379 153.633 219.189C153.671 218.998 153.652 218.801 153.578 218.622C153.503 218.443 153.378 218.289 153.216 218.182C153.055 218.074 152.865 218.016 152.671 218.016H149.279C149.214 218.016 149.15 217.993 149.1 217.951C149.049 217.909 149.015 217.851 149.004 217.786L148.893 217.176H152.956C153.153 217.176 153.344 217.106 153.495 216.98C153.646 216.854 153.748 216.679 153.783 216.485L154.209 214.143C154.216 214.102 154.215 214.061 154.204 214.021C154.193 213.981 154.174 213.945 154.148 213.913ZM149.729 218.997C149.729 219.08 149.704 219.162 149.658 219.231C149.612 219.3 149.546 219.354 149.469 219.386C149.392 219.417 149.308 219.426 149.226 219.409C149.145 219.393 149.07 219.353 149.011 219.294C148.952 219.236 148.912 219.161 148.896 219.079C148.88 218.998 148.888 218.913 148.92 218.836C148.952 218.76 149.006 218.694 149.075 218.648C149.144 218.601 149.225 218.577 149.308 218.577C149.42 218.577 149.527 218.621 149.606 218.7C149.684 218.779 149.729 218.886 149.729 218.997ZM153.092 218.997C153.092 219.08 153.067 219.162 153.021 219.231C152.975 219.3 152.909 219.354 152.832 219.386C152.755 219.417 152.671 219.426 152.589 219.409C152.508 219.393 152.433 219.353 152.374 219.294C152.315 219.236 152.275 219.161 152.259 219.079C152.243 218.998 152.251 218.913 152.283 218.836C152.315 218.76 152.369 218.694 152.438 218.648C152.507 218.601 152.588 218.577 152.671 218.577C152.783 218.577 152.89 218.621 152.969 218.7C153.047 218.779 153.092 218.886 153.092 218.997ZM153.232 216.385C153.22 216.45 153.186 216.508 153.135 216.55C153.085 216.592 153.021 216.615 152.955 216.615H148.791L148.383 214.373H153.596L153.232 216.385Z" fill="white"/>
</g>
<defs>
<clipPath id="clip0_6508_8491">
<rect x="8.96777" y="8.9679" width="152.064" height="86.6898" rx="2.9893" fill="white"/>
</clipPath>
<clipPath id="clip1_6508_8491">
<rect width="14.9465" height="14.9465" fill="white" transform="translate(8.96777 208.862)"/>
</clipPath>
<clipPath id="clip2_6508_8491">
<rect width="8.96791" height="8.96791" fill="white" transform="translate(146.085 211.851)"/>
</clipPath>
</defs>
</svg>
