<svg width="170" height="235" viewBox="0 0 170 235" fill="none" xmlns="http://www.w3.org/2000/svg">
<rect width="170" height="234.24" rx="2.9893" fill="white"/>
<g clip-path="url(#clip0_6389_12829)">
<path d="M163.599 88.8869V94.8733H9.46777V84.3091L55.9691 40.3741L109.715 87.0805L136.726 62.4688L163.599 88.8869Z" fill="#EBEBEB"/>
<circle cx="126.447" cy="34.339" r="14.9465" fill="#EBEBEB"/>
<path d="M12.9678 22.0304C12.9678 17.0529 17.0028 13.0179 21.9802 13.0179V13.0179C26.9576 13.0179 30.9926 17.0529 30.9926 22.0304V22.0304C30.9926 27.0078 26.9576 31.0428 21.9802 31.0428V31.0428C17.0028 31.0428 12.9678 27.0078 12.9678 22.0304V22.0304Z" fill="#DEDEDE"/>
<path d="M21.98 26.0567C21.8506 26.0567 21.7255 26.04 21.6212 26.0024C20.0273 25.4559 17.4946 23.5157 17.4946 20.6492C17.4946 19.1889 18.6754 18.0039 20.1274 18.0039C20.8326 18.0039 21.4918 18.2793 21.98 18.7716C22.4682 18.2793 23.1274 18.0039 23.8325 18.0039C25.2845 18.0039 26.4653 19.193 26.4653 20.6492C26.4653 23.5198 23.9327 25.4559 22.3388 26.0024C22.2345 26.04 22.1093 26.0567 21.98 26.0567ZM20.1274 18.6298C19.0217 18.6298 18.1205 19.5352 18.1205 20.6492C18.1205 23.499 20.8618 25.0845 21.8256 25.4141C21.9007 25.4392 22.0634 25.4392 22.1385 25.4141C23.0982 25.0845 25.8436 23.5032 25.8436 20.6492C25.8436 19.5352 24.9424 18.6298 23.8367 18.6298C23.2025 18.6298 22.6142 18.926 22.2345 19.4392C22.1177 19.5978 21.8506 19.5978 21.7338 19.4392C21.3458 18.9218 20.7616 18.6298 20.1274 18.6298Z" fill="white"/>
</g>
<rect x="8.96777" y="8.9679" width="152.064" height="86.6898" rx="2.9893" stroke="#DEDEDE" stroke-width="0.747326"/>
<path d="M8.96826 113.115C8.96826 108.426 12.7691 104.625 17.4576 104.625H91.4362C96.1247 104.625 99.9255 108.426 99.9255 113.115V113.115C99.9255 117.803 96.1247 121.604 91.4362 121.604H17.4576C12.769 121.604 8.96826 117.803 8.96826 113.115V113.115Z" fill="#F5F5F5"/>
<path d="M17.1252 116.615L15.3099 110.069H16.3486L17.6238 115.138H17.6845L19.0109 110.069H20.04L21.3663 115.141H21.4271L22.6991 110.069H23.741L21.9225 116.615H20.9285L19.551 111.712H19.4999L18.1224 116.615H17.1252ZM26.1971 116.714C25.7135 116.714 25.2969 116.61 24.9475 116.404C24.6002 116.195 24.3317 115.902 24.1421 115.525C23.9546 115.146 23.8608 114.701 23.8608 114.192C23.8608 113.689 23.9546 113.246 24.1421 112.863C24.3317 112.479 24.5959 112.18 24.9347 111.965C25.2756 111.749 25.6741 111.642 26.13 111.642C26.407 111.642 26.6755 111.688 26.9354 111.779C27.1954 111.871 27.4287 112.015 27.6353 112.211C27.842 112.407 28.005 112.661 28.1243 112.974C28.2437 113.286 28.3033 113.664 28.3033 114.109V114.448H24.401V113.732H27.3669C27.3669 113.481 27.3157 113.258 27.2135 113.064C27.1112 112.868 26.9674 112.713 26.782 112.601C26.5988 112.488 26.3836 112.431 26.1364 112.431C25.8679 112.431 25.6336 112.497 25.4333 112.629C25.2351 112.759 25.0817 112.93 24.9731 113.141C24.8665 113.349 24.8133 113.576 24.8133 113.821V114.381C24.8133 114.709 24.8708 114.988 24.9858 115.218C25.103 115.448 25.266 115.624 25.4748 115.745C25.6836 115.865 25.9276 115.924 26.2067 115.924C26.3878 115.924 26.553 115.899 26.7021 115.848C26.8513 115.794 26.9802 115.716 27.0888 115.611C27.1975 115.507 27.2806 115.378 27.3381 115.224L28.2426 115.387C28.1701 115.654 28.0402 115.887 27.8527 116.087C27.6673 116.286 27.434 116.44 27.1527 116.551C26.8736 116.659 26.5551 116.714 26.1971 116.714ZM29.4403 116.615V110.069H30.3959V112.501H30.4534C30.5088 112.399 30.5887 112.281 30.6931 112.147C30.7975 112.012 30.9424 111.895 31.1278 111.795C31.3132 111.693 31.5582 111.642 31.8629 111.642C32.2592 111.642 32.6129 111.742 32.924 111.942C33.235 112.142 33.479 112.431 33.6559 112.808C33.8348 113.185 33.9243 113.639 33.9243 114.17C33.9243 114.7 33.8359 115.155 33.659 115.534C33.4822 115.912 33.2393 116.202 32.9304 116.407C32.6214 116.609 32.2688 116.711 31.8725 116.711C31.5742 116.711 31.3302 116.661 31.1406 116.56C30.9531 116.46 30.8061 116.343 30.6995 116.209C30.593 116.075 30.511 115.955 30.4534 115.851H30.3735V116.615H29.4403ZM30.3767 114.16C30.3767 114.505 30.4268 114.808 30.5269 115.068C30.6271 115.328 30.772 115.531 30.9616 115.678C31.1512 115.823 31.3835 115.896 31.6583 115.896C31.9438 115.896 32.1825 115.82 32.3742 115.669C32.566 115.515 32.7109 115.308 32.8089 115.045C32.909 114.783 32.9591 114.488 32.9591 114.16C32.9591 113.836 32.9101 113.545 32.8121 113.288C32.7162 113.03 32.5713 112.826 32.3774 112.677C32.1857 112.528 31.946 112.454 31.6583 112.454C31.3813 112.454 31.147 112.525 30.9552 112.668C30.7656 112.81 30.6218 113.01 30.5237 113.265C30.4257 113.521 30.3767 113.819 30.3767 114.16ZM39.5749 116.615H37.4559V110.069H39.642C40.2833 110.069 40.8341 110.2 41.2943 110.462C41.7546 110.722 42.1072 111.096 42.3522 111.584C42.5994 112.07 42.723 112.653 42.723 113.332C42.723 114.014 42.5983 114.6 42.349 115.09C42.1019 115.58 41.7439 115.957 41.2752 116.222C40.8064 116.484 40.2397 116.615 39.5749 116.615ZM38.4435 115.752H39.5206C40.0191 115.752 40.4335 115.658 40.7638 115.471C41.0941 115.281 41.3412 115.007 41.5053 114.649C41.6693 114.289 41.7514 113.85 41.7514 113.332C41.7514 112.819 41.6693 112.383 41.5053 112.025C41.3434 111.667 41.1015 111.396 40.7798 111.21C40.4581 111.025 40.0585 110.932 39.5813 110.932H38.4435V115.752ZM45.9901 116.714C45.5064 116.714 45.0899 116.61 44.7405 116.404C44.3932 116.195 44.1247 115.902 43.9351 115.525C43.7476 115.146 43.6538 114.701 43.6538 114.192C43.6538 113.689 43.7476 113.246 43.9351 112.863C44.1247 112.479 44.3889 112.18 44.7277 111.965C45.0686 111.749 45.467 111.642 45.923 111.642C46.2 111.642 46.4684 111.688 46.7284 111.779C46.9883 111.871 47.2216 112.015 47.4283 112.211C47.635 112.407 47.798 112.661 47.9173 112.974C48.0366 113.286 48.0963 113.664 48.0963 114.109V114.448H44.1939V113.732H47.1598C47.1598 113.481 47.1087 113.258 47.0064 113.064C46.9042 112.868 46.7603 112.713 46.575 112.601C46.3917 112.488 46.1765 112.431 45.9294 112.431C45.6609 112.431 45.4265 112.497 45.2263 112.629C45.0281 112.759 44.8747 112.93 44.766 113.141C44.6595 113.349 44.6062 113.576 44.6062 113.821V114.381C44.6062 114.709 44.6638 114.988 44.7788 115.218C44.896 115.448 45.059 115.624 45.2678 115.745C45.4766 115.865 45.7206 115.924 45.9997 115.924C46.1808 115.924 46.3459 115.899 46.4951 115.848C46.6442 115.794 46.7731 115.716 46.8818 115.611C46.9905 115.507 47.0736 115.378 47.1311 115.224L48.0356 115.387C47.9631 115.654 47.8331 115.887 47.6456 116.087C47.4603 116.286 47.227 116.44 46.9457 116.551C46.6666 116.659 46.3481 116.714 45.9901 116.714ZM53.2155 111.706L51.4353 116.615H50.4126L48.6292 111.706H49.6551L50.8984 115.483H50.9495L52.1896 111.706H53.2155ZM56.0624 116.714C55.5787 116.714 55.1622 116.61 54.8127 116.404C54.4654 116.195 54.197 115.902 54.0073 115.525C53.8198 115.146 53.7261 114.701 53.7261 114.192C53.7261 113.689 53.8198 113.246 54.0073 112.863C54.197 112.479 54.4612 112.18 54.7999 111.965C55.1408 111.749 55.5393 111.642 55.9953 111.642C56.2722 111.642 56.5407 111.688 56.8006 111.779C57.0606 111.871 57.2939 112.015 57.5006 112.211C57.7073 112.407 57.8703 112.661 57.9896 112.974C58.1089 113.286 58.1685 113.664 58.1685 114.109V114.448H54.2662V113.732H57.2321C57.2321 113.481 57.181 113.258 57.0787 113.064C56.9764 112.868 56.8326 112.713 56.6472 112.601C56.464 112.488 56.2488 112.431 56.0016 112.431C55.7332 112.431 55.4988 112.497 55.2985 112.629C55.1004 112.759 54.947 112.93 54.8383 113.141C54.7318 113.349 54.6785 113.576 54.6785 113.821V114.381C54.6785 114.709 54.736 114.988 54.8511 115.218C54.9683 115.448 55.1313 115.624 55.3401 115.745C55.5489 115.865 55.7928 115.924 56.072 115.924C56.2531 115.924 56.4182 115.899 56.5673 115.848C56.7165 115.794 56.8454 115.716 56.9541 115.611C57.0627 115.507 57.1458 115.378 57.2033 115.224L58.1078 115.387C58.0354 115.654 57.9054 115.887 57.7179 116.087C57.5325 116.286 57.2992 116.44 57.018 116.551C56.7389 116.659 56.4203 116.714 56.0624 116.714ZM60.1844 110.069V116.615H59.2288V110.069H60.1844ZM63.5379 116.714C63.0776 116.714 62.676 116.608 62.333 116.397C61.9899 116.186 61.7236 115.891 61.534 115.512C61.3443 115.133 61.2495 114.69 61.2495 114.183C61.2495 113.673 61.3443 113.228 61.534 112.847C61.7236 112.465 61.9899 112.169 62.333 111.958C62.676 111.747 63.0776 111.642 63.5379 111.642C63.9981 111.642 64.3997 111.747 64.7428 111.958C65.0858 112.169 65.3521 112.465 65.5418 112.847C65.7314 113.228 65.8262 113.673 65.8262 114.183C65.8262 114.69 65.7314 115.133 65.5418 115.512C65.3521 115.891 65.0858 116.186 64.7428 116.397C64.3997 116.608 63.9981 116.714 63.5379 116.714ZM63.5411 115.912C63.8394 115.912 64.0865 115.833 64.2825 115.675C64.4786 115.517 64.6234 115.308 64.7172 115.045C64.8131 114.783 64.861 114.495 64.861 114.179C64.861 113.866 64.8131 113.579 64.7172 113.316C64.6234 113.052 64.4786 112.84 64.2825 112.68C64.0865 112.521 63.8394 112.441 63.5411 112.441C63.2406 112.441 62.9913 112.521 62.7932 112.68C62.5972 112.84 62.4512 113.052 62.3553 113.316C62.2616 113.579 62.2147 113.866 62.2147 114.179C62.2147 114.495 62.2616 114.783 62.3553 115.045C62.4512 115.308 62.5972 115.517 62.7932 115.675C62.9913 115.833 63.2406 115.912 63.5411 115.912ZM66.8929 118.456V111.706H67.8261V112.501H67.906C67.9614 112.399 68.0413 112.281 68.1457 112.147C68.2501 112.012 68.395 111.895 68.5804 111.795C68.7658 111.693 69.0108 111.642 69.3155 111.642C69.7118 111.642 70.0655 111.742 70.3766 111.942C70.6876 112.142 70.9316 112.431 71.1084 112.808C71.2874 113.185 71.3769 113.639 71.3769 114.17C71.3769 114.7 71.2885 115.155 71.1116 115.534C70.9348 115.912 70.6919 116.202 70.3829 116.407C70.074 116.609 69.7214 116.711 69.3251 116.711C69.0268 116.711 68.7828 116.661 68.5932 116.56C68.4057 116.46 68.2587 116.343 68.1521 116.209C68.0456 116.075 67.9636 115.955 67.906 115.851H67.8485V118.456H66.8929ZM67.8293 114.16C67.8293 114.505 67.8794 114.808 67.9795 115.068C68.0797 115.328 68.2246 115.531 68.4142 115.678C68.6038 115.823 68.8361 115.896 69.1109 115.896C69.3964 115.896 69.6351 115.82 69.8268 115.669C70.0186 115.515 70.1635 115.308 70.2615 115.045C70.3616 114.783 70.4117 114.488 70.4117 114.16C70.4117 113.836 70.3627 113.545 70.2647 113.288C70.1688 113.03 70.0239 112.826 69.83 112.677C69.6383 112.528 69.3986 112.454 69.1109 112.454C68.8339 112.454 68.5996 112.525 68.4078 112.668C68.2182 112.81 68.0744 113.01 67.9763 113.265C67.8783 113.521 67.8293 113.819 67.8293 114.16ZM72.4476 116.615V111.706H73.3648V112.505H73.4256C73.5278 112.234 73.6951 112.023 73.9273 111.872C74.1596 111.718 74.4376 111.642 74.7615 111.642C75.0896 111.642 75.3645 111.718 75.5861 111.872C75.8098 112.025 75.9749 112.236 76.0815 112.505H76.1326C76.2498 112.243 76.4362 112.034 76.6919 111.878C76.9476 111.721 77.2523 111.642 77.606 111.642C78.0513 111.642 78.4146 111.781 78.6958 112.06C78.9792 112.34 79.1209 112.76 79.1209 113.323V116.615H78.1653V113.412C78.1653 113.08 78.0747 112.839 77.8936 112.69C77.7125 112.541 77.4962 112.466 77.2448 112.466C76.9337 112.466 76.6919 112.562 76.5193 112.754C76.3467 112.944 76.2604 113.188 76.2604 113.486V116.615H75.308V113.352C75.308 113.085 75.2249 112.871 75.0587 112.709C74.8925 112.547 74.6763 112.466 74.4099 112.466C74.2288 112.466 74.0616 112.514 73.9082 112.61C73.7569 112.704 73.6344 112.835 73.5406 113.003C73.449 113.172 73.4032 113.367 73.4032 113.588V116.615H72.4476ZM82.5174 116.714C82.0338 116.714 81.6172 116.61 81.2678 116.404C80.9205 116.195 80.652 115.902 80.4624 115.525C80.2749 115.146 80.1812 114.701 80.1812 114.192C80.1812 113.689 80.2749 113.246 80.4624 112.863C80.652 112.479 80.9162 112.18 81.255 111.965C81.5959 111.749 81.9944 111.642 82.4503 111.642C82.7273 111.642 82.9958 111.688 83.2557 111.779C83.5157 111.871 83.749 112.015 83.9557 112.211C84.1623 112.407 84.3253 112.661 84.4446 112.974C84.564 113.286 84.6236 113.664 84.6236 114.109V114.448H80.7213V113.732H83.6872C83.6872 113.481 83.6361 113.258 83.5338 113.064C83.4315 112.868 83.2877 112.713 83.1023 112.601C82.9191 112.488 82.7039 112.431 82.4567 112.431C82.1883 112.431 81.9539 112.497 81.7536 112.629C81.5554 112.759 81.402 112.93 81.2934 113.141C81.1868 113.349 81.1336 113.576 81.1336 113.821V114.381C81.1336 114.709 81.1911 114.988 81.3062 115.218C81.4233 115.448 81.5863 115.624 81.7951 115.745C82.004 115.865 82.2479 115.924 82.527 115.924C82.7081 115.924 82.8733 115.899 83.0224 115.848C83.1716 115.794 83.3005 115.716 83.4091 115.611C83.5178 115.507 83.6009 115.378 83.6584 115.224L84.5629 115.387C84.4905 115.654 84.3605 115.887 84.173 116.087C83.9876 116.286 83.7543 116.44 83.4731 116.551C83.1939 116.659 82.8754 116.714 82.5174 116.714ZM86.6395 113.7V116.615H85.6839V111.706H86.6012V112.505H86.6619C86.7748 112.245 86.9517 112.036 87.1924 111.878C87.4353 111.721 87.7411 111.642 88.1097 111.642C88.4442 111.642 88.7372 111.712 88.9886 111.853C89.24 111.991 89.435 112.198 89.5735 112.473C89.712 112.748 89.7812 113.087 89.7812 113.492V116.615H88.8256V113.607C88.8256 113.251 88.7329 112.973 88.5475 112.773C88.3622 112.571 88.1076 112.47 87.7837 112.47C87.5621 112.47 87.365 112.517 87.1924 112.613C87.022 112.709 86.8867 112.85 86.7865 113.035C86.6885 113.218 86.6395 113.44 86.6395 113.7ZM93.3544 111.706V112.473H90.6729V111.706H93.3544ZM91.392 110.53H92.3476V115.173C92.3476 115.359 92.3753 115.498 92.4307 115.592C92.4861 115.684 92.5575 115.746 92.6448 115.781C92.7343 115.813 92.8313 115.829 92.9357 115.829C93.0124 115.829 93.0795 115.823 93.137 115.813C93.1946 115.802 93.2393 115.793 93.2713 115.787L93.4438 116.576C93.3885 116.598 93.3096 116.619 93.2073 116.64C93.1051 116.664 92.9772 116.677 92.8238 116.679C92.5724 116.683 92.338 116.638 92.1207 116.544C91.9034 116.451 91.7276 116.306 91.5934 116.11C91.4591 115.914 91.392 115.668 91.392 115.371V110.53Z" fill="#949494"/>
<rect x="8.96777" y="130.572" width="152.064" height="4.48395" rx="2.24198" fill="#EBEBEB"/>
<rect x="8.96777" y="141.034" width="68.754" height="4.48395" rx="2.24198" fill="#EBEBEB"/>
<path d="M9.49192 162.144V161.492L12.3683 156.941H12.8414V157.951H12.5218L10.3485 161.39V161.441H14.222V162.144H9.49192ZM12.5729 163.487V161.946V161.642V156.941H13.3271V163.487H12.5729ZM15.6746 163.538C15.517 163.538 15.3817 163.481 15.2687 163.368C15.1558 163.255 15.0993 163.12 15.0993 162.962C15.0993 162.805 15.1558 162.669 15.2687 162.557C15.3817 162.444 15.517 162.387 15.6746 162.387C15.8323 162.387 15.9676 162.444 16.0805 162.557C16.1934 162.669 16.2499 162.805 16.2499 162.962C16.2499 163.067 16.2233 163.163 16.17 163.25C16.1189 163.337 16.0496 163.408 15.9623 163.461C15.877 163.512 15.7812 163.538 15.6746 163.538ZM19.6129 156.852C19.8814 156.854 20.1499 156.905 20.4183 157.005C20.6868 157.105 20.9318 157.271 21.1534 157.504C21.375 157.734 21.5529 158.048 21.6871 158.446C21.8214 158.845 21.8885 159.345 21.8885 159.945C21.8885 160.527 21.8331 161.044 21.7223 161.495C21.6136 161.945 21.456 162.324 21.2493 162.633C21.0447 162.942 20.7955 163.177 20.5014 163.336C20.2095 163.496 19.8793 163.576 19.5107 163.576C19.1442 163.576 18.8171 163.504 18.5295 163.359C18.244 163.212 18.0096 163.008 17.8263 162.748C17.6452 162.486 17.5291 162.183 17.478 161.837H18.2578C18.3281 162.138 18.4677 162.386 18.6765 162.582C18.8874 162.776 19.1655 162.873 19.5107 162.873C20.0156 162.873 20.4141 162.652 20.706 162.211C21 161.77 21.147 161.147 21.147 160.342H21.0959C20.9766 160.521 20.8349 160.675 20.6708 160.805C20.5067 160.935 20.3246 161.035 20.1243 161.106C19.924 161.176 19.7109 161.211 19.4851 161.211C19.1101 161.211 18.766 161.118 18.4528 160.933C18.1417 160.745 17.8924 160.489 17.7049 160.163C17.5195 159.835 17.4268 159.46 17.4268 159.038C17.4268 158.637 17.5163 158.271 17.6953 157.938C17.8764 157.604 18.13 157.337 18.456 157.139C18.7841 156.941 19.1697 156.845 19.6129 156.852ZM19.6129 157.555C19.3445 157.555 19.1026 157.622 18.8874 157.756C18.6744 157.888 18.505 158.067 18.3793 158.293C18.2557 158.517 18.1939 158.765 18.1939 159.038C18.1939 159.31 18.2536 159.559 18.3729 159.782C18.4943 160.004 18.6594 160.181 18.8683 160.313C19.0792 160.443 19.3189 160.508 19.5874 160.508C19.7898 160.508 19.9783 160.468 20.1531 160.39C20.3278 160.309 20.4801 160.199 20.6101 160.06C20.7422 159.92 20.8455 159.761 20.9201 159.584C20.9947 159.405 21.032 159.219 21.032 159.025C21.032 158.769 20.9702 158.53 20.8466 158.306C20.7251 158.082 20.5568 157.901 20.3416 157.762C20.1286 157.624 19.8857 157.555 19.6129 157.555Z" fill="#949494"/>
<path d="M31.0873 156.814L31.7449 158.13C31.8346 158.313 32.0737 158.488 32.2755 158.522L33.4675 158.72C34.2298 158.847 34.4091 159.4 33.8598 159.946L32.9332 160.872C32.7762 161.029 32.6903 161.332 32.7388 161.549L33.0041 162.696C33.2134 163.604 32.7314 163.955 31.928 163.48L30.8107 162.819C30.609 162.7 30.2764 162.7 30.0709 162.819L28.9536 163.48C28.154 163.955 27.6682 163.6 27.8775 162.696L28.1428 161.549C28.1914 161.332 28.1054 161.029 27.9485 160.872L27.0218 159.946C26.4763 159.4 26.6519 158.847 27.4142 158.72L28.6061 158.522C28.8042 158.488 29.0433 158.313 29.133 158.13L29.7906 156.814C30.1494 156.101 30.7323 156.101 31.0873 156.814Z" fill="#C7C7C7"/>
<path d="M41.5497 156.814L42.2073 158.13C42.297 158.313 42.5361 158.488 42.7379 158.522L43.9299 158.72C44.6922 158.847 44.8715 159.4 44.3222 159.946L43.3956 160.872C43.2386 161.029 43.1527 161.332 43.2012 161.549L43.4665 162.696C43.6758 163.604 43.1938 163.955 42.3904 163.48L41.2731 162.819C41.0714 162.7 40.7388 162.7 40.5333 162.819L39.416 163.48C38.6164 163.955 38.1306 163.6 38.3399 162.696L38.6052 161.549C38.6538 161.332 38.5678 161.029 38.4109 160.872L37.4842 159.946C36.9387 159.4 37.1143 158.847 37.8766 158.72L39.0685 158.522C39.2666 158.488 39.5057 158.313 39.5954 158.13L40.253 156.814C40.6118 156.101 41.1947 156.101 41.5497 156.814Z" fill="#C7C7C7"/>
<path d="M52.0125 156.814L52.6702 158.13C52.7599 158.313 52.999 158.488 53.2008 158.522L54.3928 158.72C55.1551 158.847 55.3344 159.4 54.7851 159.946L53.8584 160.872C53.7015 161.029 53.6156 161.332 53.6641 161.549L53.9294 162.696C54.1387 163.604 53.6567 163.955 52.8533 163.48L51.736 162.819C51.5343 162.7 51.2017 162.7 50.9962 162.819L49.8789 163.48C49.0793 163.955 48.5935 163.6 48.8028 162.696L49.0681 161.549C49.1167 161.332 49.0307 161.029 48.8738 160.872L47.9471 159.946C47.4015 159.4 47.5772 158.847 48.3394 158.72L49.5314 158.522C49.7295 158.488 49.9686 158.313 50.0583 158.13L50.7159 156.814C51.0747 156.101 51.6576 156.101 52.0125 156.814Z" fill="#C7C7C7"/>
<path d="M62.475 156.814L63.1326 158.13C63.2223 158.313 63.4614 158.488 63.6632 158.522L64.8552 158.72C65.6175 158.847 65.7968 159.4 65.2475 159.946L64.3208 160.872C64.1639 161.029 64.078 161.332 64.1265 161.549L64.3918 162.696C64.6011 163.604 64.1191 163.955 63.3157 163.48L62.1984 162.819C61.9967 162.7 61.6641 162.7 61.4586 162.819L60.3413 163.48C59.5417 163.955 59.0559 163.6 59.2652 162.696L59.5305 161.549C59.5791 161.332 59.4931 161.029 59.3362 160.872L58.4095 159.946C57.864 159.4 58.0396 158.847 58.8018 158.72L59.9938 158.522C60.1919 158.488 60.431 158.313 60.5207 158.13L61.1783 156.814C61.5371 156.101 62.12 156.101 62.475 156.814Z" fill="#C7C7C7"/>
<path d="M74.4058 163.973C74.2077 163.973 73.9536 163.91 73.636 163.723L72.5188 163.062C72.4029 162.994 72.1787 162.994 72.0666 163.062L70.9457 163.723C70.2843 164.115 69.8957 163.958 69.72 163.831C69.5482 163.704 69.2791 163.379 69.4547 162.632L69.72 161.485C69.7499 161.365 69.6902 161.16 69.6005 161.07L68.6738 160.143C68.2104 159.68 68.2478 159.284 68.3113 159.09C68.3749 158.895 68.5766 158.551 69.2193 158.443L70.4113 158.245C70.5234 158.226 70.6841 158.107 70.7327 158.006L71.3941 156.687C71.693 156.085 72.0853 155.996 72.2908 155.996C72.4964 155.996 72.8887 156.085 73.1876 156.687L73.8453 158.002C73.8976 158.103 74.0583 158.223 74.1704 158.241L75.3624 158.439C76.0088 158.548 76.2106 158.891 76.2704 159.086C76.3301 159.28 76.3675 159.676 75.9079 160.14L74.9812 161.07C74.8915 161.16 74.8355 161.361 74.8616 161.485L75.1269 162.632C75.2988 163.379 75.0335 163.704 74.8616 163.831C74.7682 163.899 74.6188 163.973 74.4058 163.973ZM72.6594 162.537C72.6594 162.484 72.657 162.494 72.8028 162.58L73.92 163.241C74.2451 163.435 74.4506 163.435 74.5291 163.379C74.6076 163.323 74.6636 163.125 74.5814 162.759L74.3161 161.612C74.2451 161.302 74.3609 160.902 74.5851 160.674L75.5118 159.747C75.6949 159.564 75.7771 159.385 75.7398 159.261C75.6987 159.138 75.5268 159.037 75.2727 158.996L74.0807 158.798C73.793 158.75 73.4791 158.518 73.3483 158.256L72.6907 156.941C72.5711 156.702 72.7412 162.614 72.6594 162.537C72.5286 162.537 71.8601 157.226 71.7443 157.465L72.2033 158.443C72.0726 158.705 72.6834 160.499 72.3956 160.547L72.4955 161.392C72.2414 161.433 72.5599 161.293 72.5188 161.417C72.4777 161.54 72.3357 161.432 72.5188 161.612V161.866C72.743 162.09 72.6392 161.78 72.5682 162.09L72.6164 162.351L72.693 162.642C72.6071 163.012 69.9928 163.083 70.0713 163.139C70.1497 163.195 70.1358 162.373 70.4646 162.183L72.2459 162.302C72.3879 162.216 72.4763 162.537 72.6594 162.537Z" fill="#C7C7C7"/>
<path d="M80.7235 160.214C80.7235 159.408 80.8279 158.668 81.0367 157.993C81.2476 157.315 81.548 156.692 81.9379 156.123H82.6027C82.4493 156.334 82.3055 156.594 82.1713 156.903C82.0392 157.21 81.923 157.547 81.8229 157.916C81.7227 158.282 81.6439 158.662 81.5864 159.054C81.531 159.446 81.5033 159.832 81.5033 160.214C81.5033 160.721 81.5523 161.236 81.6503 161.758C81.7483 162.28 81.8804 162.764 82.0466 163.212C82.2128 163.659 82.3982 164.024 82.6027 164.305H81.9379C81.548 163.736 81.2476 163.114 81.0367 162.438C80.8279 161.761 80.7235 161.019 80.7235 160.214ZM83.7029 163.487V162.911L85.8635 160.546C86.117 160.269 86.3258 160.028 86.4899 159.824C86.6539 159.617 86.7754 159.423 86.8542 159.242C86.9352 159.059 86.9757 158.867 86.9757 158.667C86.9757 158.437 86.9203 158.238 86.8095 158.069C86.7008 157.901 86.5517 157.771 86.362 157.679C86.1724 157.588 85.9593 157.542 85.7228 157.542C85.4714 157.542 85.252 157.594 85.0645 157.699C84.8791 157.801 84.7353 157.945 84.633 158.13C84.5328 158.315 84.4828 158.533 84.4828 158.782H83.7285C83.7285 158.399 83.8169 158.062 83.9938 157.772C84.1706 157.482 84.4114 157.256 84.7161 157.095C85.0229 156.933 85.367 156.852 85.7484 156.852C86.1319 156.852 86.4718 156.933 86.7679 157.095C87.0641 157.256 87.2963 157.475 87.4647 157.75C87.633 158.025 87.7172 158.33 87.7172 158.667C87.7172 158.908 87.6735 159.143 87.5861 159.373C87.5009 159.601 87.3517 159.856 87.1387 160.137C86.9277 160.416 86.6348 160.757 86.2598 161.16L84.7896 162.732V162.783H87.8322V163.487H83.7029ZM91.3638 163.576C90.9419 163.576 90.5659 163.504 90.2356 163.359C89.9075 163.214 89.6465 163.012 89.4526 162.755C89.2608 162.495 89.1564 162.193 89.1394 161.85H89.9448C89.9618 162.061 90.0343 162.243 90.1621 162.397C90.29 162.548 90.4572 162.665 90.6639 162.748C90.8706 162.831 91.0996 162.873 91.351 162.873C91.6323 162.873 91.8816 162.824 92.0989 162.726C92.3162 162.628 92.4867 162.492 92.6103 162.317C92.7338 162.142 92.7956 161.94 92.7956 161.71C92.7956 161.469 92.736 161.257 92.6167 161.074C92.4973 160.888 92.3226 160.743 92.0925 160.639C91.8624 160.535 91.5811 160.482 91.2488 160.482H90.7246V159.779H91.2488C91.5087 159.779 91.7367 159.732 91.9327 159.639C92.1309 159.545 92.2853 159.413 92.3961 159.242C92.5091 159.072 92.5655 158.872 92.5655 158.641C92.5655 158.42 92.5165 158.227 92.4185 158.063C92.3205 157.899 92.182 157.771 92.003 157.679C91.8262 157.588 91.6174 157.542 91.3766 157.542C91.1507 157.542 90.9377 157.584 90.7374 157.667C90.5392 157.748 90.3773 157.866 90.2516 158.021C90.1259 158.175 90.0577 158.36 90.0471 158.577H89.28C89.2928 158.234 89.3961 157.934 89.59 157.676C89.7839 157.416 90.0375 157.214 90.3507 157.069C90.666 156.924 91.0123 156.852 91.3894 156.852C91.7942 156.852 92.1415 156.934 92.4313 157.098C92.7211 157.26 92.9437 157.474 93.0993 157.74C93.2548 158.006 93.3326 158.294 93.3326 158.603C93.3326 158.972 93.2356 159.286 93.0417 159.546C92.85 159.806 92.589 159.986 92.2587 160.086V160.137C92.6721 160.205 92.9949 160.381 93.2271 160.664C93.4593 160.946 93.5755 161.294 93.5755 161.71C93.5755 162.065 93.4785 162.385 93.2846 162.668C93.0929 162.95 92.8308 163.171 92.4984 163.333C92.166 163.495 91.7878 163.576 91.3638 163.576ZM94.7292 162.144V161.492L97.6056 156.941H98.0787V157.951H97.7591L95.5858 161.39V161.441H99.4593V162.144H94.7292ZM97.8102 163.487V161.946V161.642V156.941H98.5645V163.487H97.8102ZM102.281 160.214C102.281 161.019 102.175 161.761 101.964 162.438C101.755 163.114 101.456 163.736 101.066 164.305H100.401C100.555 164.094 100.698 163.834 100.83 163.525C100.964 163.218 101.081 162.881 101.181 162.515C101.281 162.146 101.359 161.766 101.415 161.374C101.472 160.98 101.501 160.593 101.501 160.214C101.501 159.707 101.452 159.192 101.354 158.67C101.256 158.148 101.124 157.663 100.957 157.216C100.791 156.769 100.606 156.404 100.401 156.123H101.066C101.456 156.692 101.755 157.315 101.964 157.993C102.175 158.668 102.281 159.408 102.281 160.214Z" fill="#949494"/>
<g opacity="0.7" clip-path="url(#clip1_6389_12829)">
<path d="M23.9133 181.926C23.9133 183.94 23.1149 185.768 21.8188 187.112C20.4588 188.52 18.5527 189.397 16.4392 189.397C14.3274 189.397 12.4179 188.522 11.0596 187.112C9.76346 185.768 8.9668 183.938 8.9668 181.926C8.9668 177.799 12.3124 174.454 16.4409 174.454C20.5677 174.454 23.9133 177.799 23.9133 181.926Z" fill="#DFE0E1"/>
<path d="M14.9585 177.819C14.9585 177.48 15.2333 177.204 15.5737 177.204H17.148C18.1296 177.204 18.9263 178 18.9263 178.981V180.89H15.1814L14.9585 177.819Z" fill="#535A5F"/>
<path d="M14.3718 181.111H13.8447V178.549C13.8447 177.976 14.4323 177.59 14.9576 177.817C15.0786 178.454 14.3718 181.111 14.3718 181.111Z" fill="#535A5F"/>
<path d="M17.5804 183.143C17.4145 183.868 16.967 184.39 16.4399 184.39C15.9128 184.39 15.4635 183.868 15.2993 183.141L15.4272 182.649L15.4652 182.502H17.4145L17.5597 183.065L17.5735 183.115L17.5804 183.143Z" fill="#D3D6DC"/>
<path d="M18.8916 180.379C19.8628 179.291 19.2148 181.953 18.6773 181.64C17.7338 181.094 18.8916 180.379 18.8916 180.379Z" fill="#F4F4F4"/>
<path d="M21.8184 187.112C21.3137 187.634 20.7348 188.083 20.0972 188.442C19.1138 188.995 17.994 189.332 16.7999 189.389C16.6807 189.396 16.5597 189.398 16.4387 189.398C15.8356 189.398 15.2515 189.327 14.6899 189.192C13.9088 189.006 13.1743 188.695 12.5107 188.283C11.9784 187.954 11.4911 187.56 11.0591 187.112L11.187 186.604C11.3822 185.842 11.9819 185.25 12.7475 185.067L12.8321 185.048L13.7705 184.823L14.0263 184.763C14.1351 184.737 14.2371 184.701 14.3356 184.652C14.4168 184.612 14.4946 184.568 14.5689 184.514C14.6484 184.457 14.7227 184.393 14.7884 184.324C14.9681 184.136 15.1012 183.902 15.1686 183.64L15.2688 183.253L15.2947 183.149L15.2964 183.141L15.4243 182.648L15.4623 182.501H17.4117L17.5568 183.065L17.5706 183.115L17.5776 183.142L17.5793 183.149L17.6069 183.255L17.7072 183.64C17.8005 183.999 18.0148 184.307 18.3068 184.514C18.4658 184.63 18.649 184.714 18.8477 184.763L19.0845 184.82L20.1283 185.069C20.8938 185.252 21.4952 185.844 21.6887 186.606L21.8184 187.112Z" fill="#F4F4F4"/>
<path d="M17.5795 183.142C17.4136 183.868 16.966 184.39 16.4389 184.39C15.9118 184.39 15.4625 183.868 15.2983 183.141L15.4262 182.648L15.4642 182.501H17.4136L17.5587 183.065L17.5725 183.115L17.5795 183.142Z" fill="#D3D6DC"/>
<path d="M13.9865 180.379C13.0153 179.29 13.6634 181.952 14.2008 181.64C15.1444 181.094 13.9865 180.379 13.9865 180.379Z" fill="#F4F4F4"/>
<path d="M18.6968 179.594C18.6968 179.677 18.6916 179.758 18.6829 179.838C18.676 179.91 18.6432 180.223 18.5844 180.622L18.5827 180.624C18.5516 180.845 18.5101 181.092 18.46 181.339C18.4583 181.342 18.4583 181.346 18.4583 181.347C18.339 181.952 18.1714 182.553 17.9502 182.771C17.7014 183.02 17.5026 183.244 17.2763 183.407C17.0481 183.571 16.7941 183.671 16.4364 183.671C16.0787 183.671 15.8246 183.569 15.5965 183.407C15.3701 183.244 15.1697 183.018 14.9226 182.771C14.7031 182.552 14.5337 181.949 14.4145 181.346V181.347C14.4128 181.346 14.4128 181.346 14.4128 181.344C14.3972 181.266 14.3834 181.189 14.3696 181.111C14.3644 181.08 14.3575 181.047 14.3523 181.016C14.3281 180.881 14.3073 180.748 14.2901 180.624C14.2227 180.166 14.1898 179.822 14.1898 179.822C14.1829 179.748 14.1777 179.672 14.1777 179.594C14.1777 179.575 14.1777 179.554 14.1795 179.535C14.1846 179.357 14.2088 179.185 14.252 179.019C14.2538 179.012 14.2555 179.003 14.2572 178.996C14.5078 178.079 15.3235 177.395 16.3051 177.34C16.3483 177.336 16.3897 177.336 16.4347 177.336C17.0585 177.336 17.6236 177.588 18.0314 177.998C18.384 178.35 18.6207 178.82 18.6795 179.344C18.6916 179.426 18.6968 179.509 18.6968 179.594Z" fill="#F4F4F4"/>
<path d="M16.7928 181.624C16.7928 181.78 16.6338 181.906 16.4368 181.906C16.2415 181.906 16.0825 181.78 16.0825 181.624C16.0825 181.605 16.0842 181.586 16.0894 181.569C16.1205 181.699 16.264 181.797 16.4368 181.797C16.6096 181.797 16.753 181.699 16.7841 181.569C16.791 181.586 16.7928 181.605 16.7928 181.624Z" fill="#DFE0E1"/>
<path d="M18.7654 179.614C18.7654 179.698 18.7602 179.781 18.7516 179.866C18.7446 179.942 18.5857 180.624 18.5857 180.624C15.3385 179.835 15.0793 178.456 15.0793 178.456C15.0897 179.774 14.293 180.626 14.293 180.626C14.2239 180.154 14.1254 179.848 14.1254 179.848C14.1185 179.772 14.1133 179.693 14.1133 179.614C14.1133 179.593 14.1133 179.572 14.115 179.553C14.1202 179.37 14.1444 179.192 14.191 179.021C14.1928 179.014 14.1945 179.005 14.1962 178.999C14.4554 178.054 15.2936 177.349 16.3063 177.293C16.3512 177.29 16.3944 177.29 16.4393 177.29C17.0822 177.29 17.6646 177.551 18.0845 177.971C18.4491 178.333 18.6928 178.817 18.7516 179.356C18.7619 179.441 18.7654 179.525 18.7654 179.614Z" fill="#535A5F"/>
<path d="M21.8184 187.116C20.4583 188.524 18.5505 189.4 16.4387 189.4C14.327 189.4 12.4174 188.524 11.0591 187.114L11.187 186.608C11.3822 185.844 11.9819 185.254 12.7475 185.07L13.7722 184.827L14.0263 184.766C14.1403 184.739 14.2526 184.699 14.3546 184.647C14.8748 185.202 15.6144 185.547 16.4353 185.547C17.2561 185.547 17.9958 185.2 18.5159 184.647C18.6196 184.697 18.7285 184.739 18.8443 184.766L19.0706 184.82L20.1283 185.072C20.8938 185.255 21.4952 185.848 21.6887 186.61L21.8184 187.116Z" fill="#6E7375"/>
<path d="M19.0709 184.82C18.841 185.098 17.9994 185.977 16.4372 186.039C14.6382 186.112 13.8208 184.899 13.7725 184.827L14.0265 184.766C14.1406 184.739 14.2529 184.699 14.3548 184.647C14.875 185.202 15.6146 185.547 16.4355 185.547C17.2564 185.547 17.996 185.2 18.5162 184.647C18.6198 184.697 18.7287 184.739 18.8445 184.766L19.0709 184.82Z" fill="#535A5F"/>
</g>
<rect x="29.8931" y="179.686" width="55.9454" height="4.48395" rx="2.24198" fill="#EBEBEB"/>
<line x1="8.96777" y1="197.995" x2="161.032" y2="197.995" stroke="#EBEBEB" stroke-width="0.747326"/>
<path d="M11.5757 220.623V212.441H12.0999V220.623H11.5757ZM13.3399 214.896C13.3016 214.572 13.146 214.32 12.8733 214.141C12.6006 213.962 12.2661 213.873 11.8698 213.873C11.58 213.873 11.3264 213.92 11.1091 214.013C10.8939 214.107 10.7256 214.236 10.6041 214.4C10.4848 214.564 10.4252 214.751 10.4252 214.96C10.4252 215.134 10.4667 215.284 10.5498 215.41C10.635 215.534 10.7437 215.637 10.8758 215.72C11.0079 215.801 11.1464 215.868 11.2913 215.922C11.4362 215.973 11.5693 216.014 11.6908 216.046L12.3556 216.225C12.526 216.27 12.7156 216.332 12.9244 216.411C13.1354 216.489 13.3367 216.597 13.5285 216.733C13.7224 216.868 13.8822 217.04 14.0079 217.251C14.1336 217.462 14.1965 217.721 14.1965 218.028C14.1965 218.381 14.1038 218.701 13.9184 218.987C13.7352 219.272 13.4667 219.499 13.113 219.667C12.7615 219.836 12.3343 219.92 11.8314 219.92C11.3627 219.92 10.9568 219.844 10.6137 219.693C10.2728 219.542 10.0044 219.331 9.80833 219.06C9.61444 218.789 9.50471 218.475 9.47914 218.117H10.2973C10.3186 218.364 10.4017 218.569 10.5466 218.731C10.6936 218.891 10.879 219.01 11.1027 219.089C11.3286 219.165 11.5715 219.204 11.8314 219.204C12.134 219.204 12.4056 219.155 12.6464 219.057C12.8872 218.957 13.0779 218.818 13.2185 218.641C13.3591 218.462 13.4294 218.254 13.4294 218.015C13.4294 217.798 13.3687 217.621 13.2472 217.484C13.1258 217.348 12.966 217.237 12.7678 217.152C12.5697 217.067 12.3556 216.992 12.1254 216.928L11.32 216.698C10.8087 216.551 10.4039 216.341 10.1056 216.069C9.80726 215.796 9.65811 215.439 9.65811 214.998C9.65811 214.631 9.75719 214.312 9.95534 214.039C10.1556 213.764 10.4241 213.551 10.7607 213.4C11.0995 213.246 11.4777 213.17 11.8953 213.17C12.3172 213.17 12.6922 213.245 13.0203 213.397C13.3485 213.546 13.6084 213.75 13.8002 214.01C13.9941 214.27 14.0963 214.565 14.107 214.896H13.3399ZM17.4684 213.17C17.7369 213.172 18.0053 213.223 18.2738 213.323C18.5423 213.423 18.7873 213.589 19.0089 213.822C19.2305 214.052 19.4084 214.366 19.5426 214.765C19.6768 215.163 19.744 215.663 19.744 216.263C19.744 216.845 19.6886 217.362 19.5778 217.814C19.4691 218.263 19.3114 218.642 19.1048 218.951C18.9002 219.26 18.6509 219.495 18.3569 219.654C18.065 219.814 17.7347 219.894 17.3661 219.894C16.9996 219.894 16.6726 219.822 16.3849 219.677C16.0994 219.53 15.8651 219.326 15.6818 219.066C15.5007 218.804 15.3846 218.501 15.3335 218.156H16.1133C16.1836 218.456 16.3232 218.704 16.532 218.9C16.7429 219.094 17.021 219.191 17.3661 219.191C17.8711 219.191 18.2695 218.971 18.5614 218.529C18.8555 218.088 19.0025 217.465 19.0025 216.66H18.9513C18.832 216.839 18.6903 216.993 18.5263 217.123C18.3622 217.253 18.18 217.353 17.9798 217.424C17.7795 217.494 17.5664 217.529 17.3406 217.529C16.9656 217.529 16.6214 217.436 16.3082 217.251C15.9972 217.064 15.7479 216.807 15.5604 216.481C15.375 216.153 15.2823 215.778 15.2823 215.356C15.2823 214.955 15.3718 214.589 15.5508 214.256C15.7319 213.922 15.9854 213.656 16.3114 213.457C16.6396 213.259 17.0252 213.163 17.4684 213.17ZM17.4684 213.873C17.1999 213.873 16.9581 213.94 16.7429 214.074C16.5298 214.206 16.3604 214.385 16.2347 214.611C16.1112 214.835 16.0494 215.083 16.0494 215.356C16.0494 215.629 16.109 215.877 16.2283 216.1C16.3498 216.322 16.5149 216.499 16.7237 216.631C16.9347 216.761 17.1744 216.826 17.4428 216.826C17.6452 216.826 17.8338 216.787 18.0085 216.708C18.1832 216.627 18.3356 216.517 18.4656 216.379C18.5977 216.238 18.701 216.079 18.7756 215.902C18.8501 215.723 18.8874 215.537 18.8874 215.343C18.8874 215.087 18.8256 214.848 18.7021 214.624C18.5806 214.4 18.4123 214.219 18.1971 214.081C17.984 213.942 17.7411 213.873 17.4684 213.873ZM23.0846 213.17C23.3531 213.172 23.6215 213.223 23.89 213.323C24.1585 213.423 24.4035 213.589 24.6251 213.822C24.8467 214.052 25.0246 214.366 25.1588 214.765C25.2931 215.163 25.3602 215.663 25.3602 216.263C25.3602 216.845 25.3048 217.362 25.194 217.814C25.0853 218.263 24.9276 218.642 24.721 218.951C24.5164 219.26 24.2671 219.495 23.9731 219.654C23.6812 219.814 23.3509 219.894 22.9823 219.894C22.6159 219.894 22.2888 219.822 22.0012 219.677C21.7156 219.53 21.4813 219.326 21.298 219.066C21.1169 218.804 21.0008 218.501 20.9497 218.156H21.7295C21.7998 218.456 21.9394 218.704 22.1482 218.9C22.3591 219.094 22.6372 219.191 22.9823 219.191C23.4873 219.191 23.8857 218.971 24.1776 218.529C24.4717 218.088 24.6187 217.465 24.6187 216.66H24.5676C24.4482 216.839 24.3066 216.993 24.1425 217.123C23.9784 217.253 23.7963 217.353 23.596 217.424C23.3957 217.494 23.1826 217.529 22.9568 217.529C22.5818 217.529 22.2377 217.436 21.9244 217.251C21.6134 217.064 21.3641 216.807 21.1766 216.481C20.9912 216.153 20.8985 215.778 20.8985 215.356C20.8985 214.955 20.988 214.589 21.167 214.256C21.3481 213.922 21.6017 213.656 21.9276 213.457C22.2558 213.259 22.6414 213.163 23.0846 213.17ZM23.0846 213.873C22.8161 213.873 22.5743 213.94 22.3591 214.074C22.146 214.206 21.9767 214.385 21.8509 214.611C21.7274 214.835 21.6656 215.083 21.6656 215.356C21.6656 215.629 21.7252 215.877 21.8445 216.1C21.966 216.322 22.1311 216.499 22.3399 216.631C22.5509 216.761 22.7906 216.826 23.059 216.826C23.2615 216.826 23.45 216.787 23.6247 216.708C23.7994 216.627 23.9518 216.517 24.0818 216.379C24.2139 216.238 24.3172 216.079 24.3918 215.902C24.4664 215.723 24.5036 215.537 24.5036 215.343C24.5036 215.087 24.4419 214.848 24.3183 214.624C24.1968 214.4 24.0285 214.219 23.8133 214.081C23.6002 213.942 23.3573 213.873 23.0846 213.873ZM26.951 219.856C26.7933 219.856 26.658 219.799 26.5451 219.686C26.4322 219.574 26.3757 219.438 26.3757 219.281C26.3757 219.123 26.4322 218.988 26.5451 218.875C26.658 218.762 26.7933 218.705 26.951 218.705C27.1087 218.705 27.244 218.762 27.3569 218.875C27.4698 218.988 27.5263 219.123 27.5263 219.281C27.5263 219.385 27.4996 219.481 27.4464 219.568C27.3952 219.656 27.326 219.726 27.2386 219.779C27.1534 219.83 27.0575 219.856 26.951 219.856ZM30.8893 213.17C31.1578 213.172 31.4262 213.223 31.6947 213.323C31.9632 213.423 32.2082 213.589 32.4298 213.822C32.6514 214.052 32.8293 214.366 32.9635 214.765C33.0977 215.163 33.1649 215.663 33.1649 216.263C33.1649 216.845 33.1095 217.362 32.9987 217.814C32.89 218.263 32.7323 218.642 32.5257 218.951C32.3211 219.26 32.0718 219.495 31.7778 219.654C31.4859 219.814 31.1556 219.894 30.787 219.894C30.4205 219.894 30.0935 219.822 29.8058 219.677C29.5203 219.53 29.286 219.326 29.1027 219.066C28.9216 218.804 28.8055 218.501 28.7544 218.156H29.5342C29.6045 218.456 29.7441 218.704 29.9529 218.9C30.1638 219.094 30.4419 219.191 30.787 219.191C31.292 219.191 31.6904 218.971 31.9823 218.529C32.2764 218.088 32.4234 217.465 32.4234 216.66H32.3722C32.2529 216.839 32.1112 216.993 31.9472 217.123C31.7831 217.253 31.6009 217.353 31.4007 217.424C31.2004 217.494 30.9873 217.529 30.7615 217.529C30.3865 217.529 30.0423 217.436 29.7291 217.251C29.4181 217.064 29.1688 216.807 28.9813 216.481C28.7959 216.153 28.7032 215.778 28.7032 215.356C28.7032 214.955 28.7927 214.589 28.9717 214.256C29.1528 213.922 29.4063 213.656 29.7323 213.457C30.0605 213.259 30.4461 213.163 30.8893 213.17ZM30.8893 213.873C30.6208 213.873 30.379 213.94 30.1638 214.074C29.9507 214.206 29.7813 214.385 29.6556 214.611C29.532 214.835 29.4703 215.083 29.4703 215.356C29.4703 215.629 29.5299 215.877 29.6492 216.1C29.7707 216.322 29.9358 216.499 30.1446 216.631C30.3556 216.761 30.5953 216.826 30.8637 216.826C31.0661 216.826 31.2547 216.787 31.4294 216.708C31.6041 216.627 31.7565 216.517 31.8865 216.379C32.0186 216.238 32.1219 216.079 32.1965 215.902C32.271 215.723 32.3083 215.537 32.3083 215.343C32.3083 215.087 32.2465 214.848 32.123 214.624C32.0015 214.4 31.8332 214.219 31.618 214.081C31.4049 213.942 31.162 213.873 30.8893 213.873ZM36.5055 213.17C36.774 213.172 37.0424 213.223 37.3109 213.323C37.5794 213.423 37.8244 213.589 38.046 213.822C38.2676 214.052 38.4455 214.366 38.5797 214.765C38.714 215.163 38.7811 215.663 38.7811 216.263C38.7811 216.845 38.7257 217.362 38.6149 217.814C38.5062 218.263 38.3485 218.642 38.1419 218.951C37.9373 219.26 37.688 219.495 37.394 219.654C37.1021 219.814 36.7718 219.894 36.4032 219.894C36.0368 219.894 35.7097 219.822 35.4221 219.677C35.1365 219.53 34.9022 219.326 34.7189 219.066C34.5378 218.804 34.4217 218.501 34.3706 218.156H35.1504C35.2207 218.456 35.3603 218.704 35.5691 218.9C35.78 219.094 36.0581 219.191 36.4032 219.191C36.9082 219.191 37.3066 218.971 37.5985 218.529C37.8926 218.088 38.0396 217.465 38.0396 216.66H37.9885C37.8691 216.839 37.7275 216.993 37.5634 217.123C37.3993 217.253 37.2172 217.353 37.0169 217.424C36.8166 217.494 36.6035 217.529 36.3777 217.529C36.0027 217.529 35.6586 217.436 35.3453 217.251C35.0343 217.064 34.785 216.807 34.5975 216.481C34.4121 216.153 34.3194 215.778 34.3194 215.356C34.3194 214.955 34.4089 214.589 34.5879 214.256C34.769 213.922 35.0225 213.656 35.3485 213.457C35.6767 213.259 36.0623 213.163 36.5055 213.17ZM36.5055 213.873C36.237 213.873 35.9952 213.94 35.78 214.074C35.5669 214.206 35.3975 214.385 35.2718 214.611C35.1483 214.835 35.0865 215.083 35.0865 215.356C35.0865 215.629 35.1461 215.877 35.2654 216.1C35.3869 216.322 35.552 216.499 35.7608 216.631C35.9718 216.761 36.2115 216.826 36.4799 216.826C36.6824 216.826 36.8709 216.787 37.0456 216.708C37.2203 216.627 37.3727 216.517 37.5027 216.379C37.6348 216.238 37.7381 216.079 37.8127 215.902C37.8873 215.723 37.9245 215.537 37.9245 215.343C37.9245 215.087 37.8627 214.848 37.7392 214.624C37.6177 214.4 37.4494 214.219 37.2342 214.081C37.0211 213.942 36.7782 213.873 36.5055 213.873Z" fill="#949494"/>
<path d="M45.2752 220.032V212.759H45.7411V220.032H45.2752ZM46.8434 214.941C46.8093 214.653 46.671 214.43 46.4286 214.271C46.1862 214.112 45.8888 214.032 45.5366 214.032C45.279 214.032 45.0536 214.074 44.8604 214.157C44.6692 214.24 44.5195 214.355 44.4116 214.501C44.3055 214.647 44.2525 214.812 44.2525 214.998C44.2525 215.153 44.2894 215.287 44.3633 215.398C44.439 215.508 44.5356 215.6 44.6531 215.674C44.7705 215.746 44.8936 215.806 45.0224 215.853C45.1512 215.898 45.2695 215.935 45.3775 215.964L45.9684 216.123C46.1199 216.163 46.2885 216.218 46.4741 216.288C46.6616 216.358 46.8406 216.453 47.011 216.575C47.1834 216.694 47.3254 216.847 47.4371 217.035C47.5489 217.222 47.6048 217.452 47.6048 217.725C47.6048 218.04 47.5224 218.324 47.3576 218.577C47.1947 218.831 46.9561 219.033 46.6417 219.183C46.3292 219.332 45.9495 219.407 45.5025 219.407C45.0858 219.407 44.725 219.34 44.4201 219.205C44.1171 219.071 43.8784 218.883 43.7042 218.643C43.5318 218.402 43.4343 218.123 43.4116 217.805H44.1388C44.1578 218.024 44.2317 218.206 44.3604 218.35C44.4911 218.492 44.6559 218.598 44.8548 218.668C45.0555 218.737 45.2714 218.771 45.5025 218.771C45.7714 218.771 46.0129 218.727 46.2269 218.64C46.4409 218.551 46.6104 218.428 46.7354 218.271C46.8604 218.112 46.9229 217.926 46.9229 217.714C46.9229 217.521 46.869 217.363 46.761 217.242C46.6531 217.121 46.511 217.022 46.3349 216.947C46.1587 216.871 45.9684 216.805 45.7638 216.748L45.0479 216.543C44.5934 216.413 44.2335 216.226 43.9684 215.984C43.7032 215.741 43.5707 215.424 43.5707 215.032C43.5707 214.706 43.6587 214.422 43.8349 214.18C44.0129 213.935 44.2515 213.746 44.5508 213.612C44.8519 213.475 45.1881 213.407 45.5593 213.407C45.9343 213.407 46.2676 213.474 46.5593 213.609C46.851 213.741 47.082 213.923 47.2525 214.154C47.4248 214.385 47.5157 214.647 47.5252 214.941H46.8434ZM50.7063 213.487V219.305H50.0018V214.225H49.9677L48.5472 215.168V214.452L50.0018 213.487H50.7063ZM52.3796 219.305V218.793L54.3001 216.691C54.5254 216.445 54.7111 216.231 54.8569 216.049C55.0027 215.865 55.1107 215.693 55.1808 215.532C55.2527 215.369 55.2887 215.199 55.2887 215.021C55.2887 214.816 55.2395 214.639 55.141 214.489C55.0444 214.34 54.9118 214.224 54.7433 214.143C54.5747 214.061 54.3853 214.021 54.1751 214.021C53.9516 214.021 53.7565 214.067 53.5898 214.16C53.4251 214.251 53.2972 214.379 53.2063 214.543C53.1173 214.708 53.0728 214.901 53.0728 215.123H52.4023C52.4023 214.782 52.4809 214.483 52.6381 214.225C52.7953 213.968 53.0094 213.767 53.2802 213.623C53.5529 213.479 53.8588 213.407 54.1978 213.407C54.5387 213.407 54.8408 213.479 55.104 213.623C55.3673 213.767 55.5737 213.961 55.7234 214.205C55.873 214.45 55.9478 214.721 55.9478 215.021C55.9478 215.235 55.909 215.444 55.8313 215.648C55.7556 215.851 55.623 216.077 55.4336 216.327C55.2461 216.576 54.9857 216.879 54.6523 217.237L53.3455 218.634V218.68H56.0501V219.305H52.3796ZM56.962 218.112V217.532L59.5188 213.487H59.9393V214.384H59.6552L57.7234 217.441V217.487H61.1665V218.112H56.962ZM59.7006 219.305V217.935V217.665V213.487H60.3711V219.305H59.7006ZM62.4577 219.35C62.3176 219.35 62.1973 219.3 62.0969 219.2C61.9966 219.099 61.9464 218.979 61.9464 218.839C61.9464 218.699 61.9966 218.578 62.0969 218.478C62.1973 218.378 62.3176 218.327 62.4577 218.327C62.5979 218.327 62.7182 218.378 62.8185 218.478C62.9189 218.578 62.9691 218.699 62.9691 218.839C62.9691 218.932 62.9454 219.017 62.8981 219.094C62.8526 219.172 62.7911 219.235 62.7134 219.282C62.6377 219.327 62.5524 219.35 62.4577 219.35ZM65.9585 213.407C66.1971 213.409 66.4357 213.454 66.6744 213.543C66.913 213.632 67.1308 213.78 67.3278 213.987C67.5247 214.191 67.6829 214.47 67.8022 214.825C67.9215 215.179 67.9812 215.623 67.9812 216.157C67.9812 216.674 67.9319 217.133 67.8335 217.535C67.7369 217.934 67.5967 218.272 67.413 218.546C67.2312 218.821 67.0096 219.029 66.7482 219.171C66.4888 219.313 66.1952 219.384 65.8675 219.384C65.5418 219.384 65.2511 219.32 64.9954 219.191C64.7416 219.06 64.5333 218.879 64.3704 218.648C64.2094 218.415 64.1062 218.146 64.0607 217.839H64.7539C64.8164 218.106 64.9405 218.326 65.1261 218.501C65.3136 218.673 65.5607 218.759 65.8675 218.759C66.3164 218.759 66.6706 218.563 66.93 218.171C67.1914 217.779 67.3221 217.225 67.3221 216.509H67.2766C67.1706 216.668 67.0446 216.806 66.8988 216.921C66.753 217.037 66.591 217.126 66.413 217.188C66.235 217.251 66.0456 217.282 65.8448 217.282C65.5115 217.282 65.2056 217.2 64.9272 217.035C64.6507 216.868 64.4291 216.64 64.2624 216.35C64.0977 216.058 64.0153 215.725 64.0153 215.35C64.0153 214.994 64.0948 214.668 64.2539 214.373C64.4149 214.076 64.6403 213.839 64.93 213.663C65.2217 213.487 65.5645 213.401 65.9585 213.407ZM65.9585 214.032C65.7198 214.032 65.5049 214.092 65.3136 214.211C65.1242 214.328 64.9736 214.487 64.8619 214.688C64.752 214.887 64.6971 215.108 64.6971 215.35C64.6971 215.593 64.7501 215.813 64.8562 216.012C64.9641 216.209 65.1109 216.366 65.2965 216.484C65.484 216.599 65.6971 216.657 65.9357 216.657C66.1156 216.657 66.2833 216.622 66.4386 216.552C66.5939 216.48 66.7293 216.382 66.8448 216.259C66.9622 216.134 67.0541 215.993 67.1204 215.836C67.1867 215.677 67.2198 215.511 67.2198 215.339C67.2198 215.112 67.1649 214.898 67.055 214.7C66.9471 214.501 66.7975 214.34 66.6062 214.217C66.4168 214.094 66.2009 214.032 65.9585 214.032ZM70.9506 213.407C71.1893 213.409 71.4279 213.454 71.6665 213.543C71.9052 213.632 72.123 213.78 72.32 213.987C72.5169 214.191 72.6751 214.47 72.7944 214.825C72.9137 215.179 72.9734 215.623 72.9734 216.157C72.9734 216.674 72.9241 217.133 72.8256 217.535C72.729 217.934 72.5889 218.272 72.4052 218.546C72.2234 218.821 72.0018 219.029 71.7404 219.171C71.4809 219.313 71.1874 219.384 70.8597 219.384C70.534 219.384 70.2433 219.32 69.9876 219.191C69.7338 219.06 69.5254 218.879 69.3626 218.648C69.2016 218.415 69.0984 218.146 69.0529 217.839H69.7461C69.8086 218.106 69.9326 218.326 70.1183 218.501C70.3058 218.673 70.5529 218.759 70.8597 218.759C71.3086 218.759 71.6628 218.563 71.9222 218.171C72.1836 217.779 72.3143 217.225 72.3143 216.509H72.2688C72.1628 216.668 72.0368 216.806 71.891 216.921C71.7451 217.037 71.5832 217.126 71.4052 217.188C71.2272 217.251 71.0378 217.282 70.837 217.282C70.5037 217.282 70.1978 217.2 69.9194 217.035C69.6429 216.868 69.4213 216.64 69.2546 216.35C69.0898 216.058 69.0075 215.725 69.0075 215.35C69.0075 214.994 69.087 214.668 69.2461 214.373C69.4071 214.076 69.6325 213.839 69.9222 213.663C70.2139 213.487 70.5567 213.401 70.9506 213.407ZM70.9506 214.032C70.712 214.032 70.497 214.092 70.3058 214.211C70.1164 214.328 69.9658 214.487 69.854 214.688C69.7442 214.887 69.6893 215.108 69.6893 215.35C69.6893 215.593 69.7423 215.813 69.8484 216.012C69.9563 216.209 70.1031 216.366 70.2887 216.484C70.4762 216.599 70.6893 216.657 70.9279 216.657C71.1078 216.657 71.2754 216.622 71.4308 216.552C71.5861 216.48 71.7215 216.382 71.837 216.259C71.9544 216.134 72.0463 215.993 72.1126 215.836C72.1789 215.677 72.212 215.511 72.212 215.339C72.212 215.112 72.1571 214.898 72.0472 214.7C71.9393 214.501 71.7897 214.34 71.5984 214.217C71.409 214.094 71.1931 214.032 70.9506 214.032Z" fill="#C7C7C7"/>
<path d="M42.957 216.685H48.0593V217.231H42.957V216.685ZM48.0586 216.685H56.6183V217.231H48.0586V216.685ZM56.4961 216.685H61.6325V217.231H56.4961V216.685ZM61.3555 216.685H63.56V217.231H61.3555V216.685ZM63.5039 216.685H73.4847V217.231H63.5039V216.685Z" fill="#C7C7C7"/>
<path d="M100.54 210.326C100.54 208.675 101.878 207.337 103.529 207.337H158.043C159.694 207.337 161.032 208.675 161.032 210.326V222.283C161.032 223.934 159.694 225.272 158.043 225.272H103.529C101.878 225.272 100.54 223.934 100.54 222.283V210.326Z" fill="#7B68EE"/>
<path d="M114.58 213.883C114.553 213.851 114.52 213.826 114.483 213.809C114.446 213.791 114.406 213.782 114.365 213.782H108.713L108.5 212.611C108.489 212.547 108.455 212.488 108.404 212.446C108.354 212.404 108.29 212.381 108.225 212.381H107.358C107.284 212.381 107.213 212.411 107.16 212.463C107.108 212.516 107.078 212.587 107.078 212.661C107.078 212.736 107.108 212.807 107.16 212.86C107.213 212.912 107.284 212.942 107.358 212.942H107.989L108.884 217.856C108.911 218.002 108.975 218.138 109.071 218.251C108.939 218.375 108.843 218.532 108.795 218.707C108.747 218.882 108.748 219.066 108.798 219.24C108.849 219.414 108.946 219.571 109.08 219.693C109.214 219.815 109.379 219.897 109.557 219.931C109.735 219.965 109.919 219.949 110.089 219.885C110.258 219.82 110.406 219.71 110.517 219.567C110.628 219.424 110.697 219.252 110.716 219.072C110.735 218.892 110.704 218.71 110.626 218.547H112.218C112.155 218.678 112.122 218.821 112.123 218.967C112.123 219.161 112.18 219.351 112.288 219.512C112.396 219.673 112.549 219.799 112.728 219.873C112.907 219.947 113.105 219.967 113.295 219.929C113.485 219.891 113.66 219.798 113.797 219.66C113.934 219.523 114.028 219.349 114.065 219.158C114.103 218.968 114.084 218.771 114.01 218.592C113.935 218.412 113.81 218.259 113.648 218.151C113.487 218.044 113.297 217.986 113.103 217.986H109.711C109.646 217.986 109.582 217.963 109.532 217.921C109.481 217.879 109.447 217.82 109.436 217.756L109.325 217.145H113.388C113.585 217.145 113.776 217.076 113.927 216.95C114.078 216.824 114.18 216.649 114.215 216.455L114.641 214.113C114.649 214.072 114.647 214.031 114.636 213.991C114.625 213.951 114.606 213.914 114.58 213.883ZM110.161 218.967C110.161 219.05 110.136 219.131 110.09 219.2C110.044 219.27 109.978 219.323 109.901 219.355C109.825 219.387 109.74 219.395 109.658 219.379C109.577 219.363 109.502 219.323 109.443 219.264C109.384 219.205 109.344 219.13 109.328 219.049C109.312 218.967 109.32 218.883 109.352 218.806C109.384 218.729 109.438 218.664 109.507 218.617C109.576 218.571 109.657 218.547 109.74 218.547C109.852 218.547 109.959 218.591 110.038 218.67C110.117 218.748 110.161 218.855 110.161 218.967ZM113.524 218.967C113.524 219.05 113.499 219.131 113.453 219.2C113.407 219.27 113.341 219.323 113.264 219.355C113.187 219.387 113.103 219.395 113.021 219.379C112.94 219.363 112.865 219.323 112.806 219.264C112.747 219.205 112.707 219.13 112.691 219.049C112.675 218.967 112.683 218.883 112.715 218.806C112.747 218.729 112.801 218.664 112.87 218.617C112.939 218.571 113.02 218.547 113.103 218.547C113.215 218.547 113.322 218.591 113.401 218.67C113.48 218.748 113.524 218.855 113.524 218.967ZM113.664 216.355C113.652 216.419 113.618 216.478 113.567 216.52C113.517 216.562 113.453 216.585 113.387 216.585H109.223L108.815 214.343H114.029L113.664 216.355Z" fill="white"/>
<rect x="118.476" y="214.062" width="36.5781" height="4.48395" rx="1.49465" fill="white"/>
<defs>
<clipPath id="clip0_6389_12829">
<rect x="8.96777" y="8.9679" width="152.064" height="86.6898" rx="2.9893" fill="white"/>
</clipPath>
<clipPath id="clip1_6389_12829">
<rect width="14.9465" height="14.9465" fill="white" transform="translate(8.96777 174.454)"/>
</clipPath>
</defs>
</svg>
