<svg width="170" height="235" viewBox="0 0 170 235" fill="none" xmlns="http://www.w3.org/2000/svg">
<rect width="170" height="234.24" rx="2.9893" fill="white"/>
<path d="M170 79.7396V86.7509H0V74.378L51.289 22.9205L110.568 77.6239L140.361 48.7982L170 79.7396Z" fill="#EBEBEB"/>
<circle cx="117.479" cy="26.2167" r="14.9465" fill="#EBEBEB"/>
<path d="M4 13.9081C4 8.93064 8.03501 4.89563 13.0124 4.89563V4.89563C17.9899 4.89563 22.0249 8.93064 22.0249 13.9081V13.9081C22.0249 18.8855 17.9899 22.9205 13.0124 22.9205V22.9205C8.03501 22.9205 4 18.8855 4 13.9081V13.9081Z" fill="#DEDEDE"/>
<path d="M13.0122 17.9345C12.8829 17.9345 12.7577 17.9178 12.6534 17.8802C11.0595 17.3337 8.52686 15.3935 8.52686 12.527C8.52686 11.0667 9.70765 9.88171 11.1597 9.88171C11.8648 9.88171 12.524 10.1571 13.0122 10.6494C13.5004 10.1571 14.1596 9.88171 14.8648 9.88171C16.3168 9.88171 17.4976 11.0709 17.4976 12.527C17.4976 15.3977 14.9649 17.3337 13.371 17.8802C13.2667 17.9178 13.1416 17.9345 13.0122 17.9345ZM11.1597 10.5076C10.054 10.5076 9.15272 11.413 9.15272 12.527C9.15272 15.3768 11.894 16.9623 12.8578 17.2919C12.9329 17.317 13.0957 17.317 13.1708 17.2919C14.1304 16.9623 16.8759 15.381 16.8759 12.527C16.8759 11.413 15.9746 10.5076 14.8689 10.5076C14.2347 10.5076 13.6464 10.8038 13.2667 11.317C13.1499 11.4756 12.8829 11.4756 12.766 11.317C12.378 10.7996 11.7939 10.5076 11.1597 10.5076Z" fill="white"/>
<path d="M8.01074 113.003C8.01074 108.315 11.8115 104.514 16.5 104.514H90.4787C95.1672 104.514 98.968 108.315 98.968 113.003V113.003C98.968 117.692 95.1672 121.493 90.4787 121.493H16.5C11.8115 121.493 8.01074 117.692 8.01074 113.003V113.003Z" fill="#F5F5F5"/>
<path d="M16.1677 116.503L14.3524 109.958H15.3911L16.6663 115.027H16.727L18.0534 109.958H19.0825L20.4088 115.03H20.4695L21.7416 109.958H22.7835L20.9649 116.503H19.971L18.5935 111.601H18.5423L17.1649 116.503H16.1677ZM25.2396 116.602C24.7559 116.602 24.3394 116.499 23.99 116.292C23.6427 116.084 23.3742 115.791 23.1846 115.414C22.9971 115.034 22.9033 114.59 22.9033 114.081C22.9033 113.578 22.9971 113.135 23.1846 112.751C23.3742 112.368 23.6384 112.068 23.9772 111.853C24.3181 111.638 24.7165 111.53 25.1725 111.53C25.4495 111.53 25.718 111.576 25.9779 111.668C26.2378 111.759 26.4711 111.903 26.6778 112.099C26.8845 112.295 27.0475 112.55 27.1668 112.863C27.2861 113.174 27.3458 113.552 27.3458 113.998V114.337H23.4434V113.621H26.4094C26.4094 113.369 26.3582 113.147 26.2559 112.953C26.1537 112.757 26.0099 112.602 25.8245 112.489C25.6412 112.376 25.426 112.32 25.1789 112.32C24.9104 112.32 24.676 112.386 24.4758 112.518C24.2776 112.648 24.1242 112.818 24.0155 113.029C23.909 113.238 23.8557 113.465 23.8557 113.71V114.269C23.8557 114.598 23.9133 114.877 24.0283 115.107C24.1455 115.337 24.3085 115.513 24.5173 115.634C24.7261 115.753 24.9701 115.813 25.2492 115.813C25.4303 115.813 25.5954 115.788 25.7446 115.736C25.8937 115.683 26.0226 115.604 26.1313 115.5C26.24 115.395 26.3231 115.267 26.3806 115.113L27.2851 115.276C27.2126 115.542 27.0827 115.776 26.8952 115.976C26.7098 116.174 26.4765 116.329 26.1952 116.439C25.9161 116.548 25.5976 116.602 25.2396 116.602ZM28.4828 116.503V109.958H29.4384V112.39H29.4959C29.5513 112.288 29.6312 112.17 29.7356 112.035C29.84 111.901 29.9849 111.784 30.1703 111.684C30.3556 111.582 30.6007 111.53 30.9054 111.53C31.3017 111.53 31.6554 111.631 31.9664 111.831C32.2775 112.031 32.5215 112.32 32.6983 112.697C32.8773 113.074 32.9668 113.528 32.9668 114.058C32.9668 114.589 32.8784 115.044 32.7015 115.423C32.5247 115.8 32.2818 116.091 31.9728 116.296C31.6639 116.498 31.3113 116.599 30.915 116.599C30.6167 116.599 30.3727 116.549 30.1831 116.449C29.9956 116.349 29.8485 116.232 29.742 116.098C29.6355 115.963 29.5534 115.844 29.4959 115.74H29.416V116.503H28.4828ZM29.4192 114.049C29.4192 114.394 29.4693 114.697 29.5694 114.957C29.6696 115.216 29.8145 115.42 30.0041 115.567C30.1937 115.712 30.426 115.784 30.7008 115.784C30.9863 115.784 31.225 115.709 31.4167 115.557C31.6085 115.404 31.7534 115.196 31.8514 114.934C31.9515 114.672 32.0016 114.377 32.0016 114.049C32.0016 113.725 31.9526 113.434 31.8546 113.176C31.7587 112.919 31.6138 112.715 31.4199 112.566C31.2282 112.417 30.9885 112.342 30.7008 112.342C30.4238 112.342 30.1895 112.414 29.9977 112.556C29.8081 112.699 29.6642 112.898 29.5662 113.154C29.4682 113.41 29.4192 113.708 29.4192 114.049ZM38.6174 116.503H36.4984V109.958H38.6845C39.3258 109.958 39.8766 110.089 40.3368 110.351C40.7971 110.611 41.1497 110.985 41.3947 111.473C41.6419 111.959 41.7654 112.541 41.7654 113.221C41.7654 113.903 41.6408 114.489 41.3915 114.979C41.1444 115.469 40.7864 115.846 40.3176 116.11C39.8489 116.372 39.2821 116.503 38.6174 116.503ZM37.486 115.64H38.563C39.0616 115.64 39.476 115.547 39.8063 115.359C40.1365 115.17 40.3837 114.896 40.5478 114.538C40.7118 114.178 40.7939 113.739 40.7939 113.221C40.7939 112.708 40.7118 112.272 40.5478 111.914C40.3858 111.556 40.144 111.284 39.8223 111.099C39.5005 110.914 39.101 110.821 38.6238 110.821H37.486V115.64ZM45.0326 116.602C44.5489 116.602 44.1324 116.499 43.7829 116.292C43.4356 116.084 43.1672 115.791 42.9775 115.414C42.79 115.034 42.6963 114.59 42.6963 114.081C42.6963 113.578 42.79 113.135 42.9775 112.751C43.1672 112.368 43.4314 112.068 43.7702 111.853C44.1111 111.638 44.5095 111.53 44.9655 111.53C45.2425 111.53 45.5109 111.576 45.7709 111.668C46.0308 111.759 46.2641 111.903 46.4708 112.099C46.6775 112.295 46.8405 112.55 46.9598 112.863C47.0791 113.174 47.1388 113.552 47.1388 113.998V114.337H43.2364V113.621H46.2023C46.2023 113.369 46.1512 113.147 46.0489 112.953C45.9466 112.757 45.8028 112.602 45.6175 112.489C45.4342 112.376 45.219 112.32 44.9719 112.32C44.7034 112.32 44.469 112.386 44.2687 112.518C44.0706 112.648 43.9172 112.818 43.8085 113.029C43.702 113.238 43.6487 113.465 43.6487 113.71V114.269C43.6487 114.598 43.7062 114.877 43.8213 115.107C43.9385 115.337 44.1015 115.513 44.3103 115.634C44.5191 115.753 44.7631 115.813 45.0422 115.813C45.2233 115.813 45.3884 115.788 45.5376 115.736C45.6867 115.683 45.8156 115.604 45.9243 115.5C46.0329 115.395 46.116 115.267 46.1736 115.113L47.078 115.276C47.0056 115.542 46.8756 115.776 46.6881 115.976C46.5028 116.174 46.2694 116.329 45.9882 116.439C45.7091 116.548 45.3905 116.602 45.0326 116.602ZM52.258 111.594L50.4778 116.503H49.4551L47.6717 111.594H48.6976L49.9409 115.372H49.992L51.2321 111.594H52.258ZM55.1048 116.602C54.6212 116.602 54.2046 116.499 53.8552 116.292C53.5079 116.084 53.2394 115.791 53.0498 115.414C52.8623 115.034 52.7686 114.59 52.7686 114.081C52.7686 113.578 52.8623 113.135 53.0498 112.751C53.2394 112.368 53.5036 112.068 53.8424 111.853C54.1833 111.638 54.5818 111.53 55.0377 111.53C55.3147 111.53 55.5832 111.576 55.8431 111.668C56.1031 111.759 56.3364 111.903 56.5431 112.099C56.7497 112.295 56.9127 112.55 57.032 112.863C57.1514 113.174 57.211 113.552 57.211 113.998V114.337H53.3087V113.621H56.2746C56.2746 113.369 56.2235 113.147 56.1212 112.953C56.0189 112.757 55.8751 112.602 55.6897 112.489C55.5065 112.376 55.2913 112.32 55.0441 112.32C54.7757 112.32 54.5413 112.386 54.341 112.518C54.1428 112.648 53.9894 112.818 53.8808 113.029C53.7742 113.238 53.721 113.465 53.721 113.71V114.269C53.721 114.598 53.7785 114.877 53.8936 115.107C54.0107 115.337 54.1737 115.513 54.3825 115.634C54.5914 115.753 54.8353 115.813 55.1144 115.813C55.2955 115.813 55.4607 115.788 55.6098 115.736C55.759 115.683 55.8879 115.604 55.9965 115.5C56.1052 115.395 56.1883 115.267 56.2458 115.113L57.1503 115.276C57.0779 115.542 56.9479 115.776 56.7604 115.976C56.575 116.174 56.3417 116.329 56.0605 116.439C55.7813 116.548 55.4628 116.602 55.1048 116.602ZM59.2269 109.958V116.503H58.2713V109.958H59.2269ZM62.5803 116.602C62.1201 116.602 61.7185 116.497 61.3754 116.286C61.0324 116.075 60.7661 115.78 60.5764 115.401C60.3868 115.022 60.292 114.578 60.292 114.071C60.292 113.562 60.3868 113.117 60.5764 112.735C60.7661 112.354 61.0324 112.058 61.3754 111.847C61.7185 111.636 62.1201 111.53 62.5803 111.53C63.0406 111.53 63.4422 111.636 63.7852 111.847C64.1283 112.058 64.3946 112.354 64.5843 112.735C64.7739 113.117 64.8687 113.562 64.8687 114.071C64.8687 114.578 64.7739 115.022 64.5843 115.401C64.3946 115.78 64.1283 116.075 63.7852 116.286C63.4422 116.497 63.0406 116.602 62.5803 116.602ZM62.5835 115.8C62.8818 115.8 63.129 115.721 63.325 115.564C63.521 115.406 63.6659 115.196 63.7597 114.934C63.8556 114.672 63.9035 114.383 63.9035 114.068C63.9035 113.755 63.8556 113.467 63.7597 113.205C63.6659 112.941 63.521 112.729 63.325 112.569C63.129 112.409 62.8818 112.329 62.5835 112.329C62.2831 112.329 62.0338 112.409 61.8357 112.569C61.6396 112.729 61.4937 112.941 61.3978 113.205C61.3041 113.467 61.2572 113.755 61.2572 114.068C61.2572 114.383 61.3041 114.672 61.3978 114.934C61.4937 115.196 61.6396 115.406 61.8357 115.564C62.0338 115.721 62.2831 115.8 62.5835 115.8ZM65.9354 118.344V111.594H66.8686V112.39H66.9485C67.0039 112.288 67.0838 112.17 67.1882 112.035C67.2926 111.901 67.4375 111.784 67.6229 111.684C67.8082 111.582 68.0533 111.53 68.358 111.53C68.7543 111.53 69.108 111.631 69.419 111.831C69.7301 112.031 69.9741 112.32 70.1509 112.697C70.3299 113.074 70.4194 113.528 70.4194 114.058C70.4194 114.589 70.331 115.044 70.1541 115.423C69.9773 115.8 69.7344 116.091 69.4254 116.296C69.1165 116.498 68.7638 116.599 68.3675 116.599C68.0692 116.599 67.8253 116.549 67.6357 116.449C67.4482 116.349 67.3011 116.232 67.1946 116.098C67.0881 115.963 67.006 115.844 66.9485 115.74H66.891V118.344H65.9354ZM66.8718 114.049C66.8718 114.394 66.9219 114.697 67.022 114.957C67.1222 115.216 67.267 115.42 67.4567 115.567C67.6463 115.712 67.8786 115.784 68.1534 115.784C68.4389 115.784 68.6776 115.709 68.8693 115.557C69.0611 115.404 69.206 115.196 69.304 114.934C69.4041 114.672 69.4542 114.377 69.4542 114.049C69.4542 113.725 69.4052 113.434 69.3072 113.176C69.2113 112.919 69.0664 112.715 68.8725 112.566C68.6808 112.417 68.4411 112.342 68.1534 112.342C67.8764 112.342 67.642 112.414 67.4503 112.556C67.2607 112.699 67.1168 112.898 67.0188 113.154C66.9208 113.41 66.8718 113.708 66.8718 114.049ZM71.4901 116.503V111.594H72.4073V112.393H72.468C72.5703 112.123 72.7376 111.912 72.9698 111.761C73.2021 111.607 73.4801 111.53 73.804 111.53C74.1321 111.53 74.407 111.607 74.6286 111.761C74.8523 111.914 75.0174 112.125 75.1239 112.393H75.1751C75.2923 112.131 75.4787 111.922 75.7344 111.767C75.9901 111.609 76.2947 111.53 76.6484 111.53C77.0938 111.53 77.457 111.67 77.7383 111.949C78.0217 112.228 78.1634 112.649 78.1634 113.212V116.503H77.2077V113.301C77.2077 112.969 77.1172 112.728 76.9361 112.579C76.755 112.43 76.5387 112.355 76.2873 112.355C75.9762 112.355 75.7344 112.451 75.5618 112.643C75.3892 112.832 75.3029 113.076 75.3029 113.375V116.503H74.3505V113.24C74.3505 112.974 74.2674 112.76 74.1012 112.598C73.935 112.436 73.7188 112.355 73.4524 112.355C73.2713 112.355 73.104 112.403 72.9506 112.499C72.7994 112.593 72.6768 112.724 72.5831 112.892C72.4915 113.06 72.4457 113.255 72.4457 113.477V116.503H71.4901ZM81.5599 116.602C81.0763 116.602 80.6597 116.499 80.3103 116.292C79.963 116.084 79.6945 115.791 79.5049 115.414C79.3174 115.034 79.2236 114.59 79.2236 114.081C79.2236 113.578 79.3174 113.135 79.5049 112.751C79.6945 112.368 79.9587 112.068 80.2975 111.853C80.6384 111.638 81.0368 111.53 81.4928 111.53C81.7698 111.53 82.0383 111.576 82.2982 111.668C82.5581 111.759 82.7915 111.903 82.9981 112.099C83.2048 112.295 83.3678 112.55 83.4871 112.863C83.6064 113.174 83.6661 113.552 83.6661 113.998V114.337H79.7638V113.621H82.7297C82.7297 113.369 82.6785 113.147 82.5763 112.953C82.474 112.757 82.3302 112.602 82.1448 112.489C81.9616 112.376 81.7464 112.32 81.4992 112.32C81.2307 112.32 80.9964 112.386 80.7961 112.518C80.5979 112.648 80.4445 112.818 80.3358 113.029C80.2293 113.238 80.176 113.465 80.176 113.71V114.269C80.176 114.598 80.2336 114.877 80.3486 115.107C80.4658 115.337 80.6288 115.513 80.8376 115.634C81.0464 115.753 81.2904 115.813 81.5695 115.813C81.7506 115.813 81.9157 115.788 82.0649 115.736C82.214 115.683 82.343 115.604 82.4516 115.5C82.5603 115.395 82.6434 115.267 82.7009 115.113L83.6054 115.276C83.5329 115.542 83.403 115.776 83.2155 115.976C83.0301 116.174 82.7968 116.329 82.5155 116.439C82.2364 116.548 81.9179 116.602 81.5599 116.602ZM85.682 113.589V116.503H84.7264V111.594H85.6436V112.393H85.7044C85.8173 112.133 85.9941 111.925 86.2349 111.767C86.4778 111.609 86.7836 111.53 87.1522 111.53C87.4867 111.53 87.7797 111.601 88.0311 111.741C88.2825 111.88 88.4775 112.087 88.6159 112.361C88.7544 112.636 88.8237 112.976 88.8237 113.381V116.503H87.8681V113.496C87.8681 113.14 87.7754 112.862 87.59 112.662C87.4047 112.459 87.15 112.358 86.8262 112.358C86.6046 112.358 86.4075 112.406 86.2349 112.502C86.0645 112.598 85.9292 112.739 85.829 112.924C85.731 113.107 85.682 113.329 85.682 113.589ZM92.3968 111.594V112.361H89.7154V111.594H92.3968ZM90.4345 110.418H91.3901V115.062C91.3901 115.247 91.4178 115.387 91.4732 115.481C91.5286 115.572 91.6 115.635 91.6873 115.669C91.7768 115.701 91.8738 115.717 91.9782 115.717C92.0549 115.717 92.122 115.712 92.1795 115.701C92.237 115.691 92.2818 115.682 92.3137 115.676L92.4863 116.465C92.4309 116.486 92.3521 116.508 92.2498 116.529C92.1475 116.552 92.0197 116.565 91.8663 116.567C91.6149 116.572 91.3805 116.527 91.1632 116.433C90.9458 116.339 90.7701 116.194 90.6358 115.998C90.5016 115.802 90.4345 115.556 90.4345 115.26V110.418Z" fill="#949494"/>
<rect x="8.01123" y="130.505" width="153.978" height="4.48395" rx="2.24198" fill="#EBEBEB"/>
<rect x="8.01123" y="140.968" width="68.754" height="4.48395" rx="2.24198" fill="#EBEBEB"/>
<path d="M8.53538 162.122V161.47L11.4118 156.919H11.8848V157.929H11.5652L9.39191 161.368V161.419H13.2655V162.122H8.53538ZM11.6163 163.464V161.924V161.62V156.919H12.3706V163.464H11.6163ZM14.7181 163.515C14.5604 163.515 14.4251 163.459 14.3122 163.346C14.1993 163.233 14.1428 163.098 14.1428 162.94C14.1428 162.782 14.1993 162.647 14.3122 162.534C14.4251 162.421 14.5604 162.365 14.7181 162.365C14.8758 162.365 15.0111 162.421 15.124 162.534C15.2369 162.647 15.2934 162.782 15.2934 162.94C15.2934 163.044 15.2667 163.14 15.2135 163.228C15.1623 163.315 15.0931 163.385 15.0057 163.439C14.9205 163.49 14.8246 163.515 14.7181 163.515ZM18.6564 156.829C18.9248 156.831 19.1933 156.882 19.4618 156.983C19.7302 157.083 19.9753 157.249 20.1969 157.481C20.4185 157.711 20.5964 158.026 20.7306 158.424C20.8648 158.822 20.932 159.322 20.932 159.923C20.932 160.505 20.8766 161.021 20.7658 161.473C20.6571 161.923 20.4994 162.302 20.2927 162.611C20.0882 162.92 19.8389 163.154 19.5449 163.314C19.253 163.474 18.9227 163.554 18.5541 163.554C18.1876 163.554 17.8606 163.481 17.5729 163.336C17.2874 163.189 17.053 162.986 16.8698 162.726C16.6887 162.464 16.5726 162.16 16.5214 161.815H17.3013C17.3716 162.115 17.5111 162.364 17.7199 162.56C17.9309 162.754 18.2089 162.85 18.5541 162.85C19.0591 162.85 19.4575 162.63 19.7494 162.189C20.0435 161.748 20.1905 161.125 20.1905 160.319H20.1393C20.02 160.498 19.8783 160.653 19.7143 160.783C19.5502 160.913 19.368 161.013 19.1677 161.083C18.9675 161.153 18.7544 161.189 18.5285 161.189C18.1535 161.189 17.8094 161.096 17.4962 160.91C17.1851 160.723 16.9359 160.466 16.7484 160.14C16.563 159.812 16.4703 159.437 16.4703 159.015C16.4703 158.615 16.5598 158.248 16.7388 157.916C16.9199 157.581 17.1734 157.315 17.4994 157.117C17.8275 156.919 18.2132 156.823 18.6564 156.829ZM18.6564 157.532C18.3879 157.532 18.1461 157.599 17.9309 157.734C17.7178 157.866 17.5484 158.045 17.4227 158.271C17.2991 158.494 17.2373 158.743 17.2373 159.015C17.2373 159.288 17.297 159.536 17.4163 159.76C17.5378 159.982 17.7029 160.158 17.9117 160.29C18.1226 160.42 18.3623 160.485 18.6308 160.485C18.8332 160.485 19.0218 160.446 19.1965 160.367C19.3712 160.286 19.5236 160.176 19.6535 160.038C19.7856 159.897 19.889 159.739 19.9636 159.562C20.0381 159.383 20.0754 159.196 20.0754 159.002C20.0754 158.747 20.0136 158.507 19.89 158.283C19.7686 158.06 19.6003 157.879 19.3851 157.74C19.172 157.602 18.9291 157.532 18.6564 157.532Z" fill="#949494"/>
<path d="M30.1307 156.792L30.7884 158.107C30.878 158.29 31.1172 158.466 31.319 158.5L32.5109 158.698C33.2732 158.825 33.4526 159.378 32.9033 159.923L31.9766 160.85C31.8197 161.007 31.7337 161.309 31.7823 161.526L32.0476 162.673C32.2569 163.581 31.7748 163.933 30.9715 163.458L29.8542 162.797C29.6524 162.677 29.3199 162.677 29.1144 162.797L27.9971 163.458C27.1975 163.933 26.7117 163.578 26.9209 162.673L27.1862 161.526C27.2348 161.309 27.1489 161.007 26.9919 160.85L26.0653 159.923C25.5197 159.378 25.6953 158.825 26.4576 158.698L27.6496 158.5C27.8476 158.466 28.0868 158.29 28.1765 158.107L28.8341 156.792C29.1928 156.078 29.7757 156.078 30.1307 156.792Z" fill="#C7C7C7"/>
<path d="M40.5931 156.792L41.2508 158.107C41.3404 158.29 41.5796 158.466 41.7814 158.5L42.9733 158.698C43.7356 158.825 43.915 159.378 43.3657 159.923L42.439 160.85C42.2821 161.007 42.1961 161.309 42.2447 161.526L42.51 162.673C42.7193 163.581 42.2372 163.933 41.4339 163.458L40.3166 162.797C40.1148 162.677 39.7823 162.677 39.5768 162.797L38.4595 163.458C37.6599 163.933 37.1741 163.578 37.3834 162.673L37.6487 161.526C37.6972 161.309 37.6113 161.007 37.4543 160.85L36.5277 159.923C35.9821 159.378 36.1577 158.825 36.92 158.698L38.112 158.5C38.31 158.466 38.5492 158.29 38.6389 158.107L39.2965 156.792C39.6552 156.078 40.2381 156.078 40.5931 156.792Z" fill="#C7C7C7"/>
<path d="M51.056 156.792L51.7137 158.107C51.8033 158.29 52.0425 158.466 52.2443 158.5L53.4362 158.698C54.1985 158.825 54.3779 159.378 53.8286 159.923L52.9019 160.85C52.745 161.007 52.659 161.309 52.7076 161.526L52.9729 162.673C53.1821 163.581 52.7001 163.933 51.8967 163.458L50.7795 162.797C50.5777 162.677 50.2452 162.677 50.0396 162.797L48.9224 163.458C48.1228 163.933 47.637 163.578 47.8462 162.673L48.1115 161.526C48.1601 161.309 48.0742 161.007 47.9172 160.85L46.9906 159.923C46.445 159.378 46.6206 158.825 47.3829 158.698L48.5749 158.5C48.7729 158.466 49.0121 158.29 49.1017 158.107L49.7594 156.792C50.1181 156.078 50.701 156.078 51.056 156.792Z" fill="#C7C7C7"/>
<path d="M61.5184 156.792L62.1761 158.107C62.2657 158.29 62.5049 158.466 62.7067 158.5L63.8986 158.698C64.6609 158.825 64.8403 159.378 64.291 159.923L63.3643 160.85C63.2074 161.007 63.1214 161.309 63.17 161.526L63.4353 162.673C63.6445 163.581 63.1625 163.933 62.3591 163.458L61.2419 162.797C61.0401 162.677 60.7076 162.677 60.502 162.797L59.3848 163.458C58.5852 163.933 58.0994 163.578 58.3086 162.673L58.5739 161.526C58.6225 161.309 58.5366 161.007 58.3796 160.85L57.453 159.923C56.9074 159.378 57.083 158.825 57.8453 158.698L59.0373 158.5C59.2353 158.466 59.4745 158.29 59.5642 158.107L60.2218 156.792C60.5805 156.078 61.1634 156.078 61.5184 156.792Z" fill="#C7C7C7"/>
<path d="M73.4502 163.951C73.2522 163.951 72.9981 163.888 72.6805 163.701L71.5632 163.039C71.4474 162.972 71.2232 162.972 71.1111 163.039L69.9901 163.701C69.3287 164.093 68.9401 163.936 68.7645 163.809C68.5926 163.682 68.3236 163.357 68.4992 162.61L68.7645 161.462C68.7944 161.343 68.7346 161.137 68.6449 161.048L67.7182 160.121C67.2549 159.658 67.2922 159.262 67.3558 159.067C67.4193 158.873 67.6211 158.529 68.2638 158.421L69.4558 158.223C69.5679 158.204 69.7285 158.085 69.7771 157.984L70.4385 156.665C70.7374 156.063 71.1298 155.973 71.3353 155.973C71.5408 155.973 71.9331 156.063 72.2321 156.665L72.8897 157.98C72.942 158.081 73.1027 158.2 73.2148 158.219L74.4068 158.417C75.0532 158.526 75.255 158.869 75.3148 159.064C75.3746 159.258 75.4119 159.654 74.9523 160.117L74.0257 161.048C73.936 161.137 73.8799 161.339 73.9061 161.462L74.1714 162.61C74.3433 163.357 74.078 163.682 73.9061 163.809C73.8127 163.876 73.6632 163.951 73.4502 163.951ZM71.7038 162.515C71.7038 162.462 71.7015 162.471 71.8472 162.557L72.9644 163.219C73.2895 163.413 73.4951 163.413 73.5735 163.357C73.652 163.301 73.708 163.103 73.6258 162.737L73.3605 161.59C73.2895 161.279 73.4054 160.88 73.6296 160.652L74.5563 159.725C74.7393 159.542 74.8216 159.363 74.7842 159.239C74.7431 159.116 74.5712 159.015 74.3171 158.974L73.1251 158.776C72.8374 158.727 72.5235 158.496 72.3927 158.234L71.7351 156.919C71.6155 156.68 71.7856 162.591 71.7038 162.515C71.5731 162.515 70.9045 157.204 70.7887 157.443L71.2478 158.421C71.117 158.682 71.7278 160.477 71.4401 160.525L71.5399 161.369C71.2858 161.41 71.6043 161.271 71.5632 161.394C71.5221 161.518 71.3801 161.41 71.5632 161.59V161.843C71.7874 162.068 71.6837 161.758 71.6127 162.068L71.6608 162.329L71.7375 162.62C71.6515 162.99 69.0372 163.061 69.1157 163.117C69.1942 163.173 69.1802 162.351 69.5091 162.16L71.2904 162.28C71.4323 162.194 71.5207 162.515 71.7038 162.515Z" fill="#C7C7C7"/>
<path d="M79.7669 160.191C79.7669 159.386 79.8713 158.646 80.0801 157.97C80.2911 157.293 80.5915 156.669 80.9814 156.1H81.6462C81.4928 156.311 81.3489 156.571 81.2147 156.88C81.0826 157.187 80.9665 157.525 80.8663 157.893C80.7662 158.26 80.6874 158.639 80.6298 159.031C80.5744 159.423 80.5467 159.81 80.5467 160.191C80.5467 160.698 80.5957 161.213 80.6938 161.735C80.7918 162.257 80.9239 162.742 81.0901 163.189C81.2563 163.637 81.4416 164.001 81.6462 164.282H80.9814C80.5915 163.713 80.2911 163.091 80.0801 162.416C79.8713 161.738 79.7669 160.997 79.7669 160.191ZM82.7464 163.464V162.889L84.9069 160.524C85.1605 160.247 85.3693 160.006 85.5333 159.801C85.6974 159.595 85.8188 159.401 85.8977 159.22C85.9786 159.037 86.0191 158.845 86.0191 158.645C86.0191 158.414 85.9637 158.215 85.8529 158.047C85.7443 157.879 85.5951 157.749 85.4055 157.657C85.2159 157.565 85.0028 157.52 84.7663 157.52C84.5149 157.52 84.2954 157.572 84.1079 157.676C83.9225 157.778 83.7787 157.922 83.6764 158.108C83.5763 158.293 83.5262 158.51 83.5262 158.76H82.772C82.772 158.376 82.8604 158.039 83.0372 157.75C83.2141 157.46 83.4549 157.234 83.7595 157.072C84.0664 156.91 84.4105 156.829 84.7919 156.829C85.1754 156.829 85.5152 156.91 85.8114 157.072C86.1076 157.234 86.3398 157.452 86.5081 157.727C86.6764 158.002 86.7606 158.308 86.7606 158.645C86.7606 158.885 86.7169 159.121 86.6296 159.351C86.5443 159.579 86.3952 159.833 86.1821 160.115C85.9712 160.394 85.6782 160.735 85.3032 161.137L83.8331 162.71V162.761H86.8757V163.464H82.7464ZM90.4073 163.554C89.9854 163.554 89.6093 163.481 89.2791 163.336C88.951 163.191 88.6899 162.99 88.496 162.732C88.3043 162.472 88.1999 162.171 88.1828 161.828H88.9882C89.0053 162.039 89.0777 162.221 89.2056 162.374C89.3334 162.526 89.5007 162.643 89.7073 162.726C89.914 162.809 90.1431 162.85 90.3945 162.85C90.6757 162.85 90.925 162.801 91.1424 162.703C91.3597 162.605 91.5301 162.469 91.6537 162.294C91.7773 162.12 91.8391 161.917 91.8391 161.687C91.8391 161.446 91.7794 161.234 91.6601 161.051C91.5408 160.866 91.3661 160.721 91.136 160.616C90.9059 160.512 90.6246 160.46 90.2922 160.46H89.7681V159.757H90.2922C90.5522 159.757 90.7801 159.71 90.9762 159.616C91.1743 159.522 91.3288 159.39 91.4396 159.22C91.5525 159.049 91.609 158.849 91.609 158.619C91.609 158.397 91.56 158.205 91.462 158.04C91.3639 157.876 91.2255 157.749 91.0465 157.657C90.8696 157.565 90.6608 157.52 90.4201 157.52C90.1942 157.52 89.9811 157.561 89.7809 157.644C89.5827 157.725 89.4208 157.843 89.2951 157.999C89.1693 158.152 89.1012 158.338 89.0905 158.555H88.3235C88.3362 158.212 88.4396 157.912 88.6335 157.654C88.8274 157.394 89.0809 157.191 89.3941 157.046C89.7095 156.902 90.0557 156.829 90.4328 156.829C90.8377 156.829 91.185 156.911 91.4747 157.075C91.7645 157.237 91.9872 157.451 92.1427 157.718C92.2983 157.984 92.376 158.272 92.376 158.581C92.376 158.949 92.2791 159.263 92.0852 159.523C91.8934 159.783 91.6324 159.963 91.3022 160.064V160.115C91.7155 160.183 92.0383 160.359 92.2706 160.642C92.5028 160.923 92.6189 161.272 92.6189 161.687C92.6189 162.043 92.522 162.363 92.3281 162.646C92.1363 162.927 91.8742 163.149 91.5419 163.311C91.2095 163.473 90.8313 163.554 90.4073 163.554ZM93.7727 162.122V161.47L96.6491 156.919H97.1221V157.929H96.8025L94.6292 161.368V161.419H98.5028V162.122H93.7727ZM96.8536 163.464V161.924V161.62V156.919H97.6079V163.464H96.8536ZM101.324 160.191C101.324 160.997 101.219 161.738 101.008 162.416C100.799 163.091 100.5 163.713 100.11 164.282H99.4448C99.5982 164.071 99.741 163.811 99.8731 163.502C100.007 163.196 100.125 162.859 100.225 162.493C100.325 162.124 100.403 161.744 100.458 161.352C100.515 160.957 100.544 160.571 100.544 160.191C100.544 159.684 100.495 159.17 100.397 158.648C100.299 158.126 100.167 157.641 100.001 157.194C99.8347 156.746 99.6494 156.382 99.4448 156.1H100.11C100.5 156.669 100.799 157.293 101.008 157.97C101.219 158.646 101.324 159.386 101.324 160.191Z" fill="#949494"/>
<g opacity="0.7" clip-path="url(#clip0_6389_12655)">
<path d="M22.9568 181.948C22.9568 183.962 22.1584 185.79 20.8623 187.134C19.5023 188.542 17.5961 189.42 15.4826 189.42C13.3709 189.42 11.4613 188.544 10.103 187.134C8.80692 185.79 8.01025 183.961 8.01025 181.948C8.01025 177.821 11.3559 174.477 15.4844 174.477C19.6111 174.477 22.9568 177.821 22.9568 181.948Z" fill="#DFE0E1"/>
<path d="M14.0029 177.841C14.0029 177.502 14.2777 177.226 14.6181 177.226H16.1925C17.174 177.226 17.9707 178.022 17.9707 179.003V180.912H14.2259L14.0029 177.841Z" fill="#535A5F"/>
<path d="M13.4157 181.133H12.8887V178.571C12.8887 177.998 13.4762 177.612 14.0016 177.839C14.1226 178.476 13.4157 181.133 13.4157 181.133Z" fill="#535A5F"/>
<path d="M16.6239 183.165C16.458 183.89 16.0104 184.412 15.4833 184.412C14.9563 184.412 14.5069 183.89 14.3428 183.163L14.4707 182.671L14.5087 182.524H16.458L16.6032 183.087L16.617 183.137L16.6239 183.165Z" fill="#D3D6DC"/>
<path d="M17.9356 180.401C18.9068 179.313 18.2587 181.975 17.7213 181.662C16.7777 181.117 17.9356 180.401 17.9356 180.401Z" fill="#F4F4F4"/>
<path d="M20.8613 187.135C20.3567 187.656 19.7778 188.106 19.1401 188.465C18.1568 189.018 17.037 189.355 15.8429 189.412C15.7236 189.418 15.6027 189.42 15.4817 189.42C14.8786 189.42 14.2945 189.349 13.7328 189.215C12.9517 189.028 12.2173 188.717 11.5537 188.306C11.0214 187.976 10.5341 187.582 10.1021 187.135L10.2299 186.627C10.4252 185.865 11.0249 185.272 11.7904 185.089L11.8751 185.07L12.8135 184.846L13.0692 184.785C13.1781 184.759 13.2801 184.723 13.3786 184.675C13.4598 184.635 13.5376 184.59 13.6119 184.536C13.6914 184.479 13.7657 184.416 13.8313 184.346C14.0111 184.158 14.1441 183.925 14.2115 183.662L14.3118 183.275L14.3377 183.172L14.3394 183.163L14.4673 182.671L14.5053 182.524H16.4546L16.5998 183.087L16.6136 183.137L16.6205 183.165L16.6222 183.172L16.6499 183.277L16.7501 183.662C16.8434 184.022 17.0577 184.329 17.3498 184.536C17.5088 184.652 17.692 184.737 17.8907 184.785L18.1274 184.842L19.1712 185.091C19.9368 185.274 20.5382 185.867 20.7317 186.629L20.8613 187.135Z" fill="#F4F4F4"/>
<path d="M16.6229 183.165C16.457 183.89 16.0094 184.412 15.4824 184.412C14.9553 184.412 14.506 183.89 14.3418 183.163L14.4697 182.671L14.5077 182.524H16.457L16.6022 183.087L16.616 183.137L16.6229 183.165Z" fill="#D3D6DC"/>
<path d="M13.0305 180.401C12.0593 179.313 12.7073 181.975 13.2448 181.662C14.1883 181.116 13.0305 180.401 13.0305 180.401Z" fill="#F4F4F4"/>
<path d="M17.7407 179.616C17.7407 179.699 17.7355 179.78 17.7269 179.86C17.72 179.932 17.6871 180.245 17.6284 180.644L17.6267 180.646C17.5956 180.867 17.5541 181.114 17.504 181.361C17.5022 181.365 17.5022 181.368 17.5022 181.37C17.383 181.974 17.2154 182.576 16.9942 182.793C16.7453 183.042 16.5466 183.267 16.3202 183.429C16.0921 183.593 15.8381 183.693 15.4803 183.693C15.1226 183.693 14.8686 183.591 14.6405 183.429C14.4141 183.267 14.2136 183.04 13.9665 182.793C13.747 182.574 13.5777 181.971 13.4584 181.368V181.37C13.4567 181.368 13.4567 181.368 13.4567 181.366C13.4412 181.289 13.4273 181.211 13.4135 181.133C13.4083 181.102 13.4014 181.069 13.3962 181.038C13.372 180.903 13.3513 180.77 13.334 180.646C13.2666 180.188 13.2338 179.844 13.2338 179.844C13.2269 179.77 13.2217 179.694 13.2217 179.616C13.2217 179.597 13.2217 179.577 13.2234 179.558C13.2286 179.38 13.2528 179.207 13.296 179.041C13.2977 179.034 13.2994 179.025 13.3012 179.019C13.5518 178.101 14.3674 177.417 15.349 177.362C15.3922 177.358 15.4337 177.358 15.4786 177.358C16.1025 177.358 16.6676 177.611 17.0754 178.02C17.4279 178.372 17.6647 178.842 17.7234 179.366C17.7355 179.449 17.7407 179.532 17.7407 179.616Z" fill="#F4F4F4"/>
<path d="M15.8362 181.647C15.8362 181.802 15.6772 181.928 15.4802 181.928C15.285 181.928 15.126 181.802 15.126 181.647C15.126 181.628 15.1277 181.609 15.1329 181.591C15.164 181.721 15.3074 181.819 15.4802 181.819C15.6531 181.819 15.7965 181.721 15.8276 181.591C15.8345 181.609 15.8362 181.628 15.8362 181.647Z" fill="#DFE0E1"/>
<path d="M17.8093 179.636C17.8093 179.721 17.8041 179.804 17.7955 179.888C17.7886 179.964 17.6296 180.647 17.6296 180.647C14.3825 179.857 14.1232 178.479 14.1232 178.479C14.1336 179.797 13.337 180.648 13.337 180.648C13.2678 180.177 13.1693 179.871 13.1693 179.871C13.1624 179.795 13.1572 179.715 13.1572 179.636C13.1572 179.615 13.1572 179.595 13.159 179.576C13.1641 179.392 13.1883 179.215 13.235 179.043C13.2367 179.037 13.2384 179.028 13.2402 179.021C13.4994 178.076 14.3375 177.371 15.3502 177.316C15.3951 177.313 15.4383 177.312 15.4833 177.312C16.1261 177.312 16.7085 177.573 17.1284 177.993C17.4931 178.356 17.7367 178.84 17.7955 179.379C17.8059 179.463 17.8093 179.548 17.8093 179.636Z" fill="#535A5F"/>
<path d="M20.8623 187.138C19.5023 188.546 17.5944 189.422 15.4827 189.422C13.3709 189.422 11.4613 188.546 10.103 187.136L10.2309 186.63C10.4262 185.867 11.0258 185.276 11.7914 185.093L12.8162 184.849L13.0702 184.789C13.1843 184.761 13.2966 184.721 13.3986 184.669C13.9187 185.224 14.6584 185.569 15.4792 185.569C16.3001 185.569 17.0397 185.222 17.5599 184.669C17.6636 184.72 17.7724 184.761 17.8882 184.789L18.1146 184.842L19.1722 185.094C19.9378 185.278 20.5391 185.87 20.7327 186.632L20.8623 187.138Z" fill="#6E7375"/>
<path d="M18.1148 184.842C17.885 185.12 17.0434 186 15.4812 186.062C13.6822 186.134 12.8648 184.922 12.8164 184.849L13.0704 184.789C13.1845 184.761 13.2968 184.721 13.3988 184.669C13.9189 185.224 14.6586 185.569 15.4794 185.569C16.3003 185.569 17.0399 185.222 17.5601 184.669C17.6638 184.72 17.7727 184.761 17.8884 184.789L18.1148 184.842Z" fill="#535A5F"/>
</g>
<rect x="28.9365" y="179.708" width="55.9454" height="4.48395" rx="2.24198" fill="#EBEBEB"/>
<line x1="8.01123" y1="198.062" x2="161.989" y2="198.062" stroke="#EBEBEB" stroke-width="0.747326"/>
<path d="M10.6192 220.734V212.552H11.1433V220.734H10.6192ZM12.3834 215.007C12.345 214.683 12.1895 214.432 11.9168 214.253C11.644 214.074 11.3095 213.984 10.9132 213.984C10.6234 213.984 10.3699 214.031 10.1526 214.125C9.93737 214.219 9.76904 214.347 9.64759 214.512C9.52828 214.676 9.46862 214.862 9.46862 215.071C9.46862 215.246 9.51017 215.396 9.59326 215.521C9.67849 215.645 9.78715 215.748 9.91926 215.831C10.0514 215.912 10.1899 215.98 10.3347 216.033C10.4796 216.084 10.6128 216.126 10.7342 216.157L11.399 216.336C11.5695 216.381 11.7591 216.443 11.9679 216.522C12.1788 216.601 12.3802 216.708 12.572 216.845C12.7658 216.979 12.9256 217.151 13.0514 217.362C13.1771 217.573 13.2399 217.832 13.2399 218.139C13.2399 218.493 13.1472 218.812 12.9619 219.098C12.7786 219.383 12.5102 219.61 12.1565 219.779C11.8049 219.947 11.3777 220.031 10.8749 220.031C10.4061 220.031 10.0002 219.955 9.65718 219.804C9.31627 219.653 9.04781 219.442 8.85178 219.171C8.65789 218.901 8.54816 218.586 8.52259 218.229H9.34078C9.36208 218.476 9.44518 218.68 9.59007 218.842C9.73708 219.002 9.92245 219.121 10.1462 219.2C10.372 219.277 10.6149 219.315 10.8749 219.315C11.1774 219.315 11.4491 219.266 11.6899 219.168C11.9306 219.068 12.1213 218.93 12.2619 218.753C12.4026 218.574 12.4729 218.365 12.4729 218.126C12.4729 217.909 12.4122 217.732 12.2907 217.596C12.1693 217.459 12.0095 217.349 11.8113 217.263C11.6131 217.178 11.399 217.104 11.1689 217.04L10.3635 216.809C9.85214 216.662 9.44731 216.453 9.14901 216.18C8.85072 215.907 8.70157 215.55 8.70157 215.109C8.70157 214.743 8.80065 214.423 8.9988 214.15C9.19909 213.876 9.46755 213.662 9.8042 213.511C10.143 213.358 10.5212 213.281 10.9388 213.281C11.3607 213.281 11.7357 213.357 12.0638 213.508C12.3919 213.657 12.6519 213.862 12.8436 214.122C13.0375 214.382 13.1398 214.677 13.1504 215.007H12.3834ZM16.5119 213.281C16.7803 213.283 17.0488 213.334 17.3172 213.434C17.5857 213.535 17.8307 213.701 18.0523 213.933C18.2739 214.163 18.4518 214.477 18.5861 214.876C18.7203 215.274 18.7874 215.774 18.7874 216.375C18.7874 216.956 18.732 217.473 18.6212 217.925C18.5126 218.374 18.3549 218.754 18.1482 219.063C17.9437 219.372 17.6944 219.606 17.4003 219.766C17.1084 219.926 16.7782 220.006 16.4096 220.006C16.0431 220.006 15.716 219.933 15.4284 219.788C15.1429 219.641 14.9085 219.438 14.7253 219.178C14.5442 218.916 14.428 218.612 14.3769 218.267H15.1567C15.2271 218.567 15.3666 218.816 15.5754 219.012C15.7864 219.205 16.0644 219.302 16.4096 219.302C16.9146 219.302 17.313 219.082 17.6049 218.641C17.8989 218.2 18.0459 217.577 18.0459 216.771H17.9948C17.8755 216.95 17.7338 217.105 17.5697 217.235C17.4057 217.365 17.2235 217.465 17.0232 217.535C16.8229 217.605 16.6099 217.64 16.384 217.64C16.009 217.64 15.6649 217.548 15.3517 217.362C15.0406 217.175 14.7913 216.918 14.6038 216.592C14.4185 216.264 14.3258 215.889 14.3258 215.467C14.3258 215.067 14.4153 214.7 14.5942 214.368C14.7753 214.033 15.0289 213.767 15.3549 213.569C15.683 213.371 16.0687 213.275 16.5119 213.281ZM16.5119 213.984C16.2434 213.984 16.0016 214.051 15.7864 214.186C15.5733 214.318 15.4039 214.497 15.2782 214.722C15.1546 214.946 15.0928 215.194 15.0928 215.467C15.0928 215.74 15.1525 215.988 15.2718 216.212C15.3932 216.433 15.5584 216.61 15.7672 216.742C15.9781 216.872 16.2178 216.937 16.4863 216.937C16.6887 216.937 16.8773 216.898 17.052 216.819C17.2267 216.738 17.379 216.628 17.509 216.49C17.6411 216.349 17.7445 216.191 17.819 216.014C17.8936 215.835 17.9309 215.648 17.9309 215.454C17.9309 215.199 17.8691 214.959 17.7455 214.735C17.6241 214.512 17.4557 214.33 17.2405 214.192C17.0275 214.053 16.7846 213.984 16.5119 213.984ZM22.1281 213.281C22.3965 213.283 22.665 213.334 22.9335 213.434C23.2019 213.535 23.447 213.701 23.6685 213.933C23.8901 214.163 24.068 214.477 24.2023 214.876C24.3365 215.274 24.4036 215.774 24.4036 216.375C24.4036 216.956 24.3482 217.473 24.2374 217.925C24.1288 218.374 23.9711 218.754 23.7644 219.063C23.5599 219.372 23.3106 219.606 23.0166 219.766C22.7247 219.926 22.3944 220.006 22.0258 220.006C21.6593 220.006 21.3323 219.933 21.0446 219.788C20.7591 219.641 20.5247 219.438 20.3415 219.178C20.1604 218.916 20.0443 218.612 19.9931 218.267H20.7729C20.8433 218.567 20.9828 218.816 21.1916 219.012C21.4026 219.205 21.6806 219.302 22.0258 219.302C22.5308 219.302 22.9292 219.082 23.2211 218.641C23.5151 218.2 23.6622 217.577 23.6622 216.771H23.611C23.4917 216.95 23.35 217.105 23.1859 217.235C23.0219 217.365 22.8397 217.465 22.6394 217.535C22.4391 217.605 22.2261 217.64 22.0002 217.64C21.6252 217.64 21.2811 217.548 20.9679 217.362C20.6568 217.175 20.4075 216.918 20.22 216.592C20.0347 216.264 19.942 215.889 19.942 215.467C19.942 215.067 20.0315 214.7 20.2104 214.368C20.3916 214.033 20.6451 213.767 20.9711 213.569C21.2992 213.371 21.6849 213.275 22.1281 213.281ZM22.1281 213.984C21.8596 213.984 21.6178 214.051 21.4026 214.186C21.1895 214.318 21.0201 214.497 20.8944 214.722C20.7708 214.946 20.709 215.194 20.709 215.467C20.709 215.74 20.7687 215.988 20.888 216.212C21.0095 216.433 21.1746 216.61 21.3834 216.742C21.5943 216.872 21.834 216.937 22.1025 216.937C22.3049 216.937 22.4935 216.898 22.6682 216.819C22.8429 216.738 22.9953 216.628 23.1252 216.49C23.2573 216.349 23.3607 216.191 23.4352 216.014C23.5098 215.835 23.5471 215.648 23.5471 215.454C23.5471 215.199 23.4853 214.959 23.3617 214.735C23.2403 214.512 23.072 214.33 22.8568 214.192C22.6437 214.053 22.4008 213.984 22.1281 213.984ZM25.9945 219.967C25.8368 219.967 25.7015 219.911 25.5886 219.798C25.4756 219.685 25.4192 219.55 25.4192 219.392C25.4192 219.234 25.4756 219.099 25.5886 218.986C25.7015 218.873 25.8368 218.817 25.9945 218.817C26.1521 218.817 26.2874 218.873 26.4003 218.986C26.5133 219.099 26.5697 219.234 26.5697 219.392C26.5697 219.496 26.5431 219.592 26.4898 219.68C26.4387 219.767 26.3695 219.837 26.2821 219.89C26.1969 219.942 26.101 219.967 25.9945 219.967ZM29.9328 213.281C30.2012 213.283 30.4697 213.334 30.7381 213.434C31.0066 213.535 31.2516 213.701 31.4732 213.933C31.6948 214.163 31.8727 214.477 32.007 214.876C32.1412 215.274 32.2083 215.774 32.2083 216.375C32.2083 216.956 32.1529 217.473 32.0421 217.925C31.9335 218.374 31.7758 218.754 31.5691 219.063C31.3646 219.372 31.1153 219.606 30.8212 219.766C30.5293 219.926 30.1991 220.006 29.8305 220.006C29.464 220.006 29.1369 219.933 28.8493 219.788C28.5638 219.641 28.3294 219.438 28.1462 219.178C27.9651 218.916 27.8489 218.612 27.7978 218.267H28.5776C28.6479 218.567 28.7875 218.816 28.9963 219.012C29.2073 219.205 29.4853 219.302 29.8305 219.302C30.3354 219.302 30.7339 219.082 31.0258 218.641C31.3198 218.2 31.4668 217.577 31.4668 216.771H31.4157C31.2964 216.95 31.1547 217.105 30.9906 217.235C30.8266 217.365 30.6444 217.465 30.4441 217.535C30.2438 217.605 30.0308 217.64 29.8049 217.64C29.4299 217.64 29.0858 217.548 28.7726 217.362C28.4615 217.175 28.2122 216.918 28.0247 216.592C27.8394 216.264 27.7467 215.889 27.7467 215.467C27.7467 215.067 27.8362 214.7 28.0151 214.368C28.1962 214.033 28.4498 213.767 28.7758 213.569C29.1039 213.371 29.4896 213.275 29.9328 213.281ZM29.9328 213.984C29.6643 213.984 29.4225 214.051 29.2073 214.186C28.9942 214.318 28.8248 214.497 28.6991 214.722C28.5755 214.946 28.5137 215.194 28.5137 215.467C28.5137 215.74 28.5734 215.988 28.6927 216.212C28.8141 216.433 28.9793 216.61 29.1881 216.742C29.399 216.872 29.6387 216.937 29.9072 216.937C30.1096 216.937 30.2982 216.898 30.4729 216.819C30.6476 216.738 30.7999 216.628 30.9299 216.49C31.062 216.349 31.1653 216.191 31.2399 216.014C31.3145 215.835 31.3518 215.648 31.3518 215.454C31.3518 215.199 31.29 214.959 31.1664 214.735C31.045 214.512 30.8766 214.33 30.6614 214.192C30.4484 214.053 30.2055 213.984 29.9328 213.984ZM35.549 213.281C35.8174 213.283 36.0859 213.334 36.3544 213.434C36.6228 213.535 36.8679 213.701 37.0894 213.933C37.311 214.163 37.4889 214.477 37.6232 214.876C37.7574 215.274 37.8245 215.774 37.8245 216.375C37.8245 216.956 37.7691 217.473 37.6583 217.925C37.5497 218.374 37.392 218.754 37.1853 219.063C36.9808 219.372 36.7315 219.606 36.4375 219.766C36.1456 219.926 35.8153 220.006 35.4467 220.006C35.0802 220.006 34.7532 219.933 34.4655 219.788C34.18 219.641 33.9456 219.438 33.7624 219.178C33.5813 218.916 33.4652 218.612 33.414 218.267H34.1938C34.2642 218.567 34.4037 218.816 34.6125 219.012C34.8235 219.205 35.1015 219.302 35.4467 219.302C35.9517 219.302 36.3501 219.082 36.642 218.641C36.936 218.2 37.0831 217.577 37.0831 216.771H37.0319C36.9126 216.95 36.7709 217.105 36.6068 217.235C36.4428 217.365 36.2606 217.465 36.0603 217.535C35.86 217.605 35.647 217.64 35.4211 217.64C35.0461 217.64 34.702 217.548 34.3888 217.362C34.0777 217.175 33.8284 216.918 33.6409 216.592C33.4556 216.264 33.3629 215.889 33.3629 215.467C33.3629 215.067 33.4524 214.7 33.6313 214.368C33.8125 214.033 34.066 213.767 34.392 213.569C34.7201 213.371 35.1058 213.275 35.549 213.281ZM35.549 213.984C35.2805 213.984 35.0387 214.051 34.8235 214.186C34.6104 214.318 34.441 214.497 34.3153 214.722C34.1917 214.946 34.1299 215.194 34.1299 215.467C34.1299 215.74 34.1896 215.988 34.3089 216.212C34.4304 216.433 34.5955 216.61 34.8043 216.742C35.0152 216.872 35.2549 216.937 35.5234 216.937C35.7258 216.937 35.9144 216.898 36.0891 216.819C36.2638 216.738 36.4161 216.628 36.5461 216.49C36.6782 216.349 36.7816 216.191 36.8561 216.014C36.9307 215.835 36.968 215.648 36.968 215.454C36.968 215.199 36.9062 214.959 36.7826 214.735C36.6612 214.512 36.4929 214.33 36.2777 214.192C36.0646 214.053 35.8217 213.984 35.549 213.984Z" fill="#949494"/>
<path d="M44.3187 220.143V212.871H44.7846V220.143H44.3187ZM45.8869 215.052C45.8528 214.765 45.7145 214.541 45.4721 214.382C45.2297 214.223 44.9323 214.143 44.58 214.143C44.3225 214.143 44.0971 214.185 43.9039 214.268C43.7126 214.352 43.563 214.466 43.455 214.612C43.349 214.758 43.2959 214.924 43.2959 215.109C43.2959 215.265 43.3329 215.398 43.4067 215.51C43.4825 215.62 43.5791 215.711 43.6965 215.785C43.8139 215.857 43.937 215.917 44.0658 215.964C44.1946 216.01 44.313 216.047 44.4209 216.075L45.0119 216.234C45.1634 216.274 45.3319 216.329 45.5175 216.399C45.705 216.469 45.884 216.565 46.0545 216.686C46.2268 216.805 46.3689 216.959 46.4806 217.146C46.5923 217.334 46.6482 217.564 46.6482 217.836C46.6482 218.151 46.5658 218.435 46.4011 218.689C46.2382 218.943 45.9995 219.144 45.6851 219.294C45.3726 219.443 44.9929 219.518 44.5459 219.518C44.1293 219.518 43.7685 219.451 43.4636 219.317C43.1605 219.182 42.9219 218.995 42.7476 218.754C42.5753 218.514 42.4778 218.234 42.455 217.916H43.1823C43.2012 218.136 43.2751 218.318 43.4039 218.461C43.5346 218.604 43.6994 218.71 43.8982 218.78C44.099 218.848 44.3149 218.882 44.5459 218.882C44.8149 218.882 45.0564 218.838 45.2704 218.751C45.4844 218.662 45.6539 218.539 45.7789 218.382C45.9039 218.223 45.9664 218.037 45.9664 217.825C45.9664 217.632 45.9124 217.475 45.8045 217.354C45.6965 217.232 45.5545 217.134 45.3783 217.058C45.2022 216.982 45.0119 216.916 44.8073 216.859L44.0914 216.655C43.6369 216.524 43.277 216.337 43.0119 216.095C42.7467 215.853 42.6141 215.535 42.6141 215.143C42.6141 214.818 42.7022 214.533 42.8783 214.291C43.0564 214.047 43.295 213.857 43.5942 213.723C43.8954 213.586 44.2315 213.518 44.6028 213.518C44.9778 213.518 45.3111 213.586 45.6028 213.72C45.8944 213.853 46.1255 214.034 46.2959 214.265C46.4683 214.497 46.5592 214.759 46.5687 215.052H45.8869ZM49.7498 213.598V219.416H49.0452V214.336H49.0111L47.5907 215.28V214.564L49.0452 213.598H49.7498ZM51.4231 219.416V218.905L53.3435 216.802C53.5689 216.556 53.7545 216.342 53.9003 216.16C54.0462 215.977 54.1541 215.804 54.2242 215.643C54.2962 215.48 54.3322 215.31 54.3322 215.132C54.3322 214.927 54.2829 214.75 54.1844 214.601C54.0878 214.451 53.9553 214.336 53.7867 214.254C53.6181 214.173 53.4288 214.132 53.2185 214.132C52.995 214.132 52.8 214.178 52.6333 214.271C52.4685 214.362 52.3407 214.49 52.2498 214.655C52.1608 214.819 52.1163 215.013 52.1163 215.234H51.4458C51.4458 214.893 51.5244 214.594 51.6816 214.336C51.8388 214.079 52.0528 213.878 52.3236 213.734C52.5964 213.59 52.9022 213.518 53.2413 213.518C53.5822 213.518 53.8842 213.59 54.1475 213.734C54.4108 213.878 54.6172 214.072 54.7668 214.317C54.9164 214.561 54.9913 214.833 54.9913 215.132C54.9913 215.346 54.9524 215.555 54.8748 215.76C54.799 215.962 54.6664 216.189 54.4771 216.439C54.2896 216.687 54.0291 216.99 53.6958 217.348L52.389 218.746V218.791H55.0935V219.416H51.4231ZM56.0055 218.223V217.643L58.5623 213.598H58.9827V214.496H58.6986L56.7668 217.552V217.598H60.21V218.223H56.0055ZM58.7441 219.416V218.047V217.777V213.598H59.4146V219.416H58.7441ZM61.5012 219.461C61.361 219.461 61.2408 219.411 61.1404 219.311C61.04 219.211 60.9898 219.09 60.9898 218.95C60.9898 218.81 61.04 218.69 61.1404 218.589C61.2408 218.489 61.361 218.439 61.5012 218.439C61.6414 218.439 61.7616 218.489 61.862 218.589C61.9624 218.69 62.0126 218.81 62.0126 218.95C62.0126 219.043 61.9889 219.128 61.9415 219.206C61.8961 219.283 61.8345 219.346 61.7569 219.393C61.6811 219.439 61.5959 219.461 61.5012 219.461ZM65.0019 213.518C65.2405 213.52 65.4792 213.566 65.7178 213.655C65.9565 213.744 66.1743 213.891 66.3712 214.098C66.5682 214.302 66.7263 214.582 66.8457 214.936C66.965 215.29 67.0246 215.734 67.0246 216.268C67.0246 216.785 66.9754 217.245 66.8769 217.646C66.7803 218.046 66.6402 218.383 66.4565 218.657C66.2746 218.932 66.053 219.14 65.7917 219.282C65.5322 219.425 65.2387 219.496 64.911 219.496C64.5852 219.496 64.2945 219.431 64.0388 219.302C63.7851 219.172 63.5767 218.991 63.4138 218.76C63.2529 218.527 63.1496 218.257 63.1042 217.95H63.7974C63.8599 218.217 63.9839 218.438 64.1695 218.612C64.357 218.784 64.6042 218.871 64.911 218.871C65.3599 218.871 65.714 218.675 65.9735 218.282C66.2349 217.89 66.3655 217.336 66.3655 216.621H66.3201C66.214 216.78 66.0881 216.917 65.9422 217.032C65.7964 217.148 65.6345 217.237 65.4565 217.3C65.2784 217.362 65.089 217.393 64.8883 217.393C64.5549 217.393 64.2491 217.311 63.9707 217.146C63.6941 216.979 63.4726 216.751 63.3059 216.461C63.1411 216.17 63.0587 215.836 63.0587 215.461C63.0587 215.105 63.1383 214.78 63.2974 214.484C63.4583 214.187 63.6837 213.95 63.9735 213.774C64.2652 213.598 64.608 213.513 65.0019 213.518ZM65.0019 214.143C64.7633 214.143 64.5483 214.203 64.357 214.322C64.1676 214.44 64.0171 214.599 63.9053 214.8C63.7955 214.998 63.7405 215.219 63.7405 215.461C63.7405 215.704 63.7936 215.925 63.8996 216.123C64.0076 216.32 64.1544 216.478 64.34 216.595C64.5275 216.711 64.7405 216.768 64.9792 216.768C65.1591 216.768 65.3267 216.733 65.482 216.663C65.6373 216.591 65.7727 216.494 65.8883 216.371C66.0057 216.246 66.0976 216.104 66.1638 215.947C66.2301 215.788 66.2633 215.622 66.2633 215.45C66.2633 215.223 66.2083 215.01 66.0985 214.811C65.9905 214.612 65.8409 214.451 65.6496 214.328C65.4602 214.205 65.2443 214.143 65.0019 214.143ZM69.9941 213.518C70.2327 213.52 70.4714 213.566 70.71 213.655C70.9486 213.744 71.1664 213.891 71.3634 214.098C71.5604 214.302 71.7185 214.582 71.8378 214.936C71.9572 215.29 72.0168 215.734 72.0168 216.268C72.0168 216.785 71.9676 217.245 71.8691 217.646C71.7725 218.046 71.6324 218.383 71.4486 218.657C71.2668 218.932 71.0452 219.14 70.7839 219.282C70.5244 219.425 70.2308 219.496 69.9032 219.496C69.5774 219.496 69.2867 219.431 69.031 219.302C68.7772 219.172 68.5689 218.991 68.406 218.76C68.245 218.527 68.1418 218.257 68.0964 217.95H68.7896C68.8521 218.217 68.9761 218.438 69.1617 218.612C69.3492 218.784 69.5964 218.871 69.9032 218.871C70.3521 218.871 70.7062 218.675 70.9657 218.282C71.2271 217.89 71.3577 217.336 71.3577 216.621H71.3123C71.2062 216.78 71.0803 216.917 70.9344 217.032C70.7886 217.148 70.6267 217.237 70.4486 217.3C70.2706 217.362 70.0812 217.393 69.8805 217.393C69.5471 217.393 69.2413 217.311 68.9628 217.146C68.6863 216.979 68.4647 216.751 68.2981 216.461C68.1333 216.17 68.0509 215.836 68.0509 215.461C68.0509 215.105 68.1305 214.78 68.2896 214.484C68.4505 214.187 68.6759 213.95 68.9657 213.774C69.2574 213.598 69.6002 213.513 69.9941 213.518ZM69.9941 214.143C69.7555 214.143 69.5405 214.203 69.3492 214.322C69.1598 214.44 69.0092 214.599 68.8975 214.8C68.7877 214.998 68.7327 215.219 68.7327 215.461C68.7327 215.704 68.7858 215.925 68.8918 216.123C68.9998 216.32 69.1466 216.478 69.3322 216.595C69.5197 216.711 69.7327 216.768 69.9714 216.768C70.1513 216.768 70.3189 216.733 70.4742 216.663C70.6295 216.591 70.7649 216.494 70.8805 216.371C70.9979 216.246 71.0897 216.104 71.156 215.947C71.2223 215.788 71.2555 215.622 71.2555 215.45C71.2555 215.223 71.2005 215.01 71.0907 214.811C70.9827 214.612 70.8331 214.451 70.6418 214.328C70.4524 214.205 70.2365 214.143 69.9941 214.143Z" fill="#C7C7C7"/>
<path d="M42.0005 216.797H47.1028V217.342H42.0005V216.797ZM47.1021 216.797H55.6617V217.342H47.1021V216.797ZM55.5396 216.797H60.6759V217.342H55.5396V216.797ZM60.3989 216.797H62.6035V217.342H60.3989V216.797ZM62.5474 216.797H72.5282V217.342H62.5474V216.797Z" fill="#C7C7C7"/>
<path d="M101.497 210.437C101.497 208.786 102.835 207.448 104.486 207.448H159C160.651 207.448 161.989 208.786 161.989 210.437V222.395C161.989 224.045 160.651 225.384 159 225.384H104.486C102.835 225.384 101.497 224.045 101.497 222.395V210.437Z" fill="#7B68EE"/>
<g clip-path="url(#clip1_6389_12655)">
<path d="M115.537 213.994C115.51 213.963 115.477 213.937 115.44 213.92C115.403 213.903 115.363 213.894 115.322 213.894H109.67L109.457 212.723C109.446 212.658 109.412 212.6 109.361 212.558C109.311 212.515 109.247 212.492 109.182 212.492H108.315C108.241 212.492 108.17 212.522 108.117 212.575C108.065 212.627 108.035 212.698 108.035 212.773C108.035 212.847 108.065 212.918 108.117 212.971C108.17 213.023 108.241 213.053 108.315 213.053H108.946L109.841 217.967C109.868 218.113 109.932 218.249 110.028 218.362C109.896 218.486 109.8 218.644 109.752 218.818C109.704 218.993 109.705 219.178 109.755 219.352C109.806 219.526 109.903 219.682 110.037 219.804C110.171 219.926 110.336 220.009 110.514 220.043C110.692 220.076 110.876 220.06 111.046 219.996C111.215 219.932 111.363 219.822 111.474 219.678C111.585 219.535 111.654 219.364 111.673 219.184C111.692 219.003 111.661 218.821 111.583 218.658H113.175C113.112 218.789 113.079 218.933 113.08 219.078C113.08 219.272 113.137 219.462 113.245 219.623C113.353 219.784 113.506 219.91 113.685 219.984C113.864 220.059 114.062 220.078 114.252 220.04C114.442 220.002 114.617 219.909 114.754 219.772C114.891 219.635 114.985 219.46 115.022 219.27C115.06 219.079 115.041 218.882 114.967 218.703C114.892 218.524 114.767 218.37 114.605 218.263C114.444 218.155 114.254 218.097 114.06 218.097H110.668C110.603 218.097 110.539 218.074 110.489 218.032C110.438 217.99 110.404 217.932 110.393 217.867L110.282 217.257H114.345C114.542 217.257 114.733 217.187 114.884 217.061C115.035 216.935 115.137 216.76 115.172 216.566L115.598 214.224C115.606 214.184 115.604 214.142 115.593 214.102C115.582 214.063 115.563 214.026 115.537 213.994ZM111.118 219.078C111.118 219.161 111.093 219.243 111.047 219.312C111.001 219.381 110.935 219.435 110.858 219.467C110.782 219.498 110.697 219.507 110.615 219.491C110.534 219.474 110.459 219.434 110.4 219.375C110.341 219.317 110.301 219.242 110.285 219.16C110.269 219.079 110.277 218.994 110.309 218.917C110.341 218.841 110.395 218.775 110.464 218.729C110.533 218.683 110.614 218.658 110.698 218.658C110.809 218.658 110.916 218.702 110.995 218.781C111.074 218.86 111.118 218.967 111.118 219.078ZM114.481 219.078C114.481 219.161 114.456 219.243 114.41 219.312C114.364 219.381 114.298 219.435 114.221 219.467C114.145 219.498 114.06 219.507 113.978 219.491C113.897 219.474 113.822 219.434 113.763 219.375C113.704 219.317 113.664 219.242 113.648 219.16C113.632 219.079 113.64 218.994 113.672 218.917C113.704 218.841 113.758 218.775 113.827 218.729C113.896 218.683 113.977 218.658 114.06 218.658C114.172 218.658 114.279 218.702 114.358 218.781C114.437 218.86 114.481 218.967 114.481 219.078ZM114.621 216.466C114.609 216.531 114.575 216.589 114.524 216.631C114.474 216.673 114.41 216.696 114.344 216.696H110.18L109.772 214.454H114.986L114.621 216.466Z" fill="white"/>
</g>
<rect x="119.432" y="214.174" width="36.5781" height="4.48395" rx="1.49465" fill="white"/>
<defs>
<clipPath id="clip0_6389_12655">
<rect width="14.9465" height="14.9465" fill="white" transform="translate(8.01123 174.477)"/>
</clipPath>
<clipPath id="clip1_6389_12655">
<rect width="8.96791" height="8.96791" fill="white" transform="translate(107.475 211.932)"/>
</clipPath>
</defs>
</svg>
