<svg width="24" height="24" viewBox="0 0 24 24" fill="none" xmlns="http://www.w3.org/2000/svg">
<path d="M3.57956 14.2103C3.53443 14.2103 3.4893 14.2103 3.46674 14.1877C3.44418 14.1651 3.39905 14.1426 3.35393 14.12C3.33136 14.0974 3.3088 14.0523 3.28624 14.0072C3.26367 13.9621 3.26367 13.9169 3.26367 13.8944V8.77251C3.26367 8.72738 3.26367 8.68226 3.28624 8.65969C3.3088 8.61457 3.33136 8.592 3.35393 8.54688C3.39905 8.52431 3.42161 8.50175 3.46674 8.50175C3.51187 8.47919 3.55699 8.47919 3.57956 8.47919C3.62468 8.47919 3.66981 8.47919 3.69237 8.50175C3.7375 8.52431 3.76006 8.54688 3.80519 8.56944C3.82775 8.592 3.85032 8.63713 3.87288 8.68226C3.89544 8.72738 3.89544 8.77251 3.89544 8.79507V13.9169C3.89544 13.9621 3.89544 14.0072 3.87288 14.0523C3.85032 14.0974 3.85032 14.0974 3.82775 14.12C3.80519 14.1426 3.76006 14.1651 3.71494 14.1877C3.66981 14.2103 3.62468 14.2103 3.57956 14.2103Z" fill="#C7C7C7"/>
<path d="M21.4949 8.02792L13.0788 3.22193C12.4695 2.86092 11.3865 2.90605 10.687 3.31219L2.69964 7.89254C1.97761 8.29868 1.90992 8.88532 2.51913 9.24633L10.9352 14.0298C11.5445 14.3682 12.6275 14.3231 13.327 13.9395L21.3369 9.38171C22.0364 8.97557 22.1041 8.38893 21.4949 8.02792ZM13.9813 8.77251C13.9136 8.88532 13.8233 8.97557 13.7105 9.0207L11.7926 9.9458C11.6798 9.99092 11.567 10.0135 11.4542 10.0135C11.3414 10.0135 11.2286 9.96836 11.1383 9.90067C11.0481 9.83298 10.9578 9.76529 10.9127 9.65247C10.845 9.56222 10.8224 9.4494 10.8224 9.33659V7.44127C10.8224 7.32845 10.845 7.21564 10.9127 7.12538C10.9804 7.03513 11.0481 6.94488 11.1383 6.87719C11.2286 6.8095 11.3414 6.78693 11.4542 6.78693C11.567 6.78693 11.6798 6.8095 11.7926 6.85463L13.688 7.77972C13.8008 7.84741 13.891 7.9151 13.9587 8.02792C14.0264 8.14073 14.0715 8.25355 14.0715 8.38893C14.0715 8.54687 14.049 8.65969 13.9813 8.77251Z" fill="#C7C7C7"/>
<g opacity="0.5">
<path opacity="0.5" d="M18.9224 17.7978L13.3944 20.9567C13.0785 21.1372 12.8303 20.9567 12.8303 20.528V16.7374C12.8303 16.5343 12.8754 16.3087 12.9883 16.1282C13.1011 15.9477 13.2365 15.7671 13.3944 15.6543L18.8999 12.4955C19.2157 12.315 19.4639 12.4955 19.4639 12.9242V16.7148C19.4639 16.9179 19.4414 17.1435 19.3286 17.324C19.2383 17.5271 19.1029 17.685 18.9224 17.7978Z" fill="#949494"/>
</g>
<path d="M16.1696 15.7445L14.545 16.6471C14.4548 16.6922 14.3871 16.6471 14.3871 16.5117C14.3871 16.444 14.4096 16.3989 14.4322 16.3312C14.4548 16.286 14.4999 16.2409 14.545 16.1958L16.1696 15.2933C16.2598 15.2481 16.3275 15.2933 16.3275 15.4286C16.3275 15.4963 16.3275 15.5415 16.2824 15.6091C16.2598 15.6543 16.2373 15.6994 16.1696 15.7445Z" fill="#C7C7C7"/>
<path d="M16.7565 16.6019L14.5679 17.8655C14.4776 17.9106 14.4099 17.8655 14.4099 17.7301C14.4099 17.6624 14.4325 17.6173 14.455 17.5496C14.4776 17.5045 14.5227 17.4593 14.5679 17.4142L16.7791 16.1732C16.8693 16.1281 16.937 16.1732 16.937 16.3086C16.937 16.3763 16.9144 16.4214 16.8919 16.4666C16.8693 16.5342 16.8242 16.5794 16.7565 16.6019Z" fill="#C7C7C7"/>
<path d="M15.222 18.7229L14.5902 19.0839C14.4999 19.1291 14.4323 19.0839 14.4323 18.9486C14.4323 18.8809 14.4548 18.8357 14.4774 18.768C14.4999 18.7229 14.5451 18.6778 14.5902 18.6327L15.222 18.2717C15.3122 18.2265 15.3799 18.2717 15.3799 18.407C15.3799 18.4747 15.3573 18.5198 15.3348 18.5875C15.3122 18.6327 15.2671 18.6778 15.222 18.7229Z" fill="#C7C7C7"/>
<g opacity="0.5">
<path opacity="0.5" d="M10.5965 20.9567L5.06848 17.7978C4.88797 17.6624 4.75259 17.5045 4.66234 17.324C4.57208 17.1435 4.50439 16.9178 4.50439 16.7148V12.9467C4.50439 12.518 4.75259 12.3375 5.06848 12.518L10.5739 15.6769C10.7544 15.8122 10.8898 15.9702 10.9801 16.1507C11.0703 16.3312 11.138 16.5568 11.138 16.7599V20.528C11.1606 20.9567 10.9124 21.1372 10.5965 20.9567Z" fill="#949494"/>
</g>
<path d="M7.86636 15.7671L6.24181 14.8646C6.19668 14.8194 6.15155 14.7743 6.12899 14.7292C6.10643 14.6841 6.08386 14.6164 6.08386 14.5487C6.08386 14.4359 6.15155 14.3682 6.24181 14.4133L7.86636 15.3158C7.91149 15.361 7.95662 15.4061 7.97918 15.4512C8.00174 15.4963 8.02431 15.564 8.02431 15.6317C8.04687 15.7671 7.95662 15.8122 7.86636 15.7671Z" fill="#C7C7C7"/>
<path d="M8.45301 17.324L6.24181 16.083C6.19668 16.0379 6.15155 15.9928 6.12899 15.9476C6.10643 15.9025 6.08386 15.8348 6.08386 15.7671C6.08386 15.6543 6.15155 15.5866 6.24181 15.6317L8.45301 16.8727C8.49814 16.9179 8.54326 16.963 8.56583 17.0081C8.58839 17.0532 8.61095 17.1209 8.61095 17.1886C8.63352 17.324 8.54326 17.3691 8.45301 17.324Z" fill="#C7C7C7"/>
<path d="M6.89604 17.6399L6.26427 17.2788C6.21914 17.2337 6.17401 17.1886 6.15145 17.1435C6.12889 17.0983 6.10632 17.0307 6.10632 16.963C6.10632 16.8501 6.17401 16.7825 6.26427 16.8276L6.89604 17.1886C6.94117 17.2337 6.98629 17.2788 7.00886 17.324C7.03142 17.3691 7.05398 17.4368 7.05398 17.5045C7.05398 17.6399 6.98629 17.7075 6.89604 17.6399Z" fill="#C7C7C7"/>
</svg>
