<svg width="216" height="200" viewBox="0 0 216 200" fill="none" xmlns="http://www.w3.org/2000/svg">
<g id="Individual" clip-path="url(#clip0_6168_2741)">
<g id="Group">
<g id="Group_2">
<path id="Vector" d="M109.765 200C164.128 200 208.198 197.753 208.198 194.982C208.198 192.21 164.128 189.964 109.765 189.964C55.402 189.964 11.332 192.21 11.332 194.982C11.332 197.753 55.402 200 109.765 200Z" fill="#DFDBFB"/>
</g>
<g id="Group_3">
<g id="Group_4">
<g id="Group_5">
<g id="Group_6">
<g id="Group_7">
<g id="Group_8">
<path id="Vector_2" d="M176.434 180.929H162.793V194.954H178.742V183.211C178.748 181.954 177.712 180.929 176.434 180.929Z" fill="#DFDBFB"/>
</g>
</g>
</g>
</g>
</g>
<g id="Group_9">
<g id="Group_10">
<path id="Vector_3" d="M137.175 150.875H89.8271V180.929H137.175V150.875Z" fill="#DFDBFB"/>
</g>
</g>
<g id="Group_11">
<g id="Group_12">
<g id="Group_13">
<g id="Group_14">
<g id="Group_15">
<path id="Vector_4" d="M173.375 194.954H42.7534V189.747C42.7534 184.879 46.7476 180.929 51.6718 180.929H164.451C169.376 180.929 173.37 184.879 173.37 189.747V194.954H173.375Z" fill="white"/>
</g>
</g>
</g>
</g>
</g>
<g id="Group_16">
<g id="Group_17">
<g id="Group_18">
<g id="Group_19">
<g id="Group_20">
<path id="Vector_5" d="M131.372 150.875H84.0234V180.929H131.372V150.875Z" fill="white"/>
</g>
</g>
</g>
</g>
</g>
<g id="Group_21">
<path id="Vector_6" d="M84.0234 160.103L131.372 156.353L131.377 150.875H84.0851L84.0234 160.103Z" fill="#DFDBFB"/>
</g>
</g>
<g id="Group_22">
<g id="Group_23">
<g id="Group_24">
<path id="Vector_7" d="M215.408 26.7641V144.627C215.408 148.083 212.573 150.881 209.083 150.881H6.91745C3.42739 150.881 0.592773 148.083 0.592773 144.627V26.7641C0.592773 23.3078 3.42739 20.5107 6.91745 20.5107H209.083C212.579 20.5107 215.408 23.3134 215.408 26.7641Z" fill="#DFDBFB"/>
</g>
<g id="Group_25">
<path id="Vector_8" d="M215.407 26.7641V135.909H195.851V20.5107H209.083C212.578 20.5107 215.407 23.3134 215.407 26.7641Z" fill="#595959"/>
</g>
<g id="Group_26">
<path id="Vector_9" d="M207.369 26.7641V144.627C207.369 148.083 204.534 150.881 201.044 150.881H6.91744C3.42739 150.881 0.592773 148.083 0.592773 144.627V26.7641C0.592773 23.3078 3.42739 20.5107 6.91744 20.5107H201.038C201.134 20.5107 201.229 20.5107 201.318 20.5162C201.386 20.5218 201.453 20.5218 201.526 20.5273H201.531C201.582 20.5328 201.627 20.5328 201.677 20.5439C201.761 20.5495 201.839 20.5605 201.923 20.5716C201.979 20.5771 202.03 20.5882 202.08 20.5938C202.108 20.5993 202.131 20.5993 202.159 20.6048C202.209 20.6104 202.26 20.6215 202.316 20.6325C205.195 21.2252 207.369 23.7454 207.369 26.7641Z" fill="white"/>
</g>
<g id="Group_27">
<g id="Group_28">
<path id="Vector_10" d="M202.316 20.6386C202.265 20.6275 202.215 20.6164 202.159 20.6109C202.131 20.6054 202.108 20.5998 202.08 20.5998C202.024 20.5887 201.974 20.5832 201.923 20.5777C201.839 20.5666 201.761 20.5555 201.677 20.55C201.627 20.5444 201.582 20.5389 201.531 20.5333H201.526C201.458 20.5278 201.391 20.5223 201.318 20.5223C201.223 20.5167 201.134 20.5167 201.038 20.5167H6.91744C3.42739 20.5112 0.592773 23.3139 0.592773 26.7647V135.909H207.369V26.7647C207.369 23.7459 205.195 21.2257 202.316 20.6386ZM199.162 125.009C199.162 125.95 198.394 126.709 197.442 126.709H10.5139C9.56159 126.709 8.79412 125.95 8.79412 125.009V30.3207C8.79412 29.379 9.56159 28.6202 10.5139 28.6202H197.442C198.394 28.6202 199.162 29.379 199.162 30.3207V125.009Z" fill="#0F0E16"/>
</g>
</g>
<g id="Group_29">
<path id="Vector_11" d="M199.162 30.3201V125.008C199.162 125.95 198.394 126.709 197.442 126.709H10.5138C9.56142 126.709 8.79395 125.95 8.79395 125.008V30.3201C8.79395 29.3785 9.56142 28.6197 10.5138 28.6197H197.442C198.394 28.6197 199.162 29.3841 199.162 30.3201Z" fill="#CED3E6"/>
</g>
<g id="Group_30">
<g id="Group_31">
<path id="Vector_12" d="M199.162 30.3201V39.2545H8.79395V30.3201C8.79395 29.3785 9.56142 28.6197 10.5138 28.6197H197.442C198.394 28.6197 199.162 29.3841 199.162 30.3201Z" fill="white"/>
</g>
<g id="Group_32">
<g id="Group_33">
<path id="Vector_13" d="M184.417 33.7986C184.417 34.5962 183.761 35.2443 182.955 35.2443C182.148 35.2443 181.493 34.5962 181.493 33.7986C181.493 33.001 182.148 32.353 182.955 32.353C183.761 32.353 184.417 33.001 184.417 33.7986Z" fill="#DF615C"/>
</g>
<g id="Group_34">
<path id="Vector_14" d="M187.694 35.2443C188.502 35.2443 189.156 34.597 189.156 33.7986C189.156 33.0002 188.502 32.353 187.694 32.353C186.887 32.353 186.232 33.0002 186.232 33.7986C186.232 34.597 186.887 35.2443 187.694 35.2443Z" fill="#5392F3"/>
</g>
</g>
<g id="Group_35">
<path id="Vector_15" d="M175.499 35.3273H26.7822C26.0315 35.3273 25.4209 34.7181 25.4209 33.9814V33.6214C25.4209 32.8791 26.0371 32.2754 26.7822 32.2754H175.499C176.249 32.2754 176.86 32.8847 176.86 33.6214V33.9814C176.866 34.7181 176.249 35.3273 175.499 35.3273Z" fill="#D2DCEC"/>
</g>
<g id="Group_36">
<path id="Vector_16" d="M15.6674 33.7986V35.2166C15.6674 35.416 15.4489 35.5434 15.2753 35.4437L14.0372 34.7347L12.7992 34.0257C12.6255 33.926 12.6255 33.6767 12.7992 33.577L14.0372 32.8681L15.2753 32.1591C15.4489 32.0594 15.6674 32.1868 15.6674 32.3862V33.7986Z" fill="black"/>
</g>
<g id="Group_37">
<path id="Vector_17" d="M17.8467 33.7986V35.2166C17.8467 35.416 18.0652 35.5434 18.2388 35.4437L19.4769 34.7347L20.7149 34.0257C20.8886 33.926 20.8886 33.6767 20.7149 33.577L19.4769 32.8681L18.2388 32.1591C18.0652 32.0594 17.8467 32.1868 17.8467 32.3862V33.7986Z" fill="black"/>
</g>
</g>
</g>
<g id="Group_38">
<g id="Group_39">
<path id="Vector_18" d="M191.129 35.0061L191.061 34.9396C190.916 34.7956 190.916 34.5685 191.061 34.4245L193.022 32.4859C193.168 32.3419 193.397 32.3419 193.543 32.4859L193.61 32.5523C193.756 32.6964 193.756 32.9235 193.61 33.0675L191.65 35.0061C191.504 35.1446 191.269 35.1446 191.129 35.0061Z" fill="#39393B"/>
</g>
<g id="Group_40">
<path id="Vector_19" d="M193.543 35.0061L193.61 34.9396C193.756 34.7956 193.756 34.5685 193.61 34.4245L191.65 32.4859C191.504 32.3419 191.274 32.3419 191.129 32.4859L191.061 32.5523C190.916 32.6964 190.916 32.9235 191.061 33.0675L193.022 35.0061C193.168 35.1446 193.403 35.1446 193.543 35.0061Z" fill="#39393B"/>
</g>
</g>
<g id="Group_41">
<g id="Group_42">
<g id="Group_43">
<g id="Group_44">
<path id="Vector_20" d="M173.539 122.903H33.9144C31.9256 122.903 30.3179 121.308 30.3179 119.347V44.9707C30.3179 43.0044 31.9312 41.4147 33.9144 41.4147H173.539C175.528 41.4147 177.135 43.0099 177.135 44.9707V119.342C177.135 121.308 175.528 122.903 173.539 122.903Z" fill="white"/>
</g>
</g>
<g id="Group_45">
<g id="Group_46">
<path id="Vector_21" d="M72.8086 83.1062H40.6195C40.1265 83.1062 39.7231 82.7129 39.7231 82.22C39.7231 81.7325 40.1209 81.3337 40.6195 81.3337H72.8086C73.3016 81.3337 73.705 81.727 73.705 82.22C73.705 82.7129 73.3016 83.1062 72.8086 83.1062Z" fill="#DEDEDE"/>
</g>
<g id="Group_47">
<path id="Vector_22" d="M72.8086 75.6287H40.6195C40.1265 75.6287 39.7231 75.2354 39.7231 74.7424C39.7231 74.255 40.1209 73.8562 40.6195 73.8562H72.8086C73.3016 73.8562 73.705 74.2495 73.705 74.7424C73.705 75.2299 73.3016 75.6287 72.8086 75.6287Z" fill="#DEDEDE"/>
</g>
<g id="Group_48">
<path id="Vector_23" d="M72.8086 90.5894H40.6195C40.1265 90.5894 39.7231 90.1961 39.7231 89.7031C39.7231 89.2157 40.1209 88.8169 40.6195 88.8169H72.8086C73.3016 88.8169 73.705 89.2102 73.705 89.7031C73.705 90.1905 73.3016 90.5894 72.8086 90.5894Z" fill="#DEDEDE"/>
</g>
</g>
<g id="Group_49">
<g id="Group_50">
<path id="Vector_24" d="M171.723 83.1062H139.534C139.041 83.1062 138.638 82.7129 138.638 82.22C138.638 81.7325 139.035 81.3337 139.534 81.3337H171.723C172.216 81.3337 172.62 81.727 172.62 82.22C172.614 82.7129 172.216 83.1062 171.723 83.1062Z" fill="#DEDEDE"/>
</g>
<g id="Group_51">
<path id="Vector_25" d="M171.723 75.6287H139.534C139.041 75.6287 138.638 75.2354 138.638 74.7424C138.638 74.255 139.035 73.8562 139.534 73.8562H171.723C172.216 73.8562 172.62 74.2495 172.62 74.7424C172.614 75.2299 172.216 75.6287 171.723 75.6287Z" fill="#DEDEDE"/>
</g>
<g id="Group_52">
<path id="Vector_26" d="M171.723 90.5894H139.534C139.041 90.5894 138.638 90.1961 138.638 89.7031C138.638 89.2157 139.035 88.8169 139.534 88.8169H171.723C172.216 88.8169 172.62 89.2102 172.62 89.7031C172.614 90.1905 172.216 90.5894 171.723 90.5894Z" fill="#DEDEDE"/>
</g>
</g>
<g id="Group_53">
<path id="Vector_27" d="M30.3115 110.247H177.135V122.15C177.135 122.566 176.793 122.904 176.373 122.904H31.0734C30.6532 122.904 30.3115 122.566 30.3115 122.15V110.247Z" fill="#0F0E16"/>
</g>
<g id="Group_54">
<g id="Group_55">
<g id="Group_56">
<path id="Vector_28" d="M162.715 114.939V113.864H164.071V112.911H162.228C161.959 112.911 161.746 113.127 161.746 113.388V114.939H162.715Z" fill="white"/>
</g>
</g>
<g id="Group_57">
<g id="Group_58">
<path id="Vector_29" d="M162.715 116.844H161.751V118.478C161.751 118.744 161.97 118.954 162.233 118.954H164.076V118.002H162.721V116.844H162.715Z" fill="white"/>
</g>
</g>
<g id="Group_59">
<g id="Group_60">
<path id="Vector_30" d="M166.9 114.939H167.863V113.388C167.863 113.122 167.645 112.911 167.382 112.911H165.611V113.864H166.9V114.939Z" fill="white"/>
</g>
</g>
<g id="Group_61">
<g id="Group_62">
<path id="Vector_31" d="M166.9 116.844V117.996H165.611V118.949H167.382C167.65 118.949 167.863 118.733 167.863 118.472V116.838H166.9V116.844Z" fill="white"/>
</g>
</g>
</g>
<g id="Group_63">
<g id="Group_64">
<path id="Vector_32" d="M38.8657 116.14V113.122L41.5043 114.628L44.1484 116.14L41.5043 117.647L38.8657 119.154V116.14Z" fill="white"/>
</g>
</g>
<g id="Group_65">
<g id="Group_66">
<g id="Group_67">
<path id="Vector_33" d="M53.5041 118.915H52.8094C52.5517 118.915 52.3389 118.705 52.3389 118.45V113.892C52.3389 113.637 52.5517 113.426 52.8094 113.426H53.5041C53.7618 113.426 53.9747 113.637 53.9747 113.892V118.45C53.9803 118.705 53.7674 118.915 53.5041 118.915Z" fill="white"/>
</g>
</g>
<g id="Group_68">
<g id="Group_69">
<path id="Vector_34" d="M56.9269 118.915H56.2323C55.9746 118.915 55.7617 118.705 55.7617 118.45V113.892C55.7617 113.637 55.9746 113.426 56.2323 113.426H56.9269C57.1846 113.426 57.3975 113.637 57.3975 113.892V118.45C57.3975 118.705 57.1846 118.915 56.9269 118.915Z" fill="white"/>
</g>
</g>
</g>
<g id="Group_70">
<g id="Group_71">
<g id="Group_72">
<path id="Vector_35" d="M177.135 107.865H30.3115V110.247H177.135V107.865Z" fill="#DEDEDE"/>
</g>
</g>
<g id="Group_73">
<g id="Group_74">
<path id="Vector_36" d="M105.647 107.871H30.3115V110.253H105.647V107.871Z" fill="#DF615C"/>
</g>
</g>
</g>
<g id="Group_75">
<g id="Group_76">
<g id="Group_77">
<path id="Vector_37" d="M153.657 98.6097H155.315V102.199H157.533V103.467H153.657V98.6097Z" fill="#0F0E16"/>
</g>
<g id="Group_78">
<path id="Vector_38" d="M157.987 98.6097H159.646V103.467H157.987V98.6097Z" fill="#0F0E16"/>
</g>
<g id="Group_79">
<path id="Vector_39" d="M165.696 98.6097L163.617 103.467H161.987L159.909 98.6097H161.69L162.861 101.446L164.06 98.6097H165.696Z" fill="#0F0E16"/>
</g>
<g id="Group_80">
<path id="Vector_40" d="M169.942 102.232V103.467H165.853V98.6097H169.847V99.8449H167.483V100.415H169.561V101.595H167.483V102.232H169.942Z" fill="#0F0E16"/>
</g>
</g>
<g id="Group_81">
<path id="Vector_41" d="M150.928 100.997C150.928 102.099 150.027 102.997 148.906 102.997C147.791 102.997 146.884 102.105 146.884 100.997C146.884 99.8948 147.786 98.9975 148.906 98.9975C150.027 99.003 150.928 99.8948 150.928 100.997Z" fill="#DF615C"/>
</g>
</g>
<g id="Group_82">
<g id="Group_83">
<g id="Group_84">
<path id="Vector_42" d="M48.249 102.349C48.249 103.456 47.1846 104.176 45.6609 104.176C44.1371 104.176 43.0728 103.456 43.0728 102.349C43.0728 101.778 43.3585 101.329 43.8458 101.036C43.4929 100.759 43.2744 100.382 43.2744 99.9114C43.2744 98.8756 44.2548 98.2054 45.6553 98.2054C47.0558 98.2054 48.0361 98.8756 48.0361 99.9114C48.0361 100.382 47.8233 100.759 47.4647 101.036C47.9577 101.329 48.249 101.778 48.249 102.349ZM46.2939 102.282C46.2939 101.916 46.0306 101.689 45.6609 101.689C45.2911 101.689 45.0279 101.916 45.0279 102.282C45.0279 102.648 45.2911 102.875 45.6609 102.875C46.0306 102.88 46.2939 102.653 46.2939 102.282ZM45.1959 99.9945C45.1959 100.305 45.392 100.482 45.6553 100.482C45.9186 100.482 46.1146 100.305 46.1146 99.9945C46.1146 99.6843 45.9186 99.507 45.6553 99.507C45.392 99.5015 45.1959 99.6843 45.1959 99.9945Z" fill="#0F0E16"/>
</g>
<g id="Group_85">
<path id="Vector_43" d="M48.6074 101.191C48.6074 99.2966 49.6942 98.2054 51.2236 98.2054C52.7473 98.2054 53.8397 99.2966 53.8397 101.191C53.8397 103.08 52.7529 104.176 51.2236 104.176C49.6942 104.176 48.6074 103.085 48.6074 101.191ZM51.8846 101.191C51.8846 100.089 51.6045 99.7452 51.2236 99.7452C50.8426 99.7452 50.5625 100.089 50.5625 101.191C50.5625 102.293 50.8426 102.637 51.2236 102.637C51.6045 102.637 51.8846 102.293 51.8846 101.191Z" fill="#0F0E16"/>
</g>
</g>
<g id="Group_86">
<g id="Group_87">
<g id="Group_88">
<path id="Vector_44" d="M39.6835 99.5901C39.6835 100.559 38.888 101.346 37.9077 101.346C36.9273 101.346 36.1318 100.559 36.1318 99.5901C36.1318 98.6208 36.9273 97.8343 37.9077 97.8343C38.888 97.8343 39.6835 98.6208 39.6835 99.5901Z" fill="#DF615C"/>
</g>
</g>
<g id="Group_89">
<g id="Group_90">
<path id="Vector_45" d="M41.2297 104.027H34.5913C34.5913 104.027 35.3476 101.944 37.8573 101.944C37.8741 101.944 37.8909 101.944 37.9077 101.944C37.9245 101.944 37.9413 101.944 37.9581 101.944C40.4734 101.944 41.2297 104.027 41.2297 104.027Z" fill="#DF615C"/>
</g>
</g>
</g>
</g>
</g>
<g id="Group_91">
<g id="Clip path group">
<mask id="mask0_6168_2741" style="mask-type:luminance" maskUnits="userSpaceOnUse" x="35" y="-1" width="146" height="112">
<g id="SVGID_2_">
<path id="Vector_46" d="M35.9416 108.026C35.2021 110.258 35.2021 110.646 35.2021 110.258L35.2246 46.4939C35.2246 46.1061 35.2021 46.1671 35.2021 -0.0055542H180.221L180.238 108.02L35.9416 108.026Z" fill="white"/>
</g>
</mask>
<g mask="url(#mask0_6168_2741)">
<g id="Group_92">
<g id="Group_93">
<g id="Group_94">
<g id="Group_95">
<g id="Group_96">
<g id="Group_97">
<g id="Group_98">
<path id="Vector_47" d="M58.2991 59.9812C58.2991 59.9812 57.414 65.3318 53.4254 66.29C50.2042 67.0599 47.1736 64.008 46.126 62.8005C45.8739 62.5125 45.7394 62.3297 45.7394 62.3297C45.7394 62.3297 45.4985 62.3518 45.14 62.3463C44.2997 62.3352 42.8096 62.1635 42.227 61.1443C41.3923 59.6931 44.423 58.6961 44.423 58.6961C44.423 58.6961 42.8712 57.3225 43.2577 56.3255C43.6387 55.3451 45.7226 55.1401 45.7226 55.1401C45.7226 55.1401 43.4818 53.7 44.2325 52.4427C45.3641 50.5539 47.6833 52.631 47.8682 52.7473C47.7225 52.5811 44.8151 49.6067 46.4061 49.075C47.7954 48.6097 50.081 50.1551 51.5823 51.6838C51.8232 51.9275 51.9577 52.066 51.9577 52.066C51.9577 52.066 52.0473 51.9995 52.2042 51.8943C52.9548 51.3958 55.2629 50.0665 56.7306 51.2795C58.4952 52.7528 58.2991 59.9812 58.2991 59.9812Z" fill="#EA9B7A"/>
</g>
</g>
</g>
<g id="Group_99">
<g id="Group_100">
<g id="Group_101">
<g id="Group_102">
<g id="Group_103">
<g id="Group_104">
<path id="Vector_48" d="M54.1367 63.2658C54.0359 63.3101 53.9183 63.3101 53.823 63.2436C53.6774 63.1495 53.6382 62.9556 53.739 62.8116C54.2656 62.0417 54.4281 61.2496 54.2208 60.4686C53.6942 58.4635 50.9828 57.0788 50.9548 57.0622C50.798 56.9846 50.7363 56.7963 50.8148 56.6412C50.8932 56.4861 51.0837 56.4252 51.2405 56.5027C51.3638 56.5637 54.232 58.0315 54.8314 60.308C55.0835 61.2718 54.893 62.23 54.26 63.155C54.2264 63.2048 54.1872 63.2436 54.1367 63.2658Z" fill="#D96C63"/>
</g>
</g>
</g>
</g>
</g>
</g>
<g id="Group_105">
<g id="Group_106">
<g id="Group_107">
<g id="Group_108">
<g id="Group_109">
<g id="Group_110">
<path id="Vector_49" d="M51.3693 55.55C51.3693 55.9211 51.2125 56.2147 50.9211 56.403C50.8595 56.4418 50.7923 56.475 50.7139 56.5082C50.5514 56.5692 50.3553 56.6135 50.1425 56.6356C50.2993 56.7353 50.4394 56.8461 50.5458 56.9624C50.6579 57.0788 50.7419 57.2006 50.7923 57.328C50.8595 57.5163 50.8875 57.7988 50.6523 58.1145C50.1425 58.7792 48.9717 59.0506 48.0193 59.1614C48.7028 59.5602 49.2966 60.103 49.4926 60.6458C49.6159 60.9948 49.5767 61.3271 49.3694 61.5985C49.2237 61.7869 48.9829 61.953 48.6859 62.097C47.9409 62.4571 46.8485 62.6786 46.1202 62.8005C45.8681 62.5125 45.7337 62.3297 45.7337 62.3297C45.7337 62.3297 45.4928 62.3574 45.1343 62.3518C45.1791 62.3131 45.2351 62.2909 45.2967 62.2854C46.4676 62.1524 48.4731 61.7425 48.8652 61.2274C48.9156 61.1554 48.9661 61.0557 48.8988 60.8563C48.6803 60.2581 47.5431 59.466 46.5628 59.2279C46.4059 59.1891 46.3051 59.0451 46.3275 58.8844C46.3443 58.7238 46.4844 58.6075 46.6468 58.613C47.4311 58.6297 49.5823 58.4967 50.1537 57.7379C50.2377 57.6271 50.2153 57.5662 50.2041 57.5385C50.1537 57.3945 49.9744 57.2505 49.7279 57.1065C49.2237 56.8129 48.4283 56.547 47.8569 56.4085C47.7896 56.3919 47.7336 56.3587 47.6944 56.3088C47.6272 56.2368 47.5992 56.1316 47.6216 56.0319C47.6608 55.8657 47.8344 55.7605 48.0025 55.7993C48.1089 55.827 48.3386 55.8823 48.6187 55.971C49.1509 56.0319 49.6607 56.0596 50.0472 56.0208C50.2769 55.9987 50.4618 55.9488 50.585 55.8768C50.6579 55.8325 50.7419 55.7494 50.7419 55.5445C50.7475 55.2841 50.613 54.9463 50.4002 54.5973C50.3329 54.4865 50.3441 54.3481 50.4282 54.2484L50.4338 54.2428C50.5682 54.0711 50.8315 54.0877 50.9436 54.2761C51.2013 54.7081 51.3693 55.1567 51.3693 55.55Z" fill="#D96C63"/>
</g>
</g>
</g>
</g>
</g>
</g>
<g id="Group_111">
<g id="Group_112">
<path id="Vector_50" d="M49.05 49.6954C49.5934 50.0277 50.0696 50.3379 50.5346 50.7699C50.9827 51.1909 51.2684 51.4069 51.5766 51.6894C51.5541 51.7226 51.599 51.6561 51.5766 51.6894L45.4928 26.177C45.4031 25.7838 44.8093 25.9056 44.8821 26.2989L49.05 49.6954Z" fill="#39393B"/>
</g>
</g>
<g id="Group_113">
<g id="Group_114">
<path id="Vector_51" d="M54.3386 63.864C52.2322 65.2099 51.6384 64.2129 51.6384 64.2129L50.5684 58.2198C50.602 58.1866 50.63 58.1533 50.6581 58.1145C50.8933 57.7988 50.8653 57.5108 50.7981 57.328C50.7477 57.1951 50.6637 57.0732 50.5516 56.9624C50.4788 56.8849 50.3948 56.8184 50.3051 56.7464L50.2827 56.6135C50.4396 56.5858 50.5908 56.5526 50.7141 56.5027C50.7925 56.4695 50.8597 56.4418 50.9213 56.3975C51.1118 56.2756 51.2463 56.0984 51.3135 55.8934C51.5712 56.1371 51.8849 56.2756 52.2602 56.3144C52.3611 56.3255 52.4619 56.3255 52.5683 56.3255L54.3386 63.864Z" fill="#39393B"/>
</g>
</g>
<g id="Group_115">
<g id="Group_116">
<g id="Group_117">
<g id="Group_118">
<g id="Group_119">
<g id="Group_120">
<path id="Vector_52" d="M56.1703 54.5087C56.1087 54.5641 55.1787 55.3673 54.0919 55.8879C53.4925 56.1759 52.8371 56.3809 52.2601 56.32C51.7839 56.2701 51.3974 56.0541 51.1173 55.683C50.1145 54.3536 50.9716 52.6144 51.5766 51.6949C51.8175 51.9387 51.952 52.0771 51.952 52.0771C51.952 52.0771 52.0416 52.0107 52.1985 51.9054C51.6831 52.6643 50.8148 54.2318 51.6271 55.3119C51.8007 55.5445 52.0304 55.6719 52.3273 55.7051C53.4421 55.8215 55.1787 54.5475 55.7501 54.049C55.879 53.9327 56.0807 53.9438 56.1983 54.0767C56.3159 54.193 56.2991 54.3924 56.1703 54.5087Z" fill="#D96C63"/>
</g>
</g>
</g>
</g>
</g>
</g>
</g>
<g id="Group_121">
<g id="Group_122">
<path id="Vector_53" d="M88.7291 48.3162V48.3051L88.7235 48.3383L88.7067 48.4159L88.6675 48.5987L88.5835 49.003C88.5555 49.1415 88.5219 49.2855 88.4939 49.4295C88.4603 49.5735 88.4322 49.7175 88.393 49.8615C88.2586 50.4431 88.1129 51.0358 87.9505 51.6285C87.6199 52.8138 87.2726 54.0047 86.8693 55.1734C86.4603 56.3421 86.0402 57.5108 85.564 58.6463C85.3175 59.2113 85.0822 59.7818 84.8189 60.3357C84.5725 60.9006 84.298 61.449 84.0347 61.9973C83.4801 63.0885 82.9031 64.1631 82.2756 65.1933C82.13 65.4592 81.9619 65.7084 81.7995 65.9632C81.637 66.218 81.4857 66.4783 81.3121 66.7276C80.976 67.2261 80.651 67.7301 80.2925 68.212C79.6091 69.198 78.8528 70.1174 78.1021 71.0314C77.3235 71.9176 76.528 72.7983 75.6821 73.6125C75.4692 73.8174 75.2619 74.0279 75.049 74.2273L74.3936 74.8145L74.0687 75.108L73.9846 75.18L74.0239 75.1412L74.0799 75.0914C74.1583 75.0305 74.2367 74.9751 74.3264 74.9197C74.6737 74.676 75.1051 74.4877 75.5028 74.3769C75.6036 74.3492 75.6877 74.3215 75.7829 74.3104C75.8277 74.2993 75.8781 74.2938 75.9229 74.2882L76.0406 74.2661C76.119 74.255 76.2031 74.2495 76.2759 74.2495C76.3375 74.2439 76.3991 74.2384 76.4607 74.2439C76.4887 74.2439 76.528 74.2495 76.5448 74.2495C76.5672 74.2495 76.5896 74.2495 76.612 74.2495C76.6512 74.2495 76.7016 74.2606 76.7352 74.2661C76.7632 74.2661 76.7857 74.2716 76.8137 74.2772L76.8473 74.2882C76.8529 74.2882 76.8585 74.2882 76.8641 74.2882C76.9537 74.3159 76.7745 74.2883 76.5 74.1719C76.2199 74.0556 75.8501 73.8617 75.4468 73.6291C75.0434 73.3909 74.6009 73.1029 74.1527 72.7872C73.2508 72.1558 72.3041 71.4025 71.3629 70.5993C70.4162 69.7906 69.4638 68.9321 68.5171 68.0348C67.5704 67.143 66.6236 66.2125 65.6937 65.2653C64.7581 64.3182 63.8226 63.3488 62.9095 62.3685C62.4445 61.881 61.9851 61.3881 61.537 60.8951L60.2149 59.4661L50.0024 67.0489L50.3442 67.5584L50.6691 68.0293L51.3133 68.9543C51.7503 69.5635 52.1872 70.1673 52.6298 70.7655C53.5261 71.9564 54.4448 73.1362 55.3972 74.2993C56.3607 75.457 57.3411 76.6091 58.3775 77.739C58.8984 78.304 59.425 78.869 59.9684 79.4228C60.5118 79.9823 61.072 80.5362 61.649 81.0845C62.8086 82.1868 64.0299 83.2669 65.408 84.3303C66.097 84.8621 66.8309 85.3827 67.6264 85.8979C68.4275 86.413 69.2958 86.917 70.3153 87.3934C71.3349 87.8642 72.5001 88.3239 73.9903 88.6341L74.2647 88.6895C74.36 88.7061 74.4664 88.7227 74.5673 88.7393C74.7689 88.767 74.9706 88.7947 75.1723 88.8224C75.3796 88.8446 75.6092 88.8612 75.8277 88.8723L76.1582 88.8889C76.2703 88.8944 76.3935 88.8944 76.5112 88.8944C76.752 88.8944 76.9929 88.8889 77.2282 88.8778C77.4803 88.8612 77.738 88.8335 77.9957 88.8003C78.1245 88.7837 78.2478 88.767 78.3822 88.7504C78.5167 88.7283 78.6511 88.7006 78.7856 88.6729C79.0545 88.6175 79.3178 88.5621 79.5867 88.4845C80.6735 88.1799 81.749 87.6814 82.6958 87.05C82.9255 86.8949 83.1439 86.7287 83.3624 86.557L83.5249 86.4296L83.6705 86.3077L83.7882 86.2025L84.2587 85.7926L85.1943 84.9673C85.4968 84.6848 85.7937 84.3968 86.0962 84.1088C87.3006 82.9678 88.4098 81.7381 89.491 80.4919C90.5442 79.2234 91.5582 77.9329 92.4769 76.5869C93.418 75.252 94.2639 73.8618 95.0706 72.4604L95.6532 71.3969C95.8493 71.0424 96.023 70.6824 96.2078 70.3224C96.3927 69.9623 96.572 69.6078 96.7456 69.2423L97.261 68.1566C98.5943 65.2432 99.6699 62.2466 100.505 59.1946C100.914 57.6659 101.283 56.1261 101.563 54.5586C101.703 53.772 101.838 52.9855 101.944 52.1768C101.972 51.9774 101.995 51.7725 102.023 51.5675C102.045 51.3626 102.073 51.1576 102.096 50.9472C102.118 50.7422 102.14 50.5207 102.157 50.3047L102.219 49.5347L88.7291 48.3162Z" fill="#7B68EE"/>
</g>
</g>
<g id="Group_123">
<g id="Group_124">
<g id="Group_125">
<path id="Vector_54" d="M56.6746 65.509C56.7138 65.9854 57.1396 66.3454 57.627 66.3011C58.1087 66.2623 58.4729 65.8414 58.4281 65.3595C58.3888 64.8831 57.9631 64.5231 57.4757 64.5674C56.9939 64.6117 56.6298 65.0327 56.6746 65.509Z" fill="#0F0E16"/>
</g>
</g>
</g>
<g id="Group_126">
<g id="Group_127">
<g id="Group_128">
<g id="Group_129">
<path id="Vector_55" d="M74.9765 80.4697C75.1446 80.4697 75.2958 80.359 75.3406 80.1873C76.0465 77.3956 75.9568 73.8895 75.9512 73.7399C75.9456 73.535 75.772 73.3744 75.5647 73.3799C75.3574 73.3854 75.195 73.5571 75.2006 73.7621C75.2006 73.7953 75.2902 77.3125 74.6124 80.0045C74.5619 80.2039 74.6852 80.4033 74.8869 80.4531C74.9149 80.4642 74.9429 80.4697 74.9765 80.4697Z" fill="#0F0E16"/>
</g>
</g>
</g>
<g id="Group_130">
<g id="Group_131">
<g id="Group_132">
<path id="Vector_56" d="M77.3798 77.7723C77.4358 77.7723 77.4918 77.7612 77.5478 77.7335C77.7327 77.6393 77.8111 77.4178 77.7159 77.235C77.6655 77.1353 76.4498 74.7314 75.8728 74.0113C75.744 73.8507 75.5087 73.823 75.3462 73.9504C75.1838 74.0778 75.1558 74.3104 75.2846 74.4711C75.8112 75.1246 77.0324 77.5396 77.0436 77.5618C77.1109 77.7003 77.2453 77.7723 77.3798 77.7723Z" fill="#0F0E16"/>
</g>
</g>
</g>
</g>
<g id="Group_133">
<g id="Group_134">
<g id="Group_135">
<g id="Group_136">
<path id="Vector_57" d="M53.9686 72.7374C54.0695 72.7374 54.1647 72.6986 54.2375 72.6266C57.3859 69.414 64.4948 64.3403 64.5676 64.2905C64.7357 64.1686 64.7749 63.936 64.6517 63.7698C64.5284 63.6037 64.2932 63.5649 64.1251 63.6867C64.0523 63.7366 56.8929 68.849 53.6997 72.1059C53.5541 72.2555 53.5597 72.4881 53.7053 72.6321C53.7782 72.6986 53.8734 72.7374 53.9686 72.7374Z" fill="#0F0E16"/>
</g>
</g>
</g>
<g id="Group_137">
<g id="Group_138">
<g id="Group_139">
<path id="Vector_58" d="M57.0105 69.99C57.0946 69.99 57.1786 69.9623 57.2514 69.9014C57.4083 69.7685 57.4307 69.5358 57.3018 69.3752L53.5037 64.8665C53.3692 64.7114 53.1339 64.6893 52.9715 64.8167C52.8146 64.9496 52.7922 65.1822 52.9211 65.3429L56.7192 69.8516C56.7977 69.9457 56.9041 69.99 57.0105 69.99Z" fill="#0F0E16"/>
</g>
</g>
</g>
</g>
</g>
<g id="Group_140">
<g id="Group_141">
<g id="Group_142">
<g id="Group_143">
<g id="Group_144">
<g id="Group_145">
<g id="Group_146">
<g id="Group_147">
<g id="Group_148">
<path id="Vector_59" d="M127.703 109.449C127.703 109.449 128.806 119.807 126.425 125.573C124.044 131.339 93.1941 128.37 85.3345 123.18C82.1077 121.053 88.9758 101.412 88.9758 101.412L127.703 109.449Z" fill="#39393B"/>
</g>
</g>
</g>
</g>
</g>
</g>
</g>
<g id="Group_149">
<g id="Group_150">
<g id="Group_151">
<g id="Group_152">
<g id="Group_153">
<g id="Group_154">
<g id="Group_155">
<g id="Group_156">
<path id="Vector_60" d="M102.689 126.133C102.678 126.338 102.846 126.515 103.065 126.532C103.065 126.532 103.065 126.532 103.07 126.532C103.289 126.543 103.474 126.382 103.485 126.172C103.552 124.754 103.642 123.308 103.731 121.857C103.748 121.602 103.765 121.347 103.782 121.092C104.096 116.362 104.488 111.715 104.785 108.43C104.807 108.164 104.829 107.91 104.857 107.66C104.925 106.94 104.986 106.303 105.037 105.761C104.773 105.722 104.51 105.677 104.252 105.633C104.202 106.176 104.14 106.818 104.073 107.544C104.051 107.793 104.028 108.048 104 108.314C103.703 111.565 103.311 116.174 103.003 120.876C102.986 121.137 102.97 121.397 102.953 121.657C102.852 123.158 102.762 124.665 102.689 126.133Z" fill="#585859"/>
</g>
</g>
</g>
</g>
</g>
</g>
</g>
</g>
<g id="Group_157">
<g id="Group_158">
<g id="Group_159">
<g id="Group_160">
<g id="Group_161">
<g id="Group_162">
<g id="Group_163">
<g id="Group_164">
<path id="Vector_61" d="M101.564 121.137C101.687 121.198 102.242 121.452 102.948 121.663C103.194 121.735 103.457 121.807 103.732 121.857C103.978 121.906 104.23 121.94 104.483 121.951C104.964 121.978 105.424 121.929 105.81 121.746C106.292 121.519 106.606 121.103 106.712 120.549C106.998 119.087 107.603 113.061 108.012 108.796C108.04 108.535 108.062 108.275 108.085 108.031C108.146 107.35 108.208 106.73 108.258 106.204C107.995 106.17 107.732 106.143 107.468 106.104C107.418 106.636 107.362 107.262 107.295 107.954C107.272 108.203 107.244 108.458 107.222 108.718C106.813 112.972 106.214 118.993 105.933 120.405C105.872 120.732 105.721 120.943 105.457 121.065C105.037 121.264 104.41 121.22 103.782 121.087C103.513 121.031 103.25 120.954 103.004 120.876C102.55 120.732 102.158 120.566 101.917 120.455C101.721 120.361 101.485 120.439 101.385 120.627C101.284 120.815 101.368 121.042 101.564 121.137Z" fill="#585859"/>
</g>
</g>
</g>
</g>
</g>
</g>
</g>
</g>
</g>
</g>
<g id="Group_165">
<g id="Group_166">
<g id="Group_167">
<g id="Group_168">
<path id="Vector_62" d="M84.2476 108.796C92.785 116.678 112.98 120.865 128.543 113.371C130.251 108.757 132.128 92.2953 132.632 87.3712C132.733 86.3908 132.811 85.4104 132.879 84.43C133.192 79.7108 133.125 74.9529 132.895 69.9789C132.884 69.7075 132.867 69.4361 132.856 69.1647C132.655 65.0714 132.346 60.8286 132.061 56.3199C131.495 47.3967 128.481 41.9021 123.249 41.0823C120.817 40.7001 118.89 40.0244 117.473 39.3597C117.299 39.2766 117.137 39.1991 116.975 39.116C115.288 38.263 114.33 37.4986 114.33 37.4986H102.661C101.659 38.9443 100.393 39.8582 99.0313 40.5007C98.88 40.5727 98.7288 40.6392 98.5719 40.7056C94.432 42.4726 89.6031 42.1236 88.6059 47.0588C87.9785 50.1606 90.3818 56.5359 90.1297 69.4693C90.1129 70.4165 90.0792 71.4024 90.0288 72.4216C89.984 73.3798 89.9224 74.3658 89.844 75.3849C89.7711 76.3321 89.6871 77.318 89.5863 78.3261C89.4966 79.2068 89.3958 80.1152 89.2838 81.0402C89.1661 81.9929 89.0373 82.9677 88.8916 83.9703C88.1241 89.3597 86.0402 101.883 84.2476 108.796Z" fill="#7B68EE"/>
</g>
</g>
<g id="Group_169">
<path id="Vector_63" d="M124.241 111.493C124.213 111.493 124.179 111.488 124.145 111.482C123.96 111.432 123.848 111.244 123.899 111.056C130.38 87.5596 129.069 63.6812 129.058 63.443C129.047 63.2547 129.193 63.0885 129.389 63.0774C129.585 63.0664 129.747 63.2104 129.759 63.4042C129.77 63.6424 131.086 87.6371 124.577 111.244C124.537 111.388 124.397 111.493 124.241 111.493Z" fill="#0F0E16"/>
</g>
<g id="Group_170">
<g id="Group_171">
<g id="Group_172">
<path id="Vector_64" d="M89.0766 80.9738C89.2671 80.9738 89.4295 80.8353 89.4519 80.6414C90.225 73.8451 90.2362 60.3301 90.2362 60.1917C90.2362 59.9867 90.0682 59.8206 89.8609 59.8206C89.6536 59.8206 89.4855 59.9867 89.4855 60.1917C89.4855 60.3246 89.4743 73.8064 88.7069 80.5583C88.6845 80.7633 88.8301 80.9461 89.0374 80.9682C89.0486 80.9738 89.0598 80.9738 89.0766 80.9738Z" fill="#0F0E16"/>
</g>
</g>
</g>
<g id="Group_173">
<g id="Group_174">
<g id="Group_175">
<path id="Vector_65" d="M105.059 106.569C105.098 107.046 105.524 107.406 106.011 107.361C106.493 107.323 106.857 106.902 106.813 106.42C106.773 105.943 106.348 105.583 105.86 105.628C105.378 105.666 105.02 106.087 105.059 106.569Z" fill="#0F0E16"/>
</g>
</g>
</g>
<g id="Group_176">
<g id="Group_177">
<g id="Group_178">
<path id="Vector_66" d="M104.919 110.779C104.958 111.255 105.384 111.615 105.871 111.571C106.353 111.532 106.717 111.111 106.672 110.629C106.633 110.153 106.207 109.793 105.72 109.837C105.238 109.876 104.88 110.297 104.919 110.779Z" fill="#0F0E16"/>
</g>
</g>
</g>
<g id="Group_179">
<g id="Group_180">
<g id="Group_181">
<path id="Vector_67" d="M94.6449 64.4843C92.3537 61.8533 93.2108 55.9987 93.25 55.7494C93.278 55.5667 93.4349 55.4337 93.6198 55.4337H101.39C101.575 55.4337 101.731 55.5667 101.759 55.7494C101.799 55.9987 102.656 61.8533 100.365 64.4843C99.6363 65.3207 98.6728 65.7417 97.502 65.7417C96.3368 65.7472 95.3732 65.3207 94.6449 64.4843ZM93.9559 56.1759C93.8102 57.4111 93.4293 61.9475 95.2163 63.9969C95.8046 64.6727 96.5552 64.9995 97.5076 64.9995C98.4655 64.9995 99.2162 64.6727 99.7988 63.9969C101.586 61.9475 101.205 57.4111 101.059 56.1759H93.9559Z" fill="#0F0E16"/>
</g>
</g>
</g>
</g>
<g id="Group_182">
<g id="Group_183">
<path id="Vector_68" d="M115.389 9.0617C113.215 7.67143 106.364 6.97352 106.364 6.97352C106.364 6.97352 105.238 4.04896 103.966 3.21259C101.081 1.31273 100.723 5.16229 100.723 5.16229C100.723 5.16229 97.9051 1.25734 95.3674 2.37621C92.8297 3.48953 96.0733 7.11754 96.0733 7.11754C96.0733 7.11754 92.2695 6.41963 92.6896 9.62667C93.1098 12.8337 96.7791 14.224 96.7791 14.224C96.7791 14.224 95.6531 16.0352 96.2133 18.9653C96.7791 21.8899 98.0452 22.0339 98.0452 22.0339L113.837 23.4297C113.837 23.4297 117.081 23.4297 117.927 19.3863C118.773 15.3429 115.955 13.6701 115.955 13.6701C115.955 13.6701 117.787 10.596 115.389 9.0617Z" fill="#0F0E16"/>
</g>
<g id="Group_184">
<g id="Group_185">
<g id="Group_186">
<g id="Group_187">
<g id="Group_188">
<g id="Group_189">
<g id="Group_190">
<path id="Vector_69" d="M102.493 35.5434V38.4735C102.84 38.7504 103.193 38.9941 103.541 39.1991C108.689 42.2566 114.246 38.4735 114.246 38.4735V28.3095L103.894 34.6793L102.493 35.5434Z" fill="#EA9B7A"/>
</g>
</g>
</g>
</g>
</g>
</g>
<g id="Group_191">
<g id="Group_192">
<g id="Group_193">
<g id="Group_194">
<g id="Group_195">
<g id="Group_196">
<path id="Vector_70" d="M102.493 35.4603V38.479C102.84 38.756 103.193 38.9997 103.541 39.2046C107.927 37.4875 111.12 32.9401 111.12 32.9401L103.894 34.6848L102.493 35.4603Z" fill="#0F0E16"/>
</g>
</g>
</g>
</g>
</g>
</g>
<g id="Group_197">
<g id="Group_198">
<g id="Group_199">
<path id="Vector_71" d="M114.224 35.499C114.224 35.499 117.692 36.0751 118.644 39.9966C115.266 43.4917 112.28 46.516 107.451 47.4022V40.3844C107.446 40.3844 111.714 39.332 114.224 35.499Z" fill="#7B68EE"/>
</g>
</g>
</g>
<g id="Group_200">
<g id="Group_201">
<g id="Group_202">
<path id="Vector_72" d="M102.387 36.5127C102.387 36.5127 99.2892 37.1718 98.0903 41.0879C101.211 44.8433 102.88 46.2557 107.451 47.4022V40.3844C107.446 40.3844 104.897 40.3456 102.387 36.5127Z" fill="#7B68EE"/>
</g>
</g>
</g>
<g id="Group_203">
<g id="Group_204">
<g id="Group_205">
<g id="Group_206">
<g id="Group_207">
<path id="Vector_73" d="M100.639 91.0435L102.645 95.8347L103.547 97.9893L106.096 104.066L107.322 101.717L107.759 100.886L108.745 99.0029L109.182 98.1721L110.168 96.2889L110.605 95.458L111.591 93.5748L112.022 92.7439L112.952 90.977L112.93 90.7831L112.79 89.3818L112.459 86.1969L112.314 84.7956L111.989 81.6107L111.843 80.2093L111.513 77.0244L111.373 75.6231L111.042 72.4382L110.896 71.0313L110.572 67.852L110.426 66.4451L110.101 63.2657L109.955 61.8588L109.625 58.6795L109.479 57.2726L109.154 54.0932L109.009 52.6864L108.672 49.3962L106.213 49.3021L106.14 49.8504L105.989 50.9637L105.653 53.4895L105.507 54.6028L105.166 57.1286L105.02 58.2419L104.684 60.7677L104.533 61.881L104.196 64.4067L104.045 65.5201L103.709 68.0458L103.563 69.1591L103.227 71.6849L103.076 72.7982L102.74 75.324L102.589 76.4428L102.253 78.9631L102.107 80.0764L101.765 82.6021L101.62 83.721L101.283 86.2468L101.132 87.3601L100.796 89.8858L100.645 90.9992L100.639 91.0435Z" fill="#0F0E16"/>
</g>
</g>
</g>
<g id="Group_208">
<g id="Group_209">
<g id="Group_210">
<g id="Group_211">
<g id="Group_212">
<path id="Vector_74" d="M105.989 50.9637L109.154 54.0932L109.008 52.6863L106.14 49.8504L105.989 50.9637Z" fill="#585859"/>
</g>
</g>
</g>
</g>
<g id="Group_213">
<g id="Group_214">
<g id="Group_215">
<g id="Group_216">
<path id="Vector_75" d="M105.507 54.6028L109.624 58.6795L109.479 57.2726L105.652 53.4895L105.507 54.6028Z" fill="#585859"/>
</g>
</g>
</g>
</g>
<g id="Group_217">
<g id="Group_218">
<g id="Group_219">
<g id="Group_220">
<path id="Vector_76" d="M105.02 58.2419L110.101 63.2657L109.955 61.8588L105.165 57.1285L105.02 58.2419Z" fill="#585859"/>
</g>
</g>
</g>
</g>
<g id="Group_221">
<g id="Group_222">
<g id="Group_223">
<g id="Group_224">
<path id="Vector_77" d="M104.532 61.881L110.571 67.8519L110.426 66.4451L104.683 60.7676L104.532 61.881Z" fill="#585859"/>
</g>
</g>
</g>
</g>
<g id="Group_225">
<g id="Group_226">
<g id="Group_227">
<g id="Group_228">
<path id="Vector_78" d="M104.045 65.5201L111.042 72.4382L110.896 71.0313L104.196 64.4067L104.045 65.5201Z" fill="#585859"/>
</g>
</g>
</g>
</g>
<g id="Group_229">
<g id="Group_230">
<g id="Group_231">
<g id="Group_232">
<path id="Vector_79" d="M103.563 69.1592L111.512 77.0245L111.372 75.6231L103.709 68.0458L103.563 69.1592Z" fill="#585859"/>
</g>
</g>
</g>
</g>
<g id="Group_233">
<g id="Group_234">
<g id="Group_235">
<g id="Group_236">
<path id="Vector_80" d="M103.076 72.7982L111.988 81.6106L111.843 80.2093L103.227 71.6849L103.076 72.7982Z" fill="#585859"/>
</g>
</g>
</g>
</g>
<g id="Group_237">
<g id="Group_238">
<g id="Group_239">
<g id="Group_240">
<path id="Vector_81" d="M102.588 76.4428L112.459 86.1969L112.313 84.7956L102.74 75.324L102.588 76.4428Z" fill="#585859"/>
</g>
</g>
</g>
</g>
<g id="Group_241">
<g id="Group_242">
<g id="Group_243">
<g id="Group_244">
<path id="Vector_82" d="M102.106 80.0764L112.93 90.7832L112.789 89.3818L102.252 78.9631L102.106 80.0764Z" fill="#585859"/>
</g>
</g>
</g>
</g>
<g id="Group_245">
<g id="Group_246">
<g id="Group_247">
<g id="Group_248">
<path id="Vector_83" d="M101.619 83.721L111.591 93.5748L112.022 92.744L101.765 82.6022L101.619 83.721Z" fill="#585859"/>
</g>
</g>
</g>
</g>
<g id="Group_249">
<g id="Group_250">
<g id="Group_251">
<g id="Group_252">
<path id="Vector_84" d="M101.132 87.3602L110.168 96.2889L110.605 95.4581L101.283 86.2468L101.132 87.3602Z" fill="#585859"/>
</g>
</g>
</g>
</g>
<g id="Group_253">
<g id="Group_254">
<g id="Group_255">
<g id="Group_256">
<path id="Vector_85" d="M100.645 90.9992L108.745 99.003L109.182 98.1721L100.796 89.8859L100.645 90.9992Z" fill="#585859"/>
</g>
</g>
</g>
</g>
<g id="Group_257">
<g id="Group_258">
<g id="Group_259">
<g id="Group_260">
<path id="Vector_86" d="M102.645 95.8347L103.546 97.9893L107.322 101.717L107.759 100.886L102.645 95.8347Z" fill="#585859"/>
</g>
</g>
</g>
</g>
</g>
<g id="Group_261">
<g id="Group_262">
<g id="Group_263">
<path id="Vector_87" d="M108.672 49.3962L107.446 51.1964L106.213 49.3021L105.995 50.9194L107.429 52.3596L108.801 50.648L108.672 49.3962Z" fill="#585859"/>
</g>
</g>
</g>
</g>
<g id="Group_264">
<g id="Group_265">
<g id="Group_266">
<path id="Vector_88" d="M110.728 46.3775L107.445 51.1964L104.303 46.3775L107.445 42.3507L110.728 46.3775Z" fill="#0F0E16"/>
</g>
</g>
</g>
<g id="Group_267">
<g id="Group_268">
<g id="Group_269">
<g id="Group_270">
<path id="Vector_89" d="M112.633 49.6732C112.717 49.6732 112.801 49.6455 112.868 49.5901C116.117 47.0311 118.879 40.4121 118.997 40.1296C119.075 39.9413 118.986 39.7197 118.79 39.6422C118.599 39.5646 118.375 39.6532 118.297 39.8471C118.269 39.9136 115.664 46.1449 112.695 48.7537L107.754 42.1181C107.681 42.0239 107.569 41.963 107.446 41.9685C107.322 41.9685 107.21 42.0295 107.143 42.1236L102.533 48.5931C101.827 47.3358 99.9781 44.0013 98.4263 40.9106C98.3367 40.7278 98.107 40.6503 97.9221 40.7444C97.7373 40.833 97.6588 41.0601 97.7541 41.2429C99.7148 45.1479 102.146 49.435 102.168 49.4793C102.23 49.5901 102.348 49.6621 102.477 49.6676C102.605 49.6732 102.729 49.6123 102.801 49.5126L107.457 42.9821L112.325 49.5181C112.387 49.6012 112.476 49.651 112.577 49.6676C112.599 49.6732 112.616 49.6732 112.633 49.6732Z" fill="#0F0E16"/>
</g>
</g>
</g>
<g id="Group_271">
<g id="Group_272">
<g id="Group_273">
<path id="Vector_90" d="M107.457 42.7218C107.664 42.7218 107.832 42.5557 107.832 42.3507V40.689C107.832 40.4841 107.664 40.3179 107.457 40.3179C107.25 40.3179 107.082 40.4841 107.082 40.689V42.3507C107.082 42.5557 107.25 42.7218 107.457 42.7218Z" fill="#0F0E16"/>
</g>
</g>
</g>
</g>
</g>
</g>
<g id="Group_274">
<g id="Group_275">
<g id="Group_276">
<g id="Group_277">
<g id="Group_278">
<g id="Group_279">
<path id="Vector_91" d="M98.7844 22.549C98.7844 22.549 97.0982 20.5827 96.1459 22.549C95.1936 24.5154 95.9274 28.4979 98.4875 27.8498L98.7844 22.549Z" fill="#D96C63"/>
</g>
</g>
</g>
</g>
</g>
</g>
<g id="Group_280">
<g id="Group_281">
<path id="Vector_92" d="M96.9922 29.4505C96.9922 29.4505 96.981 35.5157 103.362 35.4991C109.703 35.488 114.022 30.5639 114.246 30.3368C114.252 30.3312 114.252 30.3312 114.252 30.3312L114.319 29.0573L114.678 22.4438L114.868 18.9099C114.868 18.9099 115.68 12.5457 109.557 11.3825C105.087 10.5351 100.897 11.2662 98.7792 13.576C98.712 13.648 98.6448 13.7255 98.5832 13.803C97.9165 14.6117 97.4908 15.6032 97.3787 16.7664L97.1827 23.114L97.1322 24.6704L96.9922 29.4505Z" fill="#EA9B7A"/>
</g>
</g>
<g id="Group_282">
<g id="Group_283">
<g id="Group_284">
<g id="Group_285">
<g id="Group_286">
<g id="Group_287">
<path id="Vector_93" d="M98.5884 13.803C99.5911 13.4541 100.314 13.7809 101.871 14.4566C104.123 15.437 106.644 14.5563 108.874 13.4264C111.103 12.302 112.437 13.8695 111.68 14.8942C110.924 15.9245 111.002 16.7553 111.848 18.0625C112.689 19.3697 110.257 19.9845 111.602 21.0092C112.168 21.4412 112.134 22.0893 111.904 22.693C111.652 23.3522 112.24 24.0224 112.935 23.895C113.663 23.7122 114.683 22.4438 114.683 22.4438L114.873 18.9099C114.873 18.9099 115.686 12.5457 109.563 11.3825C105.092 10.5351 100.902 11.2662 98.7845 13.576C98.7172 13.648 98.65 13.72 98.5884 13.803Z" fill="#0F0E16"/>
</g>
</g>
</g>
</g>
</g>
</g>
<g id="Group_288">
<g id="Group_289">
<g id="Group_290">
<g id="Group_291">
<g id="Group_292">
<g id="Group_293">
<path id="Vector_94" d="M112.246 27.8775C112.274 27.944 113.081 29.794 114.24 30.3368C114.246 30.3313 114.246 30.3313 114.246 30.3313L114.313 29.0573C114.319 29.0573 113.31 28.8856 112.246 27.8775Z" fill="#0F0E16"/>
</g>
</g>
</g>
</g>
</g>
</g>
<g id="Group_294">
<g id="Group_295">
<g id="Group_296">
<g id="Group_297">
<g id="Group_298">
<g id="Group_299">
<path id="Vector_95" d="M113.372 23.6624C113.372 23.6624 115.826 20.4055 117.618 22.9644C119.097 25.0748 116.302 30.5694 113.372 28.6862V23.6624Z" fill="#EA9B7A"/>
</g>
</g>
</g>
</g>
</g>
</g>
<g id="Group_300">
<g id="Group_301">
<g id="Group_302">
<g id="Group_303">
<g id="Group_304">
<g id="Group_305">
<path id="Vector_96" d="M113.708 27.7058C113.837 27.7058 113.944 27.6116 113.96 27.4842C114.235 25.0194 116.319 24.1608 116.408 24.1276C116.537 24.0777 116.599 23.9337 116.549 23.8008C116.498 23.6734 116.352 23.6125 116.224 23.6623C116.123 23.7011 113.764 24.6593 113.462 27.4288C113.445 27.5673 113.546 27.6891 113.686 27.7058C113.686 27.7058 113.697 27.7058 113.708 27.7058Z" fill="#0F0E16"/>
</g>
</g>
</g>
</g>
</g>
</g>
<g id="Group_306">
<g id="Group_307">
<g id="Group_308">
<g id="Group_309">
<g id="Group_310">
<g id="Group_311">
<path id="Vector_97" d="M116.061 26.1936C116.134 26.1936 116.207 26.1604 116.257 26.0995C116.347 25.9942 116.33 25.8336 116.218 25.7505C116.117 25.6674 115.215 24.964 114.454 25.1579C114.319 25.1911 114.235 25.3296 114.274 25.4625C114.308 25.5954 114.448 25.6785 114.582 25.6397C115.019 25.529 115.68 25.961 115.905 26.1382C115.949 26.177 116.005 26.1936 116.061 26.1936Z" fill="#0F0E16"/>
</g>
</g>
</g>
</g>
</g>
</g>
</g>
</g>
</g>
</g>
</g>
</g>
<g id="Clip path group_2">
<g id="Group_312">
<g id="Group_313">
<g id="Group_314">
<g id="Group_315">
<g id="Group_316">
<g id="Group_317">
<g id="Group_318">
<g id="Group_319">
<path id="Vector_98" d="M163.662 46.9979C163.662 46.9979 167.057 50.3877 170.412 49.0694C173.118 48.0004 173.717 44.2783 173.852 42.888C173.886 42.5557 173.886 42.3563 173.886 42.3563C173.886 42.3563 174.07 42.251 174.322 42.0682C174.916 41.6362 175.902 40.761 175.796 39.7363C175.645 38.2741 172.956 39.0883 172.956 39.0883C172.956 39.0883 173.365 37.3214 172.569 36.8007C171.79 36.2911 170.188 37.194 170.188 37.194C170.188 37.194 171.057 35.0282 169.869 34.5076C168.082 33.7211 167.494 36.3853 167.415 36.557C167.432 36.3631 168.284 28.2043 166.866 28.6252C165.628 28.9908 164.491 35.8092 164.2 37.6648C164.155 37.9583 164.132 38.1245 164.132 38.1245C164.132 38.1245 164.032 38.119 163.864 38.1245C163.068 38.1467 160.732 38.3571 160.301 39.9634C159.791 41.9131 163.662 46.9979 163.662 46.9979Z" fill="#EA9B7A"/>
</g>
</g>
</g>
</g>
</g>
</g>
<g id="Group_320">
<g id="Group_321">
<g id="Group_322">
<g id="Group_323">
<g id="Group_324">
<g id="Group_325">
<path id="Vector_99" d="M170.608 41.2374C170.323 41.8689 170.177 42.5557 170.317 43.0431C170.407 43.3588 170.608 43.5749 170.9 43.6635C171.101 43.7244 171.359 43.7244 171.645 43.6746C172.367 43.5582 173.264 43.165 173.852 42.8825C173.885 42.5502 173.885 42.3508 173.885 42.3508C173.885 42.3508 174.07 42.2455 174.328 42.0627C174.278 42.0572 174.222 42.0738 174.177 42.096C173.269 42.5889 171.622 43.309 171.068 43.1373C170.995 43.1151 170.905 43.0653 170.855 42.888C170.704 42.3508 171.107 41.2097 171.69 40.5395C171.785 40.4343 171.779 40.2737 171.684 40.174C171.589 40.0687 171.426 40.0521 171.314 40.1407C170.76 40.5451 169.152 41.5365 168.351 41.2817C168.233 41.243 168.216 41.1931 168.211 41.1654C168.177 41.038 168.227 40.8386 168.334 40.6115C168.547 40.1463 168.978 39.5536 169.32 39.1659C169.359 39.1216 169.381 39.0662 169.387 39.0163C169.398 38.9277 169.365 38.8391 169.297 38.7781C169.18 38.6784 169.006 38.6895 168.905 38.8058C168.754 38.9775 168.222 39.5979 167.903 40.2404C167.785 40.4731 167.701 40.7112 167.667 40.9272C167.645 41.0657 167.65 41.1987 167.684 41.315C167.734 41.4811 167.858 41.7027 168.194 41.8079C168.888 42.035 169.869 41.6362 170.608 41.2374Z" fill="#D96C63"/>
</g>
</g>
</g>
</g>
</g>
</g>
<g id="Group_326">
<g id="Group_327">
<g id="Group_328">
<g id="Group_329">
<g id="Group_330">
<g id="Group_331">
<path id="Vector_100" d="M166.351 38.9166C166.463 38.9498 166.541 39.0385 166.553 39.1548C166.581 39.5148 166.665 39.825 166.799 40.0078C166.905 40.1518 167.006 40.1684 167.085 40.1684C167.208 40.1629 167.365 40.1019 167.544 40.0022C167.987 39.753 168.547 39.26 169.034 38.7781C169.029 38.8335 169.006 38.8834 168.967 38.9277C168.625 39.3154 168.194 39.9081 167.981 40.3734C167.925 40.4066 167.869 40.4454 167.813 40.4731C167.634 40.5728 167.466 40.6448 167.309 40.6891C167.236 40.7057 167.174 40.7168 167.107 40.7168C166.805 40.7278 166.541 40.5949 166.345 40.329C166.144 40.0521 166.032 39.6422 165.992 39.1936C165.976 39.0052 166.155 38.8612 166.34 38.9111C166.345 38.9166 166.351 38.9166 166.351 38.9166Z" fill="#D96C63"/>
</g>
</g>
</g>
</g>
</g>
</g>
<g id="Group_332">
<g id="Group_333">
<g id="Group_334">
<g id="Group_335">
<g id="Group_336">
<g id="Group_337">
<path id="Vector_101" d="M162.362 42.0018C162.435 42.0073 163.516 42.1181 164.564 41.9408C165.147 41.8467 165.718 41.6639 166.099 41.326C166.413 41.0491 166.581 40.7001 166.592 40.2902C166.626 38.828 165.113 38.0137 164.205 37.6592C164.161 37.9528 164.138 38.119 164.138 38.119C164.138 38.119 164.037 38.1134 163.869 38.119C164.631 38.4015 166.06 39.0883 166.037 40.2736C166.032 40.5284 165.931 40.7334 165.735 40.9106C164.995 41.5587 163.091 41.5199 162.424 41.4479C162.273 41.4313 162.133 41.542 162.116 41.6916C162.099 41.8522 162.211 41.9852 162.362 42.0018Z" fill="#D96C63"/>
</g>
</g>
</g>
</g>
</g>
</g>
<g id="Group_338">
<g id="Group_339">
<g id="Group_340">
<g id="Group_341">
<g id="Group_342">
<g id="Group_343">
<path id="Vector_102" d="M168.339 47.2583C168.435 47.2417 168.519 47.1807 168.552 47.0866C168.608 46.9426 168.535 46.7875 168.39 46.7321C167.617 46.444 167.09 45.9566 166.838 45.2975C166.183 43.597 167.409 41.2319 167.426 41.2097C167.499 41.0768 167.443 40.9106 167.309 40.8386C167.174 40.7666 167.006 40.822 166.933 40.955C166.877 41.0602 165.578 43.5638 166.323 45.4913C166.636 46.3111 167.269 46.8982 168.199 47.2472C168.244 47.2638 168.295 47.2638 168.339 47.2583Z" fill="#D96C63"/>
</g>
</g>
</g>
</g>
</g>
</g>
</g>
<g id="Group_344">
<g id="Group_345">
<g id="Group_346">
<path id="Vector_103" d="M127.014 43.0431L132.817 48.0281C133.747 48.8867 134.677 49.7341 135.613 50.5816C136.543 51.4291 137.473 52.271 138.408 53.1018C139.344 53.9327 140.274 54.758 141.203 55.5666C142.133 56.3753 143.069 57.1674 143.993 57.9262C144.912 58.6906 145.836 59.4273 146.699 60.0587C147.125 60.3744 147.545 60.6625 147.881 60.8785L148.105 61.0225L148.195 61.0779C148.212 61.089 148.217 61.0945 148.228 61.1056C148.262 61.1388 148.284 61.161 148.301 61.1831C148.329 61.2219 148.329 61.2551 148.363 61.2828C148.396 61.3161 148.486 61.3382 148.649 61.3271C148.973 61.305 149.578 61.1 150.279 60.7012C150.973 60.3024 151.746 59.7264 152.508 59.0506C153.27 58.3693 154.049 57.605 154.8 56.7741C156.306 55.1069 157.757 53.2292 159.13 51.2629C160.508 49.2966 161.483 47.7789 162.726 45.6852C164.738 48.0891 167.83 49.2799 171.185 48.8811C170.239 51.4235 169.146 53.8939 167.914 56.3476C166.665 58.7903 165.287 61.2108 163.612 63.5815C162.771 64.7668 161.864 65.9466 160.816 67.0987C159.769 68.2508 158.603 69.3863 157.18 70.4609C156.469 70.9926 155.69 71.5133 154.811 71.9841C153.931 72.4493 152.956 72.8758 151.87 73.1971C150.783 73.5128 149.578 73.7288 148.324 73.751C147.069 73.7787 145.769 73.6125 144.565 73.2746C143.96 73.1085 143.377 72.9035 142.828 72.6654L142.425 72.4826L142.083 72.3164C141.965 72.261 141.87 72.2112 141.764 72.1558C141.663 72.1004 141.551 72.045 141.456 71.9951C140.671 71.5742 139.999 71.1698 139.355 70.7655C138.078 69.9624 136.929 69.1647 135.803 68.3561C134.683 67.5474 133.607 66.7276 132.543 65.9078C131.484 65.0881 130.436 64.2572 129.411 63.4209C128.386 62.5789 127.366 61.7426 126.364 60.8896C125.361 60.0366 124.369 59.178 123.378 58.314C122.397 57.4443 121.417 56.5747 120.448 55.694L118.997 54.3647L118.28 53.6889C118.039 53.4618 117.804 53.2403 117.552 52.9966L127.014 43.0431Z" fill="#7B68EE"/>
</g>
</g>
</g>
<g id="Group_347">
<g id="Group_348">
<path id="Vector_104" d="M132.554 66.5891C132.487 66.5891 132.414 66.567 132.352 66.5282C128.52 63.8751 121.703 58.2863 121.635 58.2309C121.484 58.109 121.467 57.893 121.591 57.7434C121.714 57.5939 121.932 57.5773 122.084 57.6991C122.151 57.7545 128.946 63.3267 132.755 65.9632C132.912 66.074 132.951 66.29 132.839 66.4451C132.772 66.5337 132.66 66.5891 132.554 66.5891Z" fill="#0F0E16"/>
</g>
<g id="Group_349">
<path id="Vector_105" d="M124.621 60.5406C124.605 60.5406 124.588 60.5406 124.571 60.5351L121.871 60.1473C121.68 60.1196 121.546 59.9424 121.574 59.7541C121.602 59.5657 121.781 59.4328 121.972 59.4605L124.672 59.8482C124.862 59.8759 124.997 60.0532 124.969 60.2415C124.946 60.4187 124.795 60.5406 124.621 60.5406Z" fill="#0F0E16"/>
</g>
</g>
<g id="Group_350">
<g id="Group_351">
<g id="Group_352">
<path id="Vector_106" d="M169.303 53.1904C169.443 53.1184 169.521 52.9633 169.488 52.8027C169.449 52.6144 169.258 52.4925 169.062 52.5313C163.976 53.628 161.443 48.8313 161.421 48.7814C161.331 48.6097 161.118 48.5377 160.939 48.6263C160.939 48.6263 160.939 48.6263 160.934 48.6263C160.76 48.7149 160.693 48.9254 160.782 49.0971C160.81 49.1525 163.595 54.4256 169.213 53.2126C169.247 53.2181 169.275 53.207 169.303 53.1904Z" fill="#0F0E16"/>
</g>
</g>
</g>
<g id="Group_353">
<g id="Group_354">
<g id="Group_355">
<path id="Vector_107" d="M166.687 53.2846C166.76 53.2458 166.816 53.1904 166.849 53.1129L168.524 49.2467C168.603 49.0694 168.519 48.859 168.34 48.7814C168.16 48.7039 167.947 48.7869 167.869 48.9642L166.194 52.8304C166.116 53.0076 166.2 53.2181 166.379 53.2956C166.485 53.34 166.597 53.3289 166.687 53.2846Z" fill="#0F0E16"/>
</g>
</g>
</g>
<g id="Group_356">
<g id="Group_357">
<g id="Group_358">
<path id="Vector_108" d="M163.69 49.568C163.847 49.8671 164.222 49.9834 164.525 49.8283C164.827 49.6732 164.945 49.3021 164.788 49.003C164.631 48.7039 164.256 48.5876 163.953 48.7427C163.651 48.8978 163.533 49.2689 163.69 49.568Z" fill="#0F0E16"/>
</g>
</g>
</g>
<g id="Group_359">
<g id="Group_360">
<g id="Group_361">
<g id="Group_362">
<path id="Vector_109" d="M147.556 65.6254C147.651 65.5755 147.724 65.4814 147.741 65.3706C147.746 65.3484 148.122 63.1439 148.783 61.8589C148.872 61.6872 148.805 61.4712 148.626 61.3825C148.452 61.2939 148.234 61.3659 148.144 61.5376C147.433 62.9224 147.052 65.1601 147.035 65.2543C147.001 65.4481 147.136 65.6254 147.326 65.6586C147.41 65.6697 147.489 65.6586 147.556 65.6254Z" fill="#0F0E16"/>
</g>
</g>
</g>
<g id="Group_363">
<g id="Group_364">
<g id="Group_365">
<path id="Vector_110" d="M149.875 64.8333C149.898 64.8222 149.92 64.8056 149.943 64.789C150.094 64.6616 150.111 64.4401 149.987 64.2905C149.976 64.2794 148.985 63.0941 148.749 61.942C148.71 61.7537 148.52 61.6263 148.329 61.665C148.139 61.7038 148.01 61.8921 148.049 62.0805C148.324 63.4098 149.394 64.6838 149.444 64.7392C149.545 64.8721 149.73 64.9053 149.875 64.8333Z" fill="#0F0E16"/>
</g>
</g>
</g>
</g>
</g>
</g>
</g>
</g>
</g>
</g>
</g>
<defs>
<clipPath id="clip0_6168_2741">
<rect width="214.815" height="200" fill="white" transform="translate(0.592773)"/>
</clipPath>
</defs>
</svg>
