<svg width="251" height="173" viewBox="0 0 251 173" fill="none" xmlns="http://www.w3.org/2000/svg">
<path d="M237.601 21.1445V81.6841V149.224H70.769C72.8256 147.03 74.5938 144.582 76.031 141.941H230.319V28.4275H24.6133V74.2373C21.8878 76.1237 19.4369 78.3786 17.3303 80.9376V21.1445H237.601Z" fill="#A3A3A3"/>
<path d="M215.533 41.9501L40.4517 42.6006L40.5 49.8834L215.581 49.2329L215.533 41.9501Z" fill="#A3A3A3"/>
<path d="M77.8525 108.847V103.094C77.8525 102.584 77.8525 102.074 77.8525 101.564L215.937 101.255V108.538L77.8525 108.847Z" fill="#A3A3A3"/>
<path d="M78.1703 126.928V121.174C78.1703 120.664 78.1703 120.154 78.1703 119.645L216.255 119.335V126.618L78.1703 126.928Z" fill="#A3A3A3"/>
<path d="M37.851 132.773C35.5569 138.781 33.2628 144.717 30.9686 150.725L29.5485 150.07C28.2739 147.812 26.9994 145.5 25.7249 143.242C24.8145 141.622 24.2865 141.421 22.6296 142.004L19.589 143.005C18.2945 141.708 17.1071 140.307 16.0386 138.818C18.4237 132.536 20.7725 126.4 23.0848 120.301C23.54 120.392 23.54 120.774 23.6128 120.993C24.3331 122.75 25.6787 124.179 27.3902 125.002C29.1016 125.826 31.0575 125.987 32.8804 125.453C33.6451 125.235 33.9364 125.453 34.4644 125.854C36.1819 127.135 37.3834 128.989 37.851 131.08C37.9678 131.347 38.0281 131.635 38.0281 131.926C38.0281 132.218 37.9678 132.506 37.851 132.773Z" fill="white"/>
<path d="M215.574 67.9929L51.4698 68.5756L40.4908 68.6484V68.2114L40.4543 61.3654L215.519 60.71L215.574 67.9929Z" fill="#A3A3A3"/>
<path d="M52.9267 101.459C52.9267 103.166 52.5904 104.857 51.9371 106.434C51.2838 108.011 50.3262 109.444 49.119 110.652C47.9119 111.859 46.4788 112.816 44.9015 113.47C43.3243 114.123 41.6338 114.459 39.9266 114.459C38.2194 114.459 36.5289 114.123 34.9517 113.47C33.3744 112.816 31.9413 111.859 30.7341 110.652C29.527 109.444 28.5694 108.011 27.9161 106.434C27.2628 104.857 26.9265 103.166 26.9265 101.459C26.9265 98.0112 28.2962 94.7046 30.7341 92.2666C33.1721 89.8286 36.4788 88.459 39.9266 88.459C43.3744 88.459 46.6811 89.8286 49.119 92.2666C51.557 94.7046 52.9267 98.0112 52.9267 101.459Z" fill="white"/>
<path d="M60.3921 97.3806C58.9537 96.6158 58.717 95.7601 59.6274 94.3035C60.0946 93.6149 60.3563 92.8076 60.3821 91.9759C60.4079 91.1442 60.1967 90.3222 59.773 89.606C59.381 88.8896 58.7873 88.3041 58.0655 87.9222C57.3437 87.5403 56.5256 87.3787 55.7128 87.4575C54.1287 87.4575 53.4551 86.8385 53.5279 85.3091C53.6247 84.5001 53.4895 83.6804 53.1381 82.9454C52.7867 82.2104 52.2336 81.5904 51.5433 81.1578C50.8494 80.6898 50.0258 80.452 49.1892 80.4782C48.3527 80.5043 47.5455 80.793 46.8822 81.3034C45.5167 82.232 44.6973 81.9953 43.9326 80.5387C43.6241 79.7759 43.0921 79.1242 42.4065 78.6693C41.7208 78.2143 40.9136 77.9774 40.0909 77.9897C39.2477 77.9679 38.4173 78.1991 37.7067 78.6534C36.996 79.1077 36.4376 79.7643 36.1034 80.5387C35.4298 81.9225 34.4466 82.232 33.2449 81.3763C32.5927 80.847 31.7925 80.5331 30.9544 80.4776C30.1164 80.4222 29.2818 80.628 28.5656 81.0667C27.8364 81.4889 27.2474 82.1161 26.8718 82.8704C26.4963 83.6247 26.3508 84.4727 26.4535 85.3091C26.4535 86.9113 25.8527 87.5304 24.2686 87.4575C23.4737 87.3748 22.672 87.5274 21.9631 87.8964C21.2542 88.2654 20.6694 88.8346 20.2812 89.5332C19.836 90.2357 19.5997 91.0502 19.5997 91.8819C19.5997 92.7136 19.836 93.5282 20.2812 94.2307C21.2644 95.8511 21.1188 96.543 19.4619 97.4534C18.7312 97.8285 18.1234 98.4052 17.7103 99.1151C17.2973 99.825 17.0964 100.638 17.1313 101.459C17.1089 102.268 17.3181 103.066 17.7343 103.759C18.1504 104.453 18.7562 105.013 19.4801 105.374C21.137 106.229 21.3008 106.994 20.2994 108.615C19.8924 109.301 19.6776 110.084 19.6776 110.881C19.6776 111.679 19.8924 112.462 20.2994 113.148C20.6813 113.841 21.2564 114.408 21.9546 114.78C22.6529 115.151 23.4442 115.312 24.2322 115.242C26.053 115.242 26.5628 115.697 26.5628 117.063C26.4057 117.945 26.5412 118.855 26.9487 119.654C27.3563 120.453 28.0135 121.096 28.8205 121.487C29.482 121.951 30.2703 122.2 31.0782 122.2C31.8861 122.2 32.6744 121.951 33.3359 121.487C34.8471 120.559 35.5936 120.795 36.4312 122.325C36.7478 123.056 37.2718 123.679 37.9384 124.115C38.605 124.552 39.3849 124.784 40.1819 124.783C41.0081 124.813 41.8245 124.595 42.5255 124.157C43.2266 123.719 43.7802 123.081 44.1147 122.325C44.8612 120.868 45.6805 120.504 47.0461 121.487C47.6983 121.985 48.4866 122.272 49.3062 122.311C50.1257 122.351 50.9378 122.139 51.6343 121.706C52.3621 121.287 52.9504 120.662 53.3259 119.911C53.7015 119.16 53.8477 118.315 53.7464 117.482C53.6007 115.934 54.2744 115.242 55.7856 115.333C56.593 115.419 57.408 115.267 58.1297 114.895C58.8513 114.523 59.448 113.947 59.8459 113.239C60.1958 112.672 60.4077 112.03 60.4646 111.366C60.5215 110.702 60.4219 110.034 60.1736 109.416C60.0527 109.083 59.8939 108.765 59.7002 108.469C58.8809 107.012 59.0265 106.248 60.5377 105.392C61.1582 105.067 61.6939 104.602 62.1018 104.032C62.5097 103.463 62.7784 102.806 62.8865 102.114C63.0355 101.183 62.8804 100.229 62.4442 99.3922C62.008 98.5559 61.314 97.8824 60.4649 97.4716L60.3921 97.3806ZM56.3683 102.078C56.2682 104.623 55.5961 107.112 54.4019 109.361C53.0218 112.001 50.9482 114.214 48.4043 115.764C45.8603 117.313 42.9421 118.14 39.9634 118.155C36.6164 118.242 33.3197 117.328 30.4949 115.531C27.6702 113.734 25.446 111.134 24.1069 108.066C22.7679 104.997 22.3749 101.599 22.9783 98.3053C23.5817 95.0121 25.154 91.9737 27.494 89.5791C29.834 87.1845 32.8353 85.5426 36.1138 84.8634C39.3923 84.1842 42.7988 84.4987 45.8976 85.7666C48.9963 87.0345 51.6462 89.1982 53.5083 91.9807C55.3703 94.7633 56.3598 98.0381 56.35 101.386C56.3865 101.623 56.3865 101.86 56.3683 102.078Z" fill="white"/>
<path d="M56.7689 120.008C59.9369 128.31 63.014 136.394 66.1821 144.624C65.7997 144.934 65.5084 144.624 65.1989 144.624C62.577 143.696 59.8641 142.803 57.224 141.93C56.981 141.766 56.702 141.663 56.4108 141.63C56.1195 141.597 55.8246 141.635 55.5511 141.74C55.2776 141.846 55.0337 142.016 54.8399 142.236C54.6462 142.456 54.5084 142.719 54.4383 143.004C52.7814 145.844 51.1974 148.775 49.4677 151.853C46.3724 144.005 43.4228 136.231 40.4915 128.383C42.6106 128.177 44.5678 127.159 45.9537 125.543C46.0293 125.421 46.1461 125.33 46.2831 125.286C46.42 125.243 46.568 125.25 46.7002 125.306C52.0167 126.235 54.584 124.924 56.7689 120.008Z" fill="white"/>
<path d="M60.3921 97.3806C58.9537 96.6158 58.717 95.7601 59.6274 94.3035C60.0946 93.6149 60.3563 92.8076 60.3821 91.9759C60.4079 91.1442 60.1967 90.3222 59.773 89.606C59.381 88.8896 58.7873 88.3041 58.0655 87.9222C57.3437 87.5403 56.5256 87.3787 55.7128 87.4575C54.1287 87.4575 53.4551 86.8385 53.5279 85.3091C53.6247 84.5001 53.4895 83.6804 53.1381 82.9454C52.7867 82.2104 52.2336 81.5904 51.5433 81.1578C50.8494 80.6898 50.0258 80.452 49.1892 80.4782C48.3527 80.5043 47.5455 80.793 46.8822 81.3034C45.5167 82.232 44.6973 81.9953 43.9326 80.5387C43.6241 79.7759 43.0921 79.1242 42.4065 78.6693C41.7208 78.2143 40.9136 77.9774 40.0909 77.9897C39.2477 77.9679 38.4173 78.1991 37.7067 78.6534C36.996 79.1077 36.4376 79.7643 36.1034 80.5387C35.4298 81.9225 34.4466 82.232 33.2449 81.3763C32.5927 80.847 31.7925 80.5331 30.9544 80.4776C30.1164 80.4222 29.2818 80.628 28.5656 81.0667C27.8364 81.4889 27.2474 82.1161 26.8718 82.8704C26.4963 83.6247 26.3508 84.4727 26.4535 85.3091C26.4535 86.9113 25.8527 87.5304 24.2686 87.4575C23.4737 87.3748 22.672 87.5274 21.9631 87.8964C21.2542 88.2654 20.6694 88.8346 20.2812 89.5332C19.836 90.2357 19.5997 91.0502 19.5997 91.8819C19.5997 92.7136 19.836 93.5282 20.2812 94.2307C21.2644 95.8511 21.1188 96.543 19.4619 97.4534C18.7312 97.8285 18.1234 98.4052 17.7103 99.1151C17.2973 99.825 17.0964 100.638 17.1313 101.459C17.1089 102.268 17.3181 103.066 17.7343 103.759C18.1504 104.453 18.7562 105.013 19.4801 105.374C21.137 106.229 21.3008 106.994 20.2994 108.615C19.8924 109.301 19.6776 110.084 19.6776 110.881C19.6776 111.679 19.8924 112.462 20.2994 113.148C20.6813 113.841 21.2564 114.408 21.9546 114.78C22.6529 115.151 23.4442 115.312 24.2322 115.242C26.053 115.242 26.5628 115.697 26.5628 117.063C26.4057 117.945 26.5412 118.855 26.9487 119.654C27.3563 120.453 28.0135 121.096 28.8205 121.487C29.482 121.951 30.2703 122.2 31.0782 122.2C31.8861 122.2 32.6744 121.951 33.3359 121.487C34.8471 120.559 35.5936 120.795 36.4312 122.325C36.7478 123.056 37.2718 123.679 37.9384 124.115C38.605 124.552 39.3849 124.784 40.1819 124.783C41.0081 124.813 41.8245 124.595 42.5255 124.157C43.2266 123.719 43.7802 123.081 44.1147 122.325C44.8612 120.868 45.6805 120.504 47.0461 121.487C47.6983 121.985 48.4866 122.272 49.3062 122.311C50.1257 122.351 50.9378 122.139 51.6343 121.706C52.3621 121.287 52.9504 120.662 53.3259 119.911C53.7015 119.16 53.8477 118.315 53.7464 117.482C53.6007 115.934 54.2744 115.242 55.7856 115.333C56.593 115.419 57.408 115.267 58.1297 114.895C58.8513 114.523 59.448 113.947 59.8459 113.239C60.1958 112.672 60.4077 112.03 60.4646 111.366C60.5215 110.702 60.4219 110.034 60.1736 109.416C60.0527 109.083 59.8939 108.765 59.7002 108.469C58.8809 107.012 59.0265 106.248 60.5377 105.392C61.1582 105.067 61.6939 104.602 62.1018 104.032C62.5097 103.463 62.7784 102.806 62.8865 102.114C63.0355 101.183 62.8804 100.229 62.4442 99.3922C62.008 98.5559 61.314 97.8824 60.4649 97.4716L60.3921 97.3806ZM56.3683 102.078C56.2682 104.623 55.5961 107.112 54.4019 109.361C53.0218 112.001 50.9482 114.214 48.4043 115.764C45.8603 117.313 42.9421 118.14 39.9634 118.155C36.6164 118.242 33.3197 117.328 30.4949 115.531C27.6702 113.734 25.446 111.134 24.1069 108.066C22.7679 104.997 22.3749 101.599 22.9783 98.3053C23.5817 95.0121 25.154 91.9737 27.494 89.5791C29.834 87.1845 32.8353 85.5426 36.1138 84.8634C39.3923 84.1842 42.7988 84.4987 45.8976 85.7666C48.9963 87.0345 51.6462 89.1982 53.5083 91.9807C55.3703 94.7633 56.3598 98.0381 56.35 101.386C56.3865 101.623 56.3865 101.86 56.3683 102.078Z" fill="#A3A3A3"/>
<path d="M66.1084 144.628C65.726 144.937 65.4347 144.628 65.1252 144.628C62.5033 143.699 59.7904 142.807 57.1503 141.933C56.9073 141.769 56.6283 141.666 56.337 141.633C56.0458 141.6 55.7509 141.638 55.4774 141.744C55.2039 141.849 54.9599 142.019 54.7662 142.239C54.5725 142.459 54.4347 142.722 54.3646 143.007C52.7077 145.847 51.1237 148.779 49.394 151.856C46.2987 144.008 43.3491 136.234 40.4177 128.387C42.5368 128.18 44.4941 127.163 45.8799 125.546C45.9555 125.424 46.0724 125.333 46.2093 125.29C46.3463 125.246 46.4943 125.253 46.6264 125.309C51.9794 126.311 54.5467 125 56.7315 120.084C59.936 128.314 63.0131 136.471 66.1084 144.628Z" fill="#A3A3A3"/>
<path d="M37.8506 132.773C35.5564 138.781 33.2623 144.717 30.9682 150.725L30.6222 151.618C30.167 151.618 30.167 151.162 30.0214 150.926C29.8757 150.689 29.6936 150.361 29.548 150.07C28.2735 147.812 26.999 145.5 25.7244 143.242C24.8141 141.622 24.2861 141.421 22.6292 142.004L19.5885 143.005L13.6711 145.008C14.4723 142.933 15.2552 140.875 16.0381 138.818C18.4233 132.536 20.772 126.4 23.0844 120.301C23.5395 120.392 23.5395 120.774 23.6124 120.993C24.3326 122.75 25.6783 124.179 27.3897 125.002C29.1011 125.826 31.057 125.987 32.8799 125.453C33.6447 125.235 33.936 125.453 34.464 125.854C36.1814 127.135 37.3829 128.989 37.8506 131.08C37.9674 131.347 38.0277 131.635 38.0277 131.926C38.0277 132.218 37.9674 132.506 37.8506 132.773Z" fill="#A3A3A3"/>
<path d="M52.9267 101.459C52.9267 103.166 52.5904 104.857 51.9371 106.434C51.2838 108.011 50.3262 109.444 49.119 110.652C47.9119 111.859 46.4788 112.816 44.9015 113.47C43.3243 114.123 41.6338 114.459 39.9266 114.459C38.2194 114.459 36.5289 114.123 34.9517 113.47C33.3744 112.816 31.9413 111.859 30.7341 110.652C29.527 109.444 28.5694 108.011 27.9161 106.434C27.2628 104.857 26.9265 103.166 26.9265 101.459C26.9265 98.0112 28.2962 94.7046 30.7341 92.2666C33.1721 89.8286 36.4788 88.459 39.9266 88.459C43.3744 88.459 46.6811 89.8286 49.119 92.2666C51.557 94.7046 52.9267 98.0112 52.9267 101.459Z" fill="#A3A3A3"/>
</svg>
