<svg width="126" height="120" viewBox="0 0 126 120" fill="none" xmlns="http://www.w3.org/2000/svg">
<g clip-path="url(#clip0_1685_13689)">
<path d="M138.336 99.8679H-11.4541V99.9424H138.336V99.8679Z" fill="#EBEBEB"/>
<path d="M123.327 104.66H113.405V104.734H123.327V104.66Z" fill="#EBEBEB"/>
<path d="M87.7733 105.47H85.1699V105.544H87.7733V105.47Z" fill="#EBEBEB"/>
<path d="M113.105 101.896H107.356V101.97H113.105V101.896Z" fill="#EBEBEB"/>
<path d="M17.2006 102.396H4.26172V102.471H17.2006V102.396Z" fill="#EBEBEB"/>
<path d="M21.7672 102.396H19.8701V102.471H21.7672V102.396Z" fill="#EBEBEB"/>
<path d="M55.9963 103.653H27.9316V103.728H55.9963V103.653Z" fill="#EBEBEB"/>
<path d="M59.5468 86.5856H1.70077C1.24761 86.5848 0.813282 86.4053 0.493129 86.0865C0.172976 85.7677 -0.00683663 85.3356 -0.00683594 84.8851V4.05047C-0.00289108 3.60257 0.178662 3.17431 0.498389 2.8587C0.818117 2.5431 1.25019 2.36564 1.70077 2.36487H59.5468C60.0004 2.36487 60.4355 2.54403 60.7563 2.86293C61.0771 3.18184 61.2574 3.61436 61.2574 4.06536V84.8851C61.2574 85.3361 61.0771 85.7686 60.7563 86.0875C60.4355 86.4064 60.0004 86.5856 59.5468 86.5856ZM1.70077 2.42443C1.26748 2.42522 0.852195 2.59688 0.546088 2.90174C0.239981 3.2066 0.0680584 3.61974 0.0680592 4.05047V84.8851C0.0680584 85.3158 0.239981 85.729 0.546088 86.0338C0.852195 86.3387 1.26748 86.5103 1.70077 86.5111H59.5468C59.9803 86.5103 60.3959 86.3388 60.7025 86.034C61.0091 85.7292 61.1817 85.3161 61.1825 84.8851V4.05047C61.1817 3.61946 61.0091 3.20633 60.7025 2.90156C60.3959 2.59678 59.9803 2.42522 59.5468 2.42443H1.70077Z" fill="#EBEBEB"/>
<path d="M124.349 86.5856H66.4997C66.0462 86.5848 65.6116 86.4054 65.291 86.0867C64.9703 85.7679 64.7899 85.3359 64.7891 84.8851V4.05047C64.7938 3.6023 64.976 3.17404 65.2962 2.85852C65.6164 2.54299 66.0488 2.36563 66.4997 2.36487H124.349C124.799 2.36642 125.23 2.54422 125.549 2.85975C125.868 3.17527 126.049 3.60309 126.053 4.05047V84.8851C126.053 85.3351 125.874 85.7667 125.554 86.0854C125.235 86.4042 124.801 86.584 124.349 86.5856ZM66.4997 2.42443C66.0661 2.42522 65.6505 2.59678 65.3439 2.90156C65.0373 3.20633 64.8647 3.61946 64.864 4.05047V84.8851C64.8647 85.3161 65.0373 85.7292 65.3439 86.034C65.6505 86.3388 66.0661 86.5103 66.4997 86.5111H124.349C124.782 86.5103 125.198 86.3388 125.504 86.034C125.811 85.7292 125.984 85.3161 125.984 84.8851V4.05047C125.984 3.61946 125.811 3.20633 125.504 2.90156C125.198 2.59678 124.782 2.42522 124.349 2.42443H66.4997Z" fill="#EBEBEB"/>
<path d="M112.516 53.4453V16.6776H87.7883V53.4453H112.516Z" fill="#DEDEDE"/>
<path d="M111.764 53.4423V16.6747H87.0363V53.4423H111.764Z" fill="#F5F5F5"/>
<path d="M108.585 19.8345H90.2148V50.2856H108.585V19.8345Z" fill="white"/>
<path d="M90.6338 50.2856V19.8345H90.2172V50.2856H90.6338Z" fill="#DEDEDE"/>
<path d="M52.9043 99.8679H63.3896L63.3896 66.2481H52.9043V99.8679Z" fill="#DEDEDE"/>
<path d="M54.8946 99.8678H52.9023V95.0969H56.9826L54.8946 99.8678Z" fill="#F5F5F5"/>
<path d="M108.936 99.8619H119.421V66.2421H108.936V99.8619Z" fill="#DEDEDE"/>
<path d="M52.9048 99.1681H110.673V66.2482H52.9048V99.1681Z" fill="#F5F5F5"/>
<path d="M54.4473 68.2554V75.8228H89.5401V68.2554H54.4473Z" fill="#DEDEDE"/>
<path d="M90.8799 68.2525V75.8198H109.13V68.2525H90.8799Z" fill="#DEDEDE"/>
<path d="M98.193 69.1667H101.803C103.253 69.1976 104.685 68.8418 105.949 68.1362H94.0498C95.3136 68.8413 96.7442 69.1971 98.193 69.1667Z" fill="#F5F5F5"/>
<path d="M61.5804 69.1667H82.0328C83.4826 69.1976 84.9143 68.8418 86.179 68.1362H57.4492C58.7096 68.8389 60.1357 69.1946 61.5804 69.1667Z" fill="#F5F5F5"/>
<path d="M54.4512 77.9878V85.5552H89.544V77.9878H54.4512Z" fill="#DEDEDE"/>
<path d="M90.8799 77.9878V85.5552H109.13V77.9878H90.8799Z" fill="#DEDEDE"/>
<path d="M98.193 78.9021H101.803C103.252 78.9326 104.684 78.5779 105.949 77.8746H94.0498C95.3143 78.5774 96.7446 78.9321 98.193 78.9021Z" fill="#F5F5F5"/>
<path d="M61.5804 78.9021H82.0328C83.4826 78.9331 84.9143 78.5773 86.179 77.8717H57.4492C58.7096 78.5744 60.1357 78.9301 61.5804 78.9021Z" fill="#F5F5F5"/>
<path d="M54.4473 87.7233V95.2906H89.5401V87.7233H54.4473Z" fill="#DEDEDE"/>
<path d="M90.8799 87.7233V95.2906H109.13V87.7233H90.8799Z" fill="#DEDEDE"/>
<path d="M98.193 88.6345H101.803C103.253 88.6655 104.685 88.3097 105.949 87.6041H94.0498C95.3137 88.3089 96.7442 88.6647 98.193 88.6345Z" fill="#F5F5F5"/>
<path d="M61.5834 88.6345H82.0328C83.4836 88.6652 84.9161 88.3094 86.182 87.6041H57.4492C58.7103 88.3076 60.1376 88.6634 61.5834 88.6345Z" fill="#F5F5F5"/>
<path d="M108.681 99.868H110.67V95.097H106.593L108.681 99.868Z" fill="#F5F5F5"/>
<path d="M114.139 60.2651C114.139 60.2651 113.839 63.681 102.156 63.681C90.472 63.681 90.1904 60.2651 90.1904 60.2651H114.139Z" fill="#FAFAFA"/>
<path d="M114.14 62.8203C114.14 62.8203 113.84 66.2362 102.156 66.2362C90.4727 66.2362 90.2061 62.8203 90.2061 62.8203H114.14Z" fill="#EBEBEB"/>
<path d="M32.4609 99.868H44.4501L40.8971 69.2144H32.4609V99.868Z" fill="#DEDEDE"/>
<path d="M12.2275 99.8679H38.8902L41.7033 63.9907H15.0406L12.2275 99.8679Z" fill="#E0E0E0"/>
<path d="M10.3066 99.8679H38.0538L40.8668 63.9907H13.1227L10.3066 99.8679Z" fill="#F5F5F5"/>
<path d="M35.4341 97.0387L37.8038 66.8169H15.7457L13.376 97.0387H35.4341Z" fill="white"/>
<path d="M75.1303 8.52661H7.18848V57.7517H75.1303V8.52661Z" fill="#EBEBEB"/>
<path d="M72.806 11.1294H9.51367V55.1457H72.806V11.1294Z" fill="#FAFAFA"/>
<path d="M23.1319 55.1487H16.4902L22.7455 11.1294H29.3872L23.1319 55.1487Z" fill="white"/>
<path d="M39.547 55.1487H32.9023L39.1576 11.1294H45.8023L39.547 55.1487Z" fill="white"/>
<path d="M60.7061 55.1487H57.3838L63.639 11.1294H66.9614L60.7061 55.1487Z" fill="white"/>
<path d="M45.3888 55.1487H42.0664L48.3216 11.1294H51.644L45.3888 55.1487Z" fill="white"/>
<path d="M30.7302 11.1294H27.5996V55.1457H30.7302V11.1294Z" fill="#EBEBEB"/>
<path d="M30.7294 55.1488H31.4277L31.4277 11.1325H30.7294L30.7294 55.1488Z" fill="#E0E0E0"/>
<path d="M75.1304 57.7516H75.6309V8.52654H75.1304V57.7516Z" fill="#E0E0E0"/>
<path d="M63.4401 113.317C95.52 113.317 121.526 111.808 121.526 109.946C121.526 108.084 95.52 106.575 63.4401 106.575C31.3603 106.575 5.35449 108.084 5.35449 109.946C5.35449 111.808 31.3603 113.317 63.4401 113.317Z" fill="#F5F5F5"/>
<path d="M77.3945 101.33L81.1932 99.1504L83.512 103.763L80.3394 105.592L77.3945 101.33Z" fill="#FFC3BD"/>
<path opacity="0.2" d="M77.3975 101.33L81.1961 99.1504L82.4933 101.735L79.0452 103.719L77.3975 101.33Z" fill="#0F0E16"/>
<path d="M78.7607 86.4517C81.4569 80.2573 85.8817 73.0503 84.0663 66.415L71.9752 64.515C71.9752 64.515 69.4767 79.3638 69.971 85.4541C70.4863 91.7855 78.0057 103.025 78.0057 103.025L82.3347 100.499C82.3347 100.499 80.4533 90.8921 78.7607 86.4517Z" fill="#7B68EE"/>
<g opacity="0.4">
<path d="M78.7607 86.4517C81.4569 80.2573 85.8817 73.0503 84.0663 66.415L71.9752 64.515C71.9752 64.515 69.4767 79.3638 69.971 85.4541C70.4863 91.7855 78.0057 103.025 78.0057 103.025L82.3347 100.499C82.3347 100.499 80.4533 90.8921 78.7607 86.4517Z" fill="#0F0E16"/>
</g>
<path d="M82.7719 100.449L77.8258 103.352L76.25 101.318L82.0798 98.2479L82.7719 100.449Z" fill="#7B68EE"/>
<path opacity="0.2" d="M79.6442 84.4951C81.1002 81.3592 82.7778 78.0177 83.7275 74.6674C80.8725 75.1439 78.4519 77.4489 79.6442 84.4951Z" fill="#0F0E16"/>
<path d="M83.3864 102.67C83.3688 102.647 83.3455 102.628 83.3187 102.615C83.2919 102.602 83.2623 102.596 83.2326 102.598C83.2029 102.599 83.1741 102.608 83.1486 102.623C83.1232 102.639 83.1019 102.66 83.0868 102.685C82.4637 103.748 80.6692 104.77 79.9742 105.133C79.8126 105.221 79.6913 105.367 79.6357 105.541C79.2971 106.578 77.958 108.126 77.958 108.126C78.0127 108.365 78.0941 108.597 78.2007 108.817C78.2339 108.886 78.2822 108.946 78.342 108.993C78.4018 109.04 78.4716 109.074 78.5461 109.091C78.6206 109.107 78.698 109.107 78.7725 109.091C78.8471 109.074 78.9168 109.04 78.9766 108.993L84.4919 104.526C84.5391 104.488 84.5777 104.441 84.6051 104.388C84.6326 104.334 84.6483 104.275 84.6511 104.215C84.6539 104.155 84.6439 104.095 84.6216 104.04C84.5993 103.984 84.5653 103.933 84.5218 103.891C84.116 103.51 83.7367 103.102 83.3864 102.67Z" fill="#0F0E16"/>
<path d="M84.5273 103.433L88.9102 103.475L88.5118 108.621L84.8479 108.591L84.5273 103.433Z" fill="#FFC3BD"/>
<path d="M88.9047 107.829C88.9081 107.801 88.9043 107.773 88.8936 107.747C88.8829 107.722 88.8657 107.699 88.8437 107.682C88.8217 107.665 88.7956 107.654 88.768 107.65C88.7403 107.646 88.7121 107.649 88.686 107.659C87.4877 108.094 85.4775 107.763 84.7196 107.611C84.5359 107.578 84.3463 107.615 84.1893 107.715C83.2187 108.311 81.4931 108.668 81.4931 108.668C81.3725 108.876 81.2722 109.094 81.1935 109.321C81.1684 109.396 81.1617 109.476 81.1739 109.555C81.186 109.634 81.2168 109.708 81.2635 109.773C81.3103 109.837 81.3718 109.89 81.4429 109.926C81.5141 109.962 81.5928 109.982 81.6728 109.982H88.4314C88.4889 109.982 88.5459 109.97 88.5988 109.948C88.6518 109.926 88.6997 109.893 88.7397 109.852C88.7797 109.811 88.8109 109.762 88.8316 109.709C88.8522 109.655 88.8618 109.598 88.8598 109.541C88.834 108.97 88.849 108.398 88.9047 107.829Z" fill="#0F0E16"/>
<path opacity="0.2" d="M84.5273 103.436L88.9132 103.475L88.6885 106.357L84.7071 106.322L84.5273 103.436Z" fill="#0F0E16"/>
<path d="M91.6883 86.0972C93.0543 79.6258 95.5139 71.2067 93.7853 67.8712L79.6182 65.6913C79.6182 65.6913 81.3767 79.0927 81.8411 85.3199C82.3234 91.8033 84.2377 105.202 84.2377 105.202H88.9801C88.9801 105.202 92.2904 93.8165 91.6883 86.0972Z" fill="#7B68EE"/>
<path opacity="0.4" d="M91.6883 86.0972C93.0543 79.6258 95.5139 71.2067 93.7853 67.8712L79.6182 65.6913C79.6182 65.6913 81.3767 79.0927 81.8411 85.3199C82.3234 91.8033 84.2377 105.202 84.2377 105.202H88.9801C88.9801 105.202 92.2904 93.8165 91.6883 86.0972Z" fill="#0F0E16"/>
<path d="M89.5039 105.392H83.7969L83.707 103.028L89.9952 103.129L89.5039 105.392Z" fill="#7B68EE"/>
<path d="M83.3624 45.2497L83.0029 45.5475L82.6673 45.8096C82.4426 45.9794 82.218 46.1402 81.9903 46.304C81.5409 46.6286 81.0766 46.9294 80.6122 47.2332C79.6681 47.8351 78.6932 48.3878 77.6913 48.889C76.6569 49.4141 75.5856 49.8639 74.4858 50.2351C73.2997 50.6509 72.0675 50.9228 70.8159 51.0451L70.5733 51.0689C69.9529 51.1292 69.3327 50.9524 68.8387 50.5746C67.9762 49.9034 67.2897 49.0349 66.8375 48.0432C66.6411 47.6349 66.4807 47.2104 66.3582 46.7745C66.2344 46.3727 66.1344 45.964 66.0586 45.5505C65.9967 45.1534 65.9487 44.7564 65.9148 44.3593C65.8878 43.9692 65.8818 43.582 65.8818 43.1978C65.8818 42.8136 65.9118 42.4354 65.9447 42.0602L66.0137 41.4914L66.1125 40.8958C66.1675 40.5653 66.3287 40.2615 66.5721 40.0298C66.8154 39.7982 67.1277 39.6512 67.4622 39.611C67.7967 39.5707 68.1353 39.6393 68.4272 39.8065C68.7191 39.9737 68.9486 40.2305 69.0814 40.5384L69.2072 40.8362C69.2521 40.9464 69.306 41.1161 69.36 41.2591L69.5157 41.7028C69.6176 42.0006 69.7314 42.2984 69.8423 42.5962C70.0495 43.1495 70.2886 43.6904 70.5583 44.2163C70.7765 44.6643 71.0469 45.0851 71.3642 45.4701C71.5315 45.7016 71.7639 45.8787 72.0322 45.9794L70.055 45.5059C70.8431 45.3148 71.6114 45.0506 72.3498 44.7167C72.7482 44.5439 73.1497 44.3444 73.5481 44.1359C73.9465 43.9275 74.357 43.713 74.7464 43.4807C75.5493 43.0162 76.3582 42.5218 77.1431 41.9917C77.5415 41.7326 77.934 41.4616 78.3264 41.1965L78.9076 40.7885L79.4438 40.4103L79.5667 40.324C80.2238 39.8236 81.0539 39.6032 81.8744 39.7113C82.695 39.8193 83.4387 40.247 83.942 40.9002C84.4454 41.5534 84.6671 42.3786 84.5584 43.1943C84.4497 44.01 84.0194 44.7494 83.3624 45.2497Z" fill="#FFC3BD"/>
<path d="M69.0874 40.7646L67.5385 41.7683C65.6422 42.1822 65.5283 39.6657 65.5283 39.6657L64.9831 38.4745C64.8996 38.2584 64.8963 38.0198 64.9737 37.8016C65.0511 37.5833 65.2042 37.3995 65.4055 37.2832L66.481 36.5745C66.6933 36.4149 66.9598 36.3439 67.2239 36.3767C67.488 36.4096 67.7288 36.5435 67.895 36.7502L68.5361 37.6972C68.7217 37.9722 68.8368 38.2881 68.8717 38.6174L69.0874 40.7646Z" fill="#FFC3BD"/>
<path d="M83.2601 38.9957C80.2943 38.8199 74.1978 42.623 74.1978 42.623C73.4968 44.8446 74.7191 49.0557 76.5076 50.098C76.5076 50.098 81.0462 48.1593 83.1793 46.2741C85.7616 44.0018 89.2607 39.353 83.2601 38.9957Z" fill="#0F0E16"/>
<path d="M83.536 38.9956C87.6068 39.2367 91.6385 39.9228 95.5581 41.0416C97.82 41.7206 99.228 43.4032 98.2154 48.0669C96.1603 57.5284 96.3281 65.2565 94.5695 68.5027C94.5695 68.5027 73.9944 69.7654 71.2412 65.0481C71.7984 53.365 77.4305 44.4634 79.929 40.7825C80.3249 40.2014 80.8649 39.7317 81.4967 39.4187C82.1286 39.1057 82.8309 38.96 83.536 38.9956Z" fill="#0F0E16"/>
<path d="M84.7108 40.2971C85.2411 39.9189 85.6815 40.2525 86.011 39.6122C86.1969 39.0971 86.1969 38.5339 86.011 38.0189L91.9547 35.9193C91.5353 37.9087 91.2057 39.493 91.9756 40.4162C92.0026 41.95 88.4346 43.3527 85.4208 42.7838C82.7456 42.2716 83.9379 40.8421 84.7108 40.2971Z" fill="#FFC3BD"/>
<path opacity="0.2" d="M86.0439 38.2005L90.5377 37.7896C89.1776 39.3322 87.0595 39.9665 86.0649 39.3888C86.159 38.9973 86.1518 38.5885 86.0439 38.2005Z" fill="#0F0E16"/>
<path d="M85.6091 32.6017C85.3724 30.3115 87.6162 27.4138 89.5036 28.4145C91.391 29.4151 85.6091 32.6017 85.6091 32.6017Z" fill="#0F0E16"/>
<path d="M93.5218 33.9091C92.3235 36.5149 91.4667 38.2631 89.4745 38.7991C85.52 39.8683 84.2169 37.7091 84.5973 34.7906C84.9418 32.1669 86.8292 28.34 89.864 28.2983C90.5358 28.2892 91.199 28.4496 91.7915 28.7645C92.3841 29.0795 92.8866 29.5387 93.252 30.0993C93.6174 30.6598 93.8339 31.3033 93.8811 31.9696C93.9282 32.6359 93.8047 33.3032 93.5218 33.9091Z" fill="#FFC3BD"/>
<path d="M92.8348 35.9967C91.4777 35.8032 90.4831 33.3671 91.9031 32.0925C93.3232 30.8178 92.8348 29.5968 91.8043 29.2335C90.7737 28.8701 88.9013 29.1322 88.4729 28.2209C88.0445 27.3096 90.8995 26.6485 92.5562 27.6968C94.2129 28.7451 94.129 28.1107 94.129 28.1107C94.177 28.1681 94.2078 28.2379 94.2176 28.3119C94.2275 28.3859 94.2161 28.4612 94.1848 28.5291C94.1535 28.5969 94.1035 28.6546 94.0406 28.6955C93.9777 28.7363 93.9045 28.7587 93.8294 28.76C95.1326 29.6206 96.5766 31.6934 95.2315 32.5421C96.9151 33.4922 94.2968 35.7436 92.8348 35.9967Z" fill="#0F0E16"/>
<path d="M94.8037 32.3991C95.0299 32.4963 95.2835 32.5107 95.5193 32.4398C95.7552 32.369 95.9583 32.2174 96.0924 32.012C96.0924 32.012 96.3771 33.1198 94.8037 32.3991Z" fill="#0F0E16"/>
<path d="M88.1537 35.1628C88.2822 35.1084 88.4056 35.0426 88.5223 34.9663C88.529 34.9599 88.5342 34.9523 88.5378 34.9438C88.5414 34.9354 88.5433 34.9263 88.5433 34.9171C88.5433 34.908 88.5414 34.8989 88.5378 34.8905C88.5342 34.882 88.529 34.8744 88.5223 34.868C88.5099 34.8522 88.4921 34.8414 88.4723 34.8376C88.4525 34.8338 88.4319 34.8372 88.4144 34.8472C88.153 35.0205 87.8556 35.1333 87.5443 35.1771C87.2331 35.2209 86.9159 35.1947 86.6162 35.1003C86.5992 35.0936 86.5801 35.0939 86.5632 35.1012C86.5464 35.1084 86.5331 35.122 86.5263 35.139C86.5196 35.156 86.5199 35.175 86.5272 35.1917C86.5345 35.2085 86.5482 35.2217 86.5653 35.2284C87.0843 35.4052 87.6512 35.3818 88.1537 35.1628Z" fill="#0F0E16"/>
<path opacity="0.2" d="M89.749 33.1079C90.0861 33.0378 90.4373 33.1032 90.726 33.2895C90.3916 33.2923 90.0598 33.2306 89.749 33.1079Z" fill="#0F0E16"/>
<path opacity="0.2" d="M89.7227 33.3373C89.8781 33.3375 90.0315 33.3715 90.1723 33.4368C90.3131 33.5022 90.4379 33.5973 90.5378 33.7155C90.2421 33.6487 89.9641 33.5197 89.7227 33.3373Z" fill="#0F0E16"/>
<path d="M93.3532 36.7323C93.0871 36.9702 92.776 37.153 92.4381 37.2701C92.1002 37.3871 91.7422 37.4362 91.385 37.4143C90.4263 37.3488 90.5522 36.5983 91.0854 35.8657C91.5588 35.2016 92.3347 34.2575 93.1825 34.6745C94.0303 35.0914 93.9973 36.1397 93.3532 36.7323Z" fill="#FFC3BD"/>
<path d="M89.2046 33.0394C89.1207 33.2568 88.9349 33.3878 88.794 33.3372C88.6532 33.2866 88.6022 33.0602 88.6861 32.8428C88.7701 32.6254 88.9529 32.4944 89.0967 32.545C89.2406 32.5957 89.2766 32.8071 89.2046 33.0394Z" fill="#0F0E16"/>
<path d="M86.6606 32.0448C86.5797 32.2622 86.3939 32.3932 86.253 32.3426C86.1122 32.292 86.0612 32.0656 86.1451 31.8482C86.229 31.6308 86.4119 31.4998 86.5527 31.5504C86.6936 31.601 86.7445 31.8274 86.6606 32.0448Z" fill="#0F0E16"/>
<path d="M87.4521 32.3992L86.8137 34.3052C86.5836 34.3629 86.3418 34.3541 86.1166 34.2796C85.8914 34.2052 85.6924 34.0684 85.543 33.8852C86.1783 32.9054 87.4521 32.3992 87.4521 32.3992Z" fill="#ED847E"/>
<path d="M90.3576 31.7559C90.3799 31.7634 90.4041 31.7634 90.4265 31.7559C90.4622 31.7487 90.4936 31.7277 90.5138 31.6976C90.5341 31.6674 90.5414 31.6306 90.5344 31.595C90.4977 31.3802 90.41 31.1771 90.2787 31.0026C90.1474 30.8281 89.9761 30.6871 89.7791 30.5914C89.7625 30.5842 89.7445 30.5804 89.7263 30.5802C89.7081 30.58 89.69 30.5836 89.6732 30.5905C89.6564 30.5975 89.6412 30.6077 89.6285 30.6207C89.6158 30.6336 89.6059 30.649 89.5993 30.6659C89.5862 30.6995 89.5867 30.7369 89.6007 30.7702C89.6146 30.8035 89.641 30.8301 89.6742 30.8446C89.831 30.9212 89.9671 31.0338 90.0714 31.1731C90.1756 31.3125 90.2449 31.4744 90.2736 31.6457C90.2765 31.6698 90.2858 31.6927 90.3006 31.7121C90.3153 31.7314 90.335 31.7465 90.3576 31.7559Z" fill="#0F0E16"/>
<path d="M85.7113 31.0263C85.7331 31.0325 85.7561 31.033 85.7782 31.0278C85.8002 31.0226 85.8205 31.0118 85.8372 30.9965C85.9627 30.8788 86.1146 30.7926 86.2803 30.7449C86.4461 30.6973 86.6209 30.6896 86.7902 30.7225C86.8075 30.7275 86.8257 30.7289 86.8436 30.7268C86.8615 30.7246 86.8787 30.7189 86.8944 30.7101C86.91 30.7012 86.9237 30.6893 86.9347 30.675C86.9456 30.6608 86.9535 30.6445 86.9581 30.6272C86.9631 30.6098 86.9646 30.5916 86.9624 30.5736C86.9603 30.5556 86.9546 30.5382 86.9457 30.5225C86.9368 30.5067 86.9248 30.4928 86.9105 30.4816C86.8961 30.4705 86.8797 30.4623 86.8621 30.4575C86.65 30.4148 86.4307 30.4227 86.2223 30.4807C86.0139 30.5387 85.8223 30.6451 85.6633 30.791C85.6375 30.8167 85.623 30.8515 85.623 30.8878C85.623 30.9241 85.6375 30.9589 85.6633 30.9846C85.6757 31.0022 85.6921 31.0165 85.7113 31.0263Z" fill="#0F0E16"/>
<path d="M53.9856 48.2277L52.6854 51.7568C52.5788 52.0611 52.3913 52.3312 52.1429 52.5382C51.8945 52.7453 51.5944 52.8818 51.2744 52.9331L33.9976 55.533C32.8831 55.7028 32.2241 56.8404 32.5266 58.0733L38.5752 82.8333C38.8747 84.0692 40.0251 84.9329 41.1396 84.7661L82.263 78.5746C83.3774 78.4049 84.0365 77.2702 83.7369 76.0343L76.4481 46.1967C76.1485 44.9608 74.9981 44.0971 73.8837 44.2639L55.3966 47.0365C55.0748 47.0892 54.7735 47.2278 54.525 47.4377C54.2764 47.6475 54.09 47.9206 53.9856 48.2277Z" fill="#7B68EE"/>
<path opacity="0.3" d="M53.9856 48.2277L52.6854 51.7568C52.5788 52.0611 52.3913 52.3312 52.1429 52.5382C51.8945 52.7453 51.5944 52.8818 51.2744 52.9331L33.9976 55.533C32.8831 55.7028 32.2241 56.8404 32.5266 58.0733L38.5752 82.8333C38.8747 84.0692 40.0251 84.9329 41.1396 84.7661L82.263 78.5746C83.3774 78.4049 84.0365 77.2702 83.7369 76.0343L76.4481 46.1967C76.1485 44.9608 74.9981 44.0971 73.8837 44.2639L55.3966 47.0365C55.0748 47.0892 54.7735 47.2278 54.525 47.4377C54.2764 47.6475 54.09 47.9206 53.9856 48.2277Z" fill="#0F0E16"/>
<path d="M45.1203 12.017C45.5256 12.0178 45.9306 12.0396 46.3336 12.0826C47.8673 9.96987 49.9454 8.30718 52.3494 7.26941C54.7533 6.23165 57.3942 5.8572 59.9941 6.18546C62.5941 6.51371 65.057 7.53253 67.1236 9.13473C69.1903 10.7369 70.7844 12.8633 71.7381 15.29C74.2142 15.7115 76.4407 17.0422 77.9766 19.0185C79.5125 20.9947 80.2457 23.4724 80.0309 25.9606C79.8161 28.4488 78.669 30.766 76.8168 32.4532C74.9647 34.1404 72.5426 35.0746 70.0304 35.0705H45.1203C42.0774 35.0219 39.1756 33.7861 37.0409 31.6297C34.9063 29.4733 33.71 26.5692 33.71 23.5438C33.71 20.5184 34.9063 17.6143 37.0409 15.4579C39.1756 13.3015 42.0774 12.0657 45.1203 12.017Z" fill="#7B68EE"/>
<path d="M46.1963 31.0382V59.7769H67.3946V37.2952L61.1034 31.0382H46.1963Z" fill="#7B68EE"/>
<path opacity="0.6" d="M46.1963 31.0382V59.7769H67.3946V37.2952L61.1034 31.0382H46.1963Z" fill="white"/>
<path opacity="0.4" d="M61.1035 37.2952V31.0382L67.3947 37.2952H61.1035Z" fill="#7B68EE"/>
<path d="M46.8794 84.6589L45.377 84.8845L45.4221 85.1819L46.9246 84.9563L46.8794 84.6589Z" fill="#7B68EE"/>
<path d="M53.8017 83.6236L48.5557 84.4114L48.6009 84.7088L53.8469 83.921L53.8017 83.6236Z" fill="#7B68EE"/>
<path d="M61.5471 51.0481L59.5908 54.2913C59.4188 54.5768 59.1863 54.8216 58.9096 55.0088C58.6328 55.196 58.3184 55.3211 57.9881 55.3753L40.7143 57.9782C40.1636 58.0731 39.6656 58.3618 39.3114 58.7916C38.9571 59.2214 38.7703 59.7635 38.785 60.319L39.7886 82.9049C39.7923 83.1626 39.852 83.4164 39.9637 83.649C40.0754 83.8816 40.2363 84.0874 40.4355 84.2523C40.6348 84.4172 40.8675 84.5374 41.1178 84.6045C41.3681 84.6716 41.63 84.6841 41.8856 84.6411L83.009 78.4467C83.5598 78.3518 84.0577 78.063 84.412 77.6332C84.7662 77.2035 84.953 76.6613 84.9383 76.1059L83.74 48.892C83.7363 48.6343 83.6766 48.3805 83.5649 48.1479C83.4532 47.9153 83.2923 47.7095 83.0931 47.5446C82.8939 47.3796 82.6611 47.2595 82.4108 47.1924C82.1605 47.1253 81.8986 47.1128 81.643 47.1558L63.1409 49.9522C62.8109 50.0082 62.4972 50.1354 62.2219 50.3247C61.9466 50.514 61.7163 50.761 61.5471 51.0481Z" fill="#7B68EE"/>
<path d="M62.1486 26.8717C62.0748 26.8721 62.0026 26.8506 61.9412 26.8101C61.8797 26.7695 61.8318 26.7117 61.8036 26.644C61.7753 26.5763 61.7679 26.5018 61.7824 26.4299C61.7969 26.358 61.8326 26.292 61.8849 26.2404C62.888 25.2398 63.5703 23.9662 63.8457 22.5804C64.1211 21.1946 63.9772 19.7588 63.4323 18.4542C62.8874 17.1496 61.9658 16.0348 60.784 15.2505C59.6022 14.4663 58.213 14.0477 56.7921 14.0477C55.3711 14.0477 53.982 14.4663 52.8002 15.2505C51.6183 16.0348 50.6968 17.1496 50.1518 18.4542C49.6069 19.7588 49.4631 21.1946 49.7385 22.5804C50.0139 23.9662 50.6962 25.2398 51.6992 26.2404C51.734 26.2747 51.7616 26.3155 51.7804 26.3605C51.7993 26.4055 51.809 26.4537 51.809 26.5024C51.809 26.5512 51.7993 26.5994 51.7804 26.6444C51.7616 26.6894 51.734 26.7302 51.6992 26.7645C51.6287 26.8329 51.5341 26.8712 51.4356 26.8712C51.3371 26.8712 51.2425 26.8329 51.172 26.7645C50.0612 25.6604 49.3048 24.2536 48.9983 22.7222C48.6919 21.1907 48.8491 19.6033 49.4502 18.1606C50.0513 16.718 51.0692 15.485 52.3753 14.6174C53.6813 13.7499 55.2168 13.2869 56.7876 13.2869C58.3584 13.2869 59.8938 13.7499 61.1999 14.6174C62.5059 15.485 63.5239 16.718 64.125 18.1606C64.726 19.6033 64.8833 21.1907 64.5768 22.7222C64.2704 24.2536 63.5139 25.6604 62.4032 26.7645C62.3354 26.8315 62.2442 26.8699 62.1486 26.8717Z" fill="white"/>
<path d="M59.9806 29.0845V20.8441C59.9806 20.4879 59.8383 20.1463 59.5849 19.8944C59.3315 19.6425 58.9878 19.501 58.6295 19.501H54.9626C54.6043 19.501 54.2606 19.6425 54.0073 19.8944C53.7539 20.1463 53.6115 20.4879 53.6115 20.8441V29.0845H52.2305L56.7961 32.9948L61.3587 29.0845H59.9806Z" fill="white"/>
<path d="M96.9334 49.559L96.7507 49.967L96.5799 50.3392C96.4631 50.5864 96.3403 50.8247 96.2204 51.0659C95.9778 51.5454 95.7141 52.01 95.4505 52.4775C94.9132 53.4129 94.3282 54.3204 93.6979 55.1965C93.3744 55.6373 93.0449 56.09 92.6914 56.5099C92.3379 56.9298 91.9634 57.3616 91.5679 57.7785C90.7484 58.6565 89.8353 59.4434 88.8447 60.1253L88.638 60.2653C88.532 60.336 88.4185 60.3949 88.2995 60.441C87.2448 60.8252 86.1332 61.0325 85.0101 61.0545C84.065 61.0876 83.1187 61.0508 82.1791 60.9443C81.2833 60.8404 80.3934 60.6913 79.5128 60.4975C78.6368 60.3058 77.7726 60.0642 76.9244 59.7739C76.585 59.6548 76.2968 59.4238 76.1078 59.1193C75.9188 58.8148 75.8403 58.4551 75.8855 58.1001C75.9307 57.7451 76.0967 57.4162 76.356 57.1681C76.6154 56.9199 76.9523 56.7675 77.3109 56.7362H77.3738L79.8034 56.5307C80.6123 56.4592 81.4092 56.3818 82.1821 56.2776C82.5685 56.2269 82.949 56.1763 83.3175 56.1138C83.686 56.0512 84.0455 55.9738 84.387 55.8994C84.9486 55.7885 85.4907 55.5958 85.9957 55.3276L85.4535 55.6432C86.0395 55.1047 86.5787 54.5179 87.0652 53.8891C87.3289 53.5586 87.5835 53.2072 87.8322 52.8468C88.0808 52.4865 88.3325 52.1172 88.5751 51.7419C89.0515 50.9825 89.5248 50.1993 89.9682 49.3982C90.1958 48.9991 90.4086 48.5911 90.6272 48.1891L91.2264 47.0216L91.2983 46.8817C91.6745 46.1713 92.313 45.6336 93.0796 45.3813C93.8462 45.1291 94.6814 45.182 95.4096 45.5289C96.1378 45.8758 96.7025 46.4898 96.9849 47.2418C97.2674 47.9939 97.2457 48.8255 96.9244 49.562L96.9334 49.559Z" fill="#FFC3BD"/>
<path d="M97.8924 44.2938C99.3334 49.4399 95.6755 54.5563 95.6755 54.5563C93.7373 55.1073 88.6294 53.1298 87.5449 51.2357C87.5449 51.2357 89.3274 46.3695 91.4395 43.7905C93.3987 41.3782 97.0446 41.2769 97.8924 44.2938Z" fill="#0F0E16"/>
<path d="M77.9128 56.8643L78.2124 58.6809C77.8109 60.569 75.4562 59.6399 75.4562 59.6399H74.1441C73.9124 59.6263 73.6931 59.5315 73.5252 59.3722C73.3573 59.213 73.2518 58.9997 73.2273 58.7703L73.0176 57.5016C72.9586 57.2435 73.0032 56.9728 73.142 56.747C73.2807 56.5211 73.5027 56.3581 73.7606 56.2925L74.89 56.1019C75.2187 56.0458 75.5563 56.0713 75.8726 56.1763L77.9128 56.8643Z" fill="#FFC3BD"/>
</g>
<defs>
<clipPath id="clip0_1685_13689">
<rect width="126" height="120" fill="white"/>
</clipPath>
</defs>
</svg>
