<svg width="40" height="34" viewBox="0 0 40 34" fill="none" xmlns="http://www.w3.org/2000/svg">
<g clip-path="url(#clip0_1440_18254)">
<path d="M22.6285 17L26.528 21.5833L31.7714 25.0291L32.6857 17.0282L31.7714 9.20599L26.4274 12.2333L22.6285 17Z" fill="#00832D"/>
<path d="M0 24.2863V31.1025C0 32.6609 1.22743 33.923 2.74286 33.923H9.37143L10.7429 28.7709L9.37143 24.2863L4.82286 22.876L0 24.2863Z" fill="#0066DA"/>
<path d="M9.37143 0.0769043L0 9.71366L4.82286 11.1239L9.37143 9.71366L10.72 5.29015L9.37143 0.0769043Z" fill="#E94235"/>
<path d="M9.37143 9.71368H0V24.2863H9.37143V9.71368Z" fill="#2684FC"/>
<path d="M37.76 4.15726L31.7715 9.20597V25.0291L37.7875 30.1013C38.688 30.8252 40.0046 30.1647 40.0046 28.9872V5.24785C40.0046 4.05619 38.6583 3.40277 37.76 4.15726ZM22.6286 17V24.2863H9.37146V33.9231H29.0286C30.544 33.9231 31.7715 32.6609 31.7715 31.1026V25.0291L22.6286 17Z" fill="#00AC47"/>
<path d="M29.0286 0.0769043H9.37146V9.71366H22.6286V17L31.7715 9.21066V2.89742C31.7715 1.33908 30.544 0.0769043 29.0286 0.0769043Z" fill="#FFBA00"/>
</g>
<defs>
<clipPath id="clip0_1440_18254">
<rect width="40" height="33.8462" fill="white" transform="translate(0 0.0769043)"/>
</clipPath>
</defs>
</svg>
