<svg width="130" height="120" viewBox="0 0 130 120" fill="none" xmlns="http://www.w3.org/2000/svg">
<g clip-path="url(#clip0_1688_15268)">
<path d="M141.097 100.007H-11.0977V100.083H141.097V100.007Z" fill="#DEDEDE"/>
<path d="M61.0429 86.3961H2.26823C1.80779 86.3953 1.36649 86.2114 1.0412 85.8847C0.715902 85.558 0.533202 85.1153 0.533203 84.6537V1.82257C0.537211 1.36361 0.72168 0.92477 1.04654 0.601368C1.3714 0.277966 1.81042 0.0961231 2.26823 0.0953369H61.0429C61.5039 0.0953369 61.946 0.278921 62.2719 0.605702C62.5979 0.932483 62.781 1.37569 62.781 1.83783V84.6537C62.781 85.1158 62.5979 85.559 62.2719 85.8858C61.946 86.2126 61.5039 86.3961 61.0429 86.3961ZM2.26823 0.15637C1.82797 0.157179 1.40603 0.333081 1.095 0.645467C0.783982 0.957853 0.6093 1.3812 0.609301 1.82257V84.6537C0.6093 85.095 0.783982 85.5184 1.095 85.8308C1.40603 86.1431 1.82797 86.319 2.26823 86.3199H61.0429C61.4835 86.319 61.9057 86.1432 62.2172 85.8309C62.5288 85.5186 62.7041 85.0953 62.7049 84.6537V1.82257C62.7041 1.38092 62.5288 0.95758 62.2172 0.645281C61.9057 0.332982 61.4835 0.157177 61.0429 0.15637H2.26823Z" fill="#DEDEDE"/>
<path d="M126.885 86.3961H68.1072C67.6465 86.3953 67.2049 86.2115 66.8791 85.8849C66.5533 85.5583 66.3699 85.1155 66.3691 84.6537V1.82257C66.3739 1.36333 66.5591 0.924495 66.8844 0.601177C67.2098 0.277859 67.6491 0.0961146 68.1072 0.0953369H126.885C127.342 0.0969251 127.78 0.279123 128.105 0.602439C128.429 0.925755 128.613 1.36414 128.617 1.82257V84.6537C128.617 85.1147 128.435 85.557 128.11 85.8836C127.785 86.2102 127.345 86.3945 126.885 86.3961ZM68.1072 0.15637C67.6667 0.157177 67.2444 0.332982 66.9329 0.645281C66.6214 0.95758 66.446 1.38092 66.4452 1.82257V84.6537C66.446 85.0953 66.6214 85.5186 66.9329 85.8309C67.2444 86.1432 67.6667 86.319 68.1072 86.3199H126.885C127.325 86.319 127.748 86.1432 128.059 85.8309C128.371 85.5186 128.546 85.0953 128.547 84.6537V1.82257C128.546 1.38092 128.371 0.95758 128.059 0.645281C127.748 0.332982 127.325 0.157177 126.885 0.15637H68.1072Z" fill="#DEDEDE"/>
<path d="M49.9141 102.912H42V102.988H49.9141V102.912Z" fill="#DEDEDE"/>
<path d="M21.3386 102.085H4.87109V102.161H21.3386V102.085Z" fill="#DEDEDE"/>
<path d="M41.6961 105.747H33.6846V105.823H41.6961V105.747Z" fill="#DEDEDE"/>
<path d="M79.3244 105.234H67.5049V105.31H79.3244V105.234Z" fill="#DEDEDE"/>
<path d="M85.2871 105.234H82.0332V105.31H85.2871V105.234Z" fill="#DEDEDE"/>
<path d="M125.851 103.946H109.243V104.022H125.851V103.946Z" fill="#DEDEDE"/>
<path d="M57.4818 11.1576H12.3164V58.9404H57.4818V11.1576Z" fill="#E6E6E6"/>
<path d="M62.3243 9.61047H9.39386C9.27438 9.61047 9.15979 9.65806 9.07531 9.74276C8.99082 9.82746 8.94336 9.94234 8.94336 10.0621C8.94336 10.1213 8.95503 10.1799 8.97771 10.2345C9.00039 10.2891 9.03362 10.3387 9.07549 10.3804C9.11736 10.4221 9.16705 10.4551 9.22169 10.4774C9.27633 10.4998 9.33484 10.5111 9.39386 10.5107H62.3243C62.443 10.5107 62.5568 10.4634 62.6407 10.3793C62.7246 10.2952 62.7717 10.1811 62.7717 10.0621C62.7721 10.003 62.7609 9.94429 62.7385 9.88951C62.7162 9.83473 62.6833 9.78492 62.6418 9.74294C62.6002 9.70096 62.5507 9.66764 62.4962 9.64491C62.4417 9.62218 62.3833 9.61047 62.3243 9.61047Z" fill="#E6E6E6"/>
<path d="M59.402 11.1576H13.2139V58.9404H59.402V11.1576Z" fill="#F5F5F5"/>
<path d="M57.4818 58.9404H12.3164V60.7256H57.4818V58.9404Z" fill="#E6E6E6"/>
<path d="M62.5925 58.9404H16.4043V60.7256H62.5925V58.9404Z" fill="#F5F5F5"/>
<path d="M56.7178 56.2519V13.8491L15.896 13.8491V56.2519H56.7178Z" fill="#FAFAFA"/>
<path d="M25.1611 56.2519L40.9103 13.8461H48.3435L32.5974 56.2519H25.1611Z" fill="white"/>
<path d="M34.1934 56.2519L49.9425 13.8461H52.8403L37.0912 56.2519H34.1934Z" fill="white"/>
<path d="M56.7178 56.2488V13.8461H56.3769V56.2488H56.7178Z" fill="#E6E6E6"/>
<g opacity="0.6">
<path d="M14.787 51.9674H9.11621L12.1723 8.80786H17.8431L14.787 51.9674Z" fill="#F5F5F5"/>
<path d="M16.9969 51.9674H12.5771L15.6332 8.80786H20.053L16.9969 51.9674Z" fill="#E6E6E6"/>
<path d="M20.4579 51.9674H14.7871L17.8432 8.80786H23.514L20.4579 51.9674Z" fill="#F5F5F5"/>
<path d="M22.6668 51.9674H18.2471L21.3062 8.80786H25.7229L22.6668 51.9674Z" fill="#E6E6E6"/>
<path d="M26.1288 51.9674H20.458L23.5141 8.80786H29.1879L26.1288 51.9674Z" fill="#F5F5F5"/>
</g>
<g opacity="0.6">
<path d="M58.4642 51.9674H61.6694L59.9435 8.80786H56.7383L58.4642 51.9674Z" fill="#F5F5F5"/>
<path d="M57.2162 51.9674H59.7122L57.9864 8.80786H55.4873L57.2162 51.9674Z" fill="#E6E6E6"/>
<path d="M55.2601 51.9674H58.4653L56.7394 8.80786H53.5342L55.2601 51.9674Z" fill="#F5F5F5"/>
<path d="M54.0112 51.9674H56.5072L54.7813 8.80786H52.2822L54.0112 51.9674Z" fill="#E6E6E6"/>
<path d="M52.054 51.9674H55.2592L53.5334 8.80786H50.3281L52.054 51.9674Z" fill="#F5F5F5"/>
</g>
<path d="M118.774 8.80786H87.54V50.4385H118.774V8.80786Z" fill="#E6E6E6"/>
<path d="M121.144 8.80786H88.5137V50.4385H121.144V8.80786Z" fill="#F5F5F5"/>
<path d="M92.7413 10.5075L89.8369 46.5399L116.912 48.7334L119.817 12.701L92.7413 10.5075Z" fill="white"/>
<path d="M119.148 12.6464L116.243 48.6788L116.911 48.7329L119.815 12.7005L119.148 12.6464Z" fill="#E6E6E6"/>
<path d="M122.867 65.9897H105.423V100.007H122.867V65.9897Z" fill="#F5F5F5"/>
<path d="M122.867 65.9897H121.428V100.007H122.867V65.9897Z" fill="#F5F5F5"/>
<path d="M66.6012 81.3518H106.769V66.9571H66.6012V81.3518Z" fill="#E6E6E6"/>
<path d="M68.5336 68.5378H122.864V65.9867H68.5336V68.5378Z" fill="#F5F5F5"/>
<path d="M68.5374 65.9897H51.0928V100.007H68.5374V65.9897Z" fill="#F5F5F5"/>
<path d="M51.722 76.8262H51.8011C52.9144 76.8262 53.982 77.2695 54.7692 78.0587C55.5564 78.8479 55.9986 79.9183 55.9986 81.0344V100.007H47.5244V81.0344C47.5244 79.9183 47.9667 78.8479 48.7538 78.0587C49.541 77.2695 50.6087 76.8262 51.722 76.8262Z" fill="#E6E6E6"/>
<path d="M68.5364 65.9897H67.0967V100.007H68.5364V65.9897Z" fill="#F5F5F5"/>
<path d="M88.1695 65.9897H84.4072L85.3204 58.6444H89.0857L88.1695 65.9897Z" fill="#F5F5F5"/>
<path d="M89.0046 65.9897H85.2393L86.1555 58.6444H89.9177L89.0046 65.9897Z" fill="#F5F5F5"/>
<path d="M89.4605 62.3156H85.6982L86.1548 58.6444H89.9171L89.4605 62.3156Z" fill="#F5F5F5"/>
<path d="M75.6314 61.4336H102.253C102.306 61.4336 102.357 61.4224 102.405 61.4009C102.452 61.3794 102.495 61.3479 102.529 61.3087C102.564 61.2694 102.59 61.2233 102.605 61.1733C102.621 61.1233 102.625 61.0705 102.619 61.0186L100.567 44.5641C100.556 44.4748 100.513 44.3927 100.445 44.3331C100.378 44.2735 100.292 44.2407 100.202 44.2406H73.5799C73.5286 44.2416 73.4782 44.2532 73.4316 44.2748C73.3851 44.2963 73.3435 44.3272 73.3095 44.3656C73.2755 44.404 73.2498 44.4491 73.2339 44.4979C73.2181 44.5468 73.2126 44.5984 73.2176 44.6495L75.2631 61.1285C75.2789 61.2146 75.3245 61.2925 75.3918 61.3483C75.4592 61.4041 75.544 61.4343 75.6314 61.4336Z" fill="#F5F5F5"/>
<path d="M76.0278 61.4336H102.65C102.702 61.4336 102.754 61.4224 102.801 61.4009C102.849 61.3794 102.891 61.3479 102.926 61.3087C102.96 61.2694 102.986 61.2233 103.002 61.1733C103.017 61.1233 103.022 61.0705 103.015 61.0186L100.963 44.5641C100.952 44.4748 100.909 44.3927 100.842 44.3331C100.775 44.2735 100.688 44.2407 100.598 44.2406H73.9762C73.9239 44.2407 73.8722 44.2518 73.8245 44.2734C73.7768 44.2949 73.7342 44.3262 73.6994 44.3654C73.6646 44.4046 73.6385 44.4507 73.6227 44.5007C73.607 44.5507 73.6019 44.6035 73.6079 44.6556L75.6534 61.1285C75.6693 61.2157 75.7158 61.2944 75.7844 61.3503C75.8531 61.4063 75.9394 61.4358 76.0278 61.4336Z" fill="#F5F5F5"/>
<path d="M102.157 60.5182L100.236 45.1165C100.233 45.0917 100.22 45.069 100.201 45.0528C100.182 45.0365 100.158 45.0277 100.133 45.028H74.5642C74.5495 45.0279 74.535 45.0309 74.5215 45.0368C74.5081 45.0428 74.4961 45.0516 74.4863 45.0625C74.4765 45.0735 74.4692 45.0864 74.4648 45.1005C74.4604 45.1145 74.459 45.1293 74.4607 45.1439L76.3814 60.5456C76.3851 60.5704 76.3976 60.593 76.4166 60.6093C76.4356 60.6256 76.4599 60.6344 76.4849 60.6341H102.054C102.068 60.6342 102.083 60.6312 102.096 60.6252C102.11 60.6193 102.122 60.6105 102.132 60.5996C102.141 60.5886 102.149 60.5757 102.153 60.5616C102.157 60.5476 102.159 60.5328 102.157 60.5182Z" fill="#E6E6E6"/>
<path d="M99.4291 60.6462L92.6716 45.037H86.7451L93.5026 60.6462H99.4291Z" fill="#DEDEDE"/>
<path d="M92.361 60.6462L85.6035 45.037H83.4697L90.2272 60.6462H92.361Z" fill="#DEDEDE"/>
<path d="M92.4189 65.9897H86.2885V65.9135C86.2885 65.7516 86.3527 65.5963 86.4668 65.4819C86.581 65.3674 86.7358 65.3031 86.8973 65.3031H91.8102C91.9716 65.3031 92.1265 65.3674 92.2406 65.4819C92.3548 65.5963 92.4189 65.7516 92.4189 65.9135V65.9897Z" fill="#F5F5F5"/>
<path d="M87.0078 65.9897H82.8499V65.9135C82.8499 65.7516 82.914 65.5963 83.0282 65.4819C83.1423 65.3674 83.2972 65.3031 83.4586 65.3031H86.396C86.5575 65.3031 86.7123 65.3674 86.8265 65.4819C86.9406 65.5963 87.0048 65.7516 87.0048 65.9135V65.9897H87.0078Z" fill="#F5F5F5"/>
<path d="M99.202 65.9897H80.2506L79.7393 64.4639H96.7364L99.202 65.9897Z" fill="#F5F5F5"/>
<path d="M82.3346 65.9897H79.2024L78.7793 64.4639H81.9115L82.3346 65.9897Z" fill="#F5F5F5"/>
<path d="M76.3047 65.9867H70.9109C70.9109 65.6484 71.0449 65.3239 71.2836 65.0847C71.5222 64.8455 71.8458 64.7111 72.1832 64.7111H75.0323C75.3698 64.7111 75.6934 64.8455 75.932 65.0847C76.1706 65.3239 76.3047 65.6484 76.3047 65.9867Z" fill="#F5F5F5"/>
<path d="M16.0604 100.007H21.3477L21.3477 75.3706H16.0604L16.0604 100.007Z" fill="#E0E0E0"/>
<path d="M39.5349 100.007H18.1607L15.5186 70.8938H36.8928L39.5349 100.007Z" fill="#E6E6E6"/>
<path d="M40.6425 100.007H19.2682L16.623 70.8938H38.0004L40.6425 100.007Z" fill="#F5F5F5"/>
<path d="M22.1906 96.784L20.1299 74.1163H35.0785L37.1362 96.784H22.1906Z" fill="white"/>
<path d="M64.9997 113.788C97.5945 113.788 124.018 112.241 124.018 110.333C124.018 108.426 97.5945 106.879 64.9997 106.879C32.4048 106.879 5.98145 108.426 5.98145 110.333C5.98145 112.241 32.4048 113.788 64.9997 113.788Z" fill="#F5F5F5"/>
<path d="M19.0601 37.3243L18.7559 37.3342L18.8883 41.3999L19.1925 41.39L19.0601 37.3243Z" fill="#7B68EE"/>
<path d="M18.9458 33.8154L18.6416 33.8253L18.705 35.759L19.0092 35.7491L18.9458 33.8154Z" fill="#7B68EE"/>
<path d="M23.0558 63.225H81.1518C81.4623 63.2264 81.7699 63.1649 82.0561 63.044C82.3423 62.9231 82.6011 62.7454 82.8169 62.5216C83.0328 62.2978 83.2012 62.0324 83.3121 61.7416C83.423 61.4508 83.474 61.1405 83.4621 60.8294L82.1684 21.0877C82.1427 20.4475 81.8723 19.8417 81.4134 19.3958C80.9544 18.9498 80.342 18.6979 79.7029 18.6922H21.6069C21.2963 18.6907 20.9885 18.7523 20.7022 18.8731C20.4158 18.994 20.1568 19.1716 19.9407 19.3954C19.7246 19.6192 19.5559 19.8844 19.4447 20.1753C19.3335 20.4661 19.2821 20.7765 19.2936 21.0877L20.5872 60.8233C20.6122 61.4649 20.8826 62.0722 21.3422 62.5194C21.8018 62.9665 22.4154 63.2192 23.0558 63.225Z" fill="#7B68EE"/>
<path d="M23.2414 63.225H81.3373C81.648 63.2264 81.9557 63.1649 82.2421 63.044C82.5284 62.9232 82.7874 62.7455 83.0035 62.5217C83.2196 62.298 83.3883 62.0327 83.4995 61.7419C83.6108 61.451 83.6622 61.1407 83.6507 60.8294L82.3509 21.0877C82.3244 20.4472 82.0534 19.8414 81.594 19.3955C81.1345 18.9497 80.5217 18.6979 79.8823 18.6922H21.7925C21.4819 18.6907 21.1743 18.7523 20.8881 18.8731C20.602 18.994 20.3432 19.1717 20.1273 19.3956C19.9114 19.6194 19.743 19.8847 19.6321 20.1755C19.5213 20.4663 19.4702 20.7766 19.4822 21.0877L20.7758 60.8233C20.8001 61.4646 21.0697 62.072 21.5289 62.5192C21.988 62.9664 22.6013 63.2192 23.2414 63.225Z" fill="#7B68EE"/>
<path opacity="0.5" d="M23.2414 63.225H81.3373C81.648 63.2264 81.9557 63.1649 82.2421 63.044C82.5284 62.9232 82.7874 62.7455 83.0035 62.5217C83.2196 62.298 83.3883 62.0327 83.4995 61.7419C83.6108 61.451 83.6622 61.1407 83.6507 60.8294L82.3509 21.0877C82.3244 20.4472 82.0534 19.8414 81.594 19.3955C81.1345 18.9497 80.5217 18.6979 79.8823 18.6922H21.7925C21.4819 18.6907 21.1743 18.7523 20.8881 18.8731C20.602 18.994 20.3432 19.1717 20.1273 19.3956C19.9114 19.6194 19.743 19.8847 19.6321 20.1755C19.5213 20.4663 19.4702 20.7766 19.4822 21.0877L20.7758 60.8233C20.8001 61.4646 21.0697 62.072 21.5289 62.5192C21.988 62.9664 22.6013 63.2192 23.2414 63.225Z" fill="white"/>
<path opacity="0.5" d="M79.7426 19.8884H21.6437H21.4489C19.9604 20.0105 20.1735 22.2748 21.6741 22.2748H79.8705C81.3681 22.2748 81.4351 20.0105 79.9375 19.8884C79.8735 19.8915 79.8066 19.8884 79.7426 19.8884Z" fill="#7B68EE"/>
<path d="M23.1109 21.0878C23.1133 21.1589 23.1014 21.2298 23.0759 21.2961C23.0503 21.3625 23.0117 21.423 22.9622 21.4741C22.9127 21.5251 22.8535 21.5656 22.788 21.593C22.7226 21.6205 22.6522 21.6345 22.5812 21.634C22.4349 21.6334 22.2945 21.5762 22.1891 21.4745C22.0836 21.3728 22.0213 21.2343 22.0151 21.0878C22.0122 21.0164 22.0238 20.9452 22.0491 20.8784C22.0745 20.8117 22.1131 20.7508 22.1626 20.6995C22.2121 20.6481 22.2715 20.6074 22.3372 20.5797C22.4029 20.552 22.4735 20.538 22.5447 20.5385C22.6918 20.5384 22.8331 20.5957 22.9387 20.6982C23.0444 20.8007 23.1061 20.9404 23.1109 21.0878Z" fill="#FAFAFA"/>
<path d="M24.9732 21.0878C24.9761 21.159 24.9645 21.2301 24.9391 21.2966C24.9137 21.3632 24.875 21.4239 24.8255 21.475C24.7759 21.5261 24.7165 21.5666 24.6508 21.5939C24.5852 21.6213 24.5146 21.6349 24.4436 21.634C24.2975 21.6326 24.1574 21.5753 24.0522 21.4737C23.9469 21.3721 23.8844 21.2341 23.8774 21.0878C23.8745 21.0164 23.8861 20.9452 23.9115 20.8784C23.9368 20.8117 23.9754 20.7508 24.0249 20.6995C24.0744 20.6481 24.1338 20.6074 24.1995 20.5797C24.2652 20.552 24.3358 20.538 24.407 20.5385C24.5541 20.5384 24.6954 20.5957 24.801 20.6982C24.9067 20.8007 24.9684 20.9404 24.9732 21.0878Z" fill="#FAFAFA"/>
<path d="M26.6888 21.4807C26.8974 21.2679 26.8886 20.9202 26.6692 20.704C26.4498 20.4878 26.1029 20.485 25.8943 20.6977C25.6857 20.9104 25.6945 21.2582 25.9138 21.4744C26.1332 21.6906 26.4802 21.6934 26.6888 21.4807Z" fill="#FAFAFA"/>
<path d="M24.3681 59.2578H79.9558C80.0683 59.2587 80.1799 59.2367 80.2836 59.1931C80.3874 59.1495 80.4813 59.0853 80.5595 59.0042C80.6378 58.9232 80.6989 58.8271 80.739 58.7217C80.7791 58.6163 80.7974 58.5038 80.7929 58.3911L79.7275 25.7048C79.7152 25.4737 79.6161 25.2558 79.4501 25.095C79.284 24.9342 79.0634 24.8425 78.8326 24.8382H23.2479C23.1354 24.8372 23.0239 24.8592 22.9201 24.9028C22.8163 24.9464 22.7224 25.0107 22.6442 25.0917C22.5659 25.1727 22.5049 25.2689 22.4647 25.3743C22.4246 25.4797 22.4063 25.5921 22.4108 25.7048L23.4732 58.382C23.4832 58.6147 23.5813 58.8348 23.7476 58.9976C23.9139 59.1603 24.1357 59.2533 24.3681 59.2578Z" fill="white"/>
<g opacity="0.3">
<path d="M65.1622 55.2143H64.1455V54.9244H64.8639L64.8395 54.2042L65.1287 54.1951L65.1622 55.2143Z" fill="#7B68EE"/>
<path d="M62.5285 55.2143H60.9122V54.9092H62.5285V55.2143ZM59.2959 55.2143H57.6948V54.9092H59.3111L59.2959 55.2143ZM56.0633 55.2143H54.447V54.9092H56.0633V55.2143ZM52.8307 55.2143H51.2144V54.9092H52.8246L52.8307 55.2143ZM49.6011 55.2143H47.9817V54.9092H49.6011V55.2143ZM46.3685 55.2143H44.7522V54.9092H46.3685V55.2143ZM43.1358 55.2143H41.5195V54.9092H43.1358V55.2143Z" fill="#7B68EE"/>
<path d="M39.9042 55.2143H38.8967L38.8662 54.2042L39.1523 54.1951L39.1767 54.9244H39.9042V55.2143Z" fill="#7B68EE"/>
<path d="M38.8235 52.5838L38.7718 50.9633H39.0762L39.1279 52.5838H38.8235ZM38.7201 49.3429L38.6653 47.7225H38.9544L39.0062 49.3429H38.7201ZM38.6135 46.102L38.5618 44.4816H38.8479L38.9027 46.102H38.6135ZM38.507 42.8642L38.4552 41.2438H38.7444L38.7962 42.8642H38.507ZM38.4035 39.6234L38.3487 38.003H38.6379L38.6896 39.6234H38.4035ZM38.297 36.3795L38.2452 34.7621H38.5313L38.5861 36.3825L38.297 36.3795ZM38.1904 33.1417L38.1387 31.5212H38.4278L38.4796 33.1417H38.1904Z" fill="#7B68EE"/>
<path d="M38.0745 29.8978L38.041 28.8816H39.0546V29.1715H38.3393L38.3606 29.8886L38.0745 29.8978Z" fill="#7B68EE"/>
<path d="M61.683 29.1715H60.0666V28.8816H61.683V29.1715ZM58.4503 29.1715H56.834V28.8816H58.4503V29.1715ZM55.2177 29.1715H53.6014V28.8816H55.2177V29.1715ZM51.9851 29.1715H50.3688V28.8816H51.9851V29.1715ZM48.7525 29.1715H47.1361V28.8816H48.7525V29.1715ZM45.5198 29.1715H43.9035V28.8816H45.5198V29.1715ZM42.2872 29.1715H40.6709V28.8816H42.2872V29.1715Z" fill="#7B68EE"/>
<path d="M64.0486 29.8978L64.0243 29.1715H63.2998V28.8816H64.3043L64.3378 29.8886L64.0486 29.8978Z" fill="#7B68EE"/>
<path d="M64.7878 52.5838L64.7361 50.9633H65.0222L65.077 52.5838H64.7878ZM64.6965 49.3429L64.6448 47.7225H64.9339L64.9857 49.3429H64.6965ZM64.593 46.1051L64.5382 44.4847H64.8274L64.8791 46.1051H64.593ZM64.4865 42.8642L64.4347 41.2438H64.7209L64.7756 42.8642H64.4865ZM64.3799 39.6234L64.3282 38.003H64.6174L64.6691 39.6234H64.3799ZM64.2764 36.3825L64.2217 34.7621H64.526L64.5778 36.3825H64.2764ZM64.1699 33.1417L64.1182 31.5212H64.4043L64.4591 33.1417H64.1699Z" fill="#7B68EE"/>
</g>
<path d="M57.3361 46.1753H46.7098C45.7243 46.1675 44.7796 45.7795 44.0717 45.092C43.3638 44.4045 42.9471 43.4701 42.908 42.4828C42.8733 41.5957 43.1692 40.7275 43.7381 40.0471C44.307 39.3668 45.1081 38.9231 45.9854 38.8025C46.2153 37.9209 46.7308 37.1407 47.4508 36.5845C48.1709 36.0283 49.0548 35.7276 49.9638 35.7295C50.712 35.7307 51.4472 35.925 52.0987 36.2938C52.7502 36.6626 53.296 37.1934 53.6834 37.8351C54.0176 37.7313 54.3655 37.6788 54.7153 37.6795C55.6217 37.688 56.4937 38.0289 57.1666 38.6377C57.8396 39.2466 58.2669 40.0814 58.368 40.9845C58.8322 41.2067 59.2276 41.5512 59.5117 41.9812C59.7958 42.4112 59.9581 42.9105 59.9813 43.4258C59.9952 43.7822 59.9371 44.1378 59.8103 44.4711C59.6835 44.8045 59.4908 45.1086 59.2436 45.3652C58.9964 45.6218 58.7 45.8257 58.3722 45.9644C58.0444 46.1031 57.6919 46.1738 57.3361 46.1723V46.1753ZM49.9638 36.4405C49.174 36.4357 48.4073 36.7075 47.796 37.2089C47.1847 37.7103 46.7672 38.4099 46.6155 39.187L46.5637 39.4586L46.2898 39.4769C45.544 39.5226 44.8456 39.8593 44.3444 40.4149C43.8432 40.9704 43.5789 41.7007 43.6081 42.4492C43.6394 43.2525 43.9783 44.0127 44.5542 44.572C45.1302 45.1312 45.8989 45.4464 46.7007 45.4521H57.327C57.5873 45.4544 57.8453 45.4036 58.0855 45.3028C58.3256 45.202 58.5428 45.0534 58.7238 44.8659C58.9049 44.6784 59.0461 44.4559 59.1387 44.212C59.2314 43.9681 59.2736 43.7079 59.2629 43.4471C59.2435 43.0323 59.1039 42.632 58.8612 42.2955C58.6184 41.9589 58.2831 41.7005 57.8962 41.5521L57.677 41.4666V41.2316C57.6383 40.4677 57.3103 39.7475 56.7599 39.2178C56.2095 38.6881 55.4782 38.389 54.7153 38.3814C54.3521 38.3806 53.9922 38.4511 53.656 38.5889L53.3516 38.711L53.2025 38.4241C52.8949 37.8289 52.4302 37.3297 51.8591 36.981C51.2881 36.6323 50.6324 36.4475 49.9638 36.4466V36.4405Z" fill="#7B68EE"/>
<path d="M54.2736 42.7208L51.3423 39.8737L48.5967 42.7208H50.2039L50.3013 45.6626H52.7638L52.6664 42.7208H54.2736Z" fill="#7B68EE"/>
<path d="M100.614 31.1613C100.894 31.5671 101.119 31.9089 101.35 32.2873C101.582 32.6657 101.801 33.0319 102.014 33.4134C102.44 34.1702 102.836 34.9392 103.198 35.7448C103.571 36.5483 103.9 37.3714 104.184 38.2106C104.487 39.0718 104.728 39.954 104.903 40.8503L105.018 41.546L105.033 41.6345L105.052 41.7444C105.052 41.8512 105.076 41.9428 105.079 42.0496C105.085 42.1695 105.085 42.2897 105.079 42.4097L105.064 42.6019L105.03 42.8155C105.005 42.9671 104.966 43.1162 104.915 43.2611C104.859 43.4222 104.787 43.5776 104.702 43.7249C104.531 44.0237 104.302 44.2851 104.029 44.4939C103.627 44.8004 103.155 45.0018 102.656 45.0799C102.328 45.1337 101.995 45.1501 101.664 45.1287C101.393 45.1161 101.124 45.0844 100.857 45.0341C100.387 44.9433 99.9222 44.8241 99.4662 44.677C98.6326 44.397 97.8191 44.0606 97.031 43.67C96.2538 43.2943 95.4996 42.8724 94.7725 42.4066L95.6491 40.4597C97.1613 40.8695 98.6933 41.2016 100.239 41.4545C100.581 41.5063 100.926 41.5358 101.271 41.543C101.492 41.562 101.714 41.5371 101.926 41.4697C101.944 41.4545 101.874 41.4331 101.673 41.5674C101.506 41.6896 101.379 41.8584 101.308 42.0526C101.289 42.1002 101.273 42.1491 101.262 42.1991L101.244 42.2967C101.245 42.314 101.245 42.3313 101.244 42.3486V42.309V42.2449L101.107 41.7322C100.666 40.2998 100.093 38.9115 99.3961 37.585C99.0522 36.8953 98.6747 36.2148 98.2912 35.5404C98.0994 35.2016 97.9016 34.869 97.7037 34.5364C97.5059 34.2038 97.2928 33.8559 97.1163 33.5782L100.614 31.1613Z" fill="#FFB573"/>
<path d="M95.9845 40.6245L94.6635 39.3062L93.3516 42.2388C93.3516 42.2388 94.5935 42.9315 95.6984 42.428L95.9845 40.6245Z" fill="#FFB573"/>
<path d="M92.7123 38.2533L91.7383 40.7312L93.3485 42.2388L94.6635 39.3061L92.7123 38.2533Z" fill="#FFB573"/>
<path d="M97.1682 32.1427L71.8252 27.6672L67.3611 53.0748L92.7041 57.5502L97.1682 32.1427Z" fill="#7B68EE"/>
<path opacity="0.6" d="M97.1682 32.1427L71.8252 27.6672L67.3611 53.0748L92.7041 57.5502L97.1682 32.1427Z" fill="white"/>
<path d="M95.7167 33.1598L72.8408 29.12L68.8113 52.0541L91.6871 56.0939L95.7167 33.1598Z" fill="white"/>
<path d="M87.7651 21.9177C87.7651 22.1222 87.6677 22.29 87.5337 22.2931C87.3998 22.2961 87.2902 22.1313 87.2872 21.9299C87.2841 21.7285 87.3876 21.5576 87.5185 21.5576C87.6494 21.5576 87.762 21.7163 87.7651 21.9177Z" fill="#0F0E16"/>
<path d="M87.6863 22.287C87.4566 22.9124 87.1432 23.5037 86.7549 24.0447C86.8954 24.1407 87.055 24.2048 87.2226 24.2328C87.3903 24.2607 87.562 24.2517 87.7259 24.2065L87.6863 22.287Z" fill="#FF4D4D"/>
<path d="M88.4803 20.7765C88.4486 20.7827 88.4157 20.7762 88.3889 20.7582C88.2699 20.6676 88.1304 20.6077 87.9829 20.5838C87.8354 20.5598 87.6842 20.5726 87.5427 20.6208C87.5133 20.633 87.4802 20.6329 87.4508 20.6206C87.4214 20.6083 87.3981 20.5848 87.386 20.5552C87.3739 20.5257 87.3739 20.4925 87.3862 20.4631C87.3985 20.4336 87.4219 20.4102 87.4514 20.3981C87.6307 20.3383 87.8217 20.322 88.0085 20.3507C88.1953 20.3793 88.3726 20.452 88.5259 20.5629C88.5516 20.5807 88.5693 20.6081 88.575 20.639C88.5807 20.6698 88.574 20.7017 88.5564 20.7276C88.5382 20.7531 88.5109 20.7706 88.4803 20.7765Z" fill="#0F0E16"/>
<path d="M93.6339 22.6929C93.5061 24.5666 93.6522 28.3476 95.0798 29.4065C95.0798 29.4065 94.7297 30.9323 91.3419 31.3626C87.6192 31.8295 89.3298 29.733 89.3298 29.733C91.3023 28.9884 91.0618 27.484 90.5291 26.1077L93.6339 22.6929Z" fill="#FFB573"/>
<path d="M102.863 103.72H102.842C102.797 103.697 102.76 103.66 102.737 103.614C102.714 103.569 102.706 103.517 102.714 103.467C102.715 103.427 102.724 103.388 102.742 103.352C102.76 103.316 102.786 103.284 102.817 103.26C103.103 103.015 103.937 103.122 103.974 103.125C103.985 103.127 103.996 103.133 104.004 103.14C104.013 103.148 104.019 103.157 104.023 103.168C104.026 103.179 104.026 103.19 104.023 103.201C104.019 103.212 104.013 103.222 104.004 103.229C103.81 103.388 103.164 103.824 102.863 103.72ZM103.816 103.22C103.533 103.199 103.064 103.196 102.902 103.339C102.884 103.354 102.869 103.372 102.859 103.393C102.848 103.414 102.842 103.437 102.842 103.461C102.842 103.574 102.884 103.595 102.899 103.604C103.049 103.681 103.508 103.449 103.816 103.22Z" fill="#7B68EE"/>
<path d="M103.544 103.144C103.24 103.043 102.936 102.869 102.89 102.692C102.878 102.649 102.881 102.603 102.899 102.562C102.917 102.521 102.948 102.487 102.987 102.466C103.025 102.441 103.067 102.423 103.112 102.415C103.157 102.408 103.202 102.409 103.246 102.42C103.614 102.497 103.998 103.119 104.016 103.144C104.022 103.153 104.026 103.163 104.026 103.174C104.026 103.185 104.022 103.196 104.016 103.205C104.012 103.214 104.004 103.222 103.995 103.228C103.986 103.233 103.975 103.236 103.965 103.235C103.821 103.224 103.68 103.194 103.544 103.144ZM103.264 102.549H103.222C103.193 102.541 103.164 102.54 103.135 102.545C103.106 102.55 103.078 102.562 103.054 102.579C102.99 102.622 103 102.655 103.003 102.671C103.051 102.832 103.526 103.058 103.846 103.116C103.706 102.878 103.505 102.682 103.264 102.549Z" fill="#7B68EE"/>
<path d="M84.3805 107.892C84.0579 107.892 83.7474 107.846 83.6409 107.703C83.614 107.664 83.5996 107.619 83.5996 107.572C83.5996 107.525 83.614 107.479 83.6409 107.44C83.6618 107.406 83.6892 107.376 83.7216 107.353C83.754 107.329 83.7907 107.312 83.8296 107.303C84.2466 107.187 85.1263 107.688 85.1628 107.709C85.1734 107.716 85.1816 107.725 85.1865 107.737C85.1914 107.748 85.1927 107.761 85.1902 107.773C85.1886 107.785 85.1833 107.796 85.1751 107.805C85.1669 107.813 85.1563 107.819 85.1445 107.822C84.8923 107.867 84.6367 107.89 84.3805 107.892ZM83.9818 107.404C83.9434 107.399 83.9045 107.399 83.8661 107.404C83.842 107.409 83.8193 107.42 83.7994 107.434C83.7795 107.449 83.7628 107.468 83.7504 107.489C83.7078 107.562 83.723 107.599 83.7504 107.62C83.8661 107.782 84.5023 107.785 84.968 107.721C84.6634 107.551 84.3282 107.443 83.9818 107.404Z" fill="#7B68EE"/>
<path d="M85.1381 107.819H85.1138C84.8094 107.684 84.2006 107.138 84.2554 106.854C84.2554 106.787 84.3132 106.705 84.4776 106.687C84.5366 106.681 84.5961 106.687 84.6526 106.705C84.7091 106.723 84.7614 106.752 84.8064 106.79C85.126 107.053 85.196 107.73 85.196 107.761C85.1971 107.771 85.1954 107.781 85.1911 107.79C85.1868 107.799 85.1801 107.807 85.1716 107.813C85.1617 107.819 85.1497 107.821 85.1381 107.819ZM84.5294 106.796H84.4807C84.3741 106.796 84.368 106.851 84.365 106.864C84.3376 107.034 84.7455 107.474 85.0529 107.648C85.0258 107.362 84.911 107.091 84.7242 106.873C84.6684 106.827 84.5986 106.801 84.5263 106.8L84.5294 106.796Z" fill="#7B68EE"/>
<path d="M87.8995 107.761H85.3883L85.1387 101.932H87.6499L87.8995 107.761Z" fill="#FFB573"/>
<path d="M106.677 102.445L104.348 103.086L101.368 97.6201L103.697 96.9792L106.677 102.445Z" fill="#FFB573"/>
<path d="M103.999 102.832L106.513 101.542C106.558 101.52 106.608 101.514 106.657 101.524C106.705 101.535 106.749 101.561 106.781 101.599L108.239 103.363C108.274 103.407 108.298 103.458 108.311 103.512C108.324 103.566 108.324 103.623 108.312 103.677C108.3 103.732 108.276 103.783 108.242 103.827C108.208 103.871 108.164 103.906 108.114 103.931C107.231 104.364 106.778 104.541 105.679 105.1C105 105.448 102.979 106.955 101.959 107.236C100.939 107.517 100.544 106.525 100.936 106.32C102.225 105.656 103.216 104.53 103.712 103.165C103.763 103.022 103.865 102.904 103.999 102.832Z" fill="#0F0E16"/>
<path d="M85.3939 107.471H88.1334C88.183 107.471 88.231 107.488 88.2697 107.519C88.3084 107.55 88.3355 107.593 88.3465 107.642L88.8426 109.882C88.8552 109.936 88.8553 109.992 88.8428 110.046C88.8303 110.1 88.8056 110.151 88.7707 110.194C88.7357 110.237 88.6913 110.271 88.641 110.294C88.5907 110.317 88.5358 110.329 88.4804 110.327C87.4911 110.312 86.0605 110.254 84.8277 110.254C83.3727 110.254 82.1187 110.333 80.4141 110.333C79.3822 110.333 79.0961 109.287 79.5283 109.192C81.4916 108.762 83.0957 108.716 84.7942 107.666C84.9724 107.547 85.1799 107.479 85.3939 107.471Z" fill="#0F0E16"/>
<path d="M96.1941 34.0695C96.4559 34.7439 96.745 35.4031 97.0373 36.0225C97.5365 37.0937 98.0357 38.0275 98.3979 38.6714C98.7205 39.2542 98.9336 39.5869 98.9336 39.5869L104.413 36.8587C104.413 36.8587 102.203 30.4899 99.8955 29.7789C97.5365 29.0861 95.01 31.0331 96.1941 34.0695Z" fill="#0F0E16"/>
<path opacity="0.2" d="M98.6258 34.6981C98.1479 35.0491 97.807 35.9981 97.5635 37.112C97.8679 37.7223 98.1723 38.2564 98.3975 38.6714C98.7202 39.2542 98.9332 39.5869 98.9332 39.5869L99.5603 39.2817C99.548 37.7076 99.2306 36.1508 98.6258 34.6981Z" fill="#0F0E16"/>
<path d="M84.5967 38.1312C84.5967 38.9857 84.618 39.9286 84.6637 40.9692C84.7885 43.792 85.0959 47.3106 85.6834 51.6836H99.1131C99.2074 49.6176 97.9107 39.5319 99.9014 29.791C98.4154 29.5057 96.9127 29.3161 95.4025 29.2234C93.5007 29.1135 91.5941 29.1135 89.6922 29.2234C88.3888 29.3579 87.0975 29.5915 85.8295 29.9223C85.8295 29.9223 84.5936 31.323 84.5967 38.1312Z" fill="#0F0E16"/>
<path d="M88.0511 34.1335C87.8515 34.5524 87.629 34.9599 87.3845 35.3541C87.1623 35.7142 86.937 36.0621 86.7057 36.3978C86.243 37.0692 85.759 37.7161 85.2507 38.3478C84.2275 39.6301 83.0938 40.8197 81.8629 41.903C81.2064 42.4799 80.5028 43.0005 79.7595 43.4593L79.4551 43.6363L79.376 43.6791L79.2664 43.734L79.0442 43.8408C78.7583 43.976 78.4581 44.0784 78.1493 44.146C77.6025 44.2561 77.0425 44.2849 76.4873 44.2314C75.5608 44.1208 74.6605 43.8492 73.827 43.4288C73.4413 43.2394 73.0681 43.0254 72.7098 42.788C72.3469 42.5521 72.0001 42.2922 71.6719 42.0098L72.7494 40.1788C74.0674 40.5267 75.5528 40.838 76.5756 40.6915C76.787 40.6713 76.9932 40.6134 77.1844 40.5206C77.2473 40.4897 77.3065 40.4519 77.3609 40.4077L77.3883 40.3802H77.4066L77.4492 40.3467L77.6349 40.2185C78.156 39.8205 78.6502 39.3882 79.1142 38.9246C80.1079 37.9163 81.0323 36.8417 81.8811 35.7081C82.3164 35.1375 82.7365 34.5516 83.1413 33.9626C83.3391 33.6574 83.537 33.3767 83.7196 33.0868C83.9023 32.7969 84.0849 32.5008 84.1793 32.3147L88.0511 34.1335Z" fill="#FFB573"/>
<path d="M73.2852 40.4321L70.9688 39.3304L70.7588 42.4462C70.7588 42.4462 72.5608 42.7513 73.5135 42.0525L73.2852 40.4321Z" fill="#FFB573"/>
<path d="M68.0498 39.8614L68.9417 42.2356L70.7589 42.4462L70.9689 39.3304L68.0498 39.8614Z" fill="#FFB573"/>
<path d="M89.7105 32.4825C89.6314 34.8903 84.6881 40.4321 84.6881 40.4321L79.4678 37.0204C79.4678 37.0204 81.1328 33.9077 83.2635 31.6586C86.5175 28.2713 89.8049 29.5957 89.7105 32.4825Z" fill="#0F0E16"/>
<path opacity="0.2" d="M85.1387 101.932L85.2665 104.938H87.7808L87.6529 101.932H85.1387Z" fill="#0F0E16"/>
<path opacity="0.2" d="M103.697 96.9792L101.368 97.6231L102.905 100.44L105.234 99.7959L103.697 96.9792Z" fill="#0F0E16"/>
<path d="M94.5261 21.3471C94.4257 23.8433 94.4957 25.3142 93.266 26.6173C91.4153 28.5795 88.3227 27.5023 87.6774 25.0274C87.096 22.7966 87.3578 19.0889 89.7716 18.0452C90.3027 17.8121 90.8844 17.7191 91.4615 17.7751C92.0386 17.8312 92.5918 18.0344 93.0684 18.3653C93.545 18.6963 93.9291 19.1441 94.1843 19.666C94.4395 20.188 94.5572 20.7667 94.5261 21.3471Z" fill="#FFB573"/>
<path d="M89.555 22.5372C88.657 21.8964 87.7773 20.575 87.8473 19.5924C87.0164 19.5588 86.4593 18.1856 86.9159 17.1846C87.202 17.8285 88.1913 17.3555 88.5779 16.8459C88.3709 16.3546 88.4044 15.5398 89.8259 14.963C89.7072 15.378 89.768 16.0769 91.1956 15.5733C92.9276 14.963 95.9715 15.3719 95.0797 17.4379C96.2972 17.6607 97.8831 20.1844 96.5377 21.5119C95.1923 22.8393 94.9153 24.9846 93.7647 25.2044C92.6141 25.4241 89.6219 25.5004 89.555 22.5372Z" fill="#0F0E16"/>
<path d="M94.2705 17.3555C94.7547 17.1536 95.2926 17.1211 95.7974 17.2634C96.3022 17.4057 96.7444 17.7145 97.0526 18.1398C96.1769 17.7207 95.2358 17.4554 94.2705 17.3555Z" fill="#0F0E16"/>
<path d="M90.21 22.4304C90.185 22.9849 89.9786 23.5158 89.6226 23.9409C89.1477 24.4963 88.6272 24.1729 88.5207 23.5168C88.4263 22.9278 88.5602 21.9269 89.1508 21.6125C89.7413 21.2982 90.2313 21.7621 90.21 22.4304Z" fill="#FFB573"/>
<path d="M90.4476 51.6836C90.4476 51.6836 89.2635 70.7351 91.5099 77.76C95.0652 88.8863 101.409 100.254 101.409 100.254L105.944 98.8866C105.944 98.8866 100.955 86.8875 99.3145 77.525C97.8412 69.1055 99.1136 58.5712 99.1136 51.6927L90.4476 51.6836Z" fill="#7B68EE"/>
<path opacity="0.2" d="M90.2646 55.9407C91.5309 55.5714 92.5202 55.7118 92.7758 56.8409C93.4455 59.7919 91.4365 67.5766 90.4351 71.1379C90.0211 66.0111 90.1155 59.9078 90.2646 55.9407Z" fill="#0F0E16"/>
<path d="M100.126 98.9506C100.108 98.9506 101.31 100.357 101.31 100.357L106.266 98.8621L105.636 97.1837L100.126 98.9506Z" fill="#0F0E16"/>
<path d="M85.6991 51.6836C85.6991 51.6836 81.9155 67.7567 81.6476 75.4346C81.3432 84.0464 84.3476 104.355 84.3476 104.355H88.609C88.609 104.355 89.1326 83.8877 89.3213 76.045C89.5283 67.5003 94.5325 51.6836 94.5325 51.6836H85.6991Z" fill="#7B68EE"/>
<path d="M83.5126 102.658C83.4944 102.658 83.7531 104.428 83.7531 104.428H88.9277L89.0678 102.848L83.5126 102.658Z" fill="#0F0E16"/>
<path d="M87.5615 28.6345C88.1399 28.433 92.5261 27.8746 95.7101 28.0455C97.5364 28.1431 98.5531 28.3507 99.2958 28.7016C100.038 29.0525 98.7083 30.8744 98.0934 31.0971C98.343 31.7929 96.9581 32.681 96.1697 33.1021C95.8653 33.7551 92.7392 34.3594 90.9129 32.9556C89.5096 31.8753 85.9209 29.2051 87.5615 28.6345Z" fill="#7B68EE"/>
</g>
<defs>
<clipPath id="clip0_1688_15268">
<rect width="130" height="120" fill="white"/>
</clipPath>
</defs>
</svg>
