<svg width="1071" height="421" viewBox="0 0 1071 421" fill="none" xmlns="http://www.w3.org/2000/svg">
<g clip-path="url(#clip0_6012_8495)">
<g filter="url(#filter0_d_6012_8495)">
<g filter="url(#filter1_dd_6012_8495)">
<rect x="86" y="60" width="900" height="361.244" fill="white"/>
</g>
<path d="M86.4675 66.2775C86.4675 62.8105 89.2781 60 92.745 60H979.722C983.189 60 986 62.8105 986 66.2775V100.545H86.4675V66.2775Z" fill="white"/>
<circle cx="107.298" cy="80.2724" r="3.28897" fill="#FF8F8F"/>
<circle cx="120.153" cy="80.2724" r="3.28897" fill="#FECD74"/>
<path d="M129.72 80.2724C129.72 78.4559 131.192 76.9834 133.009 76.9834V76.9834C134.825 76.9834 136.298 78.4559 136.298 80.2724V80.2724C136.298 82.0888 134.825 83.5613 133.009 83.5613V83.5613C131.192 83.5613 129.72 82.0888 129.72 80.2724V80.2724Z" fill="#2EBC86"/>
</g>
<g clip-path="url(#clip1_6012_8495)">
<mask id="path-8-inside-1_6012_8495" fill="white">
<path d="M106.5 114.477C106.5 112.055 108.463 110.092 110.885 110.092H213.5V138.092H110.885C108.463 138.092 106.5 136.129 106.5 133.707V114.477Z"/>
</mask>
<path d="M105.842 114.477C105.842 111.692 108.1 109.434 110.885 109.434H213.5V110.75H110.885C108.827 110.75 107.158 112.419 107.158 114.477L105.842 114.477ZM213.5 138.75H110.885C108.1 138.75 105.842 136.492 105.842 133.707L107.158 133.707C107.158 135.765 108.827 137.434 110.885 137.434H213.5V138.75ZM110.885 138.75C108.1 138.75 105.842 136.492 105.842 133.707V114.477C105.842 111.692 108.1 109.434 110.885 109.434L110.885 110.75C108.827 110.75 107.158 112.419 107.158 114.477V133.707C107.158 135.765 108.827 137.434 110.885 137.434L110.885 138.75ZM213.5 110.092V138.092V110.092Z" fill="#EAEBEC" mask="url(#path-8-inside-1_6012_8495)"/>
<rect x="116.605" y="118.366" width="37.0652" height="11.4514" rx="2.19265" fill="#F5F5F5"/>
<mask id="path-11-inside-2_6012_8495" fill="white">
<path d="M213.5 110.092H357.5V138.092H213.5V110.092Z"/>
</mask>
<path d="M213.5 110.934H357.5V109.25H213.5V110.934ZM357.5 137.25H213.5V138.934H357.5V137.25Z" fill="#EAEBEC" mask="url(#path-11-inside-2_6012_8495)"/>
<rect x="223.605" y="118.366" width="37.0652" height="11.4514" rx="2.19265" fill="#F5F5F5"/>
<mask id="path-14-inside-3_6012_8495" fill="white">
<path d="M357.5 110.092H501.5V138.092H357.5V110.092Z"/>
</mask>
<path d="M357.5 110.934H501.5V109.25H357.5V110.934ZM501.5 137.25H357.5V138.934H501.5V137.25Z" fill="#EAEBEC" mask="url(#path-14-inside-3_6012_8495)"/>
<rect x="367.605" y="118.366" width="37.0652" height="11.4514" rx="2.19265" fill="#F5F5F5"/>
<mask id="path-17-inside-4_6012_8495" fill="white">
<path d="M501.5 110.092H645.5V138.092H501.5V110.092Z"/>
</mask>
<path d="M501.5 110.934H645.5V109.25H501.5V110.934ZM645.5 137.25H501.5V138.934H645.5V137.25Z" fill="#EAEBEC" mask="url(#path-17-inside-4_6012_8495)"/>
<rect x="511.605" y="118.366" width="37.0652" height="11.4514" rx="2.19265" fill="#F5F5F5"/>
<mask id="path-20-inside-5_6012_8495" fill="white">
<path d="M645.5 110.092H788.5V138.092H645.5V110.092Z"/>
</mask>
<path d="M645.5 110.934H788.5V109.25H645.5V110.934ZM788.5 137.25H645.5V138.934H788.5V137.25Z" fill="#EAEBEC" mask="url(#path-20-inside-5_6012_8495)"/>
<rect x="655.605" y="118.366" width="37.0652" height="11.4514" rx="2.19265" fill="#F5F5F5"/>
<mask id="path-23-inside-6_6012_8495" fill="white">
<path d="M788.5 110.092H911.5V138.092H788.5V110.092Z"/>
</mask>
<path d="M788.5 110.934H911.5V109.25H788.5V110.934ZM911.5 137.25H788.5V138.934H911.5V137.25Z" fill="#EAEBEC" mask="url(#path-23-inside-6_6012_8495)"/>
<rect x="798.605" y="118.366" width="37.0652" height="11.4514" rx="2.19265" fill="#F5F5F5"/>
<mask id="path-26-inside-7_6012_8495" fill="white">
<path d="M911.5 110.092H961.115C963.537 110.092 965.5 112.055 965.5 114.477V133.707C965.5 136.129 963.537 138.092 961.115 138.092H911.5V110.092Z"/>
</mask>
<path d="M911.5 109.434H961.117C963.902 109.434 966.16 111.692 966.16 114.477L964.84 114.477C964.84 112.419 963.172 110.75 961.115 110.75H911.5V109.434ZM966.16 133.707C966.16 136.492 963.902 138.75 961.117 138.75H911.5V137.434H961.115C963.172 137.434 964.84 135.765 964.84 133.707L966.16 133.707ZM911.5 138.092V110.092V138.092ZM961.117 109.434C963.902 109.434 966.16 111.692 966.16 114.477V133.707C966.16 136.492 963.902 138.75 961.117 138.75L961.115 137.434C963.172 137.434 964.84 135.765 964.84 133.707V114.477C964.84 112.419 963.172 110.75 961.115 110.75L961.117 109.434Z" fill="#EAEBEC" mask="url(#path-26-inside-7_6012_8495)"/>
<rect x="921.605" y="118.366" width="37.0652" height="11.4514" rx="2.19265" fill="#F5F5F5"/>
</g>
<g opacity="0.7" clip-path="url(#clip2_6012_8495)">
<path d="M143.773 165.208C143.773 168.754 142.367 171.971 140.086 174.337C137.691 176.816 134.336 178.361 130.615 178.361C126.898 178.361 123.536 176.819 121.145 174.337C118.863 171.971 117.461 168.751 117.461 165.208C117.461 157.943 123.351 152.055 130.618 152.055C137.883 152.055 143.773 157.943 143.773 165.208Z" fill="#DFE0E1"/>
<path d="M128.011 157.976C128.011 157.38 128.495 156.894 129.094 156.894H131.865C133.593 156.894 134.996 158.296 134.996 160.023V163.383H128.403L128.011 157.976Z" fill="#535A5F"/>
<path d="M126.978 163.772H126.05V159.262C126.05 158.253 127.085 157.575 128.009 157.973C128.222 159.095 126.978 163.772 126.978 163.772Z" fill="#535A5F"/>
<path d="M132.625 167.348C132.333 168.625 131.545 169.544 130.618 169.544C129.69 169.544 128.899 168.625 128.61 167.345L128.835 166.478L128.902 166.22H132.333L132.589 167.211L132.613 167.3L132.625 167.348Z" fill="#D3D6DC"/>
<path d="M134.932 162.483C136.642 160.567 135.501 165.253 134.555 164.703C132.894 163.742 134.932 162.483 134.932 162.483Z" fill="#F4F4F4"/>
<path d="M140.085 174.336C139.197 175.255 138.178 176.046 137.055 176.678C135.324 177.651 133.353 178.244 131.251 178.345C131.041 178.357 130.828 178.36 130.615 178.36C129.553 178.36 128.525 178.235 127.537 177.998C126.161 177.67 124.869 177.122 123.7 176.398C122.763 175.818 121.905 175.124 121.145 174.336L121.37 173.442C121.714 172.101 122.769 171.058 124.117 170.736L124.266 170.702L125.918 170.307L126.368 170.201C126.56 170.155 126.739 170.091 126.913 170.006C127.056 169.936 127.193 169.857 127.324 169.763C127.463 169.662 127.594 169.55 127.71 169.428C128.026 169.097 128.261 168.686 128.379 168.224L128.556 167.543L128.601 167.36L128.604 167.345L128.829 166.478L128.896 166.22H132.328L132.583 167.211L132.608 167.299L132.62 167.348L132.623 167.36L132.672 167.546L132.848 168.224C133.012 168.856 133.39 169.398 133.904 169.763C134.184 169.966 134.506 170.115 134.856 170.201L135.273 170.301L137.11 170.739C138.458 171.061 139.517 172.104 139.857 173.445L140.085 174.336Z" fill="#F4F4F4"/>
<path d="M132.623 167.348C132.331 168.625 131.543 169.544 130.615 169.544C129.688 169.544 128.897 168.625 128.608 167.345L128.833 166.478L128.9 166.22H132.331L132.587 167.211L132.611 167.299L132.623 167.348Z" fill="#D3D6DC"/>
<path d="M126.299 162.483C124.589 160.567 125.73 165.253 126.676 164.703C128.337 163.742 126.299 162.483 126.299 162.483Z" fill="#F4F4F4"/>
<path d="M134.59 161.101C134.59 161.247 134.581 161.39 134.566 161.53C134.554 161.658 134.496 162.208 134.393 162.911L134.39 162.914C134.335 163.303 134.262 163.738 134.174 164.173C134.171 164.179 134.171 164.185 134.171 164.188C133.961 165.253 133.666 166.311 133.276 166.694C132.838 167.132 132.488 167.527 132.09 167.813C131.688 168.102 131.241 168.278 130.611 168.278C129.982 168.278 129.534 168.099 129.133 167.813C128.734 167.527 128.381 167.129 127.946 166.694C127.56 166.308 127.262 165.247 127.052 164.185V164.188C127.049 164.185 127.049 164.185 127.049 164.182C127.021 164.045 126.997 163.908 126.973 163.772C126.964 163.717 126.952 163.659 126.942 163.604C126.9 163.367 126.863 163.133 126.833 162.914C126.714 162.108 126.656 161.503 126.656 161.503C126.644 161.372 126.635 161.238 126.635 161.101C126.635 161.068 126.635 161.032 126.638 160.998C126.647 160.685 126.69 160.381 126.766 160.089C126.769 160.077 126.772 160.061 126.775 160.049C127.216 158.434 128.652 157.23 130.38 157.133C130.456 157.127 130.529 157.127 130.608 157.127C131.706 157.127 132.701 157.571 133.419 158.291C134.04 158.912 134.457 159.739 134.56 160.66C134.581 160.806 134.59 160.952 134.59 161.101Z" fill="#F4F4F4"/>
<path d="M131.239 164.675C131.239 164.948 130.959 165.17 130.612 165.17C130.268 165.17 129.988 164.948 129.988 164.675C129.988 164.641 129.991 164.608 130 164.577C130.055 164.805 130.308 164.979 130.612 164.979C130.916 164.979 131.169 164.805 131.223 164.577C131.236 164.608 131.239 164.641 131.239 164.675Z" fill="#DFE0E1"/>
<path d="M134.712 161.136C134.712 161.285 134.703 161.431 134.688 161.58C134.675 161.714 134.396 162.915 134.396 162.915C128.679 161.525 128.223 159.098 128.223 159.098C128.241 161.419 126.839 162.918 126.839 162.918C126.717 162.088 126.544 161.55 126.544 161.55C126.532 161.416 126.522 161.276 126.522 161.136C126.522 161.099 126.522 161.063 126.526 161.03C126.535 160.707 126.577 160.394 126.659 160.093C126.662 160.081 126.665 160.065 126.668 160.053C127.125 158.39 128.6 157.149 130.383 157.052C130.462 157.046 130.538 157.046 130.617 157.046C131.749 157.046 132.774 157.505 133.513 158.244C134.155 158.882 134.584 159.734 134.688 160.683C134.706 160.832 134.712 160.981 134.712 161.136Z" fill="#535A5F"/>
<path d="M140.087 174.343C137.693 176.822 134.334 178.363 130.617 178.363C126.899 178.363 123.538 176.822 121.146 174.34L121.372 173.449C121.715 172.105 122.771 171.065 124.119 170.742L125.923 170.314L126.37 170.207C126.571 170.158 126.768 170.089 126.948 169.997C127.864 170.974 129.166 171.582 130.611 171.582C132.056 171.582 133.358 170.97 134.273 169.997C134.456 170.086 134.648 170.158 134.851 170.207L135.25 170.301L137.112 170.745C138.46 171.068 139.518 172.111 139.859 173.452L140.087 174.343Z" fill="#6E7375"/>
<path d="M135.25 170.301C134.846 170.791 133.364 172.339 130.614 172.448C127.447 172.576 126.008 170.441 125.923 170.314L126.37 170.207C126.571 170.158 126.769 170.089 126.948 169.997C127.864 170.974 129.166 171.582 130.611 171.582C132.056 171.582 133.358 170.97 134.274 169.997C134.456 170.086 134.648 170.158 134.852 170.207L135.25 170.301Z" fill="#535A5F"/>
</g>
<rect x="223.605" y="155.476" width="37.0652" height="11.4514" rx="2.19265" fill="#F5F5F5"/>
<rect x="367.605" y="154.769" width="37.0652" height="11.4514" rx="2.19265" fill="#F5F5F5"/>
<rect x="511.605" y="157.7" width="37.0652" height="11.4514" rx="2.19265" fill="#F5F5F5"/>
<rect x="657.794" y="158.546" width="37.0652" height="11.4514" rx="2.19265" fill="#F5F5F5"/>
<rect x="798.926" y="156.491" width="37.0652" height="11.4514" rx="2.19265" fill="#F5F5F5"/>
<path d="M943.138 166.927C942.217 166.927 941.428 166.138 941.428 165.217C941.428 164.296 942.217 163.638 943.138 163.638C944.059 163.638 944.848 164.428 944.848 165.348C944.848 166.269 944.059 166.927 943.138 166.927Z" fill="#C7C7C7"/>
<path d="M949.716 166.927C948.795 166.927 948.006 166.138 948.006 165.217C948.006 164.296 948.795 163.507 949.584 163.507C950.505 163.507 951.295 164.296 951.295 165.217C951.295 166.138 950.637 166.927 949.716 166.927Z" fill="#C7C7C7"/>
<path d="M936.56 166.927C935.639 166.927 934.85 166.138 934.85 165.217C934.85 164.296 935.639 163.638 936.56 163.638C937.481 163.638 938.27 164.428 938.27 165.348C938.27 166.269 937.481 166.927 936.56 166.927Z" fill="#C7C7C7"/>
<g opacity="0.7" clip-path="url(#clip3_6012_8495)">
<path d="M143.773 217.208C143.773 220.754 142.367 223.971 140.086 226.337C137.691 228.816 134.336 230.361 130.615 230.361C126.898 230.361 123.536 228.819 121.145 226.337C118.863 223.971 117.461 220.751 117.461 217.208C117.461 209.943 123.351 204.055 130.618 204.055C137.883 204.055 143.773 209.943 143.773 217.208Z" fill="#DFE0E1"/>
<path d="M128.011 209.976C128.011 209.38 128.495 208.894 129.094 208.894H131.865C133.593 208.894 134.996 210.296 134.996 212.023V215.384H128.403L128.011 209.976Z" fill="#535A5F"/>
<path d="M126.978 215.773H126.05V211.263C126.05 210.253 127.085 209.575 128.009 209.973C128.222 211.095 126.978 215.773 126.978 215.773Z" fill="#535A5F"/>
<path d="M132.625 219.349C132.333 220.626 131.545 221.544 130.618 221.544C129.69 221.544 128.899 220.626 128.61 219.346L128.835 218.479L128.902 218.22H132.333L132.589 219.212L132.613 219.3L132.625 219.349Z" fill="#D3D6DC"/>
<path d="M134.932 214.483C136.642 212.567 135.501 217.254 134.555 216.703C132.894 215.742 134.932 214.483 134.932 214.483Z" fill="#F4F4F4"/>
<path d="M140.085 226.337C139.197 227.256 138.178 228.046 137.055 228.679C135.324 229.652 133.353 230.245 131.251 230.345C131.041 230.358 130.828 230.361 130.615 230.361C129.553 230.361 128.525 230.236 127.537 229.999C126.161 229.67 124.869 229.123 123.7 228.399C122.763 227.818 121.905 227.125 121.145 226.337L121.37 225.443C121.714 224.102 122.769 223.059 124.117 222.737L124.266 222.703L125.918 222.308L126.368 222.201C126.56 222.156 126.739 222.092 126.913 222.007C127.056 221.937 127.193 221.858 127.324 221.763C127.463 221.663 127.594 221.55 127.71 221.429C128.026 221.097 128.261 220.687 128.379 220.225L128.556 219.543L128.601 219.361L128.604 219.346L128.829 218.479L128.896 218.22H132.328L132.583 219.212L132.608 219.3L132.62 219.349L132.623 219.361L132.672 219.546L132.848 220.225C133.012 220.857 133.39 221.398 133.904 221.763C134.184 221.967 134.506 222.116 134.856 222.201L135.273 222.302L137.11 222.74C138.458 223.062 139.517 224.105 139.857 225.446L140.085 226.337Z" fill="#F4F4F4"/>
<path d="M132.623 219.349C132.331 220.626 131.543 221.544 130.615 221.544C129.688 221.544 128.897 220.626 128.608 219.346L128.833 218.479L128.9 218.22H132.331L132.587 219.212L132.611 219.3L132.623 219.349Z" fill="#D3D6DC"/>
<path d="M126.299 214.483C124.589 212.567 125.73 217.254 126.676 216.703C128.337 215.742 126.299 214.483 126.299 214.483Z" fill="#F4F4F4"/>
<path d="M134.59 213.102C134.59 213.248 134.581 213.391 134.566 213.531C134.554 213.659 134.496 214.209 134.393 214.912L134.39 214.915C134.335 215.304 134.262 215.739 134.174 216.174C134.171 216.18 134.171 216.186 134.171 216.189C133.961 217.254 133.666 218.312 133.276 218.695C132.838 219.133 132.488 219.528 132.09 219.814C131.688 220.103 131.241 220.279 130.611 220.279C129.982 220.279 129.534 220.1 129.133 219.814C128.734 219.528 128.381 219.13 127.946 218.695C127.56 218.309 127.262 217.247 127.052 216.186V216.189C127.049 216.186 127.049 216.186 127.049 216.183C127.021 216.046 126.997 215.909 126.973 215.773C126.964 215.718 126.952 215.66 126.942 215.605C126.9 215.368 126.863 215.134 126.833 214.915C126.714 214.109 126.656 213.504 126.656 213.504C126.644 213.373 126.635 213.239 126.635 213.102C126.635 213.069 126.635 213.032 126.638 212.999C126.647 212.686 126.69 212.382 126.766 212.09C126.769 212.078 126.772 212.062 126.775 212.05C127.216 210.435 128.652 209.231 130.38 209.134C130.456 209.128 130.529 209.128 130.608 209.128C131.706 209.128 132.701 209.572 133.419 210.292C134.04 210.913 134.457 211.74 134.56 212.661C134.581 212.807 134.59 212.953 134.59 213.102Z" fill="#F4F4F4"/>
<path d="M131.239 216.675C131.239 216.949 130.959 217.171 130.612 217.171C130.268 217.171 129.988 216.949 129.988 216.675C129.988 216.642 129.991 216.609 130 216.578C130.055 216.806 130.308 216.98 130.612 216.98C130.916 216.98 131.169 216.806 131.223 216.578C131.236 216.609 131.239 216.642 131.239 216.675Z" fill="#DFE0E1"/>
<path d="M134.712 213.136C134.712 213.285 134.703 213.431 134.688 213.58C134.675 213.714 134.396 214.915 134.396 214.915C128.679 213.525 128.223 211.098 128.223 211.098C128.241 213.419 126.839 214.918 126.839 214.918C126.717 214.088 126.544 213.55 126.544 213.55C126.532 213.416 126.522 213.276 126.522 213.136C126.522 213.099 126.522 213.063 126.526 213.03C126.535 212.707 126.577 212.394 126.659 212.093C126.662 212.081 126.665 212.065 126.668 212.053C127.125 210.39 128.6 209.149 130.383 209.052C130.462 209.046 130.538 209.046 130.617 209.046C131.749 209.046 132.774 209.505 133.513 210.244C134.155 210.882 134.584 211.734 134.688 212.683C134.706 212.832 134.712 212.981 134.712 213.136Z" fill="#535A5F"/>
<path d="M140.087 226.344C137.693 228.822 134.334 230.364 130.617 230.364C126.899 230.364 123.538 228.822 121.146 226.341L121.372 225.449C121.715 224.105 122.771 223.065 124.119 222.743L125.923 222.314L126.37 222.208C126.571 222.159 126.768 222.089 126.948 221.998C127.864 222.974 129.166 223.582 130.611 223.582C132.056 223.582 133.358 222.971 134.273 221.998C134.456 222.086 134.648 222.159 134.851 222.208L135.25 222.302L137.112 222.746C138.46 223.068 139.518 224.111 139.859 225.453L140.087 226.344Z" fill="#6E7375"/>
<path d="M135.25 222.302C134.846 222.792 133.364 224.339 130.614 224.449C127.447 224.577 126.008 222.442 125.923 222.314L126.37 222.208C126.571 222.159 126.769 222.089 126.948 221.998C127.864 222.974 129.166 223.582 130.611 223.582C132.056 223.582 133.358 222.971 134.274 221.998C134.456 222.086 134.648 222.159 134.852 222.208L135.25 222.302Z" fill="#535A5F"/>
</g>
<rect x="223.605" y="207.476" width="37.0652" height="11.4514" rx="2.19265" fill="#F5F5F5"/>
<rect x="367.605" y="206.769" width="37.0652" height="11.4514" rx="2.19265" fill="#F5F5F5"/>
<rect x="511.605" y="209.7" width="37.0652" height="11.4514" rx="2.19265" fill="#F5F5F5"/>
<rect x="657.794" y="210.546" width="37.0652" height="11.4514" rx="2.19265" fill="#F5F5F5"/>
<rect x="798.926" y="208.491" width="37.0652" height="11.4514" rx="2.19265" fill="#F5F5F5"/>
<path d="M943.138 211.78C942.217 211.78 941.428 210.991 941.428 210.07C941.428 209.149 942.217 208.491 943.138 208.491C944.059 208.491 944.848 209.281 944.848 210.201C944.848 211.122 944.059 211.78 943.138 211.78Z" fill="#C7C7C7"/>
<path d="M949.716 211.78C948.795 211.78 948.006 210.991 948.006 210.07C948.006 209.149 948.795 208.36 949.584 208.36C950.505 208.36 951.295 209.149 951.295 210.07C951.295 210.991 950.637 211.78 949.716 211.78Z" fill="#C7C7C7"/>
<path d="M936.56 211.78C935.639 211.78 934.85 210.991 934.85 210.07C934.85 209.149 935.639 208.491 936.56 208.491C937.481 208.491 938.27 209.281 938.27 210.201C938.27 211.122 937.481 211.78 936.56 211.78Z" fill="#C7C7C7"/>
<g opacity="0.7" clip-path="url(#clip4_6012_8495)">
<path d="M143.773 269.446C143.773 272.992 142.367 276.21 140.086 278.576C137.691 281.054 134.336 282.599 130.615 282.599C126.898 282.599 123.536 281.057 121.145 278.576C118.863 276.21 117.461 272.989 117.461 269.446C117.461 262.181 123.351 256.293 130.618 256.293C137.883 256.293 143.773 262.181 143.773 269.446Z" fill="#DFE0E1"/>
<path d="M128.011 262.214C128.011 261.618 128.495 261.132 129.094 261.132H131.865C133.593 261.132 134.996 262.534 134.996 264.261V267.621H128.403L128.011 262.214Z" fill="#535A5F"/>
<path d="M126.978 268.01H126.05V263.5C126.05 262.491 127.085 261.813 128.009 262.211C128.222 263.333 126.978 268.01 126.978 268.01Z" fill="#535A5F"/>
<path d="M132.625 271.587C132.333 272.864 131.545 273.782 130.618 273.782C129.69 273.782 128.899 272.864 128.61 271.584L128.835 270.717L128.902 270.458H132.333L132.589 271.45L132.613 271.538L132.625 271.587Z" fill="#D3D6DC"/>
<path d="M134.932 266.721C136.642 264.806 135.501 269.492 134.555 268.941C132.894 267.98 134.932 266.721 134.932 266.721Z" fill="#F4F4F4"/>
<path d="M140.085 278.575C139.197 279.494 138.178 280.284 137.055 280.917C135.324 281.89 133.353 282.483 131.251 282.583C131.041 282.596 130.828 282.599 130.615 282.599C129.553 282.599 128.525 282.474 127.537 282.237C126.161 281.908 124.869 281.361 123.7 280.637C122.763 280.056 121.905 279.363 121.145 278.575L121.37 277.681C121.714 276.34 122.769 275.297 124.117 274.975L124.266 274.941L125.918 274.546L126.368 274.439C126.56 274.394 126.739 274.33 126.913 274.245C127.056 274.175 127.193 274.096 127.324 274.001C127.463 273.901 127.594 273.789 127.71 273.667C128.026 273.335 128.261 272.925 128.379 272.463L128.556 271.781L128.601 271.599L128.604 271.584L128.829 270.717L128.896 270.458H132.328L132.583 271.45L132.608 271.538L132.62 271.587L132.623 271.599L132.672 271.784L132.848 272.463C133.012 273.095 133.39 273.636 133.904 274.001C134.184 274.205 134.506 274.354 134.856 274.439L135.273 274.54L137.11 274.978C138.458 275.3 139.517 276.343 139.857 277.684L140.085 278.575Z" fill="#F4F4F4"/>
<path d="M132.623 271.587C132.331 272.864 131.543 273.782 130.615 273.782C129.688 273.782 128.897 272.864 128.608 271.584L128.833 270.717L128.9 270.458H132.331L132.587 271.45L132.611 271.538L132.623 271.587Z" fill="#D3D6DC"/>
<path d="M126.299 266.721C124.589 264.806 125.73 269.492 126.676 268.941C128.337 267.98 126.299 266.721 126.299 266.721Z" fill="#F4F4F4"/>
<path d="M134.59 265.34C134.59 265.486 134.581 265.629 134.566 265.769C134.554 265.897 134.496 266.447 134.393 267.15L134.39 267.153C134.335 267.542 134.262 267.977 134.174 268.412C134.171 268.418 134.171 268.424 134.171 268.427C133.961 269.492 133.666 270.55 133.276 270.933C132.838 271.371 132.488 271.766 132.09 272.052C131.688 272.341 131.241 272.518 130.611 272.518C129.982 272.518 129.534 272.338 129.133 272.052C128.734 271.766 128.381 271.368 127.946 270.933C127.56 270.547 127.262 269.486 127.052 268.424V268.427C127.049 268.424 127.049 268.424 127.049 268.421C127.021 268.284 126.997 268.147 126.973 268.011C126.964 267.956 126.952 267.898 126.942 267.843C126.9 267.606 126.863 267.372 126.833 267.153C126.714 266.347 126.656 265.742 126.656 265.742C126.644 265.611 126.635 265.477 126.635 265.34C126.635 265.307 126.635 265.271 126.638 265.237C126.647 264.924 126.69 264.62 126.766 264.328C126.769 264.316 126.772 264.3 126.775 264.288C127.216 262.673 128.652 261.469 130.38 261.372C130.456 261.366 130.529 261.366 130.608 261.366C131.706 261.366 132.701 261.81 133.419 262.53C134.04 263.151 134.457 263.978 134.56 264.9C134.581 265.045 134.59 265.191 134.59 265.34Z" fill="#F4F4F4"/>
<path d="M131.239 268.913C131.239 269.187 130.959 269.409 130.612 269.409C130.268 269.409 129.988 269.187 129.988 268.913C129.988 268.88 129.991 268.847 130 268.816C130.055 269.044 130.308 269.218 130.612 269.218C130.916 269.218 131.169 269.044 131.223 268.816C131.236 268.847 131.239 268.88 131.239 268.913Z" fill="#DFE0E1"/>
<path d="M134.712 265.374C134.712 265.523 134.703 265.669 134.688 265.818C134.675 265.952 134.396 267.153 134.396 267.153C128.679 265.763 128.223 263.336 128.223 263.336C128.241 265.657 126.839 267.156 126.839 267.156C126.717 266.326 126.544 265.787 126.544 265.787C126.532 265.654 126.522 265.514 126.522 265.374C126.522 265.337 126.522 265.301 126.526 265.267C126.535 264.945 126.577 264.632 126.659 264.331C126.662 264.318 126.665 264.303 126.668 264.291C127.125 262.628 128.6 261.387 130.383 261.29C130.462 261.283 130.538 261.283 130.617 261.283C131.749 261.283 132.774 261.743 133.513 262.482C134.155 263.12 134.584 263.972 134.688 264.921C134.706 265.07 134.712 265.219 134.712 265.374Z" fill="#535A5F"/>
<path d="M140.087 278.581C137.693 281.059 134.334 282.601 130.617 282.601C126.899 282.601 123.538 281.059 121.146 278.578L121.372 277.687C121.715 276.343 122.771 275.303 124.119 274.98L125.923 274.551L126.37 274.445C126.571 274.396 126.768 274.326 126.948 274.235C127.864 275.211 129.166 275.82 130.611 275.82C132.056 275.82 133.358 275.208 134.273 274.235C134.456 274.323 134.648 274.396 134.851 274.445L135.25 274.539L137.112 274.983C138.46 275.306 139.518 276.349 139.859 277.69L140.087 278.581Z" fill="#6E7375"/>
<path d="M135.25 274.539C134.846 275.029 133.364 276.577 130.614 276.686C127.447 276.814 126.008 274.679 125.923 274.551L126.37 274.445C126.571 274.396 126.769 274.326 126.948 274.235C127.864 275.211 129.166 275.82 130.611 275.82C132.056 275.82 133.358 275.208 134.274 274.235C134.456 274.323 134.648 274.396 134.852 274.445L135.25 274.539Z" fill="#535A5F"/>
</g>
<rect x="223.39" y="259.714" width="37.0652" height="11.4514" rx="2.19265" fill="#F5F5F5"/>
<rect x="367.605" y="260.533" width="37.0652" height="11.4514" rx="2.19265" fill="#F5F5F5"/>
<rect x="511.605" y="259.714" width="37.0652" height="11.4514" rx="2.19265" fill="#F5F5F5"/>
<rect x="657.794" y="260.007" width="37.0652" height="11.4514" rx="2.19265" fill="#F5F5F5"/>
<rect x="798.926" y="257.952" width="37.0652" height="11.4514" rx="2.19265" fill="#F5F5F5"/>
<path d="M943.138 268.721C942.217 268.721 941.428 267.931 941.428 267.01C941.428 266.089 942.217 265.432 943.138 265.432C944.059 265.432 944.848 266.221 944.848 267.142C944.848 268.063 944.059 268.721 943.138 268.721Z" fill="#C7C7C7"/>
<path d="M949.716 268.721C948.795 268.721 948.006 267.931 948.006 267.01C948.006 266.089 948.795 265.3 949.584 265.3C950.505 265.3 951.295 266.089 951.295 267.01C951.295 267.931 950.637 268.721 949.716 268.721Z" fill="#C7C7C7"/>
<path d="M936.56 268.721C935.639 268.721 934.85 267.931 934.85 267.01C934.85 266.089 935.639 265.432 936.56 265.432C937.481 265.432 938.27 266.221 938.27 267.142C938.27 268.063 937.481 268.721 936.56 268.721Z" fill="#C7C7C7"/>
<rect width="1120" height="255" transform="translate(-24 232)" fill="url(#paint0_linear_6012_8495)"/>
</g>
<defs>
<filter id="filter0_d_6012_8495" x="-187.396" y="-228.308" width="1446.79" height="908.036" filterUnits="userSpaceOnUse" color-interpolation-filters="sRGB">
<feFlood flood-opacity="0" result="BackgroundImageFix"/>
<feColorMatrix in="SourceAlpha" type="matrix" values="0 0 0 0 0 0 0 0 0 0 0 0 0 0 0 0 0 0 127 0" result="hardAlpha"/>
<feOffset dy="-14.9125"/>
<feGaussianBlur stdDeviation="136.698"/>
<feComposite in2="hardAlpha" operator="out"/>
<feColorMatrix type="matrix" values="0 0 0 0 0.88 0 0 0 0 0.88 0 0 0 0 0.88 0 0 0 0.08 0"/>
<feBlend mode="normal" in2="BackgroundImageFix" result="effect1_dropShadow_6012_8495"/>
<feBlend mode="normal" in="SourceGraphic" in2="effect1_dropShadow_6012_8495" result="shape"/>
</filter>
<filter id="filter1_dd_6012_8495" x="-284.092" y="-345.621" width="1640.18" height="1101.43" filterUnits="userSpaceOnUse" color-interpolation-filters="sRGB">
<feFlood flood-opacity="0" result="BackgroundImageFix"/>
<feColorMatrix in="SourceAlpha" type="matrix" values="0 0 0 0 0 0 0 0 0 0 0 0 0 0 0 0 0 0 127 0" result="hardAlpha"/>
<feOffset dy="-17.7644"/>
<feGaussianBlur stdDeviation="148.037"/>
<feColorMatrix type="matrix" values="0 0 0 0 0.803922 0 0 0 0 0.803922 0 0 0 0 0.803922 0 0 0 0.08 0"/>
<feBlend mode="normal" in2="BackgroundImageFix" result="effect1_dropShadow_6012_8495"/>
<feColorMatrix in="SourceAlpha" type="matrix" values="0 0 0 0 0 0 0 0 0 0 0 0 0 0 0 0 0 0 127 0" result="hardAlpha"/>
<feOffset dy="-35.5289"/>
<feGaussianBlur stdDeviation="185.046"/>
<feColorMatrix type="matrix" values="0 0 0 0 0.803922 0 0 0 0 0.803922 0 0 0 0 0.803922 0 0 0 0.12 0"/>
<feBlend mode="normal" in2="effect1_dropShadow_6012_8495" result="effect2_dropShadow_6012_8495"/>
<feBlend mode="normal" in="SourceGraphic" in2="effect2_dropShadow_6012_8495" result="shape"/>
</filter>
<linearGradient id="paint0_linear_6012_8495" x1="560" y1="255" x2="560" y2="0" gradientUnits="userSpaceOnUse">
<stop stop-color="white"/>
<stop offset="0.463233" stop-color="white"/>
<stop offset="0.649397" stop-color="white"/>
<stop offset="0.849183" stop-color="white" stop-opacity="0.6"/>
<stop offset="1" stop-color="white" stop-opacity="0"/>
</linearGradient>
<clipPath id="clip0_6012_8495">
<rect width="1072" height="421" fill="white"/>
</clipPath>
<clipPath id="clip1_6012_8495">
<rect x="106.5" y="107.092" width="859" height="34" rx="4.3853" fill="white"/>
</clipPath>
<clipPath id="clip2_6012_8495">
<rect width="26.3118" height="26.3118" fill="white" transform="translate(117.463 152.055)"/>
</clipPath>
<clipPath id="clip3_6012_8495">
<rect width="26.3118" height="26.3118" fill="white" transform="translate(117.463 204.055)"/>
</clipPath>
<clipPath id="clip4_6012_8495">
<rect width="26.3118" height="26.3118" fill="white" transform="translate(117.463 256.293)"/>
</clipPath>
</defs>
</svg>
