<svg width="20" height="20" viewBox="0 0 20 20" fill="none" xmlns="http://www.w3.org/2000/svg">
<g clip-path="url(#clip0_2746_1202)">
<path d="M15.654 17C15.4818 16.9989 15.3159 16.9324 15.1875 16.813C15.0591 16.6935 14.977 16.5294 14.9566 16.3514C14.9407 16.1597 14.9967 15.9689 15.1128 15.8192C15.229 15.6694 15.3962 15.5722 15.5796 15.5479C16.4142 15.4447 17.1852 15.032 17.7514 14.3852C18.3175 13.7385 18.6409 12.9011 18.6624 12.0264C18.6838 11.1517 18.4019 10.2982 17.8682 9.62223C17.3345 8.94627 16.5848 8.49307 15.7563 8.34565C15.5689 9.30049 15.1568 10.192 14.5568 10.94C14.4404 11.0882 14.2725 11.1825 14.0896 11.2024C13.9068 11.2223 13.7238 11.1663 13.5804 11.0465C13.4375 10.9236 13.3467 10.7472 13.3276 10.5552C13.3084 10.3633 13.3625 10.1712 13.4781 10.0204C14.0487 9.30674 14.3959 8.42846 14.4731 7.50345C14.4731 7.36792 14.4731 7.23239 14.4731 7.08719C14.461 5.9818 14.0668 4.91794 13.3626 4.09048C12.6585 3.26301 11.6916 2.72732 10.639 2.58153C9.58646 2.43573 8.51865 2.68959 7.63121 3.29661C6.74376 3.90363 6.09607 4.82316 5.80677 5.88681C6.81896 5.96893 7.78721 6.35197 8.59635 6.99038C8.66962 7.04759 8.73134 7.11926 8.77801 7.2013C8.82467 7.28334 8.85535 7.37415 8.8683 7.46853C8.88125 7.56292 8.87622 7.65904 8.85349 7.7514C8.83076 7.84376 8.79078 7.93056 8.73583 8.00683C8.68088 8.08311 8.61204 8.14737 8.53323 8.19595C8.45443 8.24452 8.3672 8.27647 8.27654 8.28995C8.18588 8.30343 8.09355 8.29819 8.00483 8.27453C7.91612 8.25087 7.83274 8.20925 7.75948 8.15204C6.96109 7.52571 5.96397 7.23851 4.96989 7.34856C4.02853 7.44839 3.1526 7.89574 2.5006 8.60964C1.8486 9.32354 1.46361 10.2568 1.41529 11.2406C1.36697 12.2244 1.65853 13.1937 2.23719 13.9732C2.81584 14.7526 3.64338 15.2906 4.57005 15.4898C4.66047 15.5082 4.74643 15.5453 4.82282 15.5989C4.89922 15.6525 4.96451 15.7215 5.0148 15.8018C5.0651 15.8822 5.09939 15.9722 5.11563 16.0666C5.13188 16.161 5.12975 16.2579 5.10937 16.3514C5.07131 16.5382 4.96409 16.7019 4.81093 16.807C4.65777 16.9121 4.471 16.9501 4.29109 16.9129C3.08012 16.6571 1.99135 15.9733 1.20929 14.9774C0.427233 13.9814 0 12.7346 0 11.4482C0 10.1619 0.427233 8.91505 1.20929 7.91911C1.99135 6.92317 3.08012 6.23938 4.29109 5.98361C4.54485 4.50866 5.31532 3.1842 6.45329 2.26673C7.59127 1.34926 9.01579 0.904054 10.451 1.01732C11.8862 1.13059 13.23 1.79427 14.2221 2.87984C15.2142 3.96542 15.7841 5.39565 15.8214 6.89358C16.9962 7.07365 18.0679 7.69252 18.8367 8.63473C19.6055 9.57693 20.0187 10.7781 19.9994 12.0142C19.98 13.2503 19.5294 14.4368 18.7315 15.3524C17.9337 16.268 16.8431 16.8502 15.6633 16.9903L15.654 17Z" fill="#7B68EE"/>
<path d="M10.0001 20C9.81579 19.9973 9.63973 19.9154 9.50941 19.7718C9.37909 19.6281 9.30481 19.4339 9.3024 19.2308V12.6051C9.07915 12.8923 8.86519 13.1897 8.73496 13.3846C8.60473 13.5795 8.30705 13.9692 8.17682 14.1231C8.1229 14.2234 8.049 14.3089 7.96069 14.3731C7.87239 14.4373 7.772 14.4786 7.66711 14.4937C7.56223 14.5088 7.45559 14.4975 7.35527 14.4605C7.25496 14.4235 7.16358 14.3618 7.08806 14.2802C7.01254 14.1985 6.95485 14.099 6.91936 13.9891C6.88386 13.8792 6.87149 13.7619 6.88318 13.646C6.89486 13.5301 6.9303 13.4186 6.98682 13.32C7.04333 13.2214 7.11944 13.1383 7.20938 13.0769C7.32101 12.9436 7.47915 12.7179 7.67449 12.4513C8.60473 11.1795 9.2838 10.2769 10.0373 10.2769C10.7908 10.2769 11.4978 11.1795 12.4001 12.4513C12.5954 12.7179 12.7536 12.9436 12.8652 13.0769C12.9484 13.1438 13.0172 13.2302 13.0666 13.3299C13.116 13.4296 13.1447 13.5401 13.1507 13.6535C13.1567 13.7669 13.1399 13.8804 13.1015 13.9858C13.063 14.0911 13.0038 14.1858 12.9282 14.263C12.8526 14.3401 12.7625 14.3979 12.6642 14.4321C12.566 14.4663 12.4621 14.4761 12.36 14.4607C12.258 14.4454 12.1602 14.4053 12.0739 14.3434C11.9875 14.2815 11.9147 14.1992 11.8605 14.1026C11.7303 13.9487 11.535 13.682 11.3024 13.3641C11.0698 13.0461 10.9582 12.8718 10.735 12.5846V19.2308C10.7338 19.3349 10.7137 19.4377 10.6759 19.5332C10.6381 19.6286 10.5833 19.7147 10.5148 19.7864C10.4463 19.8581 10.3654 19.914 10.277 19.9507C10.1886 19.9873 10.0945 20.0041 10.0001 20Z" fill="#7B68EE"/>
</g>
<defs>
<clipPath id="clip0_2746_1202">
<rect width="20" height="20" fill="white"/>
</clipPath>
</defs>
</svg>
