<svg width="187" height="219" viewBox="0 0 187 219" fill="none" xmlns="http://www.w3.org/2000/svg">
<path d="M113.667 75.3116C114.84 75.3116 115.791 74.3607 115.791 73.1876C115.791 72.0146 114.84 71.0637 113.667 71.0637C112.494 71.0637 111.543 72.0146 111.543 73.1876C111.543 74.3607 112.494 75.3116 113.667 75.3116Z" fill="#EBF5FF"/>
<path d="M66.9967 117.535C66.9967 118.318 66.3632 118.958 65.5745 118.958C64.792 118.958 64.1523 118.324 64.1523 117.535C64.1523 116.753 64.7858 116.113 65.5745 116.113C66.3632 116.113 66.9967 116.753 66.9967 117.535Z" fill="#84B4FE"/>
<path d="M123.778 110.07L122.927 109.617C122.871 109.586 122.828 109.543 122.803 109.493L122.349 108.642C122.231 108.425 121.927 108.425 121.809 108.642L121.356 109.493C121.325 109.549 121.281 109.592 121.232 109.617L120.381 110.07C120.163 110.188 120.163 110.493 120.381 110.611L121.232 111.064C121.287 111.095 121.331 111.139 121.356 111.188L121.809 112.039C121.927 112.256 122.231 112.256 122.349 112.039L122.803 111.188C122.834 111.132 122.877 111.089 122.927 111.064L123.778 110.611C123.995 110.493 123.995 110.182 123.778 110.07Z" fill="#EBF5FF"/>
<path d="M73.6353 81.5964L72.5609 81.0188C72.4926 80.9815 72.4367 80.9257 72.4056 80.8636L71.8281 79.7892C71.6853 79.5159 71.294 79.5159 71.145 79.7892L70.5674 80.8636C70.5301 80.9319 70.4742 80.9878 70.4121 81.0188L69.3378 81.5964C69.0645 81.7392 69.0645 82.1305 69.3378 82.2795L70.4121 82.8571C70.4805 82.8943 70.5364 82.9502 70.5674 83.0123L71.145 84.0867C71.2878 84.36 71.679 84.36 71.8281 84.0867L72.4056 83.0123C72.4429 82.944 72.4988 82.8881 72.5609 82.8571L73.6353 82.2795C73.9023 82.1305 73.9023 81.7392 73.6353 81.5964Z" fill="#C1DDF7"/>
<path d="M148.036 103.134L146.738 102.438C146.657 102.395 146.589 102.326 146.545 102.246L145.85 100.948C145.676 100.619 145.204 100.619 145.03 100.948L144.334 102.246C144.291 102.326 144.223 102.395 144.142 102.438L142.844 103.134C142.515 103.308 142.515 103.78 142.844 103.954L144.142 104.649C144.223 104.693 144.291 104.761 144.334 104.842L145.03 106.14C145.204 106.469 145.676 106.469 145.85 106.14L146.545 104.842C146.589 104.761 146.657 104.693 146.738 104.649L148.036 103.954C148.365 103.786 148.365 103.314 148.036 103.134Z" fill="#C1DDF7"/>
<path d="M46.9442 98.1405L45.758 97.5009C45.6835 97.4636 45.6214 97.4015 45.5841 97.327L44.9445 96.1408C44.783 95.8427 44.3545 95.8427 44.193 96.1408L43.5534 97.327C43.5161 97.4015 43.454 97.4636 43.3795 97.5009L42.1933 98.1405C41.8952 98.302 41.8952 98.7305 42.1933 98.892L43.3795 99.5316C43.454 99.5689 43.5161 99.631 43.5534 99.7055L44.193 100.892C44.3545 101.19 44.783 101.19 44.9445 100.892L45.5841 99.7055C45.6214 99.631 45.6835 99.5689 45.758 99.5316L46.9442 98.892C47.2485 98.7367 47.2485 98.302 46.9442 98.1405Z" fill="#84B4FE"/>
<path d="M126.243 90.7378L125.374 90.272C125.318 90.241 125.274 90.1975 125.243 90.1416L124.778 89.2722C124.66 89.0548 124.343 89.0548 124.225 89.2722L123.759 90.1416C123.728 90.1975 123.685 90.241 123.629 90.272L122.759 90.7378C122.542 90.8558 122.542 91.1725 122.759 91.2905L123.629 91.7563C123.685 91.7873 123.728 91.8308 123.759 91.8867L124.225 92.7561C124.343 92.9735 124.66 92.9735 124.778 92.7561L125.243 91.8867C125.274 91.8308 125.318 91.7873 125.374 91.7563L126.243 91.2905C126.461 91.1725 126.461 90.8558 126.243 90.7378Z" fill="#84B4FE"/>
<path d="M103.52 153.493H91.1431V211.616H103.52V153.493Z" fill="#FDB022"/>
<path d="M100.601 156.81C100.601 154.313 98.5761 152.282 96.0734 152.282C93.5768 152.282 91.5461 154.307 91.5461 156.81C91.5461 156.81 90.9623 167.51 96.0734 173.205C101.184 167.516 100.601 156.81 100.601 156.81Z" fill="#EBF5FF"/>
<mask id="mask0_3693_3606" style="mask-type:luminance" maskUnits="userSpaceOnUse" x="0" y="182" width="187" height="37">
<path d="M186.489 182.551H0.0805664V218.627H186.489V182.551Z" fill="white"/>
</mask>
<g mask="url(#mask0_3693_3606)">
<path d="M81.8076 228.303C89.758 228.303 96.2031 221.947 96.2031 214.106C96.2031 206.265 89.758 199.909 81.8076 199.909C73.8572 199.909 67.4121 206.265 67.4121 214.106C67.4121 221.947 73.8572 228.303 81.8076 228.303Z" fill="#FDB022"/>
<path d="M125.852 226.825C132.976 226.825 138.751 221.13 138.751 214.106C138.751 207.082 132.976 201.387 125.852 201.387C118.728 201.387 112.953 207.082 112.953 214.106C112.953 221.13 118.728 226.825 125.852 226.825Z" fill="#FDB022"/>
<path d="M104.575 213.025C110.145 213.025 114.661 208.574 114.661 203.082C114.661 197.591 110.145 193.14 104.575 193.14C99.0052 193.14 94.4897 197.591 94.4897 203.082C94.4897 208.574 99.0052 213.025 104.575 213.025Z" fill="#FDB022"/>
<path d="M86.1923 203.977C90.0715 203.977 93.2162 200.877 93.2162 197.052C93.2162 193.228 90.0715 190.128 86.1923 190.128C82.3131 190.128 79.1685 193.228 79.1685 197.052C79.1685 200.877 82.3131 203.977 86.1923 203.977Z" fill="#FDB022"/>
<path d="M104.109 196.059C106.76 196.059 108.91 193.94 108.91 191.326C108.91 188.713 106.76 186.594 104.109 186.594C101.458 186.594 99.3086 188.713 99.3086 191.326C99.3086 193.94 101.458 196.059 104.109 196.059Z" fill="#FDB022"/>
<path d="M95.5697 211.367C100.269 211.367 104.078 207.611 104.078 202.977C104.078 198.343 100.269 194.587 95.5697 194.587C90.8708 194.587 87.0615 198.343 87.0615 202.977C87.0615 207.611 90.8708 211.367 95.5697 211.367Z" fill="#FDB022"/>
<path d="M27.6488 260.957C42.0165 260.957 53.6638 249.474 53.6638 235.308C53.6638 221.143 42.0165 209.66 27.6488 209.66C13.2811 209.66 1.63379 221.143 1.63379 235.308C1.63379 249.474 13.2811 260.957 27.6488 260.957Z" fill="#FDB022"/>
<path d="M58.8796 239.841C69.6528 239.841 78.3862 231.233 78.3862 220.614C78.3862 209.995 69.6528 201.387 58.8796 201.387C48.1064 201.387 39.373 209.995 39.373 220.614C39.373 231.233 48.1064 239.841 58.8796 239.841Z" fill="#FDB022"/>
<path d="M154.271 260.882C169.496 260.882 181.838 248.712 181.838 233.7C181.838 218.687 169.496 206.517 154.271 206.517C139.046 206.517 126.703 218.687 126.703 233.7C126.703 248.712 139.046 260.882 154.271 260.882Z" fill="#FDB022"/>
<path d="M85.8938 246.561C96.667 246.561 105.4 237.953 105.4 227.334C105.4 216.715 96.667 208.107 85.8938 208.107C75.1206 208.107 66.3872 216.715 66.3872 227.334C66.3872 237.953 75.1206 246.561 85.8938 246.561Z" fill="#FDB022"/>
<path d="M109.332 246.561C121.439 246.561 131.254 236.885 131.254 224.949C131.254 213.013 121.439 203.337 109.332 203.337C97.2242 203.337 87.4092 213.013 87.4092 224.949C87.4092 236.885 97.2242 246.561 109.332 246.561Z" fill="#FDB022"/>
</g>
<path d="M94.4541 146.615C127.489 146.615 154.269 119.587 154.269 86.2473C154.269 52.9072 127.489 25.8796 94.4541 25.8796C61.4195 25.8796 34.6396 52.9072 34.6396 86.2473C34.6396 119.587 61.4195 146.615 94.4541 146.615Z" fill="#F2F0FD"/>
<path d="M107.239 169.333C103.437 177.335 100.049 182.007 96.5156 199.884C96.5044 199.918 96.5044 199.963 96.4932 199.997C96.4821 199.952 96.4821 199.918 96.4709 199.884C92.9372 182.007 89.549 177.335 85.747 169.333C81.9338 161.298 85.747 151.513 85.747 151.513L96.4709 150.757H96.5156L107.239 151.513C107.239 151.513 111.053 161.298 107.239 169.333Z" fill="#FDB022"/>
<path d="M96.4839 181.082C94.8848 176.33 93.2745 173.103 91.6084 169.785C91.0716 168.701 90.5125 167.584 89.9534 166.41C88.1195 162.562 88.8799 155.169 89.5173 152.472H96.1708H103.003C103.652 155.169 104.837 162.55 103.003 166.41C102.444 167.584 101.885 168.701 101.348 169.785C99.6932 173.114 98.083 176.33 96.4839 181.082Z" fill="#F9A134"/>
<path d="M79.6928 124.202C79.2679 124.191 76.0138 124.168 72.9498 125.872C69.0807 128.017 65.4912 132.903 68.2421 144.02C70.3555 152.529 70.7805 158.499 70.6463 162.438C70.6127 163.488 69.9194 164.187 69.1031 164.413C68.2197 164.661 67.1798 164.357 66.6542 163.352C61.9464 154.369 53.4143 136.007 54.7562 123.209C55.6507 114.699 61.3202 106.291 66.9225 99.8923C72.1783 93.877 77.3781 89.6336 78.5075 88.7307C77.7471 99.5651 77.8925 109.621 78.8989 118.48V118.491C78.9212 118.706 78.9436 118.92 78.9771 119.135C79.1784 120.873 79.4244 122.565 79.6928 124.202Z" fill="#7B68EE"/>
<path opacity="0.2" d="M79.6938 124.202C79.2689 124.191 76.0148 124.168 72.9509 125.872C69.0818 128.017 65.4922 132.903 68.2431 144.02C70.3566 152.529 70.7815 158.499 70.6473 162.438C70.6138 163.488 69.9205 164.187 69.1042 164.413C68.724 163.375 68.545 162.201 68.6792 160.892C69.4508 153.139 62.0145 139.28 62.4283 129.946C62.5625 126.843 63.513 124.27 64.7318 122.204C68.0977 116.482 69.2048 109.688 67.6952 103.21L66.9236 99.8923C72.1793 93.877 77.3791 89.6336 78.5085 88.7307C77.7481 99.5651 77.8935 109.621 78.8999 118.48V118.491C78.9223 118.706 78.9446 118.92 78.9782 119.135C78.9893 119.214 79.0005 119.304 79.0117 119.383C79.0453 119.654 79.0788 119.936 79.1124 120.207C79.1571 120.557 79.2018 120.918 79.2577 121.268C79.2689 121.324 79.2689 121.369 79.2801 121.414C79.3248 121.764 79.3807 122.103 79.4255 122.441C79.5037 123.039 79.5932 123.626 79.6938 124.202Z" fill="#0F0E16"/>
<path d="M112.668 124.202C113.093 124.191 116.347 124.168 119.411 125.872C123.28 128.017 126.87 132.903 124.119 144.02C122.005 152.529 121.58 158.499 121.714 162.438C121.748 163.488 122.441 164.187 123.258 164.413C124.141 164.661 125.181 164.357 125.707 163.352C130.414 154.369 138.947 136.007 137.605 123.209C136.71 114.699 131.041 106.291 125.438 99.8923C120.183 93.877 114.983 89.6336 113.853 88.7307C114.614 99.5651 114.468 109.621 113.462 118.48V118.491C113.44 118.706 113.417 118.92 113.384 119.135C113.182 120.873 112.948 122.565 112.668 124.202Z" fill="#7B68EE"/>
<path opacity="0.2" d="M112.668 124.202C113.093 124.191 116.347 124.168 119.411 125.872C123.28 128.017 126.87 132.903 124.119 144.02C122.005 152.529 121.58 158.499 121.714 162.438C121.748 163.488 122.441 164.187 123.258 164.413C123.638 163.375 123.817 162.201 123.683 160.892C122.911 153.139 130.347 139.28 129.934 129.946C129.799 126.843 128.849 124.27 127.63 122.204C124.264 116.482 123.157 109.688 124.667 103.21L125.438 99.8923C120.183 93.877 114.983 89.6336 113.853 88.7307C114.614 99.5651 114.468 109.621 113.462 118.48V118.491C113.44 118.706 113.417 118.92 113.384 119.135C113.372 119.214 113.361 119.304 113.35 119.383C113.317 119.654 113.283 119.936 113.249 120.207C113.205 120.557 113.16 120.918 113.104 121.268C113.093 121.324 113.093 121.369 113.082 121.414C113.037 121.764 112.981 122.103 112.936 122.441C112.858 123.039 112.769 123.626 112.668 124.202Z" fill="#0F0E16"/>
<path d="M109.433 147.022C108.695 150.712 108.248 152.845 108.248 152.845C103.283 154.56 98.3176 155.204 93.3638 154.764C90.4229 154.504 87.4707 153.861 84.5298 152.845C84.5298 152.845 84.0489 150.554 83.255 146.615C79.5424 128.129 68.9975 73.427 69.4783 50.9005C69.5901 45.5511 70.6972 40.2919 72.3969 35.3036C72.9337 33.7236 73.5263 32.1774 74.1749 30.6539C74.6781 29.4688 75.2037 28.3064 75.7628 27.1666C81.3093 15.7228 89.1481 6.47972 93.3862 1.92026C94.1466 1.10769 95.1418 0.678829 96.1594 0.6224C97.3336 0.554686 98.5301 0.983545 99.4023 1.92026C103.696 6.53615 111.681 15.9598 117.227 27.5954C117.741 28.6676 118.222 29.7623 118.692 30.8683C119.329 32.3919 119.922 33.9493 120.459 35.5293C122.114 40.4499 123.187 45.6301 123.299 50.9005C123.78 73.5962 113.078 128.93 109.433 147.022Z" fill="#F2F0FD"/>
<path d="M109.435 147.022C108.697 150.712 108.249 152.845 108.249 152.845C103.284 154.56 98.3195 155.204 93.3657 154.764C90.4247 154.504 87.4726 153.861 84.5316 152.845C84.5316 152.845 84.0508 150.554 83.2568 146.615C84.6434 147.383 89.2394 149.583 96.3849 149.583C102.524 149.583 107.232 147.958 109.435 147.022Z" fill="#7B68EE"/>
<path d="M120.461 35.5295C113.483 37.3917 104.638 39.1861 96.3739 39.1861C88.2667 39.1861 79.4662 37.3014 72.3989 35.3038C72.9357 33.7238 73.5283 32.1776 74.1769 30.6541C80.8528 32.5275 89.0159 34.2429 96.3739 34.2429C103.877 34.2429 112.074 32.6178 118.694 30.8685C119.331 32.4033 119.924 33.9495 120.461 35.5295Z" fill="#7B68EE"/>
<path opacity="0.2" d="M93.3632 154.763C90.4222 154.504 87.4701 153.861 84.5291 152.845C84.5291 152.845 68.9073 78.2233 69.4776 50.9005C69.5895 45.551 70.6965 40.2918 72.3962 35.3035C72.933 33.7235 73.5257 32.1774 74.1742 30.6538C74.6774 29.4688 75.203 28.3063 75.7621 27.1665C81.3086 15.7227 89.1474 6.47963 93.3855 1.92018C94.1459 1.1076 95.1412 0.678743 96.1588 0.622314C91.5069 10.8247 80.3469 47.9887 93.3632 154.763Z" fill="#0F0E16"/>
<path d="M117.231 27.595C114.234 28.4188 110.712 29.1524 106.698 29.6603C103.522 30.0553 100.055 30.2923 96.2867 30.2923C86.9271 30.2923 80.2848 28.8251 75.7671 27.1661C81.3135 15.7223 89.1524 6.47926 93.3905 1.93109C94.2292 1.02823 95.3586 0.599368 96.488 0.62194C97.5503 0.644511 98.6015 1.08466 99.3954 1.93109C103.276 6.09554 110.175 14.1987 115.565 24.3108C116.135 25.3829 116.695 26.4777 117.231 27.595Z" fill="#7B68EE"/>
<path d="M97.5404 163.206C97.3391 163.736 96.8583 164.007 96.3886 164.007C95.9189 164.007 95.4381 163.736 95.2368 163.206C87.6664 143.456 92.6537 110.998 95.1809 97.8497C95.3151 97.1726 95.8519 96.834 96.3886 96.834C96.9254 96.834 97.4733 97.1726 97.5963 97.8497C100.124 110.998 105.122 143.456 97.5404 163.206Z" fill="#7B68EE"/>
<path opacity="0.2" d="M96.3886 96.834V164.007C95.9189 164.007 95.4381 163.736 95.2368 163.206C87.6664 143.456 92.6537 110.998 95.1809 97.8497C95.3039 97.1726 95.8519 96.834 96.3886 96.834Z" fill="#0F0E16"/>
<path d="M106.587 76.8119C112.185 71.1617 112.185 62.0009 106.587 56.3507C100.988 50.7005 91.9115 50.7005 86.3131 56.3507C80.7147 62.0009 80.7147 71.1617 86.3131 76.8119C91.9115 82.4621 100.988 82.4621 106.587 76.8119Z" fill="#7B68EE"/>
<path d="M107.802 66.5766C107.802 66.6218 107.802 66.6782 107.802 66.7234C107.724 72.9193 102.748 77.9414 96.6087 78.0204C96.564 78.0204 96.5081 78.0204 96.4634 78.0204C95.4011 78.0204 94.3611 77.8737 93.3882 77.5916C91.6102 77.0837 90 76.147 88.6916 74.9056C87.5734 73.8334 86.6564 72.5468 86.0414 71.091C85.4488 69.7028 85.1133 68.1792 85.1133 66.5654C85.1133 60.2566 90.2013 55.1216 96.4522 55.1216C98.0401 55.1216 99.5609 55.4489 100.936 56.0583C102.368 56.679 103.654 57.5932 104.716 58.733C105.946 60.0535 106.874 61.6786 107.377 63.4731C107.646 64.4549 107.802 65.5045 107.802 66.5766Z" fill="#DFDBFB"/>
<path d="M104.705 58.7326L88.681 74.9051C87.5627 73.833 86.6458 72.5464 86.0308 71.0905L100.926 56.0579C102.368 56.6899 103.654 57.604 104.705 58.7326Z" fill="#141F57"/>
<path d="M107.801 66.5761C107.801 66.6212 107.801 66.6776 107.801 66.7228L96.6072 78.0198C96.5625 78.0198 96.5066 78.0198 96.4619 78.0198C95.3995 78.0198 94.3596 77.8731 93.3867 77.591L107.387 63.4612C107.644 64.4543 107.801 65.5039 107.801 66.5761Z" fill="#141F57"/>
<path opacity="0.1" d="M107.377 63.4731C106.874 61.6786 105.946 60.0535 104.716 58.733C103.665 57.6045 102.379 56.679 100.936 56.0583C99.5609 55.4602 98.0513 55.1216 96.4522 55.1216C90.2013 55.1216 85.1133 60.2566 85.1133 66.5654C85.1133 66.8814 85.1245 67.1974 85.1468 67.5021C85.6277 61.6335 90.5144 57.0063 96.4522 57.0063C98.0401 57.0063 99.5609 57.3336 100.936 57.943C102.368 58.5637 103.654 59.4779 104.716 60.6178C105.946 61.9382 106.874 63.5521 107.377 65.3578C107.567 66.0575 107.702 66.7798 107.758 67.5246C107.78 67.2651 107.791 66.9942 107.791 66.7346C107.791 66.6895 107.791 66.6331 107.791 66.5879C107.802 65.5045 107.646 64.4549 107.377 63.4731Z" fill="#0F0E16"/>
<path opacity="0.2" d="M117.231 27.595C114.234 28.4188 110.712 29.1524 106.698 29.6603C103.522 30.0553 100.055 30.2923 96.2867 30.2923C86.9271 30.2923 80.2848 28.8251 75.7671 27.1661C81.3135 15.7223 89.1524 6.47926 93.3905 1.93109C94.2292 1.02823 95.3586 0.599368 96.488 0.62194C96.3203 0.825084 90.1923 8.22856 90.4607 17.2459C90.7291 26.3761 106.574 28.306 115.554 24.3108C116.135 25.3829 116.695 26.4777 117.231 27.595Z" fill="#0F0E16"/>
</svg>
