<svg width="20" height="21" viewBox="0 0 20 21" fill="none" xmlns="http://www.w3.org/2000/svg">
<path fill-rule="evenodd" clip-rule="evenodd" d="M5.20817 10.8703C5.20817 10.5251 5.48799 10.2453 5.83317 10.2453H9.1665C9.51168 10.2453 9.7915 10.5251 9.7915 10.8703C9.7915 11.2155 9.51168 11.4953 9.1665 11.4953H5.83317C5.48799 11.4953 5.20817 11.2155 5.20817 10.8703Z" fill="#0F0E16"/>
<path fill-rule="evenodd" clip-rule="evenodd" d="M5.20817 14.2036C5.20817 13.8584 5.48799 13.5786 5.83317 13.5786H12.4998C12.845 13.5786 13.1248 13.8584 13.1248 14.2036C13.1248 14.5488 12.845 14.8286 12.4998 14.8286H5.83317C5.48799 14.8286 5.20817 14.5488 5.20817 14.2036Z" fill="#0F0E16"/>
<path fill-rule="evenodd" clip-rule="evenodd" d="M1.0415 3.37028C1.0415 2.10463 2.06752 1.07861 3.33317 1.07861H7.08317C7.42835 1.07861 7.70817 1.35844 7.70817 1.70361C7.70817 2.04879 7.42835 2.32861 7.08317 2.32861H3.33317C2.75787 2.32861 2.2915 2.79498 2.2915 3.37028V16.7036C2.2915 17.2789 2.75787 17.7453 3.33317 17.7453H14.9998C15.5752 17.7453 16.0415 17.2789 16.0415 16.7036V11.7036C16.0415 11.3584 16.3213 11.0786 16.6665 11.0786C17.0117 11.0786 17.2915 11.3584 17.2915 11.7036V16.7036C17.2915 17.9693 16.2655 18.9953 14.9998 18.9953H3.33317C2.06752 18.9953 1.0415 17.9693 1.0415 16.7036V3.37028Z" fill="#0F0E16"/>
<path d="M12.1084 5.42834C11.8643 5.18426 11.4687 5.18426 11.2246 5.42834C10.9805 5.67241 10.9805 6.06815 11.2246 6.31222L12.1084 5.42834ZM12.9165 7.12028L12.4746 7.56222C12.5988 7.68639 12.7694 7.7526 12.9448 7.74464C13.1203 7.73668 13.2843 7.6553 13.3967 7.5204L12.9165 7.12028ZM15.48 5.0204C15.7009 4.75522 15.6651 4.36112 15.3999 4.14014C15.1348 3.91916 14.7407 3.95499 14.5197 4.22016L15.48 5.0204ZM18.1248 5.87028C18.1248 3.22391 15.9795 1.07861 13.3332 1.07861V2.32861C15.2892 2.32861 16.8748 3.91427 16.8748 5.87028H18.1248ZM13.3332 1.07861C10.6868 1.07861 8.5415 3.22391 8.5415 5.87028H9.7915C9.7915 3.91427 11.3772 2.32861 13.3332 2.32861V1.07861ZM8.5415 5.87028C8.5415 8.51661 10.6868 10.6619 13.3332 10.6619V9.41195C11.3772 9.41195 9.7915 7.82629 9.7915 5.87028H8.5415ZM13.3332 10.6619C15.9795 10.6619 18.1248 8.51661 18.1248 5.87028H16.8748C16.8748 7.82629 15.2892 9.41195 13.3332 9.41195V10.6619ZM11.2246 6.31222L12.4746 7.56222L13.3584 6.67834L12.1084 5.42834L11.2246 6.31222ZM13.3967 7.5204L15.48 5.0204L14.5197 4.22016L12.4363 6.72016L13.3967 7.5204Z" fill="#0F0E16"/>
</svg>
