<svg width="20" height="20" viewBox="0 0 20 20" fill="none" xmlns="http://www.w3.org/2000/svg">
<path d="M9.99984 18.9587C5.05817 18.9587 1.0415 14.942 1.0415 10.0003C1.0415 5.05866 5.05817 1.04199 9.99984 1.04199C14.9415 1.04199 18.9582 5.05866 18.9582 10.0003C18.9582 14.942 14.9415 18.9587 9.99984 18.9587ZM9.99984 2.29199C5.74984 2.29199 2.2915 5.75033 2.2915 10.0003C2.2915 14.2503 5.74984 17.7087 9.99984 17.7087C14.2498 17.7087 17.7082 14.2503 17.7082 10.0003C17.7082 5.75033 14.2498 2.29199 9.99984 2.29199Z" fill="#0F0E16"/>
<path d="M4.08337 16.4585C3.92503 16.4585 3.7667 16.4002 3.6417 16.2752C3.40003 16.0335 3.40003 15.6335 3.6417 15.3919L15.3084 3.7252C15.55 3.48353 15.95 3.48353 16.1917 3.7252C16.4334 3.96686 16.4334 4.36686 16.1917 4.60853L4.52503 16.2752C4.40003 16.4002 4.2417 16.4585 4.08337 16.4585Z" fill="#0F0E16"/>
</svg>
