<svg width="24" height="24" viewBox="0 0 24 24" fill="none" xmlns="http://www.w3.org/2000/svg">
<g id="upload" clip-path="url(#clip0_3025_12569)">
<path id="Vector" d="M18.7848 20.4C18.5782 20.3987 18.3791 20.3189 18.225 20.1756C18.0709 20.0323 17.9724 19.8353 17.9479 19.6217C17.9289 19.3916 17.996 19.1627 18.1354 18.983C18.2747 18.8033 18.4755 18.6867 18.6955 18.6575C19.6971 18.5337 20.6223 18.0384 21.3016 17.2623C21.981 16.4862 22.3691 15.4813 22.3948 14.4317C22.4206 13.382 22.0823 12.3578 21.4418 11.5467C20.8014 10.7355 19.9017 10.1917 18.9075 10.0148C18.6827 11.1606 18.1881 12.2304 17.4681 13.128C17.3284 13.3058 17.127 13.419 16.9076 13.4429C16.6881 13.4668 16.4685 13.3996 16.2965 13.2558C16.125 13.1083 16.016 12.8966 15.9931 12.6663C15.9701 12.436 16.035 12.2055 16.1738 12.0245C16.8584 11.1681 17.2751 10.1142 17.3677 9.00415C17.3677 8.84152 17.3677 8.67888 17.3677 8.50464C17.3532 7.17817 16.8801 5.90154 16.0352 4.90858C15.1902 3.91562 14.0299 3.2728 12.7668 3.09784C11.5037 2.92289 10.2224 3.22752 9.15745 3.95594C8.09251 4.68436 7.31528 5.78781 6.96812 7.06418C8.18275 7.16272 9.34465 7.62237 10.3156 8.38847C10.4035 8.45712 10.4776 8.54312 10.5336 8.64157C10.5896 8.74002 10.6264 8.84899 10.642 8.96225C10.6575 9.07551 10.6515 9.19086 10.6242 9.30169C10.5969 9.41252 10.5489 9.51668 10.483 9.60821C10.4171 9.69974 10.3344 9.77685 10.2399 9.83515C10.1453 9.89344 10.0406 9.93177 9.93185 9.94795C9.82305 9.96413 9.71226 9.95784 9.6058 9.92945C9.49934 9.90105 9.39929 9.85111 9.31137 9.78246C8.35331 9.03087 7.15676 8.68623 5.96387 8.81828C4.83424 8.93808 3.78312 9.47489 3.00072 10.3316C2.21832 11.1883 1.75633 12.3082 1.69835 13.4888C1.64037 14.6693 1.99023 15.8325 2.68462 16.7678C3.37901 17.7031 4.37206 18.3487 5.48406 18.5878C5.59256 18.6099 5.69571 18.6543 5.78739 18.7187C5.87907 18.783 5.95741 18.8658 6.01776 18.9622C6.07812 19.0586 6.11927 19.1667 6.13876 19.28C6.15825 19.3933 6.1557 19.5095 6.13124 19.6217C6.08558 19.8459 5.95691 20.0423 5.77312 20.1684C5.58932 20.2945 5.3652 20.3402 5.14931 20.2955C3.69615 19.9885 2.38962 19.168 1.45115 17.9729C0.512679 16.7777 0 15.2816 0 13.7379C0 12.1942 0.512679 10.6981 1.45115 9.50295C2.38962 8.30782 3.69615 7.48727 5.14931 7.18035C5.45382 5.4104 6.37838 3.82106 7.74395 2.72009C9.10952 1.61913 10.8189 1.08488 12.5412 1.2208C14.2634 1.35671 15.876 2.15313 17.0665 3.45582C18.2571 4.75852 18.9409 6.47479 18.9857 8.2723C20.3954 8.48839 21.6815 9.23104 22.604 10.3617C23.5265 11.4923 24.0224 12.9337 23.9992 14.417C23.976 15.9003 23.4352 17.3241 22.4778 18.4229C21.5204 19.5216 20.2117 20.2202 18.796 20.3884L18.7848 20.4Z" fill="#0F0E16"/>
<path id="Vector_2" d="M12 24C11.7789 23.9968 11.5676 23.8985 11.4112 23.7261C11.2549 23.5537 11.1657 23.3207 11.1628 23.0769V15.1262C10.8949 15.4708 10.6382 15.8277 10.4819 16.0615C10.3256 16.2954 9.96841 16.7631 9.81214 16.9477C9.74743 17.0681 9.65875 17.1707 9.55278 17.2478C9.44682 17.3248 9.32635 17.3743 9.20048 17.3925C9.07462 17.4106 8.94666 17.397 8.82628 17.3526C8.7059 17.3082 8.59625 17.2342 8.50563 17.1362C8.415 17.0382 8.34578 16.9188 8.30318 16.7869C8.26059 16.6551 8.24574 16.5143 8.25976 16.3752C8.27379 16.2361 8.31632 16.1023 8.38413 15.984C8.45195 15.8657 8.54327 15.766 8.65121 15.6923C8.78516 15.5323 8.97493 15.2615 9.20934 14.9415C10.3256 13.4154 11.1405 12.3323 12.0447 12.3323C12.9489 12.3323 13.7973 13.4154 14.88 14.9415C15.1145 15.2615 15.3042 15.5323 15.4382 15.6923C15.5381 15.7726 15.6206 15.8763 15.6799 15.9959C15.7391 16.1156 15.7736 16.2482 15.7808 16.3842C15.788 16.5203 15.7679 16.6565 15.7217 16.7829C15.6755 16.9094 15.6046 17.023 15.5138 17.1156C15.4231 17.2082 15.3149 17.2775 15.1971 17.3185C15.0792 17.3595 14.9545 17.3713 14.832 17.3529C14.7095 17.3345 14.5922 17.2864 14.4886 17.2121C14.385 17.1378 14.2975 17.0391 14.2326 16.9231C14.0763 16.7385 13.8419 16.4185 13.5628 16.0369C13.2838 15.6554 13.1498 15.4462 12.8819 15.1015V23.0769C12.8805 23.2019 12.8564 23.3253 12.811 23.4398C12.7656 23.5543 12.6999 23.6577 12.6177 23.7437C12.5355 23.8298 12.4385 23.8968 12.3324 23.9408C12.2263 23.9848 12.1133 24.0049 12 24Z" fill="#0F0E16"/>
</g>
<defs>
<clipPath id="clip0_3025_12569">
<rect width="24" height="24" fill="white"/>
</clipPath>
</defs>
</svg>
