<svg width="138" height="120" viewBox="0 0 138 120" fill="none" xmlns="http://www.w3.org/2000/svg">
<g clip-path="url(#clip0_1448_28364)">
<path d="M32 105H134V106H32V105Z" fill="#EBEBEB"/>
<path d="M4.64734 110.628H21.8027V110.725H4.64734V110.628Z" fill="#EBEBEB"/>
<path d="M42.9646 109.63H61.9292V109.726H42.9646V109.63Z" fill="#EBEBEB"/>
<path d="M20.9629 109.179H27.166V109.275H20.9629V109.179Z" fill="#EBEBEB"/>
<path d="M103.573 108.18H117.53V108.277H103.573V108.18Z" fill="#EBEBEB"/>
<path d="M119.34 108.18H124.315V108.277H119.34V108.18Z" fill="#EBEBEB"/>
<path d="M90.0044 109.565H107.515V109.662H90.0044V109.565Z" fill="#EBEBEB"/>
<path d="M73.4305 91.0789H135.817C136.818 91.0789 137.658 90.2415 137.658 89.2431V1.83573C137.658 0.837344 136.818 -1.52588e-05 135.817 -1.52588e-05H73.4305C72.429 -1.52588e-05 71.589 0.837344 71.589 1.83573V89.2431C71.589 90.2737 72.3967 91.0789 73.4305 91.0789ZM135.817 0.0966031C136.786 0.0966031 137.594 0.86955 137.594 1.86794V89.2753C137.594 90.2415 136.818 91.0467 135.817 91.0467H73.4305C72.4613 91.0467 71.6536 90.2737 71.6536 89.2753V1.83573C71.6536 0.86955 72.429 0.064397 73.4305 0.064397H135.817V0.0966031Z" fill="#EBEBEB"/>
<path d="M3.54917 91.0789H65.9353C66.9369 91.0789 67.7769 90.2415 67.7769 89.2431V1.83573C67.7769 0.837344 66.9369 -1.52588e-05 65.9353 -1.52588e-05H3.54917C2.54763 -1.52588e-05 1.70763 0.837344 1.70763 1.83573V89.2431C1.70763 90.2737 2.51533 91.0789 3.54917 91.0789ZM65.9353 0.0966031C66.9045 0.0966031 67.7122 0.86955 67.7122 1.86794V89.2753C67.7122 90.2415 66.9369 91.0467 65.9353 91.0467H3.54917C2.57994 91.0467 1.77225 90.2737 1.77225 89.2753V1.83573C1.77225 0.86955 2.54763 0.064397 3.54917 0.064397H65.9353V0.0966031Z" fill="#EBEBEB"/>
<path d="M63.8249 102.719H60.4326L60.4326 62.4616H63.8249L63.8249 102.719Z" fill="#F0F0F0"/>
<path d="M129.055 105.413L61.7256 105.413V102.74L129.055 102.74V105.413Z" fill="#F0F0F0"/>
<path d="M63.8353 62.4798H130.389V102.737H63.8353V62.4798Z" fill="#F5F5F5"/>
<path d="M63.0503 62.4579H59.5288V59.9137H63.0503V62.4579Z" fill="#E0E0E0"/>
<path d="M63.0278 59.9355H131.294V62.4798H63.0278V59.9355Z" fill="#EBEBEB"/>
<path d="M69.0049 79.4846H125.188C126.577 79.4846 127.708 78.3574 127.708 76.9725V68.0836C127.708 66.6988 126.577 65.5715 125.188 65.5715H69.0049C67.6157 65.5715 66.4849 66.6988 66.4849 68.0836V76.9725C66.5172 78.3574 67.6157 79.4846 69.0049 79.4846Z" fill="white"/>
<path d="M69.0049 97.52H125.188C126.577 97.52 127.708 96.3928 127.708 95.0079V86.1191C127.708 84.7342 126.577 83.607 125.188 83.607H69.0049C67.6157 83.607 66.4849 84.7342 66.4849 86.1191V95.0079C66.5172 96.3928 67.6157 97.52 69.0049 97.52Z" fill="white"/>
<path d="M111.586 67.0852H82.6387C82.3157 67.0852 82.0572 66.8276 82.0572 66.5055V65.7326C82.0572 65.4105 82.3157 65.1529 82.6387 65.1529H111.586C111.91 65.1529 112.168 65.4105 112.168 65.7326V66.5055C112.136 66.8276 111.877 67.0852 111.586 67.0852Z" fill="#F5F5F5"/>
<path d="M111.586 85.1206H82.6387C82.3157 85.1206 82.0572 84.863 82.0572 84.5409V83.768C82.0572 83.4459 82.3157 83.1883 82.6387 83.1883H111.586C111.91 83.1883 112.168 83.4459 112.168 83.768V84.5409C112.136 84.863 111.877 85.1206 111.586 85.1206Z" fill="#F5F5F5"/>
<path d="M5.52018 75.6842H15.7617V77.6488H5.52018V75.6842Z" fill="#E6E6E6"/>
<path d="M23.6283 105.441H21.7222L21.7222 38.6459H23.6283L23.6283 105.441Z" fill="#E6E6E6"/>
<path d="M30.1627 77.6191H15.7534V75.6545H30.1627V77.6191Z" fill="#F5F5F5"/>
<path d="M5.52018 93.6553H15.7617V95.6198H5.52018V93.6553Z" fill="#E6E6E6"/>
<path d="M30.1627 95.5925H15.7534V93.6279H30.1627V95.5925Z" fill="#F5F5F5"/>
<path d="M5.52018 39.7422H15.7617V41.7068H5.52018V39.7422Z" fill="#E6E6E6"/>
<path d="M30.1627 41.6724H15.7534V39.7078H30.1627V41.6724Z" fill="#F5F5F5"/>
<path d="M5.52018 57.7133H15.7617V59.6778H5.52018V57.7133Z" fill="#E6E6E6"/>
<path d="M30.1627 59.6458H15.7534V57.6812H30.1627V59.6458Z" fill="#F5F5F5"/>
<path d="M9.24552 105.441H7.33936L7.33936 38.6459H9.24552L9.24552 105.441Z" fill="#E6E6E6"/>
<path d="M17.6571 105.441H15.751L15.751 38.6459H17.6571L17.6571 105.441Z" fill="#F5F5F5"/>
<path d="M30.1649 105.441H28.2588L28.2588 38.6459H30.1649L30.1649 105.441Z" fill="#F5F5F5"/>
<path d="M121.613 54.3322L36.2559 54.3322L36.2559 9.147L121.613 9.147V54.3322Z" fill="#E0E0E0"/>
<path d="M123.754 54.3322L37.46 54.3322L37.46 9.147L123.754 9.147V54.3322Z" fill="#F5F5F5"/>
<path d="M40.5674 50.7831L40.5674 12.7155L120.69 12.7155V50.7831L40.5674 50.7831Z" fill="white"/>
<path d="M69.2309 120C34.6332 120 6.58626 118.371 6.58626 116.361C6.58626 114.351 34.6332 112.721 69.2309 112.721C103.829 112.721 131.875 114.351 131.875 116.361C131.875 118.371 103.829 120 69.2309 120Z" fill="#F5F5F5"/>
<path d="M24.7108 67.4074H114.3C114.882 67.4074 115.366 66.9243 115.366 66.3446C115.366 65.7649 114.882 65.2818 114.3 65.2818H24.7108C24.1293 65.2818 23.6447 65.7649 23.6447 66.3446C23.6447 66.9243 24.1293 67.4074 24.7108 67.4074Z" fill="#7B68EE"/>
<path opacity="0.3" d="M24.7108 67.4074H45.6785C46.26 67.4074 46.7446 66.9243 46.7446 66.3446C46.7446 65.7649 46.26 65.2818 45.6785 65.2818H24.7108C24.1293 65.2818 23.6446 65.7649 23.6446 66.3446C23.6446 66.9243 24.1293 67.4074 24.7108 67.4074Z" fill="#111111"/>
<path d="M26.9725 70.0805H95.8848V77.5524H26.9725V70.0805Z" fill="#111111"/>
<path opacity="0.1" d="M26.9725 70.0805H95.8848V77.5524H26.9725V70.0805Z" fill="white"/>
<path d="M27.9739 114.879H25.9062L26.0031 67.4074H28.8462L27.9739 114.879Z" fill="#111111"/>
<path opacity="0.1" d="M27.9739 114.879H25.9062L26.0031 67.4074H28.8462L27.9739 114.879Z" fill="white"/>
<path d="M46.9709 114.879H49.0386L44.3863 67.4074H41.5109L46.9709 114.879Z" fill="#111111"/>
<path opacity="0.2" d="M46.9709 114.879H49.0386L44.3863 67.4074H41.5109L46.9709 114.879Z" fill="white"/>
<path d="M96.5955 114.879H94.5278L94.6247 67.4074H97.4678L96.5955 114.879Z" fill="#111111"/>
<path opacity="0.1" d="M96.5955 114.879H94.5278L94.6247 67.4074H97.4678L96.5955 114.879Z" fill="white"/>
<path d="M115.592 114.879H117.66L112.976 67.4074H110.132L115.592 114.879Z" fill="#111111"/>
<path opacity="0.2" d="M115.592 114.879H117.66L112.976 67.4074H110.132L115.592 114.879Z" fill="white"/>
<path d="M57.5678 65.2496H62.317L64.2231 55.9742H59.4739L57.5678 65.2496Z" fill="#111111"/>
<path d="M51.2675 63.3494H71.9122C72.5906 63.3494 73.1075 62.8019 73.0752 62.0934L72.2998 49.0821C72.2675 48.4058 71.6537 47.8583 70.9752 47.8583H50.3306C49.6521 47.8583 49.1352 48.4058 49.1675 49.0821L49.9429 62.0934C49.9752 62.7697 50.5568 63.3494 51.2675 63.3494Z" fill="#111111"/>
<path d="M51.5908 63.3494H72.2354C72.9139 63.3494 73.4308 62.8019 73.3985 62.0934L72.6231 49.0821C72.5908 48.4058 71.9769 47.8583 71.2985 47.8583H50.6539C49.9754 47.8583 49.4585 48.4058 49.4908 49.0821L50.2662 62.0934C50.2985 62.7697 50.88 63.3494 51.5908 63.3494Z" fill="#7B68EE"/>
<path d="M72.2032 62.7053C72.3647 62.7053 72.494 62.6409 72.5909 62.5443C72.6878 62.4477 72.7524 62.2866 72.7201 62.1578L71.9447 49.1465C71.9124 48.7923 71.6217 48.5024 71.2663 48.5024H50.6216C50.4601 48.5024 50.3309 48.5668 50.234 48.6634C50.137 48.7601 50.0724 48.9211 50.1047 49.0499L50.8801 62.0612C50.9124 62.4155 51.2032 62.7053 51.5586 62.7053H72.2032Z" fill="white"/>
<path opacity="0.2" d="M63.1567 47.826L61.7998 52.4315L57.826 47.826H63.1567Z" fill="#111111"/>
<path d="M95.2062 36.7472C95.1739 37.0049 95.0124 37.1981 94.8508 37.1659C94.6893 37.1659 94.5924 36.9404 94.6247 36.6828C94.657 36.4251 94.8185 36.2319 94.9801 36.2641C95.1416 36.2641 95.2385 36.4896 95.2062 36.7472Z" fill="#111111"/>
<path d="M94.9478 37.1015C94.9478 37.1015 94.3985 38.3253 93.817 38.905C94.1724 39.2593 94.8185 39.1304 94.8185 39.1304L94.9478 37.1015Z" fill="#A02724"/>
<path d="M96.046 35.781C96.0783 35.781 96.1106 35.781 96.1106 35.781C96.1752 35.7488 96.2075 35.6522 96.2075 35.5878C95.9168 34.847 95.2383 34.7182 95.206 34.7182C95.1414 34.686 95.0444 34.7504 95.0444 34.847C95.0444 34.9114 95.0768 35.0081 95.1737 35.0081C95.206 35.0081 95.7229 35.1047 95.9491 35.6844C95.9491 35.7488 95.9814 35.781 96.046 35.781Z" fill="#111111"/>
<path d="M102.54 40.6119L100.601 42.0934L97.9522 44.1224C98.0491 44.219 98.1784 44.7343 98.2107 45.0885C98.3076 45.8293 98.4045 46.409 96.7568 46.8277C96.4015 46.9243 96.1107 47.1819 96.0461 47.5684C95.9815 48.0193 96.2399 48.5346 97.7907 48.7922C99.5676 49.0821 100.989 48.599 102.088 48.0515C102.734 47.7294 102.766 47.343 102.475 46.6988C101.635 44.8309 102.055 42.4476 102.54 40.6119Z" fill="#B55B52"/>
<path d="M104.769 47.2786C104.123 46.0225 103.864 45.0563 103.864 45.0563C103.864 45.0563 98.9537 44.7987 97.3383 45.2818C95.7229 45.7649 94.7213 47.8583 94.7213 47.8583L104.769 47.2786Z" fill="#7B68EE"/>
<path d="M102.702 50.9179C102.831 51.2722 102.96 51.7231 103.089 52.1417L103.445 53.3978C103.671 54.2351 103.897 55.0725 104.059 55.9099C104.252 56.7472 104.382 57.5846 104.479 58.3897C104.575 59.1949 104.608 60 104.543 60.7086C104.511 61.0628 104.479 61.3849 104.382 61.6748C104.349 61.7392 104.349 61.8036 104.317 61.868C104.285 61.9324 104.285 61.9968 104.252 62.029C104.285 61.9968 104.285 61.9646 104.317 61.9324C104.349 61.868 104.382 61.8358 104.414 61.8036C104.479 61.7392 104.511 61.707 104.543 61.6748C104.608 61.6426 104.608 61.6426 104.608 61.6426C104.575 61.6748 104.446 61.7392 104.317 61.8036C104.155 61.868 103.994 61.9324 103.832 61.9968C103.477 62.1256 103.057 62.2223 102.637 62.3511C100.957 62.7698 99.1477 63.0918 97.3708 63.4783L97.4354 65.7005C98.4047 65.8293 99.3416 65.8938 100.279 65.926C101.248 65.9582 102.185 65.9582 103.186 65.8938C103.671 65.8616 104.188 65.7971 104.705 65.7005C104.963 65.6683 105.254 65.6039 105.545 65.5073C105.835 65.4107 106.159 65.3463 106.514 65.153C106.708 65.0564 106.902 64.9276 107.16 64.7666C107.289 64.6699 107.419 64.5411 107.548 64.3801C107.612 64.2835 107.677 64.219 107.742 64.0902C107.774 64.0258 107.806 63.9936 107.839 63.9292L107.871 63.8648L108.097 63.4139C108.162 63.2529 108.226 63.124 108.291 62.963C108.517 62.3833 108.646 61.7714 108.743 61.2239C109.066 58.9694 108.808 57.0049 108.485 55.0403C108.291 54.0741 108.097 53.1079 107.839 52.174C107.709 51.6909 107.58 51.24 107.419 50.7891C107.257 50.306 107.128 49.8873 106.934 49.372L102.702 50.9179Z" fill="#B55B52"/>
<path d="M105.706 46.8921C102.637 46.087 100.828 48.5669 101.862 52.6892C102.895 56.8116 103.251 56.9405 103.251 56.9405L109.551 55.8776C108.775 51.8519 108.84 47.6973 105.706 46.8921Z" fill="#7B68EE"/>
<path d="M95.8522 62.5765L96.3369 62.5443C97.6938 62.5443 97.9199 62.8986 98.7599 63.6715L99.083 65.3784C96.9184 66.5056 95.723 65.2818 95.723 65.2818H93.6876L94.3984 63.6393C94.6245 63.0274 95.2061 62.6409 95.8522 62.5765Z" fill="#B55B52"/>
<path d="M103.38 37.4235C102.831 40.3543 102.669 42.0934 100.989 43.4138C98.4695 45.3784 94.9802 43.5105 94.6248 40.4509C94.3341 37.7134 95.271 33.3655 98.3079 32.5926C101.313 31.8196 103.929 34.4928 103.38 37.4235Z" fill="#B55B52"/>
<path d="M97.5323 38.4219C95.4323 38.2609 96.0462 36.0387 96.6923 35.5878C95.7231 35.2013 95.0123 33.6554 95.9816 32.5926C95.4323 31.1433 97.0154 29.4042 99.7939 29.6618C101.829 29.8551 102.055 30.9179 102.055 30.9179C102.055 30.9179 104.511 30.6602 105.512 32.657C106.385 34.3639 105.318 35.2979 105.318 35.2979C105.318 35.2979 107.128 35.8132 106.643 38.1965C106.094 40.7408 104.123 40.161 104.123 40.161C104.123 40.161 104.575 42.5121 101.894 42.5443C99.6 42.5765 99.5677 40.8696 99.5677 40.8696C99.5677 40.8696 96.6277 40.5797 97.5323 38.4219Z" fill="#111111"/>
<path d="M99.1153 38.6151C98.8569 39.2914 98.3399 39.8067 97.823 40.0644C97.0476 40.4509 96.4661 39.6457 96.5953 38.8084C96.7246 38.0676 97.3707 37.1014 98.1784 37.037C98.9861 37.0048 99.4061 37.8422 99.1153 38.6151Z" fill="#B55B52"/>
<path d="M67.7771 111.176L64.9017 110.016L66.9371 103.156L69.8125 104.316L67.7771 111.176Z" fill="#B55B52"/>
<path opacity="0.2" d="M68.8433 107.633L65.9356 106.57L66.9371 103.156L69.8125 104.316L68.8433 107.633Z" fill="#111111"/>
<path d="M65.1603 108.857L68.4557 109.984C68.5849 110.016 68.6496 110.145 68.6173 110.274L67.8742 112.915C67.8096 113.205 67.4542 113.366 67.1957 113.269C66.0649 112.85 65.6126 112.625 64.1911 112.013C63.3188 111.626 61.2511 110.757 60.1526 110.081C59.0542 109.436 59.7326 108.341 60.2496 108.503C61.5096 108.921 63.5772 109.211 64.6434 108.857C64.7726 108.792 64.9988 108.792 65.1603 108.857Z" fill="#111111"/>
<path d="M90.8449 71.4977C90.8449 71.4977 69.1341 73.4622 68.5849 79.678C67.4541 92.335 65.7095 104.573 65.7095 104.573L70.1356 106.184C70.1356 106.184 75.531 92.2706 75.4664 82.3511C81.7341 80.5798 98.1787 83.1885 100.893 78.3576C103.283 74.1064 101.183 71.0468 101.183 71.0468L90.8449 71.4977Z" fill="#111111"/>
<path d="M70.4586 107.15L64.9663 105.314L65.1924 102.802L71.3955 104.799L70.4586 107.15Z" fill="#7B68EE"/>
<path d="M63.9651 109.018C64.2236 109.114 64.5466 109.147 64.7728 109.179C64.8051 109.179 64.8374 109.179 64.8374 109.147C64.8374 109.114 64.8374 109.082 64.8374 109.082C64.7728 108.986 64.1266 108.148 63.7389 108.148C63.642 108.148 63.5774 108.213 63.5128 108.277C63.4159 108.406 63.4159 108.567 63.4805 108.663C63.5451 108.825 63.7389 108.921 63.9651 109.018ZM64.6113 109.018C64.062 108.953 63.6743 108.792 63.5774 108.599C63.5451 108.535 63.5451 108.438 63.6097 108.341C63.642 108.309 63.6743 108.277 63.7066 108.277C63.9651 108.245 64.3528 108.663 64.6113 109.018Z" fill="#7B68EE"/>
<path d="M64.74 109.179H64.7724C64.8047 109.179 64.8047 109.147 64.837 109.147C64.837 109.114 65.2247 108.309 64.9985 107.923C64.9339 107.826 64.8693 107.762 64.74 107.73C64.6108 107.697 64.4816 107.73 64.417 107.858C64.2554 108.116 64.4816 108.857 64.74 109.179C64.74 109.147 64.74 109.147 64.74 109.179ZM64.7724 107.858C64.837 107.891 64.8693 107.923 64.9016 107.955C65.0308 108.18 64.8693 108.664 64.7724 108.953C64.5785 108.664 64.4493 108.084 64.5785 107.891C64.6108 107.858 64.6431 107.826 64.74 107.826C64.74 107.826 64.74 107.826 64.7724 107.858Z" fill="#7B68EE"/>
<path d="M83.1558 113.237L80.0865 113.076L79.5696 105.862L82.6388 105.99L83.1558 113.237Z" fill="#B55B52"/>
<path d="M80.0215 112.561L83.5107 112.464C83.6399 112.464 83.7368 112.561 83.7368 112.657L83.9953 115.395C84.0276 115.685 83.7692 115.942 83.4784 115.974C82.283 116.007 81.7015 115.942 80.1507 115.974C79.2138 116.007 77.3722 116.135 76.0799 115.974C74.8199 115.813 74.9815 114.557 75.563 114.493C76.8876 114.396 78.6645 113.462 79.5368 112.754C79.6338 112.625 79.8276 112.561 80.0215 112.561Z" fill="#111111"/>
<path d="M78.9231 113.14C79.2139 113.14 79.5369 113.076 79.7308 113.011C79.7631 113.011 79.7631 112.979 79.7954 112.947C79.7954 112.915 79.7954 112.883 79.7631 112.883C79.6662 112.818 78.7616 112.238 78.4062 112.399C78.3093 112.432 78.2769 112.496 78.2446 112.593C78.2123 112.754 78.2446 112.883 78.3416 112.979C78.4708 113.108 78.6969 113.14 78.9231 113.14ZM79.5693 112.883C79.02 113.011 78.6 113.011 78.4708 112.883C78.4062 112.818 78.3739 112.754 78.4062 112.625C78.4062 112.56 78.4385 112.528 78.4708 112.528C78.6646 112.432 79.1816 112.689 79.5693 112.883Z" fill="#7B68EE"/>
<path d="M79.7309 113.011H79.7632C79.7955 113.011 79.7955 112.979 79.7955 112.947C79.7955 112.915 79.8278 112.013 79.5047 111.723C79.4078 111.659 79.3109 111.626 79.1816 111.626C79.0524 111.659 78.9555 111.723 78.9232 111.852C78.8586 112.206 79.3432 112.818 79.6663 112.979C79.7309 112.979 79.7309 113.011 79.7309 113.011ZM79.2786 111.755C79.3432 111.755 79.3755 111.788 79.4401 111.82C79.634 111.981 79.6663 112.496 79.6663 112.786C79.3755 112.56 79.0524 112.077 79.117 111.852C79.117 111.82 79.1493 111.755 79.2463 111.755H79.2786Z" fill="#7B68EE"/>
<path opacity="0.2" d="M82.6707 105.99L79.5692 105.862L79.86 109.984H82.9292L82.6707 105.99Z" fill="#111111"/>
<path d="M98.0494 71.1756C98.0494 71.1756 74.6586 74.7505 75.0463 80.0967C75.7248 89.7585 78.9555 108.631 78.9555 108.631L83.5755 108.696C83.5755 108.696 84.674 89.3399 82.9294 82.2545C88.6802 82.2545 104.899 82.0613 107.128 79.0983C109.583 75.8455 107.063 70.7247 107.063 70.7247L98.0494 71.1756Z" fill="#111111"/>
<path d="M84.1248 109.082L78.5356 108.986L78.2771 106.055L84.3833 106.28L84.1248 109.082Z" fill="#7B68EE"/>
<path d="M93.9465 46.5379C95.8204 46.1836 104.317 46.2802 104.317 46.2802C106.062 46.248 107.58 47.5363 107.774 49.2754C108.065 51.8841 106.417 57.7134 106.353 60.7086C106.288 64.3479 106.967 65.8294 107.063 70.7569L90.845 71.4976C90.845 61.6104 91.265 53.3978 91.685 49.4686C91.8142 48.116 92.0727 46.9244 93.9465 46.5379Z" fill="#7B68EE"/>
<path opacity="0.3" d="M93.9465 46.5379C95.8204 46.1836 104.317 46.2802 104.317 46.2802C106.062 46.248 107.58 47.5363 107.774 49.2754C108.065 51.8841 106.417 57.7134 106.353 60.7086C106.288 64.3479 106.967 65.8294 107.063 70.7569L90.845 71.4976C90.845 61.6104 91.265 53.3978 91.685 49.4686C91.8142 48.116 92.0727 46.9244 93.9465 46.5379Z" fill="white"/>
<path d="M91.7172 49.6619C91.2002 51.401 90.7156 53.1723 90.1664 54.9437C89.6495 56.6828 89.1002 58.4541 88.4864 60.0967C88.3248 60.5153 88.1633 60.9018 88.0341 61.3205L87.7756 61.9002L87.7433 61.9646V61.9968C87.8079 61.868 87.9048 61.7714 87.9372 61.7392C88.0341 61.6425 88.0987 61.6103 88.0987 61.6103C88.0987 61.6103 88.0018 61.707 87.8402 61.7714C87.711 61.8358 87.5172 61.9002 87.3556 61.9646C87.0002 62.0934 86.5802 62.19 86.1602 62.3189C84.4802 62.7375 82.6387 63.0918 80.8295 63.4461L80.8941 65.6683C81.8633 65.7971 82.8325 65.8615 83.8018 65.8938C84.771 65.926 85.7402 65.926 86.7418 65.8293C87.2587 65.7971 87.7433 65.7327 88.2925 65.6361C88.551 65.5717 88.8418 65.5073 89.1325 65.4429C89.4233 65.3462 89.7464 65.2496 90.1664 65.0242C90.3602 64.8954 90.6187 64.7665 90.8772 64.4767C91.0064 64.3479 91.1679 64.1546 91.2972 63.9292L91.3941 63.7359L91.7495 63.0596C91.9756 62.6087 92.2018 62.1578 92.3956 61.707C92.7833 60.8052 93.1387 59.9034 93.4941 59.0016C93.8172 58.0999 94.1402 57.1981 94.431 56.2963C95.0125 54.4928 95.5618 52.6892 96.0464 50.8213L91.7172 49.6619Z" fill="#B55B52"/>
<path d="M96.3371 47.8905C94.1079 45.6361 91.2971 46.8599 90.0694 50.9501C88.8418 55.0081 89.0679 55.3301 89.0679 55.3301L95.0125 57.6168C96.4341 53.7198 98.5987 50.1772 96.3371 47.8905Z" fill="#7B68EE"/>
<path d="M79.2785 62.5765L79.7631 62.5443C81.12 62.5443 81.3462 62.8986 82.1862 63.6715L82.5093 65.3785C80.3447 66.5057 79.1493 65.2818 79.1493 65.2818H77.1139L77.8247 63.6393C78.0831 63.0274 78.6324 62.6409 79.2785 62.5765Z" fill="#B55B52"/>
<path d="M106.352 83.4461H85.6432C85.1909 83.4461 84.8355 83.0918 84.8355 82.6409V81.3205C84.8355 80.8696 85.1909 80.5153 85.6432 80.5153H106.352C106.805 80.5153 107.16 80.8696 107.16 81.3205V82.6409C107.16 83.0918 106.805 83.4461 106.352 83.4461Z" fill="#7B68EE"/>
<path d="M106.256 116.522H107.16L106.126 83.4461H104.866L106.256 116.522Z" fill="#7B68EE"/>
<path opacity="0.4" d="M106.256 116.522H107.16L106.126 83.4461H104.866L106.256 116.522Z" fill="white"/>
<path d="M97.8232 116.522H96.8862L97.9524 83.4461H99.2124L97.8232 116.522Z" fill="#7B68EE"/>
<path opacity="0.4" d="M97.8232 116.522H96.8862L97.9524 83.4461H99.2124L97.8232 116.522Z" fill="white"/>
<path d="M94.1724 116.522H95.1094L94.0432 83.4461H92.7832L94.1724 116.522Z" fill="#7B68EE"/>
<path opacity="0.4" d="M94.1724 116.522H95.1094L94.0432 83.4461H92.7832L94.1724 116.522Z" fill="white"/>
<path d="M85.7401 116.522H84.8355L85.8693 83.4461H87.1616L85.7401 116.522Z" fill="#7B68EE"/>
<path opacity="0.4" d="M85.7401 116.522H84.8355L85.8693 83.4461H87.1616L85.7401 116.522Z" fill="white"/>
<g opacity="0.3">
<path d="M106.126 83.4461H104.866L104.899 84.8632H106.159L106.126 83.4461Z" fill="#7B68EE"/>
<path d="M97.9201 84.8632H99.1801L99.2124 83.4461H97.9524L97.9201 84.8632Z" fill="#7B68EE"/>
<path d="M92.7834 83.4461L92.848 84.8632H94.0757L94.0434 83.4461H92.7834Z" fill="#7B68EE"/>
<path d="M85.837 84.8632H87.097L87.1616 83.4461H85.8693L85.837 84.8632Z" fill="#7B68EE"/>
</g>
<path d="M24.3235 43.0595H76.0804C77.7927 43.0595 79.1173 41.6747 79.0204 39.9355L77.0496 7.27853C76.9527 5.57161 75.4665 4.15454 73.7542 4.15454H22.0296C20.3173 4.15454 18.9927 5.5394 19.0896 7.27853L21.0281 39.9355C21.125 41.6425 22.6112 43.0595 24.3235 43.0595Z" fill="#7B68EE"/>
<path d="M69.1343 36.1352L64.385 52.4315L50.202 36.1352H69.1343Z" fill="#7B68EE"/>
<path opacity="0.1" d="M26.8434 29.9195H55.8557C56.8249 29.9195 57.568 29.1465 57.5034 28.1804L56.4049 9.88728C56.3403 8.92109 55.5003 8.14815 54.5634 8.14815H25.5511C24.5819 8.14815 23.8388 8.92109 23.9034 9.88728L25.0019 28.1804C25.0665 29.1143 25.8742 29.9195 26.8434 29.9195Z" fill="white"/>
<path opacity="0.1" d="M42.3512 37.81H71.3635C72.3328 37.81 73.0758 37.037 73.0112 36.0709L71.9128 17.7778C71.8481 16.8116 71.0081 16.0387 70.0712 16.0387H41.0589C40.0897 16.0387 39.3466 16.8116 39.4112 17.7778L40.5097 36.0709C40.5743 37.0048 41.4143 37.81 42.3512 37.81Z" fill="white"/>
<g opacity="0.5">
<path d="M71.7513 7.02093C71.7836 7.53623 72.2036 7.98712 72.6882 7.98712C73.1728 7.98712 73.5282 7.56844 73.4636 7.02093C73.4313 6.50563 73.0113 6.05475 72.5267 6.05475C72.0421 6.05475 71.719 6.50563 71.7513 7.02093Z" fill="white"/>
<path d="M68.5853 7.02096C68.6176 7.53626 69.0376 7.98715 69.5222 7.98715C70.0068 7.98715 70.3622 7.56847 70.2976 7.02096C70.2653 6.50566 69.8453 6.05478 69.3607 6.05478C68.876 6.05478 68.5207 6.50566 68.5853 7.02096Z" fill="white"/>
<path d="M65.3865 7.02096C65.4189 7.53626 65.8389 7.98715 66.3235 7.98715C66.8081 7.98715 67.1635 7.56847 67.0989 7.02096C67.0665 6.50566 66.6465 6.05478 66.1619 6.05478C65.7096 6.05478 65.3542 6.50566 65.3865 7.02096Z" fill="white"/>
</g>
<path opacity="0.3" d="M24.7111 42.7375H76.468C77.308 42.7375 78.1157 42.4154 78.6649 41.8035C79.2464 41.1916 79.5372 40.3865 79.4726 39.5491L77.5018 6.8921C77.4049 5.12076 75.8864 3.70369 74.1095 3.70369H22.3849C21.5449 3.70369 20.7372 4.02575 20.188 4.63767C19.6064 5.24958 19.3157 6.05474 19.3803 6.8921L21.351 39.5491C21.448 41.3204 22.9664 42.7375 24.7111 42.7375ZM74.1095 3.86472C75.7895 3.86472 77.2434 5.21738 77.3403 6.8921L79.311 39.5491C79.3757 40.3543 79.0849 41.1272 78.5357 41.6747C77.9864 42.2544 77.2434 42.5765 76.4357 42.5765H24.7111C23.0311 42.5765 21.5772 41.2238 21.4803 39.5491L19.5095 6.8921C19.4449 6.08694 19.7357 5.314 20.2849 4.76649C20.8341 4.18678 21.5772 3.86472 22.3849 3.86472H74.1095Z" fill="#111111"/>
<path d="M52.7219 23.6715C52.9481 24.1224 53.1419 24.541 53.3681 24.9597C53.5942 25.3784 53.8204 25.7649 54.0466 26.1836C54.5312 26.9887 55.0158 27.7617 55.5327 28.5346C55.7912 28.9211 56.0819 29.3075 56.3404 29.694C56.6312 30.0805 56.9219 30.4348 57.2127 30.8212C57.7942 31.562 58.4727 32.2705 59.1835 32.9468C59.3773 33.1079 59.5712 33.2689 59.7327 33.4621C59.9266 33.6232 60.1204 33.7842 60.3142 33.9452L60.9281 34.3961C60.9281 34.3961 61.025 34.4927 61.1219 34.5249C61.2189 34.5893 61.2835 34.6216 61.3804 34.6538C61.5743 34.7504 61.7358 34.8148 61.9296 34.847C62.3173 34.9436 62.705 34.9436 63.0927 34.847C63.4804 34.7504 63.8358 34.5893 64.1266 34.3639C64.2881 34.2351 64.4173 34.1063 64.5466 33.9452L64.6435 33.8164L64.6758 33.752V33.7198L64.7404 33.6232L64.9666 33.2045C65.0312 33.0757 65.0958 32.9468 65.1281 32.818C65.3542 32.3027 65.4835 31.8196 65.6127 31.3043C65.8389 30.3381 66.0004 29.4042 66.0973 28.4702C66.1942 27.5362 66.2266 26.6344 66.2266 25.6683C66.2266 25.0563 65.7096 24.5732 65.0958 24.5732C64.5789 24.5732 64.1912 24.9275 64.0296 25.3784V25.4106C63.545 27.0531 63.0604 28.76 62.4466 30.2415C62.285 30.5958 62.1235 30.9501 61.9619 31.2077C61.9296 31.2721 61.865 31.3365 61.8327 31.4009C61.8004 31.4654 61.7358 31.4976 61.7035 31.562L61.6712 31.5942V31.562C61.6712 31.5298 61.7035 31.5298 61.7035 31.4976C61.7681 31.4332 61.8004 31.3687 61.865 31.3043C61.9943 31.2077 62.1558 31.1111 62.3173 31.0789C62.4789 31.0467 62.6404 31.0467 62.8019 31.0789C62.8989 31.0789 62.9635 31.1111 63.0604 31.1433C63.0927 31.1755 63.125 31.1755 63.1896 31.2077C63.2219 31.2399 63.2866 31.2721 63.2543 31.2399L62.8343 30.8534C62.705 30.7246 62.5758 30.5958 62.4466 30.4348C62.3173 30.3059 62.1881 30.1449 62.0589 30.0161C61.025 28.7922 60.0881 27.4074 59.1835 25.9903C58.7312 25.2818 58.3112 24.541 57.8912 23.8003L57.2773 22.6731L56.6958 21.5781L56.6635 21.5137C56.0819 20.4187 54.725 20.0322 53.6589 20.6119C52.6573 21.3204 52.2373 22.6087 52.7219 23.6715Z" fill="#111111"/>
<path d="M66.0326 25.6039L67.6157 24.7021L65.9357 22.963C65.9357 22.963 65.225 23.4782 64.5788 24.1868C64.1588 24.6377 64.288 25.3784 64.8373 25.6361C65.1926 25.8293 65.645 25.8293 66.0326 25.6039Z" fill="#FFC3BD"/>
<path d="M67.971 22.8663L67.131 22.2544C66.9049 22.0933 66.5818 22.1255 66.4203 22.351L65.9356 22.9629L67.6156 24.702L68.1326 23.4782C68.2618 23.2528 68.1649 22.9951 67.971 22.8663Z" fill="#FFC3BD"/>
<path d="M56.1142 22.2222C55.8557 21.3526 55.145 20.7085 54.2404 20.5475C53.5619 20.4186 53.2388 20.322 52.3342 20.2576C50.8157 20.161 48.2957 20.2576 46.5511 20.3542C45.5496 20.4186 44.5157 20.5475 43.708 20.7085H43.6757C42.7711 20.8695 42.1573 21.7069 42.3188 22.6086C42.7065 24.9275 43.9019 28.9855 44.0311 32.7858C44.1927 37.8099 44.128 40.6763 44.225 41.9001L57.148 41.6425C58.0527 29.4041 56.9542 24.9919 56.1142 22.2222Z" fill="white"/>
<path d="M43.3526 20.5153C44.2572 20.3542 45.3234 20.2254 46.3895 20.161C46.5834 20.161 46.7772 20.1288 46.9711 20.1288C47.5526 22.4476 50.9126 26.3768 51.9142 32.3349C52.3019 27.3752 52.6249 22.1578 52.0434 20.1288C52.3988 20.1288 54.0788 20.2254 54.7895 20.3542C55.7265 20.5153 56.5019 21.256 56.8249 22.2544C57.6326 24.5732 59.1511 29.8228 58.2142 42.6409H43.8372C43.7403 41.3526 44.0634 38.6473 43.5465 34.4927C43.0295 30.467 42.3188 24.9597 41.8988 22.5121C41.7372 21.5781 42.3834 20.6763 43.3526 20.5153Z" fill="#111111"/>
<path opacity="0.2" d="M52.2371 41.9968C52.2694 41.9968 52.334 41.9646 52.334 41.9324C52.6248 38.3253 52.0756 33.1079 52.0756 33.0435C52.0756 33.0113 52.0109 32.9469 51.9786 32.9791C51.9463 32.9791 51.8817 33.0113 51.914 33.0757C51.914 33.1401 52.4956 38.3253 52.1725 41.9324C52.1402 41.9646 52.1725 41.9968 52.2371 41.9968Z" fill="white"/>
<path opacity="0.3" d="M43.8374 25.636C44.3866 28.0515 44.0959 31.3687 43.5143 34.4283C43.0943 31.0145 42.5128 26.57 42.0928 23.8325C42.7066 23.4138 43.4174 23.7037 43.8374 25.636Z" fill="#111111"/>
<path d="M52.0758 20.2576C50.3958 19.9033 50.1051 18.8728 50.2343 17.7133C50.2666 17.4235 50.2989 17.1336 50.3635 16.876L48.2635 15.169L46.7128 13.913C47.1328 15.7488 47.5851 19.1304 46.3251 20.3864C46.3251 20.3864 47.3589 22.0934 50.2343 21.8679C52.6897 21.7069 52.0758 20.2576 52.0758 20.2576Z" fill="#FFC3BD"/>
<path d="M49.5232 21.4492L50.0078 21.9001L48.5217 22.4476L48.7155 21.8679L49.5232 21.4492Z" fill="#E0E0E0"/>
<path d="M48.3927 23.2206C48.3927 23.2206 48.9742 21.7391 49.5234 21.4492C47.585 20.9339 46.6481 19.8711 46.6481 19.8711L45.7757 20.2254C45.7757 20.1932 45.485 21.9001 48.3927 23.2206Z" fill="#F5F5F5"/>
<path d="M50.3632 21.3204L50.0078 21.9001L51.5586 22.029L51.2355 21.5137L50.3632 21.3204Z" fill="#E0E0E0"/>
<path d="M52.3343 22.8019C52.3343 22.8019 51.4943 21.868 50.3312 21.3204C51.1712 21.0628 51.2358 19.9034 51.2358 19.9034L52.0435 20.0644C52.0758 20.0644 53.5943 21.5459 52.3343 22.8019Z" fill="#F5F5F5"/>
<path opacity="0.2" d="M50.3633 16.876C50.2987 17.1658 50.2341 17.4557 50.2341 17.7133C49.4587 17.5845 48.3925 16.7472 48.2956 15.942C48.2633 15.6522 48.2633 15.3623 48.2633 15.1369L50.3633 16.876Z" fill="#111111"/>
<path d="M52.9158 8.43796C53.6589 9.37194 53.5943 12.6892 52.0112 12.7214C50.4281 12.7536 51.5589 6.76324 52.9158 8.43796Z" fill="#111111"/>
<path d="M46.0989 10.8534C46.2604 13.3655 46.2281 14.847 47.4881 16.1352C49.3942 18.0998 52.4958 16.9726 53.1096 14.4605C53.6589 12.2061 53.3035 8.47018 50.8158 7.43959C48.3927 6.4734 45.9373 8.34136 46.0989 10.8534Z" fill="#FFC3BD"/>
<path d="M47.3265 8.76006C48.9095 10.3382 46.8418 11.4654 47.6495 12.3349C46.1634 13.1079 46.7126 13.6876 46.7126 13.6876C46.7126 13.6876 46.9711 14.2995 46.7126 15.0081C45.0326 14.5894 41.8988 8.98551 45.3234 8.14815C47.3588 9.04992 47.3265 8.76006 47.3265 8.76006Z" fill="#111111"/>
<path d="M46.6802 9.88724C48.1986 10.1127 50.0725 9.40415 51.2356 8.79223C52.3986 8.18032 52.5925 9.33974 52.1402 9.69401C52.8833 9.72621 53.8525 9.1143 53.594 7.79385C53.3679 6.57001 51.7848 5.4428 49.5233 6.47339C47.9402 7.18193 45.9694 6.24795 45.194 7.08531C44.451 7.89046 45.6786 9.72621 46.6802 9.88724Z" fill="#111111"/>
<path d="M45.6465 8.24476C44.6449 8.11593 44.5803 7.47181 44.8711 6.3768C43.7726 7.92269 44.2249 8.40579 44.8711 8.76005C45.5819 8.5024 45.6465 8.24476 45.6465 8.24476Z" fill="#111111"/>
<path d="M45.4203 12.7858C45.6787 13.3333 46.0987 13.7197 46.5187 13.913C47.1326 14.2028 47.4557 13.6231 47.2941 12.9468C47.1326 12.3349 46.648 11.4653 46.0018 11.4653C45.3557 11.4653 45.1295 12.1416 45.4203 12.7858Z" fill="#FFC3BD"/>
<path d="M50.0081 11.5942C50.0081 11.7874 50.105 11.9806 50.2665 11.9806C50.3957 11.9806 50.4927 11.8196 50.4927 11.6264C50.4927 11.4331 50.3958 11.2399 50.2342 11.2399C50.1373 11.2399 50.0081 11.4009 50.0081 11.5942Z" fill="#111111"/>
<path d="M52.3342 11.6264C52.3342 11.8196 52.4312 12.0129 52.5927 12.0129C52.7219 12.0129 52.8188 11.8518 52.8188 11.6586C52.8188 11.4654 52.7219 11.2721 52.5604 11.2721C52.4311 11.2721 52.3342 11.4332 52.3342 11.6264Z" fill="#111111"/>
<path d="M51.4619 11.6908C51.4619 11.6908 51.9142 12.8824 52.4312 13.4621C52.0758 13.7842 51.4619 13.6232 51.4619 13.6232V11.6908Z" fill="#ED847E"/>
<path d="M50.654 14.1707C49.8463 14.0741 49.4909 13.5265 49.4586 13.4943C49.4263 13.4621 49.4586 13.4299 49.4909 13.3977C49.5232 13.3655 49.5555 13.3977 49.5878 13.4299C49.5878 13.4299 50.0078 14.0741 50.9124 14.0741C50.9447 14.0741 50.9771 14.1063 50.9771 14.1385C50.9771 14.1707 50.9447 14.2029 50.9124 14.2029C50.8155 14.2029 50.7186 14.2029 50.654 14.1707Z" fill="#111111"/>
<path d="M48.9094 10.789C48.8771 10.789 48.8771 10.789 48.8448 10.7568C48.7801 10.7246 48.7801 10.628 48.8125 10.5958C49.2001 10.0805 49.7817 10.1127 49.7817 10.1127C49.8463 10.1127 49.9109 10.1771 49.8786 10.2415C49.8786 10.3059 49.814 10.3703 49.7494 10.3381C49.7171 10.3381 49.2971 10.3059 48.974 10.7246C48.974 10.789 48.9417 10.789 48.9094 10.789Z" fill="#111111"/>
<path d="M53.2712 10.8856C53.2389 10.8856 53.2066 10.8534 53.1743 10.8212C52.9481 10.3381 52.4958 10.2737 52.4958 10.2737C52.4312 10.2737 52.3989 10.2093 52.3989 10.1449C52.3989 10.0805 52.4635 10.0483 52.5281 10.0483C52.5604 10.0483 53.1096 10.1449 53.4004 10.7246C53.4327 10.789 53.4004 10.8534 53.3358 10.8856C53.3035 10.8856 53.3035 10.8856 53.2712 10.8856Z" fill="#111111"/>
<path d="M41.5112 21.9645C41.1235 22.8019 40.8004 23.5748 40.4773 24.38C40.1543 25.1851 39.8635 25.9903 39.5727 26.8277C39.0235 28.4702 38.5389 30.1771 38.2158 31.9484C38.1512 32.3993 38.0543 32.8502 37.9897 33.3011L37.9574 33.6554L37.925 33.8164V33.913V34.0418C37.8927 34.3639 37.8927 34.686 37.925 35.0402C37.9897 35.7165 38.2481 36.4895 38.6681 37.0692C39.0881 37.6811 39.605 38.132 40.122 38.4219C40.6389 38.7439 41.1558 38.9372 41.6727 39.066C42.1897 39.1948 42.6743 39.2914 43.1589 39.3236C43.6435 39.3558 44.1281 39.388 44.5804 39.3558C45.065 39.3236 45.485 39.2914 46.002 39.1948C46.6158 39.0982 47.0035 38.5185 46.9066 37.9066C46.842 37.4557 46.4866 37.1014 46.0343 37.0048L45.905 36.9726C45.582 36.9082 45.162 36.8116 44.8066 36.7149C44.4512 36.6183 44.0635 36.4895 43.7404 36.3929C43.062 36.1352 42.4481 35.8132 42.125 35.4911C41.9635 35.3301 41.8666 35.169 41.8343 35.0724C41.802 34.9758 41.802 34.8792 41.8343 34.7182C41.8343 34.6537 41.8666 34.5571 41.8989 34.4605L42.0281 33.9452C42.0927 33.5909 42.222 33.2045 42.3189 32.818C42.5127 32.0773 42.7389 31.3043 42.9973 30.5314C43.2558 29.7584 43.5143 29.0177 43.805 28.2447C44.0958 27.4718 44.3866 26.731 44.6773 25.9903C44.9681 25.2496 45.2912 24.4766 45.582 23.7681V23.7359C46.0666 22.6087 45.5497 21.2882 44.3866 20.8373C43.3204 20.4186 42.0281 20.9017 41.5112 21.9645Z" fill="#111111"/>
<path d="M47.0355 37.971L48.457 38.6473L46.0016 39.5169C46.0016 39.5169 44.354 39.0016 45.1616 38.0998L45.6139 37.971C46.3247 37.7455 46.6478 37.7455 47.0355 37.971Z" fill="#FFC3BD"/>
<path d="M48.2635 40.3865L47.1973 40.5797C46.8743 40.6441 46.5512 40.4831 46.3897 40.2254L46.002 39.5169L48.4574 38.6473L48.8127 39.3237C49.0389 39.7745 48.7804 40.2898 48.2635 40.3865Z" fill="#FFC3BD"/>
<rect x="101" y="6" width="20" height="20" rx="3" fill="#EEEEEE"/>
<rect x="105" y="11" width="11.11" height="11.11" rx="1" fill="#4A8CFF"/>
<path d="M107.083 15.002V17.4493C107.085 17.7148 107.191 17.9688 107.38 18.1557C107.568 18.3426 107.823 18.447 108.089 18.4459H111.656C111.705 18.4461 111.751 18.4272 111.785 18.3933C111.82 18.3594 111.839 18.3133 111.839 18.2651V15.8177C111.838 15.5523 111.731 15.2982 111.543 15.1113C111.354 14.9245 111.099 14.8201 110.834 14.8212H107.268C107.244 14.8209 107.22 14.8254 107.198 14.8343C107.175 14.8433 107.155 14.8565 107.138 14.8733C107.121 14.8901 107.107 14.9101 107.098 14.9322C107.089 14.9543 107.084 14.978 107.083 15.002ZM112.066 16.4645C112.066 16.1453 112.219 15.8453 112.477 15.657L113.539 14.8807C113.667 14.7746 113.766 14.8013 113.766 14.9931V18.2739C113.766 18.4922 113.645 18.4657 113.539 18.3861L112.477 17.6122C112.219 17.4239 112.066 17.1236 112.066 16.8041V16.4645Z" fill="white"/>
</g>
<defs>
<clipPath id="clip0_1448_28364">
<rect width="138" height="120" fill="white" transform="matrix(-1 0 0 1 138 0)"/>
</clipPath>
</defs>
</svg>
