<svg width="40" height="40" viewBox="0 0 40 40" fill="none" xmlns="http://www.w3.org/2000/svg">
<rect width="40" height="40" rx="4" fill="#4A8CFF"/>
<path d="M7.50024 14.4085V23.2199C7.50487 24.1756 7.88873 25.0903 8.56749 25.7631C9.24625 26.4359 10.1644 26.8117 11.1201 26.8079H23.964C24.1377 26.8088 24.3046 26.7407 24.4281 26.6187C24.5516 26.4967 24.6217 26.3306 24.6229 26.157V17.3456C24.6183 16.3899 24.2344 15.4751 23.5557 14.8023C22.8769 14.1295 21.9588 13.7537 21.0031 13.7575H8.16308C8.07678 13.7566 7.99113 13.7727 7.91106 13.8049C7.831 13.8372 7.75808 13.8849 7.6965 13.9454C7.63491 14.0058 7.58588 14.0779 7.5522 14.1573C7.51852 14.2368 7.50087 14.3222 7.50024 14.4085ZM25.4405 17.8457L30.7433 13.9719C31.2037 13.59 31.5609 13.6861 31.5609 14.3767V26.1887C31.5609 26.9746 31.1243 26.8794 30.7433 26.5928L25.4405 22.7277V17.8457Z" fill="white"/>
</svg>
