<svg width="32" height="32" viewBox="0 0 32 32" fill="none" xmlns="http://www.w3.org/2000/svg">
<path d="M30 2.22852H2C1.44772 2.22852 1 2.67623 1 3.22852V22.2285C1 22.7808 1.44772 23.2285 2 23.2285H30C30.5523 23.2285 31 22.7808 31 22.2285V3.22852C31 2.67623 30.5523 2.22852 30 2.22852Z" fill="#7B68EE"/>
<path d="M5 21.2285H27C27 20.6981 27.2107 20.1894 27.5858 19.8143C27.9609 19.4392 28.4696 19.2285 29 19.2285V6.22852C28.4696 6.22852 27.9609 6.0178 27.5858 5.64273C27.2107 5.26766 27 4.75895 27 4.22852H5C5 4.75895 4.78929 5.26766 4.41421 5.64273C4.03914 6.0178 3.53043 6.22852 3 6.22852V19.2285C3.53043 19.2285 4.03914 19.4392 4.41421 19.8143C4.78929 20.1894 5 20.6981 5 21.2285Z" fill="#F2F0FD"/>
<path d="M27.045 4.64602C27.0155 4.5088 27.0004 4.36887 27 4.22852H5C5 4.75895 4.78929 5.26766 4.41421 5.64273C4.03914 6.0178 3.53043 6.22852 3 6.22852V19.2285C3.52395 19.228 4.02697 19.4341 4.4 19.802H26.045C26.3102 19.802 26.5646 19.6967 26.7521 19.5091C26.9396 19.3216 27.045 19.0672 27.045 18.802V4.64602Z" fill="white"/>
<path d="M19 23.146V29.7717L17 28.3127L15 29.7717V25.7594L17 27.2185V23.7387C17.1139 23.6907 17.2209 23.6345 17.3195 23.5709C17.558 23.4068 17.8673 23.3082 18.1945 23.2923C18.4741 23.2855 18.7485 23.2354 19 23.146Z" fill="#F0AE42"/>
<path d="M11.5001 20.5481C11.7251 20.7866 11.8602 21.0959 11.8821 21.4231C11.8981 21.9276 12.1057 22.4071 12.4626 22.7641C12.8196 23.121 13.2991 23.3286 13.8036 23.3446C14.1308 23.3665 14.4401 23.5016 14.6786 23.7266C15.042 24.05 15.5116 24.2287 15.9981 24.2287C16.4846 24.2287 16.9541 24.05 17.3176 23.7266C17.5561 23.5016 17.8654 23.3665 18.1926 23.3446C18.6971 23.3286 19.1766 23.121 19.5336 22.7641C19.8905 22.4071 20.0981 21.9276 20.1141 21.4231C20.1371 21.0954 20.2736 20.786 20.5001 20.5481C20.8235 20.1847 21.0021 19.7151 21.0021 19.2286C21.0021 18.7421 20.8235 18.2726 20.5001 17.9091C20.2751 17.6706 20.14 17.3613 20.1181 17.0341C20.1021 16.5296 19.8945 16.0501 19.5376 15.6932C19.1806 15.3362 18.7011 15.1286 18.1966 15.1126C17.8685 15.0906 17.5583 14.9548 17.3196 14.7286C16.9561 14.4052 16.4866 14.2266 16.0001 14.2266C15.5136 14.2266 15.044 14.4052 14.6806 14.7286C14.4421 14.9536 14.1328 15.0887 13.8056 15.1106C13.3011 15.1266 12.8216 15.3342 12.4646 15.6912C12.1077 16.0481 11.9001 16.5276 11.8841 17.0321C11.8621 17.3602 11.7263 17.6704 11.5001 17.9091C11.1767 18.2726 10.998 18.7421 10.998 19.2286C10.998 19.7151 11.1767 20.1847 11.5001 20.5481Z" fill="#FDB022"/>
<path d="M16 21.7285C17.3807 21.7285 18.5 20.6092 18.5 19.2285C18.5 17.8478 17.3807 16.7285 16 16.7285C14.6193 16.7285 13.5 17.8478 13.5 19.2285C13.5 20.6092 14.6193 21.7285 16 21.7285Z" fill="#F9D266"/>
<path d="M13.5 19.2285C13.5028 19.6443 13.6102 20.0527 13.8125 20.416C14.1758 20.6183 14.5842 20.7258 15 20.7285C15.663 20.7285 16.2989 20.4651 16.7678 19.9963C17.2366 19.5274 17.5 18.8916 17.5 18.2285C17.4972 17.8127 17.3898 17.4043 17.1875 17.041C16.8242 16.8388 16.4158 16.7313 16 16.7285C15.337 16.7285 14.7011 16.9919 14.2322 17.4607C13.7634 17.9296 13.5 18.5655 13.5 19.2285Z" fill="#FCE797"/>
<path d="M11.5 5.72852H20.5V6.72852H11.5V5.72852ZM8.5 7.72852H23.5V8.72852H8.5V7.72852ZM6.5 9.72852H25.5V10.7285H6.5V9.72852Z" fill="#DFDBFB"/>
<path d="M22.5 18.7285H25.5V19.7285H22.5V18.7285ZM6.5 18.7285H9.5V19.7285H6.5V18.7285Z" fill="#DFDBFB"/>
<path d="M17 23.9069V28.3775L15 26.5032L13 28.3775V23.146C13.2515 23.2608 13.5259 23.3247 13.8055 23.3334C14.1327 23.354 14.442 23.4805 14.6805 23.6914C14.9935 23.9519 15.3863 24.113 15.8029 24.1518C16.2194 24.1906 16.6384 24.1046 17 23.9069Z" fill="#F9D266"/>
</svg>
