<svg width="32" height="33" viewBox="0 0 32 33" fill="none" xmlns="http://www.w3.org/2000/svg">
<path d="M25.5131 6.75997C23.0793 4.32537 19.7154 2.81982 16.001 2.81982C12.2855 2.81982 8.92213 4.32537 6.48753 6.75997C4.05242 9.19456 2.54688 12.5585 2.54688 16.2734C2.54688 19.9883 4.05242 23.3522 6.48702 25.7868C8.92161 28.2219 12.2855 29.727 16.001 29.727C19.7159 29.727 23.0798 28.2206 25.5136 25.7868C27.9482 23.3517 29.4538 19.9883 29.4538 16.2734C29.4538 12.5585 27.9477 9.19456 25.5131 6.75997ZM25.0693 25.342C22.7487 27.6629 19.5422 29.0984 16.0004 29.0984C12.4587 29.0984 9.25188 27.6629 6.93105 25.342C4.61021 23.0212 3.17461 19.8149 3.17461 16.2734C3.17461 12.7317 4.61021 9.52534 6.93105 7.20451C9.25188 4.88367 12.4582 3.44807 15.9999 3.44807C19.5416 3.44807 22.748 4.88367 25.0688 7.20451C27.3896 9.52534 28.825 12.7317 28.825 16.2734C28.8255 19.8149 27.3899 23.0214 25.0693 25.342Z" fill="#35495C"/>
<path d="M27.5737 16.1611C27.5132 9.82074 22.3553 4.69943 16.0008 4.69943C9.64576 4.69943 4.4873 9.82126 4.42785 16.1617L9.73467 10.8548L11.5144 12.6345L7.63085 16.5181H24.3704L20.4869 12.6345L22.2666 10.8548L27.5737 16.1611ZM16.0003 14.1724L11.0691 8.99777H14.3461V6.4471C14.3461 5.78503 15.0907 5.24236 16.0003 5.24236C16.9098 5.24236 17.6544 5.78452 17.6544 6.4471V8.99777H20.9315L16.0003 14.1724Z" fill="#35495C"/>
<path d="M17.4389 22.787C17.176 22.6161 16.8429 22.4623 16.4412 22.3288C16.134 22.223 15.8811 22.1231 15.6838 22.0268C15.488 21.9314 15.3435 21.8256 15.251 21.7139C15.1562 21.6002 15.1119 21.4639 15.1119 21.3076C15.1119 21.1825 15.1496 21.0636 15.2303 20.9512C15.3094 20.8389 15.4332 20.7454 15.6013 20.6747C15.7712 20.603 15.9874 20.5643 16.2559 20.563C16.4722 20.564 16.6697 20.5814 16.8483 20.6124C17.0248 20.6445 17.1814 20.6831 17.3154 20.7275C17.4512 20.7733 17.5608 20.8166 17.6472 20.8574L17.9459 19.9565C17.7653 19.8658 17.5391 19.7905 17.2644 19.7295C17.0312 19.678 16.7643 19.6483 16.4612 19.638V18.7059H15.64V19.6847C15.5083 19.7059 15.382 19.7346 15.2626 19.7692C14.9605 19.8584 14.7009 19.9821 14.4862 20.1438C14.2733 20.3047 14.1083 20.493 13.995 20.7088C13.8813 20.9245 13.8252 21.1623 13.8229 21.418C13.8244 21.7139 13.902 21.9748 14.055 22.2C14.208 22.4254 14.426 22.6209 14.7076 22.7885C14.9879 22.9556 15.3225 23.0996 15.7094 23.2207C15.9997 23.3138 16.2364 23.4109 16.4168 23.5105C16.5975 23.6097 16.7297 23.7191 16.8119 23.8385C16.896 23.9579 16.9375 24.0962 16.9359 24.251C16.9359 24.4209 16.886 24.5682 16.7886 24.6955C16.6923 24.8211 16.5498 24.9197 16.3625 24.9897C16.1752 25.0604 15.9467 25.095 15.6787 25.0973C15.4606 25.0958 15.2492 25.0771 15.043 25.0417C14.8383 25.0048 14.6461 24.9571 14.469 24.8977C14.2902 24.8383 14.1339 24.7737 13.9981 24.7014L13.7094 25.6397C13.84 25.7115 14.003 25.776 14.2026 25.8355C14.4022 25.8954 14.6218 25.9431 14.8623 25.9795C15.1011 26.0148 15.3466 26.0328 15.5962 26.0351L15.64 26.0345V26.9982H16.4612V25.9572C16.5654 25.9369 16.6646 25.9128 16.7589 25.8849C17.0884 25.7858 17.362 25.6505 17.5785 25.4773C17.7966 25.3056 17.958 25.1068 18.0651 24.8826C18.1717 24.6584 18.225 24.4211 18.225 24.1685C18.225 23.8726 18.1617 23.6107 18.031 23.3855C17.8991 23.1582 17.7028 22.9591 17.4389 22.787Z" fill="#35495C"/>
</svg>
