<svg width="32" height="33" viewBox="0 0 32 33" fill="none" xmlns="http://www.w3.org/2000/svg">
<path fill-rule="evenodd" clip-rule="evenodd" d="M29.1948 6.24941C29.1948 4.83576 28.047 3.68799 26.6334 3.68799H6.14199C4.72834 3.68799 3.58057 4.83576 3.58057 6.24941V26.7408C3.58057 28.1545 4.72834 29.3022 6.14199 29.3022H26.6334C28.047 29.3022 29.1948 28.1545 29.1948 26.7408V6.24941Z" fill="#7742E6"/>
<path fill-rule="evenodd" clip-rule="evenodd" d="M25.0073 9.76045C25.0073 9.76045 13.9583 12.7209 9.55141 13.9019C8.49952 14.1837 7.76806 15.1369 7.76806 16.2259C7.76806 17.0538 7.76806 17.8472 7.76806 17.8472C7.76806 17.8472 16.6437 15.469 21.6579 14.1255C23.6335 13.5961 25.0073 11.8058 25.0073 9.76045Z" fill="white"/>
<path fill-rule="evenodd" clip-rule="evenodd" d="M18.3907 16.9159C18.3907 16.9159 12.577 18.4737 9.55141 19.2844C8.49952 19.5663 7.76806 20.5195 7.76806 21.6085C7.76806 22.4363 7.76806 23.2298 7.76806 23.2298C7.76806 23.2298 11.9279 22.1152 15.0412 21.281C17.0169 20.7516 18.3907 18.9613 18.3907 16.916V16.9159Z" fill="white"/>
</svg>
