<svg width="33" height="33" viewBox="0 0 33 33" fill="none" xmlns="http://www.w3.org/2000/svg">
<path d="M4.7149 4.21216C3.68153 4.21216 2.8457 5.04799 2.8457 6.08022V26.01C2.8457 27.0422 3.68153 27.8781 4.7149 27.8781H28.3808C29.4142 27.8781 30.25 27.0422 30.25 26.01V6.08022C30.25 5.04799 29.4142 4.21216 28.3808 4.21216H4.7149ZM5.33721 6.70252H27.7585V25.3877H24.6458V24.1431H19.0394V25.3877H5.33721V6.70252ZM16.5479 11.6855C16.0523 11.6855 15.577 11.8824 15.2265 12.2328C14.8761 12.5833 14.6792 13.0586 14.6792 13.5542C14.6792 14.0498 14.8761 14.5251 15.2265 14.8755C15.577 15.2259 16.0523 15.4228 16.5479 15.4228C17.0434 15.4228 17.5187 15.2259 17.8692 14.8755C18.2196 14.5251 18.4165 14.0498 18.4165 13.5542C18.4165 13.0586 18.2196 12.5833 17.8692 12.2328C17.5187 11.8824 17.0434 11.6855 16.5479 11.6855ZM11.566 13.8665C10.7918 13.8665 10.1627 14.4945 10.1627 15.2664C10.1731 15.6312 10.3253 15.9775 10.587 16.2319C10.8487 16.4863 11.1993 16.6285 11.5643 16.6285C11.9292 16.6285 12.2798 16.4863 12.5415 16.2319C12.8032 15.9775 12.9555 15.6312 12.9659 15.2664C12.9659 14.4933 12.339 13.8665 11.566 13.8665ZM21.5297 13.8665C21.3424 13.8611 21.156 13.8934 20.9814 13.9614C20.8068 14.0293 20.6476 14.1316 20.5133 14.2622C20.3789 14.3928 20.2721 14.549 20.1992 14.7216C20.1263 14.8941 20.0887 15.0796 20.0887 15.2669C20.0887 15.4543 20.1263 15.6397 20.1992 15.8123C20.2721 15.9849 20.3789 16.1411 20.5133 16.2717C20.6476 16.4022 20.8068 16.5045 20.9814 16.5725C21.156 16.6405 21.3424 16.6728 21.5297 16.6674C21.8942 16.657 22.2403 16.5049 22.4945 16.2434C22.7486 15.9819 22.8908 15.6316 22.8908 15.2669C22.8908 14.9023 22.7486 14.552 22.4945 14.2905C22.2403 14.029 21.8942 13.8769 21.5297 13.8665ZM16.5479 16.6674C15.2016 16.6674 13.7926 17.1253 12.9533 17.8161C12.5043 17.6752 12.0366 17.6029 11.566 17.6014C10.0656 17.6014 8.44988 18.395 8.44988 19.3816V20.4047H24.6458V19.3816C24.6458 18.395 23.0301 17.6014 21.5297 17.6014C21.0616 17.6014 20.582 17.6791 20.1424 17.8161C19.3031 17.1253 17.8941 16.6674 16.5479 16.6674Z" fill="#22A565"/>
</svg>
