<svg width="32" height="33" viewBox="0 0 32 33" fill="none" xmlns="http://www.w3.org/2000/svg">
<path fill-rule="evenodd" clip-rule="evenodd" d="M16.0005 29.888C23.6708 29.888 29.8887 23.6902 29.8887 16.0449C29.8887 8.39962 23.6708 2.2019 16.0005 2.2019C8.33027 2.2019 2.1123 8.39962 2.1123 16.0449C2.1123 23.6902 8.33027 29.888 16.0005 29.888ZM16.0604 9.12339C14.9452 9.12339 13.4019 9.75908 12.6134 10.5432L10.4717 12.6729H21.1466L24.7161 9.12339H16.0604ZM19.3697 21.5466C18.5811 22.3307 17.0379 22.9664 15.9227 22.9664H7.267L10.8365 19.4169H21.5114L19.3697 21.5466ZM22.8391 14.4476H8.69088L8.02257 15.1132C6.44011 16.533 6.90946 17.6422 9.1256 17.6422H23.3122L23.9807 16.9767C25.5477 15.5652 25.0553 14.4476 22.8391 14.4476Z" fill="#4338CA"/>
</svg>
