<svg width="32" height="33" viewBox="0 0 32 33" fill="none" xmlns="http://www.w3.org/2000/svg">
<path fill-rule="evenodd" clip-rule="evenodd" d="M15.9999 29.8817C23.6415 29.8817 29.8363 23.6869 29.8363 16.0453C29.8363 8.40373 23.6415 2.20898 15.9999 2.20898C8.35832 2.20898 2.16357 8.40373 2.16357 16.0453C2.16357 23.6869 8.35832 29.8817 15.9999 29.8817ZM16.0595 9.12716C14.9485 9.12716 13.411 9.76252 12.6254 10.5463L10.4918 12.675H21.1268L24.683 9.12716H16.0595ZM19.3565 21.5444C18.5709 22.3281 17.0334 22.9636 15.9224 22.9636H7.29903L10.8551 19.4157H21.4902L19.3565 21.5444ZM22.813 14.4488H8.71757L8.05177 15.114C6.47521 16.5332 6.94279 17.6418 9.15069 17.6418H23.2842L23.9503 16.9766C25.5115 15.5659 25.0209 14.4488 22.813 14.4488Z" fill="#00AD6B"/>
</svg>
