<svg width="32" height="33" viewBox="0 0 32 33" fill="none" xmlns="http://www.w3.org/2000/svg">
<path d="M12.9524 21.1106C12.9524 20.9528 12.9381 20.7808 12.9381 20.5944C12.8951 20.7521 12.8521 20.9385 12.7947 21.0819L12.637 21.5694H12.4219L12.2785 21.0819C12.2355 20.9385 12.1925 20.7521 12.1638 20.5944C12.1638 20.7664 12.1495 20.9528 12.1495 21.1106L12.1208 21.5837H11.8627L11.9488 20.322H12.3216L12.4506 20.7378C12.4936 20.8812 12.5223 21.0389 12.551 21.1823C12.5796 21.0389 12.6227 20.8668 12.6657 20.7378L12.7947 20.322H13.1675L13.2392 21.5837H12.9668L12.9524 21.1106Z" fill="#1E7FC0"/>
<path d="M14.587 21.0532H14.1282V21.3543H14.6444V21.5837H13.8414V20.322H14.6157V20.5514H14.1282V20.8095H14.587V21.0532Z" fill="#1E7FC0"/>
<path d="M16.279 21.1106C16.279 20.9528 16.2646 20.7808 16.2646 20.5944C16.2216 20.7521 16.1786 20.9385 16.1213 21.0819L15.9635 21.5694H15.7485L15.6194 21.0819C15.5764 20.9385 15.5334 20.7521 15.5047 20.5944C15.5047 20.7664 15.4904 20.9528 15.4904 21.1106L15.4617 21.5837H15.2036L15.2896 20.322H15.6624L15.7915 20.7378C15.8345 20.8812 15.8632 21.0389 15.8918 21.1823C15.9205 21.0389 15.9635 20.8668 16.0065 20.7378L16.1356 20.322H16.5084L16.5801 21.5837H16.3077L16.279 21.1106Z" fill="#1E7FC0"/>
<path d="M17.168 20.3506C17.2827 20.3363 17.4117 20.322 17.5408 20.322C17.7128 20.322 17.8275 20.3363 17.9136 20.3936C17.9996 20.4367 18.0713 20.537 18.057 20.6374C18.057 20.7521 17.9996 20.8525 17.8562 20.9098C17.9996 20.9385 18.1 21.0676 18.1 21.2109C18.1 21.3113 18.057 21.4117 17.9709 21.4834C17.8849 21.5551 17.7272 21.5981 17.4834 21.5981C17.383 21.5981 17.2827 21.5981 17.1823 21.5837L17.168 20.3506ZM17.4404 20.8238H17.5264C17.6698 20.8238 17.7558 20.7664 17.7558 20.6661C17.7558 20.58 17.6842 20.5227 17.5551 20.5227C17.5121 20.5227 17.4691 20.5227 17.4404 20.537V20.8238ZM17.4404 21.383C17.4834 21.383 17.5121 21.383 17.5551 21.383C17.6842 21.383 17.7989 21.3256 17.7989 21.1966C17.7989 21.0676 17.6842 21.0245 17.5408 21.0245H17.4404V21.383Z" fill="#1E7FC0"/>
<path d="M19.4191 21.0532H18.9603V21.3543H19.4765V21.5837H18.6735V20.322H19.4478V20.5514H18.9603V20.8095H19.4191V21.0532Z" fill="#1E7FC0"/>
<path d="M20.0357 20.3506C20.1647 20.3363 20.2938 20.322 20.4085 20.322C20.5949 20.322 20.7239 20.3506 20.8099 20.4223C20.8816 20.4797 20.9247 20.58 20.9247 20.6804C20.9247 20.8238 20.8386 20.9385 20.7096 20.9815C20.7956 21.0102 20.8386 21.0962 20.8816 21.2109C20.9103 21.3256 20.939 21.4547 20.982 21.5694H20.6952C20.6522 21.469 20.6235 21.383 20.6092 21.2826C20.5805 21.1249 20.5232 21.0819 20.4085 21.0819H20.3224V21.5694H20.0357V20.3506ZM20.3224 20.8812H20.4371C20.5805 20.8812 20.6666 20.8095 20.6666 20.6948C20.6666 20.58 20.5949 20.5227 20.4515 20.5227C20.4085 20.5227 20.3655 20.5227 20.3224 20.537V20.8812Z" fill="#1E7FC0"/>
<path d="M4.07691 19.0745L2.80078 13.6976H4.10559L4.5214 15.9057C4.63611 16.5509 4.75082 17.2392 4.83685 17.784H4.85119C4.93722 17.1962 5.06627 16.5509 5.19531 15.8914L5.65414 13.6976H6.94461L7.37476 15.9631C7.48947 16.5939 7.5755 17.1675 7.66154 17.7554H7.67587C7.7619 17.1531 7.87661 16.5366 7.99132 15.8914L8.42148 13.6976H9.65459L8.26375 19.0745H6.95895L6.50012 16.766C6.38541 16.2211 6.29938 15.705 6.24202 15.1027H6.22768C6.14165 15.705 6.05562 16.2211 5.92658 16.7517L5.41039 19.0602H4.07691V19.0745Z" fill="#333333"/>
<path d="M10.0274 19.0745V15.1601H11.2462V19.0602H10.0274V19.0745Z" fill="#333333"/>
<path d="M11.9487 18.0135C12.2642 18.1855 12.6227 18.2859 12.9811 18.3002C13.3539 18.3002 13.4973 18.1712 13.4973 17.9848C13.4973 17.7984 13.3683 17.6837 12.9238 17.5403C12.1208 17.2679 11.8197 16.8234 11.834 16.3645C11.834 15.6333 12.4506 15.0741 13.4113 15.0741C13.8701 15.0741 14.2716 15.1744 14.5153 15.3035L14.3003 16.1351C14.0422 16.0061 13.7554 15.92 13.4543 15.92C13.1532 15.92 12.9955 16.0347 12.9955 16.2355C12.9955 16.4219 13.1532 16.5222 13.6264 16.68C14.372 16.9381 14.6731 17.3109 14.6874 17.8844C14.6874 18.6157 14.1139 19.1462 12.9955 19.1462C12.4936 19.1462 12.0348 19.0315 11.7337 18.8738L11.9487 18.0135Z" fill="#333333"/>
<path d="M16.279 13.4108V15.6333H16.2933C16.4224 15.4612 16.5801 15.3322 16.7665 15.2318C16.9672 15.1314 17.1823 15.0741 17.3974 15.0741C18.1717 15.0741 18.7595 15.6046 18.7595 16.7803V19.0602H17.5408V16.9094C17.5408 16.3932 17.3687 16.0491 16.9099 16.0491C16.6374 16.0491 16.3937 16.2211 16.3077 16.4792C16.279 16.5653 16.2646 16.6513 16.2646 16.7373V19.0458H15.0459V13.4108H16.279Z" fill="#333333"/>
<path d="M19.161 13.6976H20.3798V18.0421H22.5162V19.0602H19.1754V13.6976H19.161Z" fill="#333333"/>
<path d="M22.889 19.0745V15.1601H24.1078V19.0602H22.889V19.0745Z" fill="#333333"/>
<path d="M24.71 18.0135C24.9251 18.1425 25.3983 18.3002 25.7424 18.3002C26.1152 18.3002 26.2586 18.1712 26.2586 17.9848C26.2586 17.784 26.1295 17.6837 25.685 17.5403C24.8677 17.2679 24.5666 16.8377 24.5666 16.3789C24.5666 15.6476 25.1832 15.1027 26.1582 15.1027C26.617 15.1027 27.0185 15.2031 27.2623 15.3322L27.0472 16.1638C26.7891 16.0347 26.5023 15.9487 26.2012 15.9487C25.9001 15.9487 25.7424 16.0634 25.7424 16.2642C25.7424 16.4506 25.9001 16.5509 26.3733 16.7087C27.1189 16.9667 27.42 17.3395 27.4343 17.9131C27.4343 18.6444 26.8608 19.1749 25.7424 19.1749C25.2405 19.1749 24.7817 19.0602 24.4806 18.9024L24.71 18.0135Z" fill="#333333"/>
<path d="M29.1693 14.056V15.1744H30.0439V16.0634H29.1693V17.4829C29.1693 17.9561 29.284 18.1712 29.6425 18.1712C29.7572 18.1712 29.8862 18.1568 30.0009 18.1282L30.0153 19.0458C29.8575 19.1032 29.5708 19.1462 29.2266 19.1462C28.8395 19.1462 28.5097 19.0028 28.309 18.8021C28.0796 18.5727 27.9792 18.1999 27.9792 17.6407V16.0634H27.463V15.1744H27.9792V14.3428L29.1693 14.056Z" fill="#333333"/>
<path d="M24.1365 14.056C24.1365 14.4288 23.8354 14.7443 23.4482 14.7443C23.0468 14.7443 22.76 14.3858 22.76 14.0704C22.76 13.6545 23.1041 13.3534 23.4626 13.3678C23.8067 13.3391 24.1365 13.6689 24.1365 14.056ZM22.4302 13.6976C22.4302 13.6976 16.236 7.87613 10.7587 14.3715C10.7587 14.3715 8.88031 10.5001 4.65045 10.5431C4.65045 10.5431 8.29243 9.85484 10.7873 13.5398C10.7873 13.5398 16.2216 7.11619 23.1758 13.0093C23.1901 12.995 22.4876 12.952 22.4302 13.6976Z" fill="#1E7FC0"/>
</svg>
