<svg width="120" height="101" viewBox="0 0 120 101" fill="none" xmlns="http://www.w3.org/2000/svg">
<g clip-path="url(#clip0_4135_4668)">
<path d="M108.61 83.9926L98.7779 80.2239C98.4515 80.0986 98.1878 79.8482 98.0446 79.5274C97.9014 79.2067 97.8905 78.8419 98.0142 78.5131L103.197 64.8167C103.322 64.4881 103.571 64.2227 103.889 64.0786C104.208 63.9344 104.571 63.9235 104.897 64.048L111.141 66.4384L114.074 73.2962L110.315 83.2263C110.254 83.3897 110.161 83.5393 110.042 83.6665C109.923 83.7936 109.78 83.8957 109.621 83.967C109.463 84.0382 109.292 84.0771 109.118 84.0815C108.945 84.0859 108.772 84.0557 108.61 83.9926Z" fill="#EBEBEB"/>
<path d="M111.141 66.4384L109.681 70.2938C109.624 70.4456 109.597 70.6073 109.603 70.7695C109.608 70.9317 109.645 71.0912 109.712 71.2389C109.779 71.3867 109.874 71.5197 109.992 71.6304C110.109 71.7411 110.248 71.8273 110.399 71.8841L114.083 73.2962L111.141 66.4384Z" fill="#E0E0E0"/>
<path d="M108.91 69.8215C108.891 69.8697 107.856 69.5203 106.602 69.0383C105.347 68.5564 104.342 68.1275 104.361 68.0745C104.38 68.0215 105.412 68.3757 106.669 68.8576C107.926 69.3395 108.929 69.7709 108.91 69.8215Z" fill="white"/>
<path d="M111.024 73.1275C111.005 73.1757 109.312 72.5733 107.246 71.7805C105.18 70.9877 103.516 70.3058 103.535 70.2576C103.554 70.2094 105.245 70.8094 107.313 71.6022C109.382 72.395 111.041 73.0769 111.024 73.1275Z" fill="white"/>
<path d="M111.007 75.2046C110.99 75.2552 109.147 74.595 106.894 73.7299C104.641 72.8648 102.824 72.1275 102.848 72.0769C102.872 72.0263 104.708 72.6865 106.961 73.5516C109.214 74.4167 111.026 75.1564 111.007 75.2046Z" fill="white"/>
<path d="M110.358 76.9323C110.339 76.9829 108.498 76.3227 106.245 75.4576C103.993 74.5926 102.175 73.8528 102.197 73.8046C102.219 73.7564 104.057 74.4143 106.312 75.2793C108.568 76.1444 110.378 76.8721 110.358 76.9323Z" fill="white"/>
<path d="M109.705 78.6408C109.686 78.6889 107.842 78.0287 105.589 77.1661C103.336 76.3034 101.519 75.5612 101.543 75.5106C101.567 75.46 103.403 76.1227 105.656 76.9853C107.909 77.848 109.726 78.5902 109.705 78.6408Z" fill="white"/>
<path d="M109.058 80.3564C109.039 80.407 107.198 79.7468 104.945 78.8841C102.692 78.0215 100.875 77.2793 100.897 77.2287C100.918 77.1781 102.757 77.8383 105.012 78.7034C107.267 79.5685 109.077 80.3058 109.058 80.3564Z" fill="white"/>
<path d="M62.0621 40.0408C62.0333 39.7371 61.9998 39.4383 61.9591 39.142C61.9184 38.8456 61.8705 38.513 61.8179 38.1998C61.8705 38.513 61.9184 38.8263 61.9591 39.142C61.9998 39.4576 62.0214 39.7371 62.0621 40.0408Z" fill="#F5F5F5"/>
<path d="M59.654 43.7661C59.3955 43.1781 59.338 42.5275 59.1752 41.9082C59.1463 41.7383 59.082 41.5765 58.9868 41.4332C58.8915 41.29 58.7672 41.1686 58.6222 41.0769C58.404 41.0113 58.1816 40.9606 57.9566 40.9251C57.1762 40.6841 56.9655 39.595 56.2257 39.2552C55.9878 39.1649 55.7375 39.1121 55.4835 39.0986C54.4948 38.9805 53.4701 38.6359 52.85 37.8552C52.6719 37.5833 52.4674 37.3299 52.2395 37.0986C51.9858 36.8938 51.5931 36.8046 51.3465 37.0143C51.5556 37.4367 51.7615 37.856 51.9642 38.2721C52.1273 38.662 52.363 39.017 52.6585 39.3179C52.8099 39.4648 52.9996 39.5654 53.2056 39.608C53.4116 39.6507 53.6253 39.6336 53.822 39.5588C53.9381 39.4779 54.0738 39.4305 54.2147 39.4215C54.3164 39.4427 54.4068 39.5011 54.4684 39.5853C55.0071 40.1853 54.8323 41.1805 54.3056 41.795C53.7789 42.4094 53.008 42.7227 52.2611 43.0215C52.0024 43.151 51.7137 43.2076 51.4256 43.1853C50.9084 43.0889 50.6331 42.5203 50.4823 42.0118C50.1447 40.8865 49.9819 39.6649 49.2852 38.7155C49.0338 38.4397 48.8218 38.1298 48.6556 37.795C48.5119 37.4167 48.5455 36.9757 48.3204 36.6456C48.0954 36.3155 47.5902 36.0938 47.5567 35.6817C47.5627 35.5337 47.6111 35.3906 47.6961 35.2696C47.781 35.1486 47.8989 35.0549 48.0355 34.9998C48.3037 34.8697 48.6029 34.8335 48.8782 34.7203C48.986 34.6721 49.1176 34.5926 49.1176 34.4793C49.1176 34.301 48.8782 34.2383 48.8112 34.0673C48.7442 33.8962 48.9333 33.7082 49.0123 33.5299C49.1847 33.1179 48.7585 32.701 48.3444 32.5323C47.9302 32.3637 47.4394 32.2432 47.2479 31.8408C47.1777 31.6466 47.1326 31.4441 47.1138 31.2383C47.0758 30.9809 46.9627 30.7406 46.7888 30.5479C46.6149 30.3553 46.388 30.219 46.137 30.1564C45.6247 30.0721 45.0573 30.5299 45.1387 31.0432C45.1889 31.3227 45.3996 31.542 45.5121 31.8022C45.6247 32.0624 45.5935 32.4504 45.3278 32.5251C44.8897 32.66 44.4683 31.8528 44.0996 32.1323C44.2505 32.648 44.3965 33.1636 44.5473 33.6865C43.9703 33.9805 43.2832 33.4456 43.0367 32.8408C42.7901 32.2359 42.7805 31.5516 42.4884 30.9709C42.1963 30.3902 41.4087 29.9564 40.9083 30.3661C40.882 31.1155 41.8659 31.4167 42.2969 32.0215C42.6105 32.46 42.565 33.1685 42.1006 33.4456C41.6361 33.7227 40.9035 33.2408 41.0879 32.7227C41.1501 32.5468 41.2961 32.3998 41.3129 32.2094C41.3297 31.9685 41.1333 31.7853 40.9538 31.6335L40.1159 30.9251C39.9437 30.7597 39.7401 30.631 39.5173 30.5468C38.9428 30.3781 38.3658 30.848 38.0617 31.3661C37.7577 31.8841 37.5829 32.4962 37.1639 32.9275C36.5582 33.5588 35.4115 33.595 34.8441 32.9275C34.2767 32.26 34.564 31.0311 35.4019 30.7926C35.7203 30.7058 36.1201 30.713 36.2877 30.4311C36.5798 29.9323 35.7442 29.2938 36.0339 28.7902C36.2542 28.4022 36.8383 28.5781 37.2645 28.448C37.6906 28.3179 37.9229 27.8914 38.1743 27.5203C38.4256 27.1492 38.8087 26.7974 39.242 26.8817C39.1834 26.628 39.1992 26.3627 39.2875 26.1179C39.3133 26.0595 39.3505 26.0068 39.3967 25.963C39.443 25.9192 39.4975 25.885 39.557 25.8626C39.6165 25.8402 39.6798 25.8299 39.7433 25.8324C39.8068 25.8348 39.8691 25.85 39.9267 25.8769C39.7137 26.2311 39.9698 26.7227 40.3409 26.8986C40.7298 27.0398 41.1499 27.0698 41.5547 26.9853C41.9641 26.9371 42.4764 26.7853 42.5123 26.3733C42.5123 26.2383 42.474 26.0962 42.5123 25.9709C42.6919 25.489 43.5945 26.154 43.9488 25.7588C44.1475 25.554 43.9273 25.1877 43.6471 25.1203C43.367 25.0528 43.0845 25.154 42.7996 25.1637C42.5147 25.1733 42.17 25.0239 42.158 24.7396C42.1461 24.4552 42.4573 24.2576 42.4908 23.9781C42.5459 23.4962 41.7534 23.3877 41.4733 23.7685C41.1932 24.1492 41.2938 24.6769 41.3775 25.142C41.4613 25.607 41.5068 26.1588 41.1645 26.4865C41.0184 26.7082 40.6378 26.5926 40.5133 26.3564C40.4182 26.1061 40.3766 25.8384 40.3912 25.5709C40.372 25.301 40.2547 24.9998 39.9962 24.9275C39.8087 24.9116 39.62 24.9329 39.4407 24.9902C38.7225 25.0793 38.2102 24.1347 38.4376 23.4359C38.665 22.7371 39.3234 22.2865 39.9626 21.9299C40.4415 21.6697 41.0089 21.4239 41.4733 21.689C41.6888 21.8118 41.8396 22.0215 42.0527 22.1468C42.4214 22.3661 42.8762 22.2865 43.2976 22.2938C43.9673 22.3168 44.6084 22.5722 45.1123 23.0167C45.2991 23.1877 45.4762 23.4745 45.3302 23.6793C45.1842 23.8841 44.7149 23.9444 44.7939 24.1998C44.916 24.2344 45.0439 24.2428 45.1694 24.2244C45.2949 24.206 45.4152 24.1613 45.5224 24.0931C45.6296 24.025 45.7214 23.9349 45.7918 23.8287C45.8622 23.7226 45.9097 23.6027 45.9311 23.4769C46.0514 23.5334 46.155 23.6205 46.2318 23.7295C46.3086 23.8384 46.356 23.9656 46.3692 24.0986C46.5069 23.9715 46.6692 23.8745 46.8458 23.8136C47.0225 23.7526 47.2098 23.7291 47.396 23.7445C47.5821 23.7599 47.7631 23.8139 47.9275 23.903C48.092 23.9921 48.2363 24.1145 48.3515 24.2624C48.4441 24.4438 48.5681 24.607 48.7178 24.7444C48.8854 24.8552 49.1775 24.7998 49.1967 24.6022C49.1985 24.5387 49.1871 24.4755 49.1631 24.4167C49.0626 24.1323 48.9572 23.8504 48.8567 23.5685C49.2469 23.3588 49.7042 23.6865 49.9675 24.0504C50.9443 25.3636 51.6434 24.5733 53.0176 24.7877C53.9489 24.9323 54.3583 25.5323 54.885 26.2576C56.4962 28.4938 58.6246 30.3251 60.0898 32.66C60.243 32.901 60.3842 33.142 60.5183 33.4046C60.4944 33.342 60.4728 33.2769 60.4465 33.2143C59.875 31.6986 59.1624 30.2407 58.3181 28.86C58.1386 28.5661 57.9566 28.2745 57.7675 27.9902C57.6502 27.8118 57.5281 27.6335 57.4084 27.46C57.2552 27.2335 57.0924 27.0143 56.9296 26.7974C56.8003 26.6191 56.671 26.448 56.5369 26.2793C56.446 26.1612 56.3502 26.0383 56.252 25.9275C56.1504 25.7901 56.0418 25.6582 55.9264 25.5323L55.5817 25.1251C55.5482 25.0817 55.5099 25.0408 55.4692 24.9974C55.3471 24.8552 55.2178 24.7179 55.0885 24.5781C55.0807 24.5613 55.0682 24.547 55.0526 24.5371C55.0191 24.4986 54.9808 24.46 54.9425 24.4239C54.8395 24.3058 54.727 24.1829 54.6169 24.0793C54.4373 23.8938 54.2554 23.7082 54.0662 23.5323C53.913 23.3781 53.755 23.2311 53.5874 23.0841C53.4198 22.9371 53.3025 22.8215 53.1565 22.6962C53.0104 22.5709 52.8716 22.4552 52.7255 22.3275C52.5795 22.1998 52.3712 22.0287 52.1869 21.8817C51.6817 21.4745 51.1598 21.089 50.6259 20.7275C50.4919 20.6335 50.3626 20.5468 50.2285 20.4576C50.0944 20.3685 49.958 20.2817 49.8239 20.1974C49.6898 20.113 49.5534 20.0239 49.4145 19.9444C49.2757 19.8649 49.1392 19.7781 49.0027 19.7034C48.8663 19.6287 48.7801 19.5733 48.6676 19.5155C48.613 19.4797 48.5562 19.4475 48.4976 19.4191C48.2582 19.2841 48.0188 19.154 47.7793 19.0335C47.6596 18.9685 47.5399 18.9058 47.4131 18.848C47.2862 18.7902 47.0994 18.6914 46.9342 18.6215C46.9117 18.6074 46.8876 18.596 46.8624 18.5877C46.7212 18.5203 46.5799 18.4528 46.4339 18.3902C46.228 18.301 46.0245 18.2143 45.8186 18.1299C45.6127 18.0456 45.3517 17.9371 45.1147 17.848C44.8777 17.7588 44.588 17.6504 44.3199 17.5612C44.0517 17.4721 43.7836 17.3805 43.5107 17.2986C43.2378 17.2167 42.9696 17.1371 42.6943 17.0576C42.15 16.9114 41.6002 16.7813 41.0448 16.6673C41.0448 16.6673 41.0232 16.6673 41.016 16.6673C40.803 16.6263 40.5899 16.5853 40.3768 16.5516C40.3633 16.5499 40.3496 16.5499 40.3361 16.5516C40.2427 16.5347 40.147 16.5179 40.0512 16.5058C39.6562 16.4383 39.254 16.3829 38.8542 16.3371L38.7081 16.3203C38.5908 16.3034 38.4687 16.2962 38.3538 16.2841C38.0857 16.2576 37.8199 16.2359 37.547 16.2191C37.2741 16.2022 36.9844 16.1853 36.7019 16.1781C36.4194 16.1709 36.1082 16.1612 35.8113 16.1612C35.0284 16.1612 34.2503 16.195 33.4818 16.2673C33.2999 16.2673 33.1203 16.2962 32.9408 16.3155L32.3782 16.3829C32.189 16.4094 32.0023 16.4335 31.8179 16.4624L31.2577 16.5564C31.0997 16.5805 30.9369 16.6094 30.7789 16.6432C30.3863 16.7203 29.9984 16.8006 29.6154 16.8841C29.4358 16.9251 29.2563 16.9733 29.0767 17.0239C28.8971 17.0745 28.7176 17.1203 28.5404 17.1709C28.2459 17.2528 27.9563 17.3468 27.669 17.4383C27.4296 17.5179 27.1902 17.5974 26.9699 17.6793C26.9699 17.6793 26.9555 17.6793 26.9531 17.6793C26.7137 17.7636 26.4743 17.8504 26.2517 17.9444H26.2134C26.0003 18.0287 25.7872 18.1179 25.5789 18.2046C25.3156 18.313 25.057 18.4311 24.8032 18.5492C24.5854 18.6504 24.3723 18.7516 24.164 18.8552C23.9557 18.9588 23.7139 19.0817 23.4913 19.1998L23.4673 19.2143C23.2543 19.3275 23.0412 19.4552 22.8329 19.5661C22.6246 19.6769 22.402 19.807 22.1889 19.9492C21.9878 20.0697 21.7915 20.1902 21.5952 20.3179C21.5209 20.3637 21.4491 20.4143 21.3749 20.4649C21.1666 20.5998 20.9655 20.7371 20.762 20.8817C20.5226 21.0528 20.2688 21.2335 20.027 21.4143C19.7852 21.595 19.6057 21.7371 19.3998 21.8962C18.2193 22.8438 17.1219 23.8918 16.1199 25.0287C15.7655 25.4239 15.4304 25.8263 15.1048 26.2335C14.8303 26.5853 14.5645 26.9452 14.3075 27.313C14.0681 27.6335 13.8575 27.9612 13.6444 28.2938C13.8575 27.9612 14.0801 27.6335 14.3075 27.313L14.5086 27.2914C14.8868 27.3004 15.2634 27.2392 15.6195 27.1106C15.9331 26.9564 16.1534 26.6745 16.4383 26.4721C17.1565 25.9516 18.3536 25.8552 18.5499 24.9805C18.6169 24.6865 18.5355 24.3685 18.6456 24.0865C18.8491 23.5612 19.5458 23.4865 20.106 23.4938C20.3454 23.4938 20.6232 23.5275 20.7309 23.7347C20.7597 23.8125 20.7724 23.8953 20.7683 23.9782C20.7642 24.0611 20.7433 24.1422 20.707 24.2167C20.3579 25.2043 19.6815 26.0407 18.7917 26.5853C18.0735 27.0311 17.1158 27.3757 16.9171 28.207C17.0177 28.489 17.5276 28.4673 17.5683 28.7612C17.597 29.0022 17.2978 29.1179 17.1876 29.3275C17.0296 29.6359 17.3935 30.0094 17.7383 29.9926C18.083 29.9757 18.3727 29.7227 18.6289 29.489C19.3878 28.7661 20.185 28.0143 20.4604 27.0046C20.5777 26.5902 20.6184 26.101 20.9535 25.8239C21.0565 25.7508 21.175 25.7028 21.2996 25.6836C21.4242 25.6644 21.5515 25.6746 21.6715 25.7134C21.7915 25.7522 21.9009 25.8185 21.9911 25.9071C22.0813 25.9956 22.1498 26.1041 22.1913 26.2239C22.5217 26.0383 23.0364 25.901 23.2064 26.2456C23.245 26.3742 23.2691 26.5067 23.2782 26.6408C23.3859 27.1781 24.1161 27.4215 24.1928 27.9636C24.2789 28.5877 23.4745 28.913 22.8592 29.0094L21.169 29.2769C20.9214 29.2956 20.6818 29.3732 20.4699 29.5034C20.3654 29.5729 20.2876 29.6762 20.2493 29.7963C20.211 29.9163 20.2145 30.0459 20.2593 30.1637C20.3434 30.2769 20.4416 30.3789 20.5513 30.4673C21.0302 30.9492 20.6351 31.913 19.9768 31.9275C19.7517 31.9275 19.5291 31.8528 19.304 31.8432C18.6361 31.8143 18.107 32.407 17.7886 32.9998C17.4701 33.5926 17.2355 34.2673 16.6992 34.6721C15.8398 35.3227 14.3578 35.1709 13.9412 36.1709C13.7737 36.5733 13.8622 37.0287 13.9412 37.46C14.0203 37.8914 14.037 38.3685 13.7856 38.7251C13.5343 39.0817 12.8974 39.154 12.7131 38.7588C12.6512 38.5788 12.6429 38.3845 12.6891 38.1998C12.7897 37.5781 12.8855 36.9564 12.9812 36.3347C13.053 35.8721 13.1153 35.3564 12.8424 34.9781C12.4641 34.448 11.6118 34.4962 11.1186 34.9227C10.6254 35.3492 10.4267 36.0118 10.2903 36.6456C10.1955 37.2198 10.0348 37.781 9.81144 38.3179C9.72286 38.8383 9.65103 39.3685 9.59836 39.901C9.54569 40.4335 9.50499 40.9902 9.48584 41.5444C9.56054 41.4809 9.63168 41.4134 9.69891 41.342C9.96226 41.0697 10.4914 39.913 10.9678 40.4817C11.0252 40.5571 11.0564 40.6494 11.0564 40.7444C11.0564 40.8394 11.0252 40.9317 10.9678 41.007C10.8217 41.195 10.5297 41.248 10.4171 41.4432C10.2807 41.6841 10.4722 41.9877 10.6973 42.1492C10.9223 42.3106 11.1976 42.4118 11.3556 42.6432C11.6621 43.0841 11.37 43.754 11.6645 44.2022C11.9206 44.5902 12.4617 44.6143 12.9262 44.6649L13.0842 44.689C13.2134 43.7661 13.6444 43.0143 14.8965 42.7275C16.6226 42.3323 18.8946 43.7733 19.8666 45.0841C20.9511 46.5516 21.4635 48.6263 23.125 49.3612C24.322 49.8865 25.9979 49.6962 26.5844 50.8697C27.104 51.9203 26.2014 53.0986 26.0625 54.2624C25.9763 55.0311 26.2253 55.7974 26.2852 56.5661C26.345 57.3347 26.1128 58.2359 25.4161 58.5612C25.0283 58.7371 24.5399 58.7155 24.2191 59.0094C23.6661 59.5396 24.1209 60.6311 23.5655 61.1612C23.3445 61.3187 23.1027 61.4444 22.8473 61.5347C21.5999 62.1685 21.6335 64.0167 22.2128 65.2986C22.2344 65.3444 22.2559 65.3853 22.2751 65.4335C26.1699 67.7797 30.6004 69.0745 35.1379 69.1927C39.6755 69.3109 44.1666 68.2485 48.1768 66.1082C48.9774 65.6769 49.7557 65.2048 50.5086 64.6938C51.669 63.9095 52.765 63.0328 53.7861 62.0721C54.4919 61.4092 55.1601 60.7068 55.7876 59.9685C56.2305 59.4552 56.6495 58.9227 57.0493 58.3757C57.2528 58.0938 57.4539 57.8118 57.6406 57.5227C58.2188 56.6722 58.7449 55.787 59.2159 54.8721C59.9037 53.544 60.4748 52.158 60.9229 50.7299C61.3899 49.2633 61.7264 47.7577 61.9284 46.2311C62.0074 45.6359 62.0697 45.0263 62.1104 44.4215C61.8351 44.717 61.4545 44.8903 61.0522 44.9034C60.4321 44.8841 59.9078 44.354 59.654 43.7661Z" fill="#F5F5F5"/>
<path d="M12.885 49.6456C12.8036 48.8865 13.0526 48.1251 13.0646 47.3564C13.0646 46.8287 13.0359 46.2697 13.0287 45.7347C12.5768 45.7156 12.1278 45.6527 11.688 45.5468C11.5965 45.5331 11.5122 45.489 11.4486 45.4215C11.403 45.3351 11.3846 45.2367 11.3959 45.1396C11.3624 44.542 10.7902 44.1492 10.2779 43.8504C10.021 43.6878 9.74825 43.5521 9.46387 43.4456C9.46387 43.5106 9.46387 43.5685 9.46387 43.6311C9.56341 46.5114 10.1295 49.3561 11.1397 52.0528C11.5859 53.2519 12.1222 54.4151 12.7438 55.5323C13.0023 56.0143 13.2872 56.4962 13.5817 56.9564C13.9504 57.5323 14.3335 58.0938 14.7476 58.6432C15.1618 59.1926 15.5401 59.6721 15.971 60.1588C16.5584 60.8342 17.1809 61.4776 17.836 62.0865C18.4154 62.6335 19.0211 63.1492 19.6507 63.6408C18.2143 59.7516 16.8544 55.7829 14.3837 52.4721C13.7493 51.6046 13.0071 50.7227 12.885 49.6456Z" fill="#F5F5F5"/>
<path d="M9.45224 42.1902C9.45224 42.3516 9.45224 42.5106 9.45224 42.6721C9.45224 42.8335 9.45224 42.9299 9.45224 43.06C9.45224 42.9299 9.45224 42.8022 9.45224 42.6721C9.45224 42.542 9.44984 42.3516 9.45224 42.1902Z" fill="#F5F5F5"/>
<g opacity="0.6">
<path d="M21.1235 64.7155C21.3438 64.8649 21.5688 65.0118 21.7963 65.1564C21.5784 65.0118 21.3629 64.8649 21.1235 64.7155Z" fill="#F5F5F5"/>
</g>
<path d="M43.4676 63.0504C43.3026 63.0509 43.138 63.0331 42.9768 62.9974C42.7272 62.9522 42.4918 62.8483 42.2896 62.6942C42.0874 62.5401 41.9242 62.3402 41.8133 62.1106C41.6708 61.7423 41.6016 61.3493 41.6098 60.954C41.606 60.6885 41.5779 60.424 41.526 60.1636C41.3934 59.7088 41.1845 59.2802 40.9083 58.8962C40.2821 58.0321 39.9886 56.9687 40.0824 55.9034V55.7396C39.9435 51.0721 38.6459 47.2817 36.3428 44.7805C36.0472 44.4108 35.655 44.1312 35.2104 43.9733C34.9455 43.9073 34.6673 43.92 34.4094 44.0098C34.1515 44.0996 33.9249 44.2627 33.7572 44.4793C33.6762 44.5937 33.6034 44.7136 33.5393 44.8383C33.4432 45.0405 33.3145 45.2253 33.1586 45.3853C33.0323 45.4942 32.883 45.5725 32.722 45.6143C32.5609 45.656 32.3926 45.6602 32.2297 45.6263C31.9901 45.5848 31.7624 45.4913 31.5623 45.3523C31.3622 45.2133 31.1946 45.0322 31.071 44.8215C30.6616 44.0986 30.7358 43.2022 30.7957 42.4817L31.0351 39.5902C31.0734 39.142 31.1237 38.5299 31.4828 38.1106C31.7816 37.8168 32.1499 37.6044 32.5529 37.4938C32.845 37.4017 33.1224 37.2678 33.3765 37.0962C33.8386 36.7468 34.0445 36.1974 34.2623 35.6167C34.3735 35.2836 34.5137 34.961 34.6813 34.6528C34.8561 34.3776 35.1025 34.1559 35.3938 34.0119C35.685 33.8679 36.01 33.807 36.3332 33.8359C36.4599 33.8477 36.5816 33.8911 36.6874 33.9622C36.7932 34.0333 36.8796 34.1299 36.9389 34.2432C37.0405 34.0124 37.1884 33.8052 37.3734 33.6348C37.5584 33.4643 37.7765 33.3343 38.0139 33.2528C38.9715 32.9757 40.1302 33.7347 41.2531 34.4697C42.2801 35.142 43.2473 35.7733 44.0087 35.6335C44.2024 35.5958 44.3942 35.5484 44.5833 35.4914C44.9796 35.3485 45.4011 35.2902 45.821 35.3203C46.9295 35.4769 47.4969 36.6865 47.8632 37.7299L49.6659 42.7902C49.891 43.4215 50.1806 44.113 50.7768 44.3468C51.0194 44.426 51.2735 44.4635 51.5285 44.4576C51.7946 44.4533 52.0596 44.4915 52.3138 44.5709C52.5317 44.6483 52.7243 44.7845 52.8704 44.9648C53.0165 45.145 53.1105 45.3622 53.1421 45.5926C53.2954 46.4311 52.8788 47.5203 52.1725 48.142C51.8347 48.4228 51.4814 48.6842 51.1143 48.9251C50.3003 49.4841 49.5294 50.0118 49.1991 50.8793C49.0464 51.3581 48.9712 51.8584 48.9764 52.3612C48.9863 52.9049 48.8996 53.4459 48.7202 53.9588C48.5186 54.3796 48.2546 54.7672 47.9374 55.1082C47.7494 55.3215 47.5743 55.5461 47.4131 55.7805C46.8361 56.6552 46.6757 57.742 46.5201 58.7902C46.5009 58.9251 46.4818 59.06 46.4602 59.1926C46.2807 60.3636 45.9694 61.6673 45.0238 62.4817C44.587 62.8484 44.0364 63.0496 43.4676 63.0504Z" fill="#EBEBEB"/>
<g opacity="0.6">
<path d="M9.46891 41.5636C9.46891 41.6142 9.46891 41.66 9.46891 41.7106C9.46891 41.8697 9.46891 42.0311 9.46891 42.1926C9.46891 42.0335 9.46891 41.8721 9.46891 41.7106C9.45933 41.66 9.46412 41.6142 9.46891 41.5636Z" fill="#F5F5F5"/>
</g>
<g opacity="0.6">
<path d="M9.44971 43.0576C9.44971 43.1877 9.44971 43.3179 9.44971 43.4456C9.4521 43.3179 9.4521 43.1974 9.44971 43.0576Z" fill="#F5F5F5"/>
</g>
<path d="M13.0744 44.7058L12.9164 44.6817C12.4519 44.6311 11.9109 44.607 11.6547 44.2191C11.3602 43.7709 11.6547 43.101 11.3459 42.66C11.1879 42.4191 10.9125 42.3299 10.6875 42.1661C10.4624 42.0022 10.2685 41.7034 10.4074 41.46C10.5199 41.2528 10.812 41.2191 10.958 41.0239C11.0155 40.9485 11.0466 40.8562 11.0466 40.7612C11.0466 40.6663 11.0155 40.5739 10.958 40.4986C10.4792 39.9299 9.9525 41.0865 9.68915 41.3588C9.62191 41.4302 9.55078 41.4978 9.47607 41.5612C9.47607 41.6118 9.47607 41.6576 9.47607 41.7082C9.47607 41.8673 9.47607 42.0287 9.47607 42.1902C9.47607 42.3516 9.47607 42.5106 9.47607 42.6721C9.47607 42.8335 9.47607 42.9299 9.47607 43.06C9.47607 43.1902 9.47607 43.3203 9.47607 43.448C9.75989 43.5541 10.0319 43.6897 10.2877 43.8528C10.8024 44.1492 11.3746 44.5444 11.4081 45.142C11.3968 45.2391 11.4152 45.3375 11.4608 45.4239C11.5244 45.4914 11.6087 45.5355 11.7002 45.5492C12.14 45.6551 12.589 45.718 13.0409 45.7371" fill="#EBEBEB"/>
<path d="M13.0291 45.7347C13.0291 46.2697 13.0745 46.8287 13.065 47.3564C13.053 48.1251 12.804 48.8865 12.8878 49.6456C13.0075 50.7227 13.7497 51.6046 14.3985 52.4697C16.8596 55.7805 18.229 59.7492 19.6655 63.6383C19.9312 63.8528 20.2041 64.0552 20.4795 64.2528C20.6949 64.4094 20.9152 64.5636 21.1378 64.7155C21.3605 64.8673 21.5831 65.0118 21.8106 65.1564L22.2894 65.4504C22.2703 65.4022 22.2487 65.3612 22.2272 65.3155C21.6478 64.0335 21.6143 62.1829 22.8616 61.5516C23.1171 61.4612 23.3588 61.3355 23.5798 61.1781C24.1353 60.648 23.6804 59.5564 24.2334 59.0263C24.547 58.7323 25.0354 58.754 25.4305 58.5781C26.1271 58.2528 26.3546 57.354 26.2995 56.5829C26.2444 55.8118 25.9907 55.048 26.0769 54.2793C26.2157 53.1155 27.1183 51.9371 26.5988 50.8865C26.0194 49.713 24.3292 49.9034 23.1393 49.3781C21.4539 48.6432 20.9415 46.5709 19.857 45.101C18.885 43.7901 16.613 42.3492 14.8869 42.7444C13.6348 43.0311 13.211 43.7829 13.0745 44.7058" fill="#EBEBEB"/>
<path d="M11.0992 34.9396C11.5924 34.5155 12.4447 34.4576 12.823 34.995C13.0959 35.3733 13.0336 35.889 12.9618 36.3516C12.8661 36.9733 12.7703 37.595 12.6697 38.2167C12.6235 38.4014 12.6318 38.5957 12.6937 38.7757C12.878 39.1709 13.5196 39.0938 13.7662 38.742C14.0128 38.3902 13.9889 37.9058 13.9218 37.4769C13.8548 37.048 13.7662 36.5902 13.9218 36.1877C14.3384 35.1877 15.8204 35.3396 16.6798 34.689C17.2161 34.2841 17.4531 33.6094 17.7692 33.0167C18.0852 32.4239 18.6167 31.8311 19.2846 31.86C19.5097 31.86 19.7323 31.954 19.9574 31.9444C20.6157 31.9251 21.0012 30.954 20.5319 30.4841C20.4267 30.3965 20.3326 30.2962 20.2518 30.1853C20.2071 30.0676 20.2036 29.938 20.2419 29.818C20.2802 29.6979 20.358 29.5946 20.4625 29.5251C20.6744 29.3949 20.914 29.3172 21.1616 29.2986L22.8518 29.0311C23.4743 28.9347 24.2715 28.6094 24.1853 27.9853C24.1087 27.4432 23.3785 27.1998 23.2708 26.6624C23.2617 26.5284 23.2376 26.3959 23.199 26.2673C23.029 25.9227 22.5142 26.06 22.1839 26.2456C22.1421 26.126 22.0734 26.0178 21.9831 25.9295C21.8928 25.8411 21.7833 25.7751 21.6633 25.7366C21.5434 25.698 21.4162 25.6881 21.2917 25.7074C21.1673 25.7267 21.049 25.7748 20.9461 25.848C20.6109 26.1251 20.5702 26.6143 20.4529 27.0287C20.1776 28.0384 19.3804 28.8022 18.6215 29.513C18.3653 29.754 18.078 29.995 17.7308 30.0167C17.3837 30.0384 17.0126 29.66 17.1802 29.3516C17.2903 29.142 17.5896 29.0215 17.5609 28.7853C17.5202 28.4914 17.0102 28.513 16.9097 28.2311C17.1108 27.3998 18.0564 27.0552 18.7843 26.6094C19.6741 26.0648 20.3505 25.2284 20.6995 24.2408C20.7359 24.1663 20.7568 24.0851 20.7609 24.0023C20.765 23.9194 20.7523 23.8366 20.7235 23.7588C20.6157 23.5492 20.3356 23.5179 20.0986 23.5179C19.5384 23.5179 18.8417 23.5853 18.6382 24.1106C18.5281 24.3926 18.6095 24.7106 18.5424 25.0046C18.3461 25.8793 17.1563 25.9685 16.4309 26.4962C16.146 26.6986 15.9257 26.9781 15.6121 27.1347C15.256 27.2633 14.8794 27.3245 14.5012 27.3155L14.3001 27.3371C14.0607 27.6576 13.85 27.9853 13.637 28.3179C13.4239 28.6504 13.2228 28.9805 13.0193 29.3155C12.0776 30.9394 11.3111 32.66 10.7329 34.448C10.5294 35.0769 10.3475 35.7155 10.1919 36.3637C10.0362 37.0118 9.90217 37.6697 9.79443 38.3347C10.0178 37.7978 10.1785 37.2366 10.2733 36.6624C10.4073 36.0287 10.6108 35.3636 11.0992 34.9396Z" fill="#EBEBEB"/>
<path d="M33.2231 22.6287C33.4625 22.2986 33.3978 21.8263 33.5606 21.4456C33.8288 20.8143 34.6643 20.5877 34.954 19.9637C35.0641 19.7227 35.0929 19.4311 35.2868 19.2552C35.4807 19.0793 35.689 19.0745 35.8614 18.942C36.2516 18.6408 36.0888 17.9588 35.677 17.6938C34.6428 17.0287 32.7395 17.7974 31.8465 18.4504C30.6973 19.2865 29.5745 20.2938 28.0447 20.195C27.6233 20.1685 27.1852 20.0528 26.7901 20.195C26.3951 20.3371 26.1509 20.942 26.4909 21.1926C26.68 21.3347 26.9482 21.2938 27.1636 21.395C27.5563 21.5781 27.597 22.1516 27.403 22.5444C27.2091 22.9371 26.8692 23.2359 26.6297 23.6094C26.4107 23.9706 26.3118 24.3926 26.3472 24.8143C26.3515 24.9622 26.3853 25.1078 26.4465 25.2423C26.5078 25.3768 26.5954 25.4976 26.704 25.5974C27.1828 25.9781 27.901 25.6504 28.3056 25.1926C28.7102 24.7347 28.9879 24.1396 29.5027 23.8239C29.7714 23.6806 30.0605 23.5798 30.3597 23.5251L32.354 23.0432C32.6819 23.0077 32.9882 22.8617 33.2231 22.6287Z" fill="#EBEBEB"/>
<g opacity="0.6">
<path d="M62.1722 42.3034C62.1722 41.9227 62.1579 41.542 62.1363 41.1661C62.1579 41.542 62.1699 41.9227 62.1722 42.3034C62.1722 42.4263 62.1722 42.5444 62.1722 42.6697C62.1794 42.5468 62.1794 42.4263 62.1722 42.3034Z" fill="#F5F5F5"/>
</g>
<g opacity="0.6">
<path d="M60.5229 33.3998C60.6474 33.7347 60.7624 34.0721 60.8773 34.4143C60.7671 34.0721 60.6379 33.7347 60.5229 33.3998Z" fill="#F5F5F5"/>
</g>
<path d="M62.1724 42.3034C62.1724 41.9227 62.158 41.542 62.1365 41.1661C62.1149 40.7902 62.0886 40.4143 62.0503 40.0408C62.0216 39.7371 61.9881 39.4384 61.9474 39.142C61.9067 38.8456 61.8588 38.513 61.8061 38.1998C61.6515 37.2702 61.4461 36.35 61.1908 35.4432C61.0927 35.0986 60.9873 34.754 60.8772 34.4143C60.7671 34.0745 60.6378 33.7347 60.5229 33.3998C60.3888 33.1588 60.2476 32.8986 60.0943 32.6552C58.6291 30.3203 56.5032 28.489 54.8896 26.2528C54.3629 25.5299 53.9535 24.9275 53.0222 24.7829C51.6456 24.5685 50.9489 25.3588 49.9721 24.0456C49.7088 23.6914 49.2539 23.3637 48.8612 23.5637C48.9618 23.8456 49.0671 24.1275 49.1677 24.4118C49.1917 24.4706 49.2031 24.5339 49.2012 24.5974C49.1797 24.795 48.8876 24.8384 48.7224 24.7396C48.5727 24.6022 48.4486 24.439 48.3561 24.2576C48.2409 24.1097 48.0965 23.9873 47.9321 23.8982C47.7676 23.809 47.5867 23.7551 47.4005 23.7397C47.2144 23.7243 47.0271 23.7478 46.8504 23.8088C46.6737 23.8697 46.5114 23.9667 46.3738 24.0938C46.3605 23.9608 46.3132 23.8336 46.2364 23.7246C46.1596 23.6156 46.056 23.5286 45.9357 23.4721C45.9142 23.5979 45.8668 23.7178 45.7964 23.8239C45.726 23.9301 45.6342 24.0202 45.527 24.0883C45.4197 24.1565 45.2995 24.2012 45.174 24.2196C45.0485 24.2379 44.9205 24.2296 44.7985 24.195C44.7195 23.9396 45.1743 23.8938 45.3348 23.6745C45.4952 23.4552 45.3036 23.1926 45.1169 23.0118C44.613 22.5674 43.9718 22.312 43.3022 22.289C42.8808 22.289 42.4259 22.3612 42.0572 22.142C41.8442 22.0167 41.6933 21.807 41.4779 21.6841C41.0134 21.4191 40.434 21.6649 39.9672 21.9251C39.328 22.2817 38.6696 22.7299 38.4422 23.4311C38.2147 24.1323 38.7199 25.0745 39.4453 24.9853C39.6246 24.9281 39.8133 24.9068 40.0007 24.9227C40.2593 24.995 40.3766 25.2962 40.3957 25.5661C40.3812 25.8336 40.4228 26.1013 40.5178 26.3516C40.6423 26.5926 41.023 26.7034 41.169 26.4817C41.5114 26.154 41.4683 25.6046 41.3821 25.1371C41.2959 24.6697 41.2025 24.1468 41.4779 23.7637C41.7532 23.3805 42.5504 23.5034 42.4954 23.9733C42.4618 24.2504 42.1506 24.4552 42.1626 24.7347C42.1746 25.0143 42.5217 25.1709 42.8042 25.1588C43.0867 25.1468 43.3764 25.0456 43.6517 25.1155C43.927 25.1853 44.1521 25.5492 43.9534 25.754C43.6062 26.1492 42.7036 25.4745 42.5169 25.9661C42.4666 26.0914 42.5169 26.2335 42.5169 26.3685C42.4834 26.7805 41.9711 26.9323 41.5593 26.9805C41.1545 27.065 40.7343 27.0349 40.3455 26.8938C39.9744 26.7179 39.7182 26.2263 39.9313 25.8721C39.8737 25.8451 39.8113 25.83 39.7478 25.8275C39.6843 25.8251 39.621 25.8354 39.5615 25.8578C39.502 25.8802 39.4476 25.9143 39.4013 25.9582C39.355 26.002 39.3179 26.0546 39.2921 26.113C39.2037 26.3579 39.1879 26.6232 39.2466 26.8769C38.8132 26.7805 38.4254 27.1492 38.1788 27.5155C37.9322 27.8817 37.7 28.313 37.2691 28.4432C36.8381 28.5733 36.2587 28.3974 36.0385 28.7853C35.7488 29.289 36.5843 29.9275 36.2923 30.4263C36.1247 30.7082 35.7249 30.701 35.4065 30.7877C34.5685 31.0287 34.2764 32.2624 34.8486 32.9227C35.4208 33.5829 36.5628 33.5444 37.1685 32.9227C37.5899 32.4914 37.7622 31.8817 38.0663 31.3612C38.3703 30.8408 38.9473 30.3733 39.5219 30.542C39.7447 30.6262 39.9483 30.7549 40.1204 30.9203L40.9584 31.6287C41.1379 31.7805 41.3342 31.9685 41.3175 32.2046C41.3007 32.395 41.1547 32.542 41.0924 32.7179C40.9177 33.2263 41.6478 33.7082 42.1051 33.4408C42.5624 33.1733 42.6151 32.4552 42.3014 32.0167C41.8681 31.4118 40.8865 31.1106 40.9129 30.3612C41.4132 29.9516 42.2009 30.3829 42.493 30.9661C42.785 31.5492 42.7946 32.2359 43.0412 32.8359C43.2878 33.4359 43.9749 33.9757 44.5519 33.6817C44.4011 33.1588 44.255 32.6432 44.1042 32.1275C44.4729 31.848 44.8942 32.6552 45.3324 32.5203C45.5981 32.4384 45.6316 32.0384 45.5167 31.7974C45.4018 31.5564 45.1935 31.3155 45.1432 31.0384C45.0618 30.5251 45.622 30.0745 46.1416 30.1516C46.3926 30.2142 46.6194 30.3505 46.7934 30.5431C46.9673 30.7358 47.0804 30.9761 47.1184 31.2335C47.1372 31.4393 47.1823 31.6418 47.2524 31.8359C47.4439 32.2384 47.9395 32.3612 48.3489 32.5275C48.7583 32.6938 49.1892 33.113 49.0169 33.5251C48.9379 33.7034 48.7511 33.8769 48.8158 34.0624C48.8804 34.248 49.1222 34.3034 49.1222 34.4745C49.1222 34.5902 48.9953 34.6697 48.8828 34.7155C48.6075 34.8287 48.3082 34.8649 48.0401 34.995C47.9035 35.0501 47.7856 35.1438 47.7006 35.2648C47.6157 35.3858 47.5673 35.5289 47.5613 35.6769C47.5948 36.0962 48.0904 36.2986 48.325 36.6408C48.5596 36.9829 48.5165 37.4118 48.6601 37.7902C48.8264 38.125 49.0383 38.4348 49.2898 38.7106C49.9817 39.66 50.1445 40.8793 50.4868 42.007C50.6377 42.5155 50.913 43.0841 51.4301 43.1805C51.7182 43.2028 52.0069 43.1461 52.2656 43.0167C53.0126 42.7179 53.7883 42.3998 54.3102 41.7902C54.8321 41.1805 55.0117 40.1805 54.473 39.5805C54.4114 39.4963 54.321 39.4379 54.2192 39.4167C54.0784 39.4256 53.9426 39.4731 53.8266 39.554C53.6299 39.6288 53.4161 39.6459 53.2101 39.6032C53.0042 39.5606 52.8145 39.4599 52.6631 39.3131C52.3675 39.0122 52.1318 38.6572 51.9688 38.2673C51.7645 37.8512 51.5586 37.4319 51.3511 37.0094C51.5905 36.7998 51.9903 36.889 52.2441 37.0938C52.4719 37.3251 52.6764 37.5785 52.8546 37.8504C53.4747 38.6311 54.4993 38.9757 55.4881 39.0938C55.742 39.1073 55.9923 39.1601 56.2303 39.2504C56.97 39.5902 57.1879 40.6962 57.9612 40.9203C58.1862 40.9558 58.4085 41.0065 58.6268 41.0721C58.7718 41.1638 58.896 41.2852 58.9913 41.4284C59.0866 41.5717 59.1508 41.7335 59.1798 41.9034C59.3522 42.5227 59.4192 43.1733 59.6586 43.7612C59.898 44.3492 60.4367 44.8817 61.0711 44.8914C61.4734 44.8783 61.854 44.7049 62.1293 44.4094C62.1628 43.8287 62.1844 43.2504 62.1844 42.6624C62.1796 42.5468 62.1796 42.4263 62.1724 42.3034Z" fill="#EBEBEB"/>
<path d="M51.497 53.3179C51.1043 53.395 51.0181 53.6263 50.8122 53.9203C50.5345 54.301 50.1371 54.6841 49.8833 55.06C49.4548 55.6986 49.8402 56.6914 49.2752 57.2287C49.1603 57.3396 49.0119 57.4094 48.9089 57.5299C48.8071 57.672 48.7644 57.8484 48.7899 58.0217C48.8154 58.1949 48.9071 58.3514 49.0454 58.4576C49.1898 58.5556 49.3593 58.6095 49.5334 58.6129C49.7075 58.6163 49.8789 58.5691 50.027 58.4769C50.3211 58.2831 50.5354 57.9886 50.6303 57.648C50.6681 57.3978 50.7732 57.1628 50.9343 56.9685C51.2576 56.6841 51.7603 56.8962 52.1841 56.8359C53.994 56.5853 53.2159 52.9805 51.497 53.3179Z" fill="#EBEBEB"/>
<path d="M42.05 99.5227L40.6925 100.684L42.4642 100.853L42.6748 101.537L40.1299 101.25L39.9097 100.54L41.8393 98.8528L42.05 99.5227Z" fill="white"/>
<path d="M43.106 96.9685L43.7571 96.7636L43.8074 102.407L43.1538 102.612L43.106 96.9685Z" fill="white"/>
<path d="M46.8071 98.3781L47.0274 99.101L45.0977 100.788L44.8847 100.103L46.2445 98.9492L44.4729 98.7733L44.2622 98.0962L46.8071 98.3781Z" fill="white"/>
<g opacity="0.3">
<path d="M42.7134 93.101L43.8625 96.795C43.9534 97.087 44.1558 97.3307 44.4251 97.4726C44.6945 97.6145 45.0088 97.6429 45.299 97.5516L48.8279 96.4432L42.7134 93.101Z" fill="white"/>
</g>
<path d="M44.0107 97.1034C44.0996 97.3822 44.2806 97.622 44.5236 97.7829C44.7667 97.9437 45.0571 98.016 45.3466 97.9877C45.3881 97.9901 45.4297 97.9901 45.4711 97.9877C45.95 97.9251 49.158 97.5058 49.1365 97.4456L48.8277 96.4504L45.3036 97.554C45.3036 97.554 44.4106 97.7998 44.0107 97.1034Z" fill="#E0E0E0"/>
<path d="M94.7562 32.0263H23.2471V86.1082H94.7562V32.0263Z" fill="white"/>
<path d="M94.7562 86.1082C94.7562 86.1082 94.7562 86.0215 94.7562 85.8552C94.7562 85.6889 94.7562 85.4407 94.7562 85.1154C94.7562 84.4648 94.7562 83.501 94.7442 82.2408C94.7442 79.7251 94.7299 76.0287 94.7179 71.3106C94.7059 61.8889 94.6868 48.3805 94.6652 32.0335L94.7682 32.1371L23.2662 32.1588L23.3907 32.0335C23.3907 51.4793 23.3907 69.8913 23.3907 86.1154L23.2782 86.0022L74.89 86.0576L89.549 86.0889L93.4394 86.1034H94.4426H94.6987H94.4474H93.4586L89.5897 86.1179L74.957 86.1492L23.271 86.2046H23.1345V86.0914C23.1345 69.8673 23.1345 51.4552 23.1226 32.0094V31.8841H23.2542L94.7562 31.9082H94.8615V32.0094C94.84 48.395 94.8232 61.9227 94.8089 71.3588C94.7969 76.0673 94.7897 79.754 94.7825 82.2648C94.7825 83.5155 94.7825 84.4745 94.7825 85.1203C94.7825 85.4408 94.7825 85.6841 94.7825 85.8432C94.7825 86.0022 94.7562 86.1082 94.7562 86.1082Z" fill="#263238"/>
<path d="M94.3971 38.6504C94.3375 38.6581 94.2776 38.6621 94.2175 38.6624H93.686L91.6463 38.6841C89.8771 38.6986 87.313 38.7058 84.148 38.7034C77.8132 38.7034 69.0652 38.6576 59.4026 38.5781L34.6573 38.3781L27.1566 38.3179L25.1192 38.2938L24.5878 38.2793C24.5281 38.2862 24.4679 38.2862 24.4082 38.2793C24.4674 38.2684 24.5276 38.2644 24.5878 38.2673H25.1192L27.1566 38.2456C28.9282 38.2311 31.4899 38.2239 34.6573 38.2239C40.9897 38.2239 49.7401 38.2721 59.405 38.3516L84.148 38.5516L91.6487 38.6094L93.686 38.6359H94.2175C94.2777 38.6344 94.3379 38.6392 94.3971 38.6504Z" fill="#263238"/>
<path d="M27.9179 34.7636C27.9183 34.9316 27.8693 35.0959 27.7768 35.2358C27.6844 35.3756 27.5528 35.4847 27.3987 35.5492C27.2447 35.6137 27.075 35.6307 26.9113 35.5981C26.7476 35.5654 26.5972 35.4846 26.4792 35.3658C26.3612 35.2471 26.2809 35.0957 26.2485 34.9309C26.2161 34.7662 26.2329 34.5954 26.297 34.4404C26.3611 34.2853 26.4695 34.1528 26.6084 34.0598C26.7474 33.9668 26.9107 33.9174 27.0775 33.9179C27.3002 33.9185 27.5136 34.0078 27.671 34.1663C27.8285 34.3248 27.9172 34.5395 27.9179 34.7636Z" fill="#263238"/>
<path d="M31.2865 34.7636C31.287 34.9315 31.238 35.0957 31.1457 35.2355C31.0533 35.3753 30.9219 35.4844 30.7679 35.549C30.614 35.6136 30.4445 35.6307 30.2809 35.5982C30.1172 35.5658 29.9668 35.4852 29.8487 35.3667C29.7307 35.2481 29.6502 35.097 29.6174 34.9324C29.5847 34.7678 29.6013 34.5971 29.665 34.442C29.7287 34.2869 29.8367 34.1543 29.9754 34.061C30.114 33.9677 30.277 33.9179 30.4438 33.9179C30.6669 33.9179 30.8809 34.0069 31.0388 34.1654C31.1968 34.324 31.2859 34.5391 31.2865 34.7636Z" fill="#263238"/>
<path d="M33.812 35.6215C34.2774 35.6215 34.6547 35.2417 34.6547 34.7733C34.6547 34.3048 34.2774 33.9251 33.812 33.9251C33.3465 33.9251 32.9692 34.3048 32.9692 34.7733C32.9692 35.2417 33.3465 35.6215 33.812 35.6215Z" fill="#263238"/>
<path d="M50.4059 70.0432H35.7109V81.1154H50.4059V70.0432Z" fill="#EBEBEB"/>
<path d="M66.5441 70.0432H51.8491V81.1154H66.5441V70.0432Z" fill="#EBEBEB"/>
<path d="M85.3522 70.0432H70.6572V81.1154H85.3522V70.0432Z" fill="#EBEBEB"/>
<path d="M110.618 43.6576C110.17 35.3106 101.503 31.1106 97.0696 30.5685L93.5215 34.7636C96.3777 34.3323 103.481 38.3227 103.828 41.2094C104.175 44.0962 101.989 47.7853 99.1117 48.0504C96.8517 48.26 93.0834 46.2408 91.6493 48.0094C88.0247 44.7612 81.8336 45.0287 78.501 48.5781C77.2135 48.1143 75.8384 47.9498 74.4788 48.097C73.1192 48.2443 71.8104 48.6994 70.6504 49.4283C69.4905 50.1571 68.5095 51.1409 67.7811 52.3057C67.0526 53.4705 66.5956 54.7861 66.4443 56.154L79.7914 63.9516C79.7914 63.9516 85.3529 68.9685 89.1451 65.8793C90.4403 64.8239 90.9335 63.3082 91.0604 61.8456C91.3133 61.878 91.5701 61.8616 91.8169 61.7974C92.7746 61.5371 93.4928 60.6697 93.8088 59.7179C93.8495 59.595 93.8806 59.4769 93.9094 59.3444C97.151 60.0673 101.57 59.248 104.178 57.6094C107.96 55.2456 110.857 48.1468 110.618 43.6576Z" fill="#F5F5F5"/>
<path d="M92.5926 49.6335C92.5926 49.6335 92.5734 49.6142 92.5423 49.5685L92.4106 49.3709C92.3532 49.2817 92.2813 49.1733 92.188 49.0528C92.0946 48.9323 91.994 48.7853 91.8624 48.6383C91.1424 47.7746 90.2616 47.0608 89.2696 46.5371C88.5912 46.175 87.866 45.9098 87.1149 45.7492C86.2502 45.5587 85.3596 45.518 84.4814 45.6287C82.455 45.8834 80.5864 46.8605 79.2144 48.3829C79.0157 48.5998 78.8409 48.8359 78.6757 49.0528L78.6446 49.0962L78.5991 49.0721C77.5386 48.5503 76.3808 48.2591 75.201 48.2176C74.0213 48.1761 72.8461 48.3851 71.752 48.8311C71.3802 48.9921 71.0181 49.1747 70.6675 49.3781C70.0345 49.7385 69.4483 50.1764 68.9222 50.6817C68.1559 51.4068 67.5604 52.2951 67.1793 53.2817C67.1074 53.4552 67.0596 53.6118 67.0165 53.7492C66.978 53.8639 66.9452 53.9805 66.9183 54.0986L66.8609 54.3155C66.8567 54.3407 66.8487 54.3651 66.8369 54.3877C66.8369 54.3877 66.8369 54.3612 66.8489 54.313L66.8944 54.0938C66.9162 53.9739 66.9458 53.8556 66.983 53.7395C67.0213 53.5998 67.0667 53.4408 67.1338 53.2576C67.5027 52.2535 68.0938 51.3471 68.8623 50.607C69.3894 50.0919 69.979 49.6458 70.6172 49.2793C70.9701 49.0705 71.3355 48.8838 71.7113 48.7203C72.1142 48.5518 72.5296 48.4157 72.9538 48.313C74.8685 47.8487 76.8841 48.0702 78.6542 48.9396L78.5751 48.9588C79.2682 48.0044 80.1493 47.2042 81.1634 46.608C82.1776 46.0118 83.303 45.6325 84.4694 45.4938C85.3593 45.3835 86.2613 45.4275 87.1364 45.6239C87.8985 45.7911 88.6335 46.0653 89.3198 46.4383C90.3169 46.972 91.197 47.7022 91.9079 48.5853C92.0213 48.721 92.1276 48.8625 92.2263 49.0094C92.3042 49.1137 92.3761 49.2223 92.4417 49.3347C92.492 49.4215 92.5327 49.4889 92.5638 49.5396C92.576 49.57 92.5856 49.6014 92.5926 49.6335Z" fill="#263238"/>
<path d="M95.1708 47.8889C95.1564 47.9082 94.984 47.7805 94.668 47.6624C94.4837 47.595 94.2927 47.5482 94.0982 47.5227C93.8597 47.494 93.6185 47.494 93.38 47.5227C93.1418 47.5592 92.9088 47.6239 92.6857 47.7155C92.5048 47.7925 92.333 47.8895 92.1734 48.0046C91.9004 48.2046 91.7688 48.3733 91.752 48.3588C91.7353 48.3444 91.7736 48.3082 91.831 48.2287C91.9155 48.1193 92.0127 48.0206 92.1207 47.9347C92.2786 47.8033 92.4533 47.6939 92.6402 47.6094C93.102 47.3998 93.614 47.3287 94.115 47.4046C94.3181 47.4357 94.5162 47.494 94.7039 47.5781C94.8312 47.6314 94.9511 47.7011 95.0606 47.7853C95.1373 47.848 95.1756 47.8841 95.1708 47.8889Z" fill="#263238"/>
<path d="M98.9322 52.9661C98.9322 52.9661 98.7957 52.8986 98.5395 52.807C98.1751 52.6769 97.7885 52.6212 97.4023 52.6432C96.822 52.6723 96.2663 52.8886 95.8175 53.26C95.2595 53.7241 94.899 54.3853 94.8095 55.1082L94.7976 55.2094L94.7162 55.154C94.4405 54.9766 94.1457 54.8311 93.8375 54.7203C93.0442 54.4352 92.1871 54.3809 91.3645 54.5636C90.6946 54.7232 90.0708 55.0375 89.5425 55.4817C89.1861 55.7814 88.8762 56.1331 88.6232 56.5251C88.4461 56.8046 88.3694 56.9733 88.3599 56.9661C88.3702 56.9223 88.3863 56.8802 88.4077 56.8408C88.4585 56.723 88.5169 56.6087 88.5825 56.4986C88.8836 55.9903 89.2824 55.5476 89.7556 55.1963C90.2287 54.8451 90.7667 54.5923 91.3381 54.4528C91.9229 54.3154 92.5291 54.2975 93.1208 54.4002C93.7126 54.5028 94.2779 54.7239 94.7832 55.0504L94.6874 55.0962C94.7795 54.3396 95.1598 53.6485 95.748 53.1685C96.2175 52.7881 96.7975 52.5723 97.4 52.554C97.7952 52.5392 98.1892 52.6081 98.5563 52.7564C98.6547 52.7964 98.75 52.844 98.8412 52.8986C98.8746 52.9166 98.9052 52.9393 98.9322 52.9661Z" fill="#263238"/>
<path d="M109.279 38.7805C109.317 38.834 109.349 38.8904 109.378 38.9492C109.435 39.0624 109.526 39.2287 109.629 39.448C109.911 40.0724 110.136 40.7218 110.299 41.3877C110.536 42.375 110.658 43.3866 110.663 44.4022C110.668 45.0027 110.637 45.6029 110.572 46.1998C110.506 46.8412 110.403 47.4784 110.266 48.1082C109.792 50.3251 108.945 52.444 107.762 54.3733C107.404 54.9574 106.996 55.5082 106.541 56.0191C106.375 56.195 106.244 56.3299 106.148 56.4143C106.102 56.4605 106.053 56.5024 106 56.5396C106.04 56.4882 106.084 56.4399 106.131 56.395C106.222 56.3058 106.344 56.1661 106.505 55.9853C106.943 55.4658 107.338 54.9114 107.687 54.3275C108.841 52.3972 109.671 50.2886 110.144 48.0865C110.281 47.4615 110.383 46.8292 110.45 46.1926C110.517 45.5998 110.55 45.0036 110.548 44.407C110.549 43.3968 110.438 42.3897 110.216 41.4046C110.059 40.7456 109.848 40.1008 109.586 39.4769C109.492 39.2552 109.406 39.089 109.346 38.9709C109.319 38.9094 109.297 38.8457 109.279 38.7805Z" fill="#263238"/>
<path d="M102.657 39.101C102.742 39.1707 102.817 39.2518 102.88 39.342C103.067 39.567 103.233 39.809 103.376 40.0649C103.858 40.9124 104.096 41.8779 104.065 42.854C104.034 43.83 103.734 44.7781 103.198 45.5926C103.04 45.8377 102.86 46.0676 102.66 46.2793C102.589 46.3612 102.509 46.434 102.42 46.4962C102.672 46.1925 102.906 45.8747 103.122 45.5444C103.626 44.7347 103.907 43.805 103.938 42.85C103.969 41.8951 103.748 40.949 103.297 40.1082C103.105 39.759 102.892 39.4226 102.657 39.101Z" fill="#263238"/>
<path d="M93.8804 32.6359C94.4939 33.5794 95.2873 34.3911 96.2146 35.0239C96.3471 35.1129 96.5041 35.1577 96.6633 35.152C96.8225 35.1462 96.9758 35.0902 97.1016 34.9918C97.2274 34.8935 97.3193 34.7578 97.3642 34.6039C97.4091 34.4501 97.4048 34.286 97.3518 34.1347V34.1155C98.4391 34.9544 99.5804 35.7199 100.768 36.407C100.934 36.5051 101.127 36.5491 101.319 36.5329C101.511 36.5167 101.693 36.4412 101.84 36.3166C101.988 36.192 102.094 36.0245 102.143 35.8371C102.193 35.6497 102.183 35.4515 102.116 35.2697C100.926 31.9919 98.5955 29.2599 95.5562 27.5805L93.8804 32.6359Z" fill="#7B68EE"/>
<g opacity="0.3">
<path d="M95.2598 32.7516C95.3554 32.9183 95.4832 33.0642 95.6356 33.1805C95.7122 33.2377 95.8036 33.2714 95.8988 33.2773C95.994 33.2833 96.0889 33.2614 96.1719 33.2143C96.4113 33.0528 96.3994 32.66 96.6507 32.5106C96.9021 32.3612 97.2277 32.5757 97.448 32.7853L98.1423 33.4528C98.3122 33.6167 98.5421 33.7926 98.7599 33.6938C98.9778 33.595 99.0161 33.2552 98.9634 32.9998C98.8355 32.4039 98.5659 31.8481 98.1777 31.3802C97.7895 30.9122 97.2943 30.546 96.7345 30.313L95.2598 32.7516Z" fill="#0F0E16"/>
</g>
<path d="M104.477 38.4914C104.484 38.7116 104.578 38.92 104.737 39.0716C104.896 39.2233 105.108 39.306 105.327 39.3021C105.545 39.2981 105.754 39.2078 105.908 39.0505C106.061 38.8933 106.147 38.6817 106.147 38.4612C106.147 38.2408 106.061 38.0292 105.908 37.8719C105.754 37.7147 105.545 37.6244 105.327 37.6204C105.108 37.6165 104.896 37.6992 104.737 37.8508C104.578 38.0024 104.484 38.2108 104.477 38.4311" fill="#7B68EE"/>
<path d="M60.4591 9.41665C59.784 10.4745 61.2611 14.1709 64.6464 18.9034C66.6401 21.6973 69.0648 24.1524 71.8287 26.1757L91.3501 38.7805L94.6491 33.6046L96.5644 30.6022L99.8635 25.4263L82.1472 13.9877C80.4149 12.8674 78.5798 11.9169 76.6671 11.1492C74.7551 10.3716 72.784 9.75032 70.7729 9.29135C65.1348 8.04557 61.1318 8.35882 60.4591 9.41665Z" fill="#F5F5F5"/>
<path d="M87.6201 17.5275L87.6919 17.5034C89.7664 16.8026 91.9707 16.58 94.1421 16.8519C96.3135 17.1238 98.3965 17.8834 100.237 19.0745L102.576 20.5853L96.3681 23.1757L87.6201 17.5275Z" fill="#7B68EE"/>
<path d="M87.6201 17.5275L87.6656 17.5564L87.7925 17.6359L88.2713 17.9468L90.0932 19.101L96.3873 23.1396H96.3538L102.011 20.7878L102.559 20.5468V20.6191L101.183 19.7275C100.728 19.4384 100.287 19.1396 99.8396 18.8769C98.9845 18.3605 98.0797 17.9326 97.139 17.5998C96.2897 17.2975 95.4134 17.078 94.5223 16.9444C94.1057 16.8697 93.6987 16.8456 93.3085 16.8046C92.9182 16.7637 92.5424 16.7612 92.1833 16.7757C91.0536 16.7833 89.9287 16.9241 88.8315 17.195C88.4389 17.2793 88.1468 17.3853 87.9433 17.4359L87.6345 17.5251L87.7111 17.4962L87.9194 17.4143C88.1205 17.354 88.4126 17.2432 88.8052 17.154C89.9053 16.8697 91.0355 16.7201 92.1713 16.7082C92.5304 16.6914 92.9087 16.7082 93.3013 16.7323C93.6939 16.7564 94.1009 16.795 94.5199 16.8673C95.4164 16.9989 96.2982 17.2168 97.1534 17.5179C98.0998 17.8509 99.0102 18.2796 99.8707 18.7974C100.323 19.0624 100.761 19.3588 101.216 19.6504L102.598 20.5468L102.665 20.5902L102.59 20.6215L102.042 20.8624L96.3825 23.2215H96.3633H96.3466L90.0477 19.1251L88.2522 17.954L87.7733 17.6432C87.7231 17.6094 87.6824 17.5853 87.6536 17.5637L87.6201 17.5275Z" fill="#263238"/>
<path d="M79.1089 30.8841C79.1089 30.8841 79.1089 30.9203 79.1089 30.9588C79.3382 33.1184 80.0466 35.1985 81.1815 37.0457C82.3165 38.8928 83.8491 40.4599 85.6663 41.6311L87.9742 43.1227L87.7348 36.4552L79.1089 30.8841Z" fill="#7B68EE"/>
<path d="M79.1092 30.8841L79.1475 30.9058L79.2672 30.9829L79.746 31.2817L81.5272 32.4215L87.7638 36.4215L87.7806 36.4335V36.4504C87.85 38.3227 87.9266 40.3757 88.0056 42.5275C88.0056 42.7299 88.02 42.9323 88.0272 43.1179V43.1974L87.9602 43.154L86.6003 42.2769C86.155 41.9853 85.7097 41.7106 85.2884 41.4118C84.4724 40.8485 83.7159 40.2026 83.0307 39.4841C82.4112 38.8379 81.8556 38.1325 81.3716 37.3781C81.1322 37.0311 80.9431 36.6697 80.7468 36.3323C80.5504 35.995 80.3948 35.6552 80.2679 35.3227C79.8099 34.2966 79.4756 33.2191 79.272 32.113C79.193 31.7227 79.169 31.4142 79.1403 31.207C79.1283 31.1058 79.1188 31.0287 79.1116 30.9661C79.1044 30.9034 79.1116 30.8865 79.1116 30.8865C79.1116 30.9323 79.1307 31.0191 79.1595 31.1998C79.1882 31.3805 79.2217 31.7155 79.3055 32.1034C79.5165 33.2067 79.8548 34.2814 80.3134 35.3058C80.4499 35.6359 80.6294 35.9612 80.7922 36.3106C80.955 36.66 81.1801 37.0022 81.4171 37.3468C81.9023 38.0958 82.4579 38.7963 83.0762 39.4383C83.7596 40.1507 84.5128 40.7917 85.3243 41.3516C85.7432 41.6456 86.1909 41.9203 86.6362 42.2118L87.9961 43.0889L87.9314 43.1251C87.9314 42.9395 87.9195 42.7371 87.9099 42.5371C87.8333 40.3853 87.7591 38.3299 87.692 36.4576L87.7088 36.4889L81.5224 32.4697L79.7436 31.3082L79.2648 30.9974L79.1427 30.9154L79.1092 30.8841Z" fill="#263238"/>
<path d="M60.4588 9.41666C59.9058 10.2143 60.6982 12.6311 62.6422 15.8649L67.8925 8.73956C64.117 8.27449 61.1651 8.39257 60.4588 9.41666Z" fill="#7B68EE"/>
<path d="M96.5954 23.5131C96.6146 23.5275 94.7615 26.5082 92.456 30.1709C90.1505 33.8335 88.2664 36.7974 88.2472 36.7829C88.2281 36.7685 90.0739 33.7998 92.3866 30.1275C94.6993 26.4552 96.5763 23.501 96.5954 23.5131Z" fill="#263238"/>
<path d="M97.1486 23.9564C97.1678 23.9564 95.3148 26.9492 93.0093 30.6118C90.7037 34.2745 88.8196 37.2383 88.8004 37.2239C88.7813 37.2094 90.6343 34.2335 92.9398 30.5685C95.2453 26.9034 97.1295 23.942 97.1486 23.9564Z" fill="#263238"/>
<path d="M97.7805 24.3468C97.7996 24.3612 95.9466 27.342 93.6411 31.0046C91.3356 34.6673 89.4514 37.6311 89.4323 37.6167C89.4131 37.6022 91.2661 34.6263 93.5717 30.9612C95.8772 27.2962 97.7613 24.3347 97.7805 24.3468Z" fill="#263238"/>
<path d="M98.4124 24.7396C98.4315 24.754 96.5761 27.7347 94.273 31.3974C91.9699 35.06 90.0737 38.0215 90.0737 38.0094C90.0737 37.9974 91.9076 35.0191 94.2131 31.354C96.5186 27.689 98.3908 24.7275 98.4124 24.7396Z" fill="#263238"/>
<path d="M99.0422 25.1251C99.0613 25.1251 97.2083 28.1179 94.9028 31.7829C92.5973 35.448 90.7131 38.407 90.694 38.395C90.6748 38.3829 92.5279 35.4046 94.8334 31.7395C97.1389 28.0745 99.023 25.1251 99.0422 25.1251Z" fill="#263238"/>
<path d="M83.3945 24.1902C83.3945 24.1902 83.4304 24.1902 83.4951 24.2335C83.5597 24.2769 83.6507 24.3203 83.7704 24.3877C84.0098 24.5275 84.3426 24.7371 84.7544 24.9998C85.5803 25.5227 86.7127 26.26 87.9577 27.0817C89.2026 27.9034 90.3254 28.6528 91.137 29.1998L92.0947 29.8528L92.3508 30.0335C92.3827 30.0517 92.4117 30.0744 92.437 30.101C92.4037 30.085 92.3717 30.0665 92.3413 30.0456L92.0755 29.8793L91.1035 29.248L87.9194 27.1492L84.7304 25.048L83.7728 24.4167C83.6579 24.3444 83.5693 24.2817 83.5071 24.248L83.3945 24.1902Z" fill="#263238"/>
<path d="M87.6202 17.5275C87.6393 17.542 85.7671 20.5179 83.4401 24.1733C81.113 27.8287 79.2097 30.7877 79.1906 30.7757C79.1714 30.7636 81.0436 27.7877 83.3707 24.1299C85.6977 20.4721 87.601 17.5155 87.6202 17.5275Z" fill="#263238"/>
<path d="M90.5146 27.2745C90.5029 27.236 90.5029 27.1949 90.5146 27.1564C90.5311 27.0458 90.5853 26.9445 90.6678 26.8697C90.7281 26.8107 90.8028 26.7687 90.8843 26.748C90.9659 26.7273 91.0514 26.7285 91.1323 26.7516C91.2356 26.7763 91.3286 26.833 91.3982 26.9138C91.4678 26.9945 91.5105 27.0951 91.5202 27.2015C91.53 27.308 91.5064 27.4148 91.4527 27.507C91.399 27.5992 91.3179 27.6721 91.2209 27.7155C91.1456 27.7535 91.0617 27.7708 90.9776 27.7657C90.8935 27.7606 90.8123 27.7333 90.742 27.6865C90.6493 27.6308 90.577 27.5463 90.5361 27.4456C90.5122 27.3733 90.517 27.3275 90.5218 27.3275C90.5266 27.3275 90.5338 27.3685 90.5673 27.4335C90.6119 27.5241 90.6829 27.5989 90.7708 27.648C90.8338 27.6843 90.9052 27.7035 90.9779 27.7035C91.0505 27.7035 91.1219 27.6843 91.185 27.648C91.2644 27.6088 91.3302 27.5462 91.3735 27.4685C91.4167 27.3907 91.4354 27.3016 91.4271 27.2129C91.4188 27.1242 91.3838 27.0402 91.3269 26.972C91.27 26.9038 91.1937 26.8546 91.1083 26.8311C91.0396 26.8093 90.9664 26.8058 90.8959 26.821C90.8254 26.8363 90.76 26.8696 90.7061 26.9179C90.6294 26.9802 90.5727 27.0641 90.5433 27.1588C90.5218 27.2335 90.5218 27.2745 90.5146 27.2745Z" fill="#263238"/>
<path d="M86.7867 24.7685C86.7867 24.7685 86.77 24.7275 86.7867 24.6504C86.8032 24.5398 86.8574 24.4384 86.94 24.3637C87.0003 24.3047 87.0749 24.2627 87.1565 24.242C87.238 24.2212 87.3235 24.2225 87.4044 24.2456C87.5077 24.2703 87.6007 24.327 87.6703 24.4077C87.7399 24.4884 87.7826 24.5891 87.7924 24.6955C87.8022 24.8019 87.7785 24.9088 87.7248 25.0009C87.6711 25.0931 87.59 25.1661 87.493 25.2094C87.4177 25.2474 87.3338 25.2648 87.2497 25.2597C87.1657 25.2546 87.0844 25.2273 87.0142 25.1805C86.9226 25.124 86.8513 25.0396 86.8107 24.9396C86.7954 24.9022 86.7896 24.8616 86.7939 24.8215C86.7939 24.8215 86.8083 24.8624 86.8418 24.9275C86.8865 25.0181 86.9574 25.0929 87.0453 25.142C87.1079 25.1783 87.1789 25.1975 87.2512 25.1975C87.3235 25.1975 87.3945 25.1783 87.4571 25.142C87.5366 25.103 87.6025 25.0406 87.6459 24.963C87.6894 24.8854 87.7083 24.7964 87.7002 24.7077C87.6922 24.6191 87.6575 24.535 87.6008 24.4666C87.5441 24.3983 87.4681 24.3489 87.3829 24.3251C87.3137 24.3033 87.2401 24.2999 87.1693 24.3151C87.0984 24.3303 87.0326 24.3636 86.9783 24.4118C86.9028 24.4749 86.8471 24.5586 86.8179 24.6528C86.7939 24.7275 86.7939 24.7685 86.7867 24.7685Z" fill="#263238"/>
<path d="M79.6069 23.0239C79.5972 22.9851 79.5972 22.9446 79.6069 22.9058C79.6252 22.7959 79.6791 22.695 79.7601 22.6191C79.8218 22.5575 79.8989 22.514 79.9833 22.4932C80.0676 22.4724 80.156 22.4751 80.2389 22.501C80.3421 22.526 80.4349 22.583 80.5042 22.6639C80.5736 22.7447 80.616 22.8454 80.6255 22.9518C80.635 23.0582 80.6111 23.1649 80.5573 23.2569C80.5034 23.349 80.4222 23.4217 80.3251 23.4649C80.2498 23.5028 80.1659 23.5202 80.0819 23.5151C79.9978 23.51 79.9165 23.4827 79.8463 23.4359C79.7541 23.3802 79.6826 23.2956 79.6428 23.195C79.6165 23.1203 79.6213 23.0769 79.6261 23.0769C79.6433 23.1113 79.6585 23.1467 79.6715 23.1829C79.7176 23.2725 79.7882 23.3469 79.875 23.3974C79.9382 23.4333 80.0096 23.4521 80.0821 23.4521C80.1547 23.4521 80.226 23.4333 80.2892 23.3974C80.3648 23.3535 80.4271 23.2897 80.4693 23.2129C80.5115 23.136 80.532 23.049 80.5286 22.9612C80.5166 22.8736 80.4801 22.7913 80.4233 22.7239C80.3665 22.6564 80.2917 22.6067 80.2078 22.5805C80.1391 22.5587 80.0658 22.5552 79.9953 22.5704C79.9248 22.5856 79.8595 22.619 79.8056 22.6673C79.7288 22.7296 79.6722 22.8134 79.6428 22.9082C79.6141 22.9829 79.6141 23.0239 79.6069 23.0239Z" fill="#263238"/>
<path d="M76.4107 22.2335C76.4251 22.2167 77.7945 22.9757 79.4704 23.9203C81.1462 24.8648 82.4917 25.6673 82.4774 25.6865C82.463 25.7058 81.0936 24.9444 79.4177 23.9998C77.7418 23.0552 76.3988 22.26 76.4107 22.2335Z" fill="#263238"/>
<g opacity="0.3">
<path d="M87.5121 36.3082C87.5121 36.3082 81.9339 32.5203 79.1089 30.8841C80.0833 32.2889 81.2061 33.8841 82.5588 34.9251C83.9806 35.9919 85.7474 36.4853 87.5121 36.3082Z" fill="#0F0E16"/>
</g>
<path d="M78.4414 19.5806C79.1763 17.0626 77.744 14.4218 75.2422 13.6821C72.7405 12.9425 70.1167 14.3841 69.3819 16.9021C68.647 19.42 70.0793 22.0609 72.581 22.8005C75.0828 23.5401 77.7065 22.0985 78.4414 19.5806Z" fill="white"/>
<path d="M78.6302 18.5155C78.6271 18.4898 78.6271 18.464 78.6302 18.4383C78.6302 18.3805 78.6302 18.3058 78.6302 18.2118C78.6325 18.0894 78.6253 17.9669 78.6086 17.8456C78.5961 17.6794 78.5721 17.5144 78.5368 17.3516C78.4488 16.9041 78.2955 16.4721 78.0819 16.0697C77.801 15.5358 77.4215 15.0606 76.9639 14.6697C76.3695 14.1602 75.6576 13.8092 74.8933 13.6488C74.1291 13.4884 73.337 13.5237 72.5899 13.7516C72.1585 13.8781 71.7491 14.0707 71.3761 14.3227C71.183 14.4512 70.9983 14.5921 70.8231 14.7444C70.6532 14.9064 70.4933 15.0786 70.3442 15.26C69.7105 16.0289 69.338 16.9818 69.2816 17.9792C69.2252 18.9766 69.4877 19.9659 70.0306 20.8022C70.1559 20.9987 70.2935 21.187 70.4424 21.3661C70.5986 21.5383 70.7666 21.6993 70.9452 21.848C71.2874 22.1417 71.6726 22.3807 72.0871 22.5564C72.8508 22.8861 73.6877 23.0058 74.5124 22.9034C75.1704 22.8182 75.803 22.5938 76.3687 22.2449C76.9344 21.8961 77.4204 21.4307 77.7947 20.8793C78.0527 20.5042 78.2537 20.0925 78.3908 19.6576C78.4439 19.4999 78.487 19.3389 78.5201 19.1757C78.5502 19.057 78.571 18.9362 78.5823 18.8142C78.5943 18.7227 78.6039 18.648 78.6134 18.5902C78.615 18.5647 78.6199 18.5396 78.6278 18.5155C78.6299 18.5411 78.6299 18.5669 78.6278 18.5926C78.6278 18.6504 78.6158 18.7251 78.6086 18.8167C78.6022 18.94 78.5853 19.0625 78.5584 19.1829C78.5296 19.3462 78.4896 19.5072 78.4387 19.6649C78.3134 20.1102 78.1195 20.533 77.8641 20.9179C77.4893 21.4841 76.9988 21.9634 76.4254 22.3236C75.8519 22.6839 75.2087 22.9169 74.5387 23.007C73.6915 23.1182 72.8302 22.9993 72.044 22.6624C71.6184 22.4836 71.2228 22.2397 70.8709 21.9395C70.4959 21.6351 70.1724 21.2713 69.9133 20.8624C69.6394 20.4435 69.4341 19.983 69.3052 19.4986C69.1746 18.9989 69.1206 18.4821 69.1448 17.9661C69.2056 16.9444 69.588 15.9688 70.2365 15.1805C70.3902 14.9917 70.5574 14.8146 70.7369 14.6504C70.9169 14.4948 71.1064 14.3508 71.3043 14.2191C71.6874 13.9627 72.1072 13.7669 72.5492 13.6383C73.3678 13.3936 74.2365 13.3736 75.0654 13.5805C75.7213 13.7466 76.3346 14.0515 76.8642 14.4749C77.3939 14.8983 77.8278 15.4305 78.137 16.0359C78.3507 16.4459 78.5009 16.8863 78.5823 17.342C78.6169 17.507 78.6378 17.6746 78.6446 17.8432C78.6587 17.9655 78.6627 18.0888 78.6565 18.2118C78.6565 18.3058 78.6565 18.3805 78.6565 18.4383C78.651 18.4651 78.6422 18.491 78.6302 18.5155Z" fill="#263238"/>
<path d="M60.459 9.41666C60.4685 9.40083 60.4789 9.38554 60.4901 9.37088C60.5203 9.32444 60.5565 9.2823 60.5979 9.24558C60.7594 9.09958 60.946 8.98445 61.1485 8.90582C61.9378 8.62568 62.7679 8.47991 63.6048 8.47449C64.9324 8.43349 66.261 8.50523 67.5766 8.68895C69.3307 8.92038 71.0661 9.27792 72.7694 9.75883C73.7175 10.0319 74.6999 10.3532 75.7165 10.7227C76.7756 11.1103 77.8143 11.5519 78.8289 12.0456C79.9172 12.5792 80.9754 13.1728 81.9986 13.8239L85.2498 15.9179L99.8897 25.3661L99.9424 25.3998L99.9088 25.4528C98.5418 27.595 97.1102 29.8408 95.6545 32.1299C94.1989 34.4191 92.7625 36.6624 91.3955 38.807L91.3643 38.86L91.3117 38.8263L76.667 29.3733L73.4206 27.2721L71.8788 26.2697C71.3737 25.9275 70.9068 25.5468 70.4424 25.1829C68.7783 23.7962 67.248 22.2544 65.872 20.5781C64.7626 19.1892 63.7431 17.7299 62.8196 16.2094C62.1134 15.0782 61.4932 13.8949 60.9641 12.6697C60.6118 11.9084 60.3846 11.0946 60.2914 10.26C60.2746 10.0423 60.2981 9.82332 60.3608 9.61425C60.3774 9.56086 60.4008 9.50984 60.4303 9.46244C60.4382 9.44542 60.4478 9.42927 60.459 9.41425C60.4231 9.47841 60.3942 9.54627 60.3728 9.61666C60.3155 9.8251 60.296 10.0422 60.3153 10.2576C60.4158 11.0928 60.6486 11.9063 61.0048 12.6673C61.5405 13.8866 62.1655 15.0641 62.8746 16.1902C63.8041 17.6996 64.8276 19.1483 65.9391 20.5275C67.3159 22.195 68.8462 23.7279 70.5094 25.1058C70.9595 25.4745 71.4287 25.848 71.9267 26.1829L73.4781 27.1829L76.7268 29.2793L91.3739 38.7251L91.2877 38.7444L95.5444 32.0673L99.7987 25.3902L99.8179 25.4769L85.1828 16.0191L81.934 13.9227C80.9153 13.2715 79.8619 12.677 78.7786 12.142C77.7324 11.6263 76.6933 11.195 75.683 10.8167C74.6727 10.4383 73.6911 10.1106 72.7455 9.83835C71.048 9.35333 69.3182 8.99096 67.5694 8.75401C66.2585 8.5628 64.9339 8.4822 63.6096 8.51305C62.7765 8.5144 61.9492 8.65277 61.1605 8.92268C60.9588 8.99803 60.7716 9.1081 60.6074 9.24799C60.5539 9.30046 60.5043 9.35684 60.459 9.41666Z" fill="#263238"/>
<path d="M24.4559 24.9034L16.7373 20.807C16.6104 20.7398 16.498 20.6481 16.4064 20.537C16.3148 20.426 16.2459 20.2978 16.2037 20.1599C16.1614 20.022 16.1466 19.8771 16.1601 19.7334C16.1736 19.5897 16.2152 19.4502 16.2824 19.3227L21.9229 8.56124C22.0588 8.30366 22.2904 8.11066 22.5672 8.02443C22.844 7.93819 23.1434 7.96572 23.4001 8.101L28.3056 10.7034L30.0317 16.648L25.933 24.4432C25.7972 24.7007 25.5656 24.8937 25.2888 24.98C25.012 25.0662 24.7126 25.0387 24.4559 24.9034Z" fill="#7B68EE"/>
<g opacity="0.3">
<path d="M28.3056 10.7034L26.7159 13.7299C26.5907 13.9701 26.565 14.2503 26.6444 14.5094C26.7238 14.7686 26.9019 14.9856 27.1397 15.1131L30.0318 16.648L28.3056 10.7034Z" fill="white"/>
</g>
<g opacity="0.2">
<path d="M26.6083 14.0167C26.4897 14.2469 26.4528 14.5109 26.5038 14.7651C26.5547 15.0193 26.6904 15.2483 26.8884 15.4143L26.9722 15.4841C27.3145 15.754 29.565 17.5203 29.6057 17.4624C29.6464 17.4046 30.0318 16.648 30.0318 16.648L27.1398 15.113C27.1398 15.113 26.4216 14.7034 26.6083 14.0167Z" fill="#0F0E16"/>
</g>
<path d="M26.1245 13.2624C26.103 13.301 25.289 12.9082 24.3026 12.3829C23.3163 11.8576 22.5334 11.4046 22.5597 11.3637C22.5861 11.3227 23.3977 11.7179 24.384 12.2432C25.3704 12.7685 26.1509 13.2239 26.1245 13.2624Z" fill="#FAFAFA"/>
<path d="M27.5325 16.2094C27.5133 16.248 26.1798 15.5805 24.5566 14.7179C22.9334 13.8552 21.6358 13.1155 21.655 13.0769C21.6741 13.0384 23.0077 13.7058 24.6309 14.5685C26.254 15.4311 27.554 16.1612 27.5325 16.2094Z" fill="#FAFAFA"/>
<path d="M27.3121 17.9106C27.293 17.9492 25.8421 17.2191 24.0729 16.2769C22.3037 15.3347 20.884 14.5444 20.9055 14.5058C20.9271 14.4673 22.3779 15.1974 24.1471 16.1371C25.9164 17.0769 27.3337 17.8721 27.3121 17.9106Z" fill="#FAFAFA"/>
<path d="M26.6056 19.2576C26.584 19.2962 25.1332 18.5661 23.364 17.6263C21.5947 16.6865 20.1774 15.8914 20.199 15.8528C20.2205 15.8143 21.6689 16.5444 23.4382 17.4841C25.2074 18.4239 26.6295 19.2191 26.6056 19.2576Z" fill="#FAFAFA"/>
<path d="M25.897 20.607C25.8779 20.6456 24.427 19.9155 22.6578 18.9733C20.8886 18.0311 19.4713 17.2408 19.4904 17.2022C19.5096 17.1636 20.9628 17.8962 22.732 18.8335C24.5013 19.7709 25.9114 20.5685 25.897 20.607Z" fill="#FAFAFA"/>
<path d="M25.1935 21.954C25.1719 21.9926 23.7211 21.2624 21.9542 20.3227C20.1874 19.3829 18.7653 18.5877 18.7869 18.5492C18.8084 18.5106 20.2568 19.2408 22.0261 20.1805C23.7953 21.1203 25.2126 21.9155 25.1935 21.954Z" fill="#FAFAFA"/>
</g>
<defs>
<clipPath id="clip0_4135_4668">
<rect width="119.277" height="100" fill="white" transform="translate(0.722656 0.357285)"/>
</clipPath>
</defs>
</svg>
