<svg width="129" height="120" viewBox="0 0 129 120" fill="none" xmlns="http://www.w3.org/2000/svg">
<g id="Frame" clip-path="url(#clip0_1897_780)">
<g id="Group">
<g id="Group_2">
<path id="Vector" d="M65.6145 120C98.2323 120 124.674 118.652 124.674 116.989C124.674 115.326 98.2323 113.978 65.6145 113.978C32.9967 113.978 6.55469 115.326 6.55469 116.989C6.55469 118.652 32.9967 120 65.6145 120Z" fill="#DFDBFB"/>
</g>
<g id="Group_3">
<g id="Group_4">
<g id="Group_5">
<g id="Group_6">
<g id="Group_7">
<g id="Group_8">
<path id="Vector_2" d="M105.616 108.558H97.4316V116.972H107.001V109.927C107.004 109.172 106.383 108.558 105.616 108.558Z" fill="#DFDBFB"/>
</g>
</g>
</g>
</g>
</g>
<g id="Group_9">
<g id="Group_10">
<path id="Vector_3" d="M82.0608 90.5251H53.6519V108.558H82.0608V90.5251Z" fill="#DFDBFB"/>
</g>
</g>
<g id="Group_11">
<g id="Group_12">
<g id="Group_13">
<g id="Group_14">
<g id="Group_15">
<path id="Vector_4" d="M103.781 116.972H25.4077V113.848C25.4077 110.927 27.8043 108.558 30.7588 108.558H98.4266C101.381 108.558 103.778 110.927 103.778 113.848V116.972H103.781Z" fill="white"/>
</g>
</g>
</g>
</g>
</g>
<g id="Group_16">
<g id="Group_17">
<g id="Group_18">
<g id="Group_19">
<g id="Group_20">
<path id="Vector_5" d="M78.5789 90.5251H50.1699V108.558H78.5789V90.5251Z" fill="white"/>
</g>
</g>
</g>
</g>
</g>
<g id="Group_21">
<path id="Vector_6" d="M50.1699 96.0618L78.5789 93.8119L78.5822 90.5251H50.2069L50.1699 96.0618Z" fill="#DFDBFB"/>
</g>
</g>
<g id="Group_22">
<g id="Group_23">
<g id="Group_24">
<path id="Vector_7" d="M129 16.0585V86.7763C129 88.8501 127.299 90.5284 125.205 90.5284H3.90613C1.8121 90.5284 0.111328 88.8501 0.111328 86.7763V16.0585C0.111328 13.9847 1.8121 12.3064 3.90613 12.3064H125.205C127.303 12.3064 129 13.988 129 16.0585Z" fill="#DFDBFB"/>
</g>
<g id="Group_25">
<path id="Vector_8" d="M129 16.0585V81.5454H117.266V12.3064H125.205C127.303 12.3064 129 13.988 129 16.0585Z" fill="#595959"/>
</g>
<g id="Group_26">
<path id="Vector_9" d="M124.177 16.0585V86.7763C124.177 88.8501 122.476 90.5284 120.382 90.5284H3.90613C1.8121 90.5284 0.111328 88.8501 0.111328 86.7763V16.0585C0.111328 13.9847 1.8121 12.3064 3.90613 12.3064H120.379C120.436 12.3064 120.493 12.3064 120.547 12.3097C120.587 12.3131 120.627 12.3131 120.671 12.3164H120.675C120.705 12.3197 120.732 12.3197 120.762 12.3264C120.812 12.3297 120.859 12.3363 120.91 12.343C120.943 12.3463 120.974 12.3529 121.004 12.3563C121.021 12.3596 121.034 12.3596 121.051 12.3629C121.081 12.3662 121.111 12.3729 121.145 12.3795C122.873 12.7351 124.177 14.2473 124.177 16.0585Z" fill="white"/>
</g>
<g id="Group_27">
<g id="Group_28">
<path id="Vector_10" d="M121.145 12.3828C121.115 12.3762 121.085 12.3696 121.051 12.3662C121.034 12.3629 121.021 12.3596 121.004 12.3596C120.97 12.3529 120.94 12.3496 120.91 12.3463C120.859 12.3396 120.812 12.333 120.762 12.3297C120.732 12.3264 120.705 12.323 120.675 12.3197H120.671C120.631 12.3164 120.59 12.3131 120.547 12.3131C120.49 12.3097 120.436 12.3097 120.379 12.3097H3.90613C1.8121 12.3064 0.111328 13.988 0.111328 16.0585V81.5454H124.177V16.0585C124.177 14.2473 122.873 12.7351 121.145 12.3828ZM119.253 75.005C119.253 75.57 118.792 76.0252 118.221 76.0252H6.06403C5.49262 76.0252 5.03214 75.57 5.03214 75.005V18.1921C5.03214 17.6271 5.49262 17.1718 6.06403 17.1718H118.221C118.792 17.1718 119.253 17.6271 119.253 18.1921V75.005Z" fill="#0F0E16"/>
</g>
</g>
<g id="Group_29">
<path id="Vector_11" d="M119.253 18.1921V75.005C119.253 75.57 118.792 76.0253 118.221 76.0253H6.06412C5.49271 76.0253 5.03223 75.57 5.03223 75.005V18.1921C5.03223 17.6271 5.49271 17.1718 6.06412 17.1718H118.221C118.792 17.1718 119.253 17.6304 119.253 18.1921Z" fill="#CED3E6"/>
</g>
<g id="Group_30">
<g id="Group_31">
<path id="Vector_12" d="M119.253 18.1921V23.5527H5.03223V18.1921C5.03223 17.6271 5.49271 17.1718 6.06412 17.1718H118.221C118.792 17.1718 119.253 17.6304 119.253 18.1921Z" fill="white"/>
</g>
<g id="Group_32">
<g id="Group_33">
<path id="Vector_13" d="M110.406 20.2792C110.406 20.7577 110.013 21.1466 109.529 21.1466C109.045 21.1466 108.651 20.7577 108.651 20.2792C108.651 19.8006 109.045 19.4118 109.529 19.4118C110.013 19.4118 110.406 19.8006 110.406 20.2792Z" fill="#DF615C"/>
</g>
<g id="Group_34">
<path id="Vector_14" d="M112.372 21.1466C112.857 21.1466 113.25 20.7582 113.25 20.2792C113.25 19.8001 112.857 19.4118 112.372 19.4118C111.888 19.4118 111.495 19.8001 111.495 20.2792C111.495 20.7582 111.888 21.1466 112.372 21.1466Z" fill="#5392F3"/>
</g>
</g>
<g id="Group_35">
<path id="Vector_15" d="M105.055 21.1964H15.8251C15.3747 21.1964 15.0083 20.8308 15.0083 20.3888V20.1728C15.0083 19.7275 15.378 19.3652 15.8251 19.3652H105.055C105.505 19.3652 105.872 19.7308 105.872 20.1728V20.3888C105.875 20.8308 105.505 21.1964 105.055 21.1964Z" fill="#D2DCEC"/>
</g>
<g id="Group_36">
<path id="Vector_16" d="M9.15651 20.2792V21.1299C9.15651 21.2496 9.02542 21.326 8.92122 21.2662L8.1784 20.8408L7.43557 20.4154C7.33137 20.3556 7.33137 20.206 7.43557 20.1462L8.1784 19.7208L8.92122 19.2954C9.02542 19.2356 9.15651 19.3121 9.15651 19.4317V20.2792Z" fill="black"/>
</g>
<g id="Group_37">
<path id="Vector_17" d="M10.4639 20.2792V21.1299C10.4639 21.2496 10.595 21.326 10.6992 21.2662L11.442 20.8408L12.1848 20.4154C12.289 20.3556 12.289 20.206 12.1848 20.1462L11.442 19.7208L10.6992 19.2954C10.595 19.2356 10.4639 19.3121 10.4639 19.4317V20.2792Z" fill="black"/>
</g>
</g>
</g>
<g id="Group_38">
<g id="Group_39">
<path id="Vector_18" d="M114.433 21.0037L114.392 20.9638C114.305 20.8774 114.305 20.7411 114.392 20.6547L115.569 19.4915C115.656 19.4051 115.794 19.4051 115.881 19.4915L115.922 19.5314C116.009 19.6178 116.009 19.7541 115.922 19.8405L114.745 21.0037C114.658 21.0867 114.517 21.0867 114.433 21.0037Z" fill="#39393B"/>
</g>
<g id="Group_40">
<path id="Vector_19" d="M115.881 21.0037L115.922 20.9638C116.009 20.8774 116.009 20.7411 115.922 20.6547L114.745 19.4915C114.658 19.4051 114.52 19.4051 114.433 19.4915L114.392 19.5314C114.305 19.6178 114.305 19.7541 114.392 19.8405L115.569 21.0037C115.656 21.0867 115.797 21.0867 115.881 21.0037Z" fill="#39393B"/>
</g>
</g>
<g id="Group_41">
<g id="Group_42">
<g id="Group_43">
<g id="Group_44">
<path id="Vector_20" d="M103.878 73.7421H20.1037C18.9105 73.7421 17.9458 72.785 17.9458 71.6085V26.9824C17.9458 25.8026 18.9138 24.8488 20.1037 24.8488H103.878C105.072 24.8488 106.036 25.8059 106.036 26.9824V71.6052C106.036 72.785 105.072 73.7421 103.878 73.7421Z" fill="white"/>
</g>
</g>
<g id="Group_45">
<g id="Group_46">
<path id="Vector_21" d="M43.4407 49.8637H24.1271C23.8314 49.8637 23.5894 49.6278 23.5894 49.332C23.5894 49.0395 23.828 48.8003 24.1271 48.8003H43.4407C43.7364 48.8003 43.9784 49.0362 43.9784 49.332C43.9784 49.6278 43.7364 49.8637 43.4407 49.8637Z" fill="#DEDEDE"/>
</g>
<g id="Group_47">
<path id="Vector_22" d="M43.4407 45.3772H24.1271C23.8314 45.3772 23.5894 45.1412 23.5894 44.8455C23.5894 44.553 23.828 44.3137 24.1271 44.3137H43.4407C43.7364 44.3137 43.9784 44.5497 43.9784 44.8455C43.9784 45.1379 43.7364 45.3772 43.4407 45.3772Z" fill="#DEDEDE"/>
</g>
<g id="Group_48">
<path id="Vector_23" d="M43.4407 54.3536H24.1271C23.8314 54.3536 23.5894 54.1176 23.5894 53.8219C23.5894 53.5294 23.828 53.2901 24.1271 53.2901H43.4407C43.7364 53.2901 43.9784 53.5261 43.9784 53.8219C43.9784 54.1143 43.7364 54.3536 43.4407 54.3536Z" fill="#DEDEDE"/>
</g>
</g>
<g id="Group_49">
<g id="Group_50">
<path id="Vector_24" d="M102.789 49.8637H83.4758C83.18 49.8637 82.938 49.6278 82.938 49.332C82.938 49.0395 83.1766 48.8003 83.4758 48.8003H102.789C103.085 48.8003 103.327 49.0362 103.327 49.332C103.324 49.6278 103.085 49.8637 102.789 49.8637Z" fill="#DEDEDE"/>
</g>
<g id="Group_51">
<path id="Vector_25" d="M102.789 45.3772H83.4758C83.18 45.3772 82.938 45.1412 82.938 44.8455C82.938 44.553 83.1766 44.3137 83.4758 44.3137H102.789C103.085 44.3137 103.327 44.5497 103.327 44.8455C103.324 45.1379 103.085 45.3772 102.789 45.3772Z" fill="#DEDEDE"/>
</g>
<g id="Group_52">
<path id="Vector_26" d="M102.789 54.3536H83.4758C83.18 54.3536 82.938 54.1176 82.938 53.8219C82.938 53.5294 83.1766 53.2901 83.4758 53.2901H102.789C103.085 53.2901 103.327 53.5261 103.327 53.8219C103.324 54.1143 103.085 54.3536 102.789 54.3536Z" fill="#DEDEDE"/>
</g>
</g>
<g id="Group_53">
<path id="Vector_27" d="M17.9424 66.1482H106.036V73.2901C106.036 73.5394 105.831 73.7421 105.579 73.7421H18.3995C18.1474 73.7421 17.9424 73.5394 17.9424 73.2901V66.1482Z" fill="#0F0E16"/>
</g>
<g id="Group_54">
<g id="Group_55">
<g id="Group_56">
<path id="Vector_28" d="M97.3847 68.9631V68.3184H98.1981V67.7468H97.0923C96.9309 67.7468 96.8032 67.8764 96.8032 68.0326V68.9631H97.3847Z" fill="white"/>
</g>
</g>
<g id="Group_57">
<g id="Group_58">
<path id="Vector_29" d="M97.3848 70.1063H96.8066V71.0867C96.8066 71.2463 96.9377 71.3726 97.0957 71.3726H98.2015V70.8009H97.3881V70.1063H97.3848Z" fill="white"/>
</g>
</g>
<g id="Group_59">
<g id="Group_60">
<path id="Vector_30" d="M99.8956 68.9631H100.474V68.0326C100.474 67.8731 100.343 67.7468 100.185 67.7468H99.1226V68.3184H99.8956V68.9631Z" fill="white"/>
</g>
</g>
<g id="Group_61">
<g id="Group_62">
<path id="Vector_31" d="M99.8956 70.1063V70.7976H99.1226V71.3692H100.185C100.346 71.3692 100.474 71.2396 100.474 71.0834V70.103H99.8956V70.1063Z" fill="white"/>
</g>
</g>
</g>
<g id="Group_63">
<g id="Group_64">
<path id="Vector_32" d="M23.0747 69.6843V67.873L24.6578 68.777L26.2443 69.6843L24.6578 70.5882L23.0747 71.4922V69.6843Z" fill="white"/>
</g>
</g>
<g id="Group_65">
<g id="Group_66">
<g id="Group_67">
<path id="Vector_33" d="M31.8578 71.3493H31.441C31.2864 71.3493 31.1587 71.223 31.1587 71.0701V68.335C31.1587 68.1821 31.2864 68.0558 31.441 68.0558H31.8578C32.0124 68.0558 32.1402 68.1821 32.1402 68.335V71.0701C32.1435 71.223 32.0158 71.3493 31.8578 71.3493Z" fill="white"/>
</g>
</g>
<g id="Group_68">
<g id="Group_69">
<path id="Vector_34" d="M33.9115 71.3493H33.4947C33.3401 71.3493 33.2124 71.223 33.2124 71.0701V68.335C33.2124 68.1821 33.3401 68.0558 33.4947 68.0558H33.9115C34.0661 68.0558 34.1939 68.1821 34.1939 68.335V71.0701C34.1939 71.223 34.0661 71.3493 33.9115 71.3493Z" fill="white"/>
</g>
</g>
</g>
<g id="Group_70">
<g id="Group_71">
<g id="Group_72">
<path id="Vector_35" d="M106.036 64.7192H17.9424V66.1482H106.036V64.7192Z" fill="#DEDEDE"/>
</g>
</g>
<g id="Group_73">
<g id="Group_74">
<path id="Vector_36" d="M63.1439 64.7225H17.9424V66.1515H63.1439V64.7225Z" fill="#DF615C"/>
</g>
</g>
</g>
<g id="Group_75">
<g id="Group_76">
<g id="Group_77">
<path id="Vector_37" d="M91.9492 59.1658H92.9441V61.3194H94.2752V62.0804H91.9492V59.1658Z" fill="#0F0E16"/>
</g>
<g id="Group_78">
<path id="Vector_38" d="M94.5474 59.1658H95.5423V62.0804H94.5474V59.1658Z" fill="#0F0E16"/>
</g>
<g id="Group_79">
<path id="Vector_39" d="M99.1723 59.1658L97.9253 62.0804H96.9472L95.7002 59.1658H96.7691L97.4715 60.8674L98.1908 59.1658H99.1723Z" fill="#0F0E16"/>
</g>
<g id="Group_80">
<path id="Vector_40" d="M101.72 61.3393V62.0804H99.2666V59.1658H101.663V59.9069H100.245V60.2493H101.492V60.9571H100.245V61.3393H101.72Z" fill="#0F0E16"/>
</g>
</g>
<g id="Group_81">
<path id="Vector_41" d="M90.3125 60.5982C90.3125 61.2596 89.7714 61.7979 89.0991 61.7979C88.4303 61.7979 87.8857 61.2629 87.8857 60.5982C87.8857 59.9369 88.4269 59.3985 89.0991 59.3985C89.7714 59.4018 90.3125 59.9369 90.3125 60.5982Z" fill="#DF615C"/>
</g>
</g>
<g id="Group_82">
<g id="Group_83">
<g id="Group_84">
<path id="Vector_42" d="M28.7049 61.4091C28.7049 62.0738 28.0662 62.5058 27.152 62.5058C26.2377 62.5058 25.5991 62.0738 25.5991 61.4091C25.5991 61.0668 25.7705 60.7976 26.063 60.6215C25.8512 60.4553 25.7201 60.2293 25.7201 59.9468C25.7201 59.3254 26.3083 58.9232 27.1486 58.9232C27.9889 58.9232 28.5772 59.3254 28.5772 59.9468C28.5772 60.2293 28.4494 60.4553 28.2343 60.6215C28.5301 60.7976 28.7049 61.0668 28.7049 61.4091ZM27.5318 61.3692C27.5318 61.1499 27.3738 61.0136 27.152 61.0136C26.9302 61.0136 26.7722 61.1499 26.7722 61.3692C26.7722 61.5886 26.9302 61.7248 27.152 61.7248C27.3738 61.7281 27.5318 61.5919 27.5318 61.3692ZM26.873 59.9967C26.873 60.1828 26.9907 60.2891 27.1486 60.2891C27.3066 60.2891 27.4243 60.1828 27.4243 59.9967C27.4243 59.8106 27.3066 59.7042 27.1486 59.7042C26.9907 59.7009 26.873 59.8106 26.873 59.9967Z" fill="#0F0E16"/>
</g>
<g id="Group_85">
<path id="Vector_43" d="M28.9199 60.7145C28.9199 59.5779 29.572 58.9232 30.4896 58.9232C31.4039 58.9232 32.0593 59.5779 32.0593 60.7145C32.0593 61.8478 31.4072 62.5058 30.4896 62.5058C29.572 62.5058 28.9199 61.8511 28.9199 60.7145ZM30.8862 60.7145C30.8862 60.0532 30.7182 59.8471 30.4896 59.8471C30.261 59.8471 30.093 60.0532 30.093 60.7145C30.093 61.3759 30.261 61.5819 30.4896 61.5819C30.7182 61.5819 30.8862 61.3759 30.8862 60.7145Z" fill="#0F0E16"/>
</g>
</g>
<g id="Group_86">
<g id="Group_87">
<g id="Group_88">
<path id="Vector_44" d="M23.5656 59.7541C23.5656 60.3357 23.0883 60.8076 22.5001 60.8076C21.9119 60.8076 21.4346 60.3357 21.4346 59.7541C21.4346 59.1725 21.9119 58.7006 22.5001 58.7006C23.0883 58.7006 23.5656 59.1725 23.5656 59.7541Z" fill="#DF615C"/>
</g>
</g>
<g id="Group_89">
<g id="Group_90">
<path id="Vector_45" d="M24.4933 62.4161H20.5103C20.5103 62.4161 20.964 61.1665 22.4698 61.1665C22.4799 61.1665 22.49 61.1665 22.5001 61.1665C22.5102 61.1665 22.5203 61.1665 22.5303 61.1665C24.0395 61.1665 24.4933 62.4161 24.4933 62.4161Z" fill="#DF615C"/>
</g>
</g>
</g>
</g>
</g>
<g id="Group_91">
<g id="Clip path group">
<mask id="mask0_1897_780" style="mask-type:luminance" maskUnits="userSpaceOnUse" x="20" y="-1" width="88" height="68">
<g id="SVGID_2_">
<path id="Vector_46" d="M21.3206 64.8156C20.877 66.1549 20.877 66.3875 20.877 66.1549L20.8904 27.8963C20.8904 27.6637 20.877 27.7002 20.877 -0.00332642H107.889L107.899 64.8122L21.3206 64.8156Z" fill="white"/>
</g>
</mask>
<g mask="url(#mask0_1897_780)">
<g id="Group_92">
<g id="Group_93">
<g id="Group_94">
<g id="Group_95">
<g id="Group_96">
<g id="Group_97">
<g id="Group_98">
<path id="Vector_47" d="M34.7354 35.9887C34.7354 35.9887 34.2044 39.1991 31.8112 39.774C29.8785 40.236 28.0601 38.4048 27.4315 37.6803C27.2803 37.5075 27.1996 37.3978 27.1996 37.3978C27.1996 37.3978 27.0551 37.4111 26.84 37.4078C26.3358 37.4011 25.4417 37.2981 25.0921 36.6866C24.5913 35.8159 26.4097 35.2177 26.4097 35.2177C26.4097 35.2177 25.4787 34.3935 25.7106 33.7953C25.9392 33.2071 27.1895 33.0841 27.1895 33.0841C27.1895 33.0841 25.8451 32.22 26.2955 31.4656C26.9744 30.3323 28.366 31.5786 28.4769 31.6484C28.3895 31.5487 26.645 29.764 27.5996 29.445C28.4332 29.1658 29.8046 30.0931 30.7054 31.0103C30.8499 31.1565 30.9306 31.2396 30.9306 31.2396C30.9306 31.2396 30.9843 31.1997 31.0785 31.1366C31.5289 30.8375 32.9137 30.0399 33.7943 30.7677C34.8531 31.6517 34.7354 35.9887 34.7354 35.9887Z" fill="#EA9B7A"/>
</g>
</g>
</g>
<g id="Group_99">
<g id="Group_100">
<g id="Group_101">
<g id="Group_102">
<g id="Group_103">
<g id="Group_104">
<path id="Vector_48" d="M32.2382 37.9595C32.1777 37.9861 32.1071 37.9861 32.05 37.9462C31.9626 37.8897 31.9391 37.7734 31.9996 37.6869C32.3155 37.225 32.413 36.7498 32.2886 36.2812C31.9727 35.0781 30.3458 34.2473 30.329 34.2373C30.2349 34.1908 30.198 34.0778 30.245 33.9847C30.2921 33.8917 30.4063 33.8551 30.5005 33.9016C30.5744 33.9382 32.2953 34.8189 32.655 36.1848C32.8062 36.7631 32.692 37.338 32.3122 37.893C32.292 37.9229 32.2685 37.9462 32.2382 37.9595Z" fill="#D96C63"/>
</g>
</g>
</g>
</g>
</g>
</g>
<g id="Group_105">
<g id="Group_106">
<g id="Group_107">
<g id="Group_108">
<g id="Group_109">
<g id="Group_110">
<path id="Vector_49" d="M30.5774 33.33C30.5774 33.5527 30.4833 33.7288 30.3086 33.8418C30.2716 33.8651 30.2312 33.885 30.1842 33.905C30.0867 33.9415 29.9691 33.9681 29.8413 33.9814C29.9355 34.0412 30.0195 34.1077 30.0834 34.1775C30.1506 34.2473 30.201 34.3204 30.2312 34.3968C30.2716 34.5098 30.2884 34.6793 30.1472 34.8687C29.8413 35.2675 29.1389 35.4304 28.5674 35.4968C28.9775 35.7361 29.3338 36.0618 29.4514 36.3875C29.5254 36.5969 29.5019 36.7963 29.3775 36.9591C29.2901 37.0721 29.1456 37.1718 28.9674 37.2582C28.5204 37.4742 27.865 37.6072 27.428 37.6803C27.2767 37.5075 27.1961 37.3978 27.1961 37.3978C27.1961 37.3978 27.0515 37.4144 26.8364 37.4111C26.8633 37.3878 26.8969 37.3745 26.9339 37.3712C27.6364 37.2915 28.8397 37.0455 29.075 36.7365C29.1052 36.6933 29.1355 36.6334 29.0952 36.5138C28.9641 36.1549 28.2817 35.6796 27.6935 35.5367C27.5994 35.5135 27.5389 35.4271 27.5524 35.3307C27.5624 35.2343 27.6465 35.1645 27.744 35.1678C28.2145 35.1778 29.5052 35.098 29.8481 34.6427C29.8985 34.5763 29.885 34.5397 29.8783 34.5231C29.8481 34.4367 29.7405 34.3503 29.5926 34.2639C29.2901 34.0877 28.8128 33.9282 28.47 33.8451C28.4296 33.8352 28.396 33.8152 28.3725 33.7853C28.3322 33.7421 28.3154 33.679 28.3288 33.6191C28.3523 33.5194 28.4565 33.4563 28.5574 33.4796C28.6212 33.4962 28.759 33.5294 28.9271 33.5826C29.2464 33.6191 29.5523 33.6358 29.7842 33.6125C29.922 33.5992 30.0329 33.5693 30.1069 33.5261C30.1506 33.4995 30.201 33.4497 30.201 33.3267C30.2044 33.1705 30.1237 32.9678 29.996 32.7584C29.9556 32.6919 29.9623 32.6088 30.0128 32.549L30.0161 32.5457C30.0968 32.4427 30.2548 32.4526 30.322 32.5656C30.4766 32.8249 30.5774 33.0941 30.5774 33.33Z" fill="#D96C63"/>
</g>
</g>
</g>
</g>
</g>
</g>
<g id="Group_111">
<g id="Group_112">
<path id="Vector_50" d="M29.1861 29.8172C29.5121 30.0166 29.7978 30.2027 30.0768 30.462C30.3457 30.7145 30.5171 30.8441 30.702 31.0136C30.6885 31.0336 30.7154 30.9937 30.702 31.0136L27.0517 15.7062C26.9979 15.4703 26.6416 15.5434 26.6853 15.7793L29.1861 29.8172Z" fill="#39393B"/>
</g>
</g>
<g id="Group_113">
<g id="Group_114">
<path id="Vector_51" d="M32.3593 38.3184C31.0955 39.126 30.7392 38.5278 30.7392 38.5278L30.0972 34.9319C30.1174 34.9119 30.1342 34.892 30.151 34.8687C30.2922 34.6793 30.2753 34.5065 30.235 34.3968C30.2048 34.3171 30.1543 34.2439 30.0871 34.1775C30.0434 34.1309 29.993 34.0911 29.9392 34.0479L29.9258 33.9681C30.0199 33.9515 30.1106 33.9315 30.1846 33.9016C30.2317 33.8817 30.272 33.8651 30.309 33.8385C30.4232 33.7654 30.5039 33.659 30.5442 33.5361C30.6989 33.6823 30.8871 33.7654 31.1123 33.7886C31.1728 33.7953 31.2333 33.7953 31.2972 33.7953L32.3593 38.3184Z" fill="#39393B"/>
</g>
</g>
<g id="Group_115">
<g id="Group_116">
<g id="Group_117">
<g id="Group_118">
<g id="Group_119">
<g id="Group_120">
<path id="Vector_52" d="M33.4583 32.7052C33.4214 32.7385 32.8634 33.2203 32.2113 33.5327C31.8517 33.7056 31.4584 33.8285 31.1122 33.792C30.8265 33.7621 30.5946 33.6324 30.4265 33.4098C29.8249 32.6122 30.3391 31.5686 30.7021 31.017C30.8467 31.1632 30.9273 31.2463 30.9273 31.2463C30.9273 31.2463 30.9811 31.2064 31.0752 31.1432C30.766 31.5985 30.245 32.5391 30.7324 33.1871C30.8366 33.3267 30.9744 33.4031 31.1525 33.4231C31.8214 33.4929 32.8634 32.7285 33.2062 32.4294C33.2835 32.3596 33.4046 32.3662 33.4751 32.446C33.5457 32.5158 33.5356 32.6354 33.4583 32.7052Z" fill="#D96C63"/>
</g>
</g>
</g>
</g>
</g>
</g>
</g>
<g id="Group_121">
<g id="Group_122">
<path id="Vector_53" d="M52.9934 28.9897V28.9831L52.99 29.003L52.9799 29.0495L52.9564 29.1592L52.906 29.4018C52.8892 29.4849 52.869 29.5713 52.8522 29.6577C52.832 29.7441 52.8152 29.8305 52.7917 29.9169C52.711 30.2659 52.6236 30.6215 52.5261 30.9771C52.3278 31.6883 52.1194 32.4028 51.8774 33.104C51.6321 33.8053 51.38 34.5065 51.0943 35.1878C50.9464 35.5268 50.8052 35.8691 50.6472 36.2014C50.4993 36.5404 50.3346 36.8694 50.1767 37.1984C49.8439 37.8531 49.4977 38.4978 49.1212 39.116C49.0339 39.2755 48.933 39.4251 48.8355 39.5779C48.7381 39.7308 48.6473 39.887 48.5431 40.0366C48.3414 40.3357 48.1465 40.6381 47.9314 40.9272C47.5213 41.5188 47.0675 42.0705 46.6171 42.6188C46.1499 43.1506 45.6726 43.679 45.1651 44.1675C45.0374 44.2905 44.913 44.4168 44.7853 44.5364L44.392 44.8887L44.1971 45.0648L44.1467 45.108L44.1702 45.0848L44.2038 45.0548C44.2509 45.0183 44.2979 44.9851 44.3517 44.9518C44.5601 44.8056 44.8189 44.6926 45.0575 44.6261C45.118 44.6095 45.1685 44.5929 45.2256 44.5862C45.2525 44.5796 45.2827 44.5763 45.3096 44.573L45.3802 44.5597C45.4273 44.553 45.4777 44.5497 45.5214 44.5497C45.5584 44.5464 45.5953 44.543 45.6323 44.5464C45.6491 44.5464 45.6726 44.5497 45.6827 44.5497C45.6962 44.5497 45.7096 44.5497 45.7231 44.5497C45.7466 44.5497 45.7768 44.5563 45.797 44.5597C45.8138 44.5597 45.8273 44.563 45.8441 44.5663L45.8642 44.573C45.8676 44.573 45.871 44.573 45.8743 44.573C45.9281 44.5896 45.8205 44.573 45.6558 44.5032C45.4878 44.4334 45.2659 44.3171 45.0239 44.1775C44.7819 44.0346 44.5164 43.8618 44.2475 43.6723C43.7063 43.2935 43.1383 42.8415 42.5736 42.3596C42.0056 41.8744 41.4342 41.3593 40.8661 40.8209C40.2981 40.2858 39.73 39.7275 39.1721 39.1592C38.6107 38.5909 38.0494 38.0093 37.5015 37.4211C37.2226 37.1286 36.9469 36.8328 36.6781 36.5371L35.8848 35.6796L29.7573 40.2293L29.9624 40.5351L30.1573 40.8176L30.5438 41.3726C30.806 41.7381 31.0682 42.1004 31.3337 42.4593C31.8715 43.1738 32.4228 43.8817 32.9942 44.5796C33.5723 45.2742 34.1605 45.9654 34.7823 46.6434C35.0949 46.9824 35.4109 47.3214 35.7369 47.6537C36.063 47.9894 36.3991 48.3217 36.7453 48.6507C37.441 49.3121 38.1738 49.9601 39.0006 50.5982C39.4141 50.9173 39.8544 51.2297 40.3317 51.5387C40.8123 51.8478 41.3333 52.1502 41.9451 52.436C42.5568 52.7185 43.2559 52.9944 44.15 53.1805L44.3147 53.2137C44.3719 53.2237 44.4357 53.2336 44.4962 53.2436C44.6172 53.2602 44.7382 53.2768 44.8592 53.2935C44.9836 53.3068 45.1214 53.3167 45.2525 53.3234L45.4508 53.3333C45.518 53.3367 45.592 53.3367 45.6626 53.3367C45.8071 53.3367 45.9516 53.3333 46.0928 53.3267C46.2441 53.3167 46.3987 53.3001 46.5533 53.2802C46.6306 53.2702 46.7045 53.2602 46.7852 53.2503C46.8659 53.237 46.9465 53.2203 47.0272 53.2037C47.1886 53.1705 47.3465 53.1373 47.5079 53.0907C48.1599 52.9079 48.8053 52.6088 49.3733 52.23C49.5111 52.1369 49.6422 52.0372 49.7733 51.9342L49.8708 51.8578L49.9582 51.7847L50.0288 51.7215L50.3111 51.4756L50.8724 50.9804C51.0539 50.8109 51.2321 50.6381 51.4136 50.4653C52.1363 49.7807 52.8018 49.0429 53.4505 48.2951C54.0824 47.5341 54.6908 46.7597 55.242 45.9522C55.8067 45.1512 56.3142 44.3171 56.7982 43.4762L57.1478 42.8382C57.2655 42.6255 57.3696 42.4094 57.4806 42.1934C57.5915 41.9774 57.699 41.7647 57.8032 41.5454L58.1125 40.894C58.9124 39.1459 59.5578 37.348 60.0586 35.5168C60.304 34.5995 60.5258 33.6756 60.6939 32.7351C60.7779 32.2632 60.8586 31.7913 60.9224 31.3061C60.9393 31.1864 60.9527 31.0635 60.9695 30.9405C60.9829 30.8176 60.9998 30.6946 61.0132 30.5683C61.0266 30.4453 61.0401 30.3124 61.0502 30.1828L61.0871 29.7208L52.9934 28.9897Z" fill="#7B68EE"/>
</g>
</g>
<g id="Group_123">
<g id="Group_124">
<g id="Group_125">
<path id="Vector_54" d="M33.7605 39.3054C33.7841 39.5912 34.0395 39.8072 34.3319 39.7807C34.621 39.7574 34.8395 39.5048 34.8126 39.2157C34.7891 38.9299 34.5336 38.7139 34.2412 38.7404C33.9521 38.767 33.7337 39.0196 33.7605 39.3054Z" fill="#0F0E16"/>
</g>
</g>
</g>
<g id="Group_126">
<g id="Group_127">
<g id="Group_128">
<g id="Group_129">
<path id="Vector_55" d="M44.7419 48.2818C44.8427 48.2818 44.9334 48.2154 44.9603 48.1123C45.3838 46.4374 45.3301 44.3337 45.3267 44.2439C45.3233 44.121 45.2191 44.0246 45.0948 44.0279C44.9704 44.0312 44.8729 44.1343 44.8763 44.2572C44.8763 44.2772 44.9301 46.3875 44.5234 48.0027C44.4931 48.1223 44.5671 48.2419 44.6881 48.2719C44.7049 48.2785 44.7217 48.2818 44.7419 48.2818Z" fill="#0F0E16"/>
</g>
</g>
</g>
<g id="Group_130">
<g id="Group_131">
<g id="Group_132">
<path id="Vector_56" d="M46.1836 46.6634C46.2172 46.6634 46.2508 46.6567 46.2845 46.6401C46.3954 46.5836 46.4424 46.4507 46.3853 46.341C46.355 46.2812 45.6257 44.8388 45.2795 44.4068C45.2022 44.3104 45.061 44.2938 44.9635 44.3702C44.866 44.4467 44.8492 44.5862 44.9265 44.6826C45.2425 45.0748 45.9752 46.5238 45.982 46.5371C46.0223 46.6201 46.103 46.6634 46.1836 46.6634Z" fill="#0F0E16"/>
</g>
</g>
</g>
</g>
<g id="Group_133">
<g id="Group_134">
<g id="Group_135">
<g id="Group_136">
<path id="Vector_57" d="M32.1373 43.6424C32.1978 43.6424 32.255 43.6191 32.2987 43.5759C34.1877 41.6484 38.453 38.6042 38.4967 38.5743C38.5976 38.5012 38.6211 38.3616 38.5472 38.2619C38.4732 38.1622 38.332 38.1389 38.2312 38.212C38.1875 38.2419 33.8919 41.3094 31.976 43.2635C31.8886 43.3533 31.892 43.4929 31.9794 43.5793C32.0231 43.6192 32.0802 43.6424 32.1373 43.6424Z" fill="#0F0E16"/>
</g>
</g>
</g>
<g id="Group_137">
<g id="Group_138">
<g id="Group_139">
<path id="Vector_58" d="M33.9624 41.994C34.0128 41.994 34.0632 41.9774 34.1069 41.9409C34.201 41.8611 34.2145 41.7215 34.1372 41.6251L31.8583 38.9199C31.7776 38.8269 31.6364 38.8136 31.5389 38.89C31.4448 38.9698 31.4314 39.1093 31.5087 39.2057L33.7876 41.9109C33.8347 41.9674 33.8985 41.994 33.9624 41.994Z" fill="#0F0E16"/>
</g>
</g>
</g>
</g>
</g>
<g id="Group_140">
<g id="Group_141">
<g id="Group_142">
<g id="Group_143">
<g id="Group_144">
<g id="Group_145">
<g id="Group_146">
<g id="Group_147">
<g id="Group_148">
<path id="Vector_59" d="M76.3777 65.6697C76.3777 65.6697 77.0398 71.8844 75.6113 75.344C74.1828 78.8036 55.6726 77.0223 50.9569 73.9083C49.0208 72.6321 53.1416 60.8475 53.1416 60.8475L76.3777 65.6697Z" fill="#39393B"/>
</g>
</g>
</g>
</g>
</g>
</g>
</g>
<g id="Group_149">
<g id="Group_150">
<g id="Group_151">
<g id="Group_152">
<g id="Group_153">
<g id="Group_154">
<g id="Group_155">
<g id="Group_156">
<path id="Vector_60" d="M61.3695 75.6796C61.3627 75.8026 61.4636 75.9089 61.5947 75.9189C61.5947 75.9189 61.5947 75.9189 61.598 75.9189C61.7291 75.9256 61.84 75.8292 61.8467 75.7029C61.8871 74.8521 61.9409 73.9847 61.9946 73.114C62.0047 72.9611 62.0148 72.8082 62.0249 72.6554C62.2131 69.8172 62.4484 67.0289 62.6266 65.0582C62.64 64.8986 62.6534 64.7458 62.6702 64.5962C62.7106 64.1642 62.7476 63.782 62.7778 63.4563C62.6198 63.433 62.4618 63.4065 62.3072 63.3799C62.277 63.7056 62.24 64.0911 62.1997 64.5264C62.1862 64.676 62.1728 64.8289 62.156 64.9884C61.9778 66.9392 61.7426 69.7042 61.5577 72.5258C61.5476 72.682 61.5375 72.8382 61.5274 72.9944C61.4669 73.895 61.4132 74.7989 61.3695 75.6796Z" fill="#585859"/>
</g>
</g>
</g>
</g>
</g>
</g>
</g>
</g>
<g id="Group_157">
<g id="Group_158">
<g id="Group_159">
<g id="Group_160">
<g id="Group_161">
<g id="Group_162">
<g id="Group_163">
<g id="Group_164">
<path id="Vector_61" d="M60.6943 72.682C60.7683 72.7185 61.101 72.8714 61.5245 72.9977C61.6724 73.0409 61.8304 73.0841 61.9951 73.114C62.143 73.1439 62.2942 73.1638 62.4455 73.1705C62.7346 73.1871 63.0102 73.1572 63.2421 73.0475C63.5312 72.9113 63.7194 72.662 63.7833 72.3297C63.9547 71.4523 64.3177 67.8365 64.5631 65.2775C64.5799 65.1213 64.5933 64.9651 64.6068 64.8189C64.6437 64.4101 64.6807 64.0379 64.711 63.7222C64.553 63.7022 64.395 63.6856 64.237 63.6623C64.2068 63.9814 64.1732 64.3569 64.1328 64.7724C64.1194 64.9219 64.1026 65.0748 64.0891 65.231C63.8438 67.7833 63.4841 71.3958 63.3161 72.2433C63.2791 72.4394 63.1883 72.5656 63.0304 72.6388C62.7783 72.7584 62.4018 72.7318 62.0253 72.652C61.864 72.6188 61.706 72.5723 61.5581 72.5258C61.2859 72.4394 61.0506 72.3397 60.9061 72.2732C60.7884 72.2167 60.6473 72.2632 60.5868 72.3762C60.5263 72.4892 60.5767 72.6255 60.6943 72.682Z" fill="#585859"/>
</g>
</g>
</g>
</g>
</g>
</g>
</g>
</g>
</g>
</g>
<g id="Group_165">
<g id="Group_166">
<g id="Group_167">
<g id="Group_168">
<path id="Vector_62" d="M50.3047 65.2775C55.4272 70.0066 67.5443 72.5191 76.8818 68.0226C77.9069 65.2542 79.0329 55.3772 79.3354 52.4227C79.3959 51.8345 79.443 51.2463 79.4833 50.658C79.6716 47.8265 79.6312 44.9718 79.4934 41.9874C79.4867 41.8245 79.4766 41.6617 79.4699 41.4988C79.3489 39.0429 79.164 36.4972 78.9926 33.792C78.6531 28.438 76.8448 25.1412 73.7054 24.6494C72.2467 24.4201 71.0904 24.0146 70.24 23.6158C70.1358 23.566 70.0383 23.5194 69.9409 23.4696C68.9291 22.9578 68.3544 22.4992 68.3544 22.4992H61.353C60.7513 23.3666 59.9917 23.9149 59.1749 24.3004C59.0842 24.3436 58.9934 24.3835 58.8993 24.4234C56.4154 25.4835 53.518 25.2742 52.9197 28.2353C52.5433 30.0964 53.9852 33.9216 53.834 41.6816C53.8239 42.2499 53.8037 42.8415 53.7735 43.453C53.7466 44.0279 53.7096 44.6195 53.6625 45.231C53.6188 45.7993 53.5684 46.3908 53.5079 46.9957C53.4541 47.5241 53.3936 48.0691 53.3264 48.6241C53.2558 49.1957 53.1785 49.7807 53.0911 50.3822C52.6306 53.6158 51.3803 61.1299 50.3047 65.2775Z" fill="#7B68EE"/>
</g>
</g>
<g id="Group_169">
<path id="Vector_63" d="M74.3002 66.896C74.2834 66.896 74.2632 66.8927 74.243 66.8893C74.1321 66.8594 74.0649 66.7464 74.0951 66.6334C77.9841 52.5357 77.1975 38.2087 77.1908 38.0658C77.1841 37.9528 77.2715 37.8531 77.3891 37.8465C77.5068 37.8398 77.6043 37.9262 77.611 38.0425C77.6177 38.1854 78.4076 52.5823 74.5019 66.7464C74.4783 66.8328 74.3943 66.896 74.3002 66.896Z" fill="#0F0E16"/>
</g>
<g id="Group_170">
<g id="Group_171">
<g id="Group_172">
<path id="Vector_64" d="M53.2022 48.5843C53.3165 48.5843 53.414 48.5012 53.4274 48.3848C53.8913 44.3071 53.898 36.1981 53.898 36.115C53.898 35.992 53.7971 35.8923 53.6728 35.8923C53.5484 35.8923 53.4476 35.992 53.4476 36.115C53.4476 36.1948 53.4409 44.2838 52.9804 48.335C52.9669 48.458 53.0543 48.5676 53.1787 48.5809C53.1854 48.5842 53.1921 48.5843 53.2022 48.5843Z" fill="#0F0E16"/>
</g>
</g>
</g>
<g id="Group_173">
<g id="Group_174">
<g id="Group_175">
<path id="Vector_65" d="M62.7918 63.9415C62.8153 64.2273 63.0708 64.4433 63.3632 64.4167C63.6523 64.3935 63.8707 64.1409 63.8439 63.8518C63.8203 63.566 63.5649 63.3499 63.2725 63.3765C62.9834 63.3998 62.7683 63.6524 62.7918 63.9415Z" fill="#0F0E16"/>
</g>
</g>
</g>
<g id="Group_176">
<g id="Group_177">
<g id="Group_178">
<path id="Vector_66" d="M62.7073 66.4673C62.7309 66.7531 62.9863 66.9691 63.2787 66.9425C63.5678 66.9192 63.7863 66.6667 63.7594 66.3775C63.7359 66.0917 63.4804 65.8757 63.188 65.9023C62.8989 65.9256 62.6838 66.1781 62.7073 66.4673Z" fill="#0F0E16"/>
</g>
</g>
</g>
<g id="Group_179">
<g id="Group_180">
<g id="Group_181">
<path id="Vector_67" d="M56.5431 38.6906C55.1684 37.112 55.6826 33.5992 55.7062 33.4497C55.723 33.34 55.8171 33.2602 55.928 33.2602H60.59C60.7009 33.2602 60.795 33.34 60.8118 33.4497C60.8354 33.5992 61.3496 37.112 59.9749 38.6906C59.538 39.1924 58.9598 39.445 58.2573 39.445C57.5582 39.4483 56.9801 39.1924 56.5431 38.6906ZM56.1297 33.7056C56.0423 34.4467 55.8137 37.1685 56.886 38.3981C57.2389 38.8036 57.6893 38.9997 58.2607 38.9997C58.8355 38.9997 59.2859 38.8036 59.6354 38.3981C60.7077 37.1685 60.4791 34.4467 60.3917 33.7056H56.1297Z" fill="#0F0E16"/>
</g>
</g>
</g>
</g>
<g id="Group_182">
<g id="Group_183">
<path id="Vector_68" d="M68.9896 5.43702C67.6855 4.60286 63.5747 4.18412 63.5747 4.18412C63.5747 4.18412 62.8991 2.42938 62.1361 1.92755C60.4051 0.787638 60.19 3.09738 60.19 3.09738C60.19 3.09738 58.4993 0.754404 56.9767 1.42572C55.4541 2.09372 57.4002 4.27052 57.4002 4.27052C57.4002 4.27052 55.1179 3.85178 55.37 5.77601C55.6221 7.70023 57.8237 8.5344 57.8237 8.5344C57.8237 8.5344 57.1481 9.62114 57.4842 11.3792C57.8237 13.1339 58.5834 13.2203 58.5834 13.2203L68.0586 14.0578C68.0586 14.0578 70.0047 14.0578 70.5123 11.6318C71.0198 9.20572 69.3291 8.20206 69.3291 8.20206C69.3291 8.20206 70.4282 6.35759 68.9896 5.43702Z" fill="#0F0E16"/>
</g>
<g id="Group_184">
<g id="Group_185">
<g id="Group_186">
<g id="Group_187">
<g id="Group_188">
<g id="Group_189">
<g id="Group_190">
<path id="Vector_69" d="M61.2524 21.326V23.0841C61.4608 23.2502 61.6726 23.3965 61.881 23.5194C64.9699 25.3539 68.3043 23.0841 68.3043 23.0841V16.9857L62.0927 20.8076L61.2524 21.326Z" fill="#EA9B7A"/>
</g>
</g>
</g>
</g>
</g>
</g>
<g id="Group_191">
<g id="Group_192">
<g id="Group_193">
<g id="Group_194">
<g id="Group_195">
<g id="Group_196">
<path id="Vector_70" d="M61.2524 21.2762V23.0874C61.4608 23.2536 61.6726 23.3998 61.881 23.5228C64.5128 22.4925 66.4287 19.764 66.4287 19.764L62.0927 20.8109L61.2524 21.2762Z" fill="#0F0E16"/>
</g>
</g>
</g>
</g>
</g>
</g>
<g id="Group_197">
<g id="Group_198">
<g id="Group_199">
<path id="Vector_71" d="M68.2908 21.2994C68.2908 21.2994 70.3713 21.6451 70.9427 23.998C68.9159 26.095 67.1244 27.9096 64.2271 28.4413V24.2306C64.2237 24.2306 66.7849 23.5992 68.2908 21.2994Z" fill="#7B68EE"/>
</g>
</g>
</g>
<g id="Group_200">
<g id="Group_201">
<g id="Group_202">
<path id="Vector_72" d="M61.1884 21.9076C61.1884 21.9076 59.3297 22.3031 58.6104 24.6527C60.4825 26.9059 61.4842 27.7534 64.2269 28.4413V24.2306C64.2236 24.2306 62.6942 24.2074 61.1884 21.9076Z" fill="#7B68EE"/>
</g>
</g>
</g>
<g id="Group_203">
<g id="Group_204">
<g id="Group_205">
<g id="Group_206">
<g id="Group_207">
<path id="Vector_73" d="M60.1396 54.6261L61.343 57.5008L61.8841 58.7936L63.4135 62.4394L64.1496 61.0302L64.4117 60.5317L65.0033 59.4018L65.2655 58.9033L65.8571 57.7733L66.1192 57.2748L66.7108 56.1449L66.9696 55.6464L67.5276 54.5862L67.5141 54.4699L67.4301 53.6291L67.2318 51.7182L67.1444 50.8774L66.9495 48.9664L66.8621 48.1256L66.6638 46.2147L66.5797 45.3739L66.3814 43.4629L66.294 42.6188L66.0991 40.7112L66.0117 39.8671L65.8167 37.9595L65.7293 37.1153L65.531 35.2077L65.4436 34.3636L65.2487 32.456L65.1613 31.6118L64.9596 29.6378L63.484 29.5813L63.4404 29.9103L63.3496 30.5783L63.1479 32.0937L63.0605 32.7617L62.8555 34.2772L62.7681 34.9452L62.5664 36.4606L62.4757 37.1286L62.274 38.6441L62.1833 39.3121L61.9816 40.8275L61.8942 41.4955L61.6925 43.011L61.6018 43.679L61.4001 45.1944L61.3094 45.8657L61.1077 47.3779L61.0203 48.0459L60.8153 49.5613L60.7279 50.2326L60.5262 51.7481L60.4354 52.4161L60.2338 53.9315L60.143 54.5995L60.1396 54.6261Z" fill="#0F0E16"/>
</g>
</g>
</g>
<g id="Group_208">
<g id="Group_209">
<g id="Group_210">
<g id="Group_211">
<g id="Group_212">
<path id="Vector_74" d="M63.3496 30.5783L65.2487 32.456L65.1613 31.6118L63.4404 29.9103L63.3496 30.5783Z" fill="#585859"/>
</g>
</g>
</g>
</g>
<g id="Group_213">
<g id="Group_214">
<g id="Group_215">
<g id="Group_216">
<path id="Vector_75" d="M63.0605 32.7617L65.531 35.2077L65.4436 34.3636L63.1479 32.0937L63.0605 32.7617Z" fill="#585859"/>
</g>
</g>
</g>
</g>
<g id="Group_217">
<g id="Group_218">
<g id="Group_219">
<g id="Group_220">
<path id="Vector_76" d="M62.7681 34.9452L65.8167 37.9595L65.7293 37.1153L62.8555 34.2772L62.7681 34.9452Z" fill="#585859"/>
</g>
</g>
</g>
</g>
<g id="Group_221">
<g id="Group_222">
<g id="Group_223">
<g id="Group_224">
<path id="Vector_77" d="M62.4756 37.1286L66.099 40.7112L66.0116 39.8671L62.5663 36.4606L62.4756 37.1286Z" fill="#585859"/>
</g>
</g>
</g>
</g>
<g id="Group_225">
<g id="Group_226">
<g id="Group_227">
<g id="Group_228">
<path id="Vector_78" d="M62.1831 39.3121L66.3813 43.463L66.2939 42.6188L62.2739 38.6441L62.1831 39.3121Z" fill="#585859"/>
</g>
</g>
</g>
</g>
<g id="Group_229">
<g id="Group_230">
<g id="Group_231">
<g id="Group_232">
<path id="Vector_79" d="M61.894 41.4955L66.6636 46.2147L66.5796 45.3739L61.9814 40.8275L61.894 41.4955Z" fill="#585859"/>
</g>
</g>
</g>
</g>
<g id="Group_233">
<g id="Group_234">
<g id="Group_235">
<g id="Group_236">
<path id="Vector_80" d="M61.6021 43.679L66.9497 48.9664L66.8623 48.1256L61.6928 43.011L61.6021 43.679Z" fill="#585859"/>
</g>
</g>
</g>
</g>
<g id="Group_237">
<g id="Group_238">
<g id="Group_239">
<g id="Group_240">
<path id="Vector_81" d="M61.3096 45.8657L67.232 51.7182L67.1446 50.8774L61.4003 45.1944L61.3096 45.8657Z" fill="#585859"/>
</g>
</g>
</g>
</g>
<g id="Group_241">
<g id="Group_242">
<g id="Group_243">
<g id="Group_244">
<path id="Vector_82" d="M61.0205 48.0459L67.5144 54.4699L67.4303 53.6291L61.1079 47.3779L61.0205 48.0459Z" fill="#585859"/>
</g>
</g>
</g>
</g>
<g id="Group_245">
<g id="Group_246">
<g id="Group_247">
<g id="Group_248">
<path id="Vector_83" d="M60.728 50.2326L66.711 56.1449L66.9698 55.6464L60.8154 49.5613L60.728 50.2326Z" fill="#585859"/>
</g>
</g>
</g>
</g>
<g id="Group_249">
<g id="Group_250">
<g id="Group_251">
<g id="Group_252">
<path id="Vector_84" d="M60.4355 52.4161L65.8572 57.7733L66.1194 57.2748L60.5263 51.7481L60.4355 52.4161Z" fill="#585859"/>
</g>
</g>
</g>
</g>
<g id="Group_253">
<g id="Group_254">
<g id="Group_255">
<g id="Group_256">
<path id="Vector_85" d="M60.1431 54.5995L65.0034 59.4018L65.2655 58.9033L60.2338 53.9315L60.1431 54.5995Z" fill="#585859"/>
</g>
</g>
</g>
</g>
<g id="Group_257">
<g id="Group_258">
<g id="Group_259">
<g id="Group_260">
<path id="Vector_86" d="M61.3428 57.5008L61.8839 58.7936L64.1494 61.0302L64.4116 60.5317L61.3428 57.5008Z" fill="#585859"/>
</g>
</g>
</g>
</g>
</g>
<g id="Group_261">
<g id="Group_262">
<g id="Group_263">
<path id="Vector_87" d="M64.9597 29.6378L64.2236 30.7179L63.4841 29.5813L63.353 30.5517L64.2135 31.4158L65.037 30.3888L64.9597 29.6378Z" fill="#585859"/>
</g>
</g>
</g>
</g>
<g id="Group_264">
<g id="Group_265">
<g id="Group_266">
<path id="Vector_88" d="M66.1932 27.8265L64.2235 30.7179L62.3379 27.8265L64.2235 25.4104L66.1932 27.8265Z" fill="#0F0E16"/>
</g>
</g>
</g>
<g id="Group_267">
<g id="Group_268">
<g id="Group_269">
<g id="Group_270">
<path id="Vector_89" d="M67.3361 29.8039C67.3865 29.8039 67.4369 29.7873 67.4772 29.7541C69.4267 28.2187 71.0838 24.2473 71.1544 24.0778C71.2014 23.9648 71.1477 23.8318 71.03 23.7853C70.9157 23.7388 70.7813 23.792 70.7342 23.9083C70.7174 23.9482 69.1545 27.6869 67.373 29.2522L64.4084 25.2709C64.3647 25.2144 64.2975 25.1778 64.2236 25.1811C64.1496 25.1811 64.0824 25.2177 64.0421 25.2742L61.2758 29.1559C60.8523 28.4015 59.7431 26.4008 58.812 24.5464C58.7582 24.4367 58.6204 24.3902 58.5095 24.4467C58.3986 24.4998 58.3515 24.6361 58.4087 24.7458C59.5851 27.0887 61.0439 29.661 61.0573 29.6876C61.0943 29.7541 61.1649 29.7973 61.2422 29.8006C61.3195 29.8039 61.3934 29.7674 61.4371 29.7075L64.2303 25.7893L67.1512 29.7109C67.1882 29.7607 67.2419 29.7906 67.3024 29.8006C67.3159 29.8039 67.326 29.8039 67.3361 29.8039Z" fill="#0F0E16"/>
</g>
</g>
</g>
<g id="Group_271">
<g id="Group_272">
<g id="Group_273">
<path id="Vector_90" d="M64.2301 25.6331C64.3544 25.6331 64.4553 25.5334 64.4553 25.4104V24.4134C64.4553 24.2905 64.3544 24.1908 64.2301 24.1908C64.1057 24.1908 64.0049 24.2905 64.0049 24.4134V25.4104C64.0049 25.5334 64.1057 25.6331 64.2301 25.6331Z" fill="#0F0E16"/>
</g>
</g>
</g>
</g>
</g>
</g>
<g id="Group_274">
<g id="Group_275">
<g id="Group_276">
<g id="Group_277">
<g id="Group_278">
<g id="Group_279">
<path id="Vector_91" d="M59.0269 13.5294C59.0269 13.5294 58.0152 12.3496 57.4438 13.5294C56.8724 14.7092 57.3127 17.0987 58.8488 16.7099L59.0269 13.5294Z" fill="#D96C63"/>
</g>
</g>
</g>
</g>
</g>
</g>
<g id="Group_280">
<g id="Group_281">
<path id="Vector_92" d="M57.9517 17.6703C57.9517 17.6703 57.9449 21.3094 61.7734 21.2994C65.5782 21.2928 68.1697 18.3383 68.3042 18.2021C68.3075 18.1987 68.3075 18.1987 68.3075 18.1987L68.3479 17.4344L68.563 13.4663L68.6773 11.346C68.6773 11.346 69.1646 7.52742 65.4908 6.82951C62.8086 6.32104 60.2944 6.75972 59.0239 8.14557C58.9836 8.18877 58.9432 8.2353 58.9062 8.28182C58.5063 8.76704 58.2508 9.36192 58.1836 10.0598L58.0659 13.8684L58.0357 14.8023L57.9517 17.6703Z" fill="#EA9B7A"/>
</g>
</g>
<g id="Group_282">
<g id="Group_283">
<g id="Group_284">
<g id="Group_285">
<g id="Group_286">
<g id="Group_287">
<path id="Vector_93" d="M58.9092 8.28182C59.5108 8.07245 59.9444 8.26853 60.8788 8.67398C62.2301 9.26222 63.7426 8.7338 65.0804 8.05584C66.4181 7.38119 67.2181 8.3217 66.7643 8.93653C66.3106 9.55467 66.3576 10.0532 66.8652 10.8375C67.3693 11.6218 65.9106 11.9907 66.7173 12.6055C67.0568 12.8647 67.0366 13.2536 66.8988 13.6158C66.7475 14.0113 67.1004 14.4134 67.5172 14.337C67.9542 14.2273 68.5659 13.4663 68.5659 13.4663L68.6802 11.346C68.6802 11.346 69.1676 7.52742 65.4938 6.82951C62.8115 6.32104 60.2974 6.75972 59.0268 8.14557C58.9865 8.18877 58.9462 8.23197 58.9092 8.28182Z" fill="#0F0E16"/>
</g>
</g>
</g>
</g>
</g>
</g>
<g id="Group_288">
<g id="Group_289">
<g id="Group_290">
<g id="Group_291">
<g id="Group_292">
<g id="Group_293">
<path id="Vector_94" d="M67.104 16.7265C67.1208 16.7664 67.6048 17.8764 68.3006 18.2021C68.304 18.1987 68.304 18.1987 68.304 18.1987L68.3443 17.4344C68.3477 17.4344 67.7426 17.3313 67.104 16.7265Z" fill="#0F0E16"/>
</g>
</g>
</g>
</g>
</g>
</g>
<g id="Group_294">
<g id="Group_295">
<g id="Group_296">
<g id="Group_297">
<g id="Group_298">
<g id="Group_299">
<path id="Vector_95" d="M67.7798 14.1974C67.7798 14.1974 69.252 12.2433 70.3276 13.7787C71.2149 15.0449 69.5377 18.3416 67.7798 17.2117V14.1974Z" fill="#EA9B7A"/>
</g>
</g>
</g>
</g>
</g>
</g>
<g id="Group_300">
<g id="Group_301">
<g id="Group_302">
<g id="Group_303">
<g id="Group_304">
<g id="Group_305">
<path id="Vector_96" d="M67.9815 16.6235C68.0588 16.6235 68.1227 16.567 68.1328 16.4905C68.2975 15.0116 69.5478 14.4965 69.6016 14.4766C69.6789 14.4467 69.7159 14.3603 69.6856 14.2805C69.6554 14.2041 69.568 14.1675 69.4907 14.1974C69.4302 14.2207 68.0151 14.7956 67.8336 16.4573C67.8235 16.5404 67.884 16.6135 67.9681 16.6235C67.9681 16.6235 67.9748 16.6235 67.9815 16.6235Z" fill="#0F0E16"/>
</g>
</g>
</g>
</g>
</g>
</g>
<g id="Group_306">
<g id="Group_307">
<g id="Group_308">
<g id="Group_309">
<g id="Group_310">
<g id="Group_311">
<path id="Vector_97" d="M69.393 15.7162C69.4367 15.7162 69.4804 15.6962 69.5106 15.6597C69.5644 15.5965 69.5543 15.5002 69.4871 15.4503C69.4266 15.4005 68.8854 14.9784 68.4283 15.0947C68.3476 15.1147 68.2972 15.1977 68.3207 15.2775C68.3409 15.3573 68.4249 15.4071 68.5056 15.3838C68.7678 15.3174 69.1644 15.5766 69.2989 15.6829C69.3257 15.7062 69.3594 15.7162 69.393 15.7162Z" fill="#0F0E16"/>
</g>
</g>
</g>
</g>
</g>
</g>
</g>
</g>
</g>
</g>
</g>
</g>
<g id="Clip path group_2">
<g id="Group_312">
<g id="Group_313">
<g id="Group_314">
<g id="Group_315">
<g id="Group_316">
<g id="Group_317">
<g id="Group_318">
<g id="Group_319">
<path id="Vector_98" d="M97.9527 28.1987C97.9527 28.1987 99.9896 30.2326 102.003 29.4417C103.626 28.8003 103.986 26.567 104.067 25.7328C104.087 25.5334 104.087 25.4138 104.087 25.4138C104.087 25.4138 104.198 25.3506 104.349 25.2409C104.705 24.9817 105.297 24.4566 105.233 23.8418C105.142 22.9644 103.529 23.453 103.529 23.453C103.529 23.453 103.774 22.3928 103.297 22.0804C102.83 21.7747 101.868 22.3164 101.868 22.3164C101.868 22.3164 102.389 21.0169 101.677 20.7046C100.605 20.2326 100.252 21.8312 100.205 21.9342C100.215 21.8179 100.726 16.9226 99.8753 17.1751C99.1325 17.3945 98.4501 21.4855 98.2754 22.5989C98.2485 22.775 98.235 22.8747 98.235 22.8747C98.235 22.8747 98.1745 22.8714 98.0737 22.8747C97.5964 22.888 96.1948 23.0143 95.936 23.9781C95.6301 25.1479 97.9527 28.1987 97.9527 28.1987Z" fill="#EA9B7A"/>
</g>
</g>
</g>
</g>
</g>
</g>
<g id="Group_320">
<g id="Group_321">
<g id="Group_322">
<g id="Group_323">
<g id="Group_324">
<g id="Group_325">
<path id="Vector_99" d="M102.12 24.7424C101.949 25.1213 101.862 25.5334 101.946 25.8259C101.999 26.0153 102.12 26.1449 102.295 26.1981C102.416 26.2346 102.571 26.2346 102.742 26.2047C103.176 26.1349 103.714 25.899 104.066 25.7295C104.087 25.5301 104.087 25.4104 104.087 25.4104C104.087 25.4104 104.198 25.3473 104.352 25.2376C104.322 25.2343 104.288 25.2443 104.261 25.2576C103.717 25.5533 102.729 25.9854 102.396 25.8824C102.352 25.8691 102.299 25.8392 102.268 25.7328C102.177 25.4104 102.42 24.7258 102.769 24.3237C102.826 24.2606 102.823 24.1642 102.766 24.1044C102.709 24.0412 102.611 24.0312 102.544 24.0844C102.211 24.327 101.246 24.9219 100.766 24.769C100.695 24.7458 100.685 24.7159 100.682 24.6992C100.662 24.6228 100.692 24.5032 100.756 24.3669C100.883 24.0877 101.142 23.7321 101.347 23.4995C101.371 23.4729 101.384 23.4397 101.388 23.4098C101.394 23.3566 101.374 23.3034 101.334 23.2669C101.263 23.207 101.159 23.2137 101.099 23.2835C101.008 23.3865 100.688 23.7587 100.497 24.1442C100.426 24.2838 100.376 24.4267 100.356 24.5563C100.342 24.6394 100.346 24.7192 100.366 24.789C100.396 24.8887 100.47 25.0216 100.672 25.0847C101.088 25.221 101.677 24.9817 102.12 24.7424Z" fill="#D96C63"/>
</g>
</g>
</g>
</g>
</g>
</g>
<g id="Group_326">
<g id="Group_327">
<g id="Group_328">
<g id="Group_329">
<g id="Group_330">
<g id="Group_331">
<path id="Vector_100" d="M99.5659 23.35C99.6331 23.3699 99.6802 23.4231 99.6869 23.4929C99.7037 23.7089 99.7541 23.895 99.8348 24.0047C99.8986 24.0911 99.9591 24.101 100.006 24.101C100.08 24.0977 100.174 24.0612 100.282 24.0013C100.547 23.8518 100.883 23.556 101.176 23.2669C101.173 23.3001 101.159 23.33 101.136 23.3566C100.931 23.5892 100.672 23.9448 100.544 24.224C100.51 24.2439 100.477 24.2672 100.443 24.2838C100.336 24.3436 100.235 24.3868 100.141 24.4134C100.097 24.4234 100.06 24.43 100.02 24.43C99.8381 24.4367 99.6802 24.3569 99.5625 24.1974C99.4415 24.0312 99.3743 23.7853 99.3508 23.5161C99.3407 23.4031 99.4482 23.3167 99.5591 23.3466C99.5625 23.35 99.5659 23.35 99.5659 23.35Z" fill="#D96C63"/>
</g>
</g>
</g>
</g>
</g>
</g>
<g id="Group_332">
<g id="Group_333">
<g id="Group_334">
<g id="Group_335">
<g id="Group_336">
<g id="Group_337">
<path id="Vector_101" d="M97.1728 25.2011C97.2165 25.2044 97.8652 25.2709 98.4938 25.1645C98.8433 25.108 99.1862 24.9983 99.4148 24.7956C99.603 24.6294 99.7038 24.4201 99.7105 24.1741C99.7307 23.2968 98.8232 22.8082 98.2787 22.5955C98.2518 22.7717 98.2383 22.8714 98.2383 22.8714C98.2383 22.8714 98.1778 22.8681 98.077 22.8714C98.5341 23.0409 99.3912 23.453 99.3778 24.1642C99.3744 24.317 99.3139 24.44 99.1963 24.5464C98.7526 24.9352 97.6098 24.9119 97.2098 24.8687C97.119 24.8588 97.035 24.9252 97.0249 25.015C97.0148 25.1113 97.0821 25.1911 97.1728 25.2011Z" fill="#D96C63"/>
</g>
</g>
</g>
</g>
</g>
</g>
<g id="Group_338">
<g id="Group_339">
<g id="Group_340">
<g id="Group_341">
<g id="Group_342">
<g id="Group_343">
<path id="Vector_102" d="M100.759 28.3549C100.816 28.345 100.867 28.3084 100.887 28.2519C100.92 28.1655 100.877 28.0725 100.789 28.0392C100.325 27.8664 100.01 27.5739 99.8583 27.1785C99.465 26.1582 100.201 24.7391 100.211 24.7258C100.255 24.6461 100.221 24.5464 100.141 24.5032C100.06 24.46 99.9591 24.4932 99.9154 24.573C99.8818 24.6361 99.102 26.1383 99.5491 27.2948C99.7373 27.7866 100.117 28.1389 100.675 28.3483C100.702 28.3583 100.732 28.3583 100.759 28.3549Z" fill="#D96C63"/>
</g>
</g>
</g>
</g>
</g>
</g>
</g>
<g id="Group_344">
<g id="Group_345">
<g id="Group_346">
<path id="Vector_103" d="M75.9637 25.8259L79.4459 28.8169C80.0039 29.332 80.5618 29.8405 81.1232 30.349C81.6811 30.8574 82.2391 31.3626 82.8004 31.8611C83.3617 32.3596 83.9197 32.8548 84.4776 33.34C85.0356 33.8252 85.5969 34.3004 86.1515 34.7557C86.7028 35.2144 87.2574 35.6564 87.775 36.0352C88.0304 36.2247 88.2825 36.3975 88.4842 36.5271L88.6187 36.6135L88.6724 36.6467C88.6825 36.6534 88.6859 36.6567 88.6926 36.6633C88.7128 36.6833 88.7262 36.6966 88.7363 36.7099C88.7531 36.7331 88.7531 36.7531 88.7733 36.7697C88.7934 36.7896 88.8472 36.8029 88.9447 36.7963C89.1396 36.783 89.5027 36.66 89.9228 36.4207C90.3396 36.1815 90.8034 35.8358 91.2606 35.4304C91.7177 35.0216 92.1849 34.563 92.6353 34.0645C93.5395 33.0641 94.41 31.9375 95.2335 30.7577C96.0604 29.5779 96.6452 28.6673 97.3914 27.4111C98.5981 28.8534 100.453 29.568 102.467 29.3287C101.899 30.8541 101.243 32.3363 100.504 33.8086C99.7543 35.2742 98.9275 36.7265 97.9225 38.1489C97.4183 38.8601 96.8738 39.568 96.2452 40.2592C95.6167 40.9505 94.9176 41.6318 94.0638 42.2765C93.6369 42.5956 93.1697 42.9079 92.642 43.1904C92.1143 43.4696 91.5295 43.7255 90.8774 43.9182C90.2253 44.1077 89.5026 44.2373 88.7497 44.2506C87.9968 44.2672 87.217 44.1675 86.4944 43.9648C86.1314 43.8651 85.7818 43.7421 85.4524 43.5992L85.2104 43.4895L85.0054 43.3898C84.9348 43.3566 84.8776 43.3267 84.8138 43.2935C84.7533 43.2602 84.686 43.227 84.6289 43.1971C84.1583 42.9445 83.755 42.7019 83.3684 42.4593C82.6021 41.9774 81.913 41.4988 81.2374 41.0136C80.5652 40.5284 79.9198 40.0366 79.2812 39.5447C78.6459 39.0528 78.0174 38.5543 77.4023 38.0525C76.7872 37.5474 76.1755 37.0455 75.5738 36.5337C74.9721 36.0219 74.3772 35.5068 73.7823 34.9884C73.1941 34.4666 72.6059 33.9448 72.0244 33.4164L71.1538 32.6188L70.7236 32.2134C70.579 32.0771 70.4379 31.9442 70.2866 31.7979L75.9637 25.8259Z" fill="#7B68EE"/>
</g>
</g>
</g>
<g id="Group_347">
<g id="Group_348">
<path id="Vector_104" d="M79.2881 39.9535C79.2478 39.9535 79.2041 39.9402 79.1671 39.9169C76.868 38.325 72.7775 34.9718 72.7371 34.9385C72.6464 34.8654 72.6363 34.7358 72.7102 34.6461C72.7842 34.5563 72.9153 34.5464 73.006 34.6195C73.0463 34.6527 77.1235 37.996 79.4091 39.5779C79.5032 39.6444 79.5268 39.774 79.4595 39.8671C79.4192 39.9202 79.352 39.9535 79.2881 39.9535Z" fill="#0F0E16"/>
</g>
<g id="Group_349">
<path id="Vector_105" d="M74.5285 36.3244C74.5184 36.3244 74.5083 36.3244 74.4982 36.321L72.8781 36.0884C72.7638 36.0718 72.6832 35.9654 72.7 35.8524C72.7168 35.7395 72.8243 35.6597 72.9386 35.6763L74.5587 35.9089C74.673 35.9256 74.7537 36.0319 74.7369 36.1449C74.7234 36.2513 74.6327 36.3244 74.5285 36.3244Z" fill="#0F0E16"/>
</g>
</g>
<g id="Group_350">
<g id="Group_351">
<g id="Group_352">
<path id="Vector_106" d="M101.337 31.9143C101.421 31.8711 101.468 31.778 101.448 31.6816C101.425 31.5686 101.31 31.4955 101.193 31.5188C98.1409 32.1768 96.6216 29.2988 96.6082 29.2689C96.5544 29.1658 96.4267 29.1226 96.3191 29.1758C96.3191 29.1758 96.3191 29.1758 96.3157 29.1758C96.2115 29.229 96.1712 29.3553 96.225 29.4583C96.2418 29.4915 97.9123 32.6554 101.284 31.9276C101.304 31.9309 101.321 31.9242 101.337 31.9143Z" fill="#0F0E16"/>
</g>
</g>
</g>
<g id="Group_353">
<g id="Group_354">
<g id="Group_355">
<path id="Vector_107" d="M99.7675 31.9708C99.8112 31.9475 99.8449 31.9143 99.865 31.8677L100.87 29.548C100.917 29.4417 100.867 29.3154 100.759 29.2689C100.652 29.2223 100.524 29.2722 100.477 29.3785L99.4718 31.6982C99.4247 31.8046 99.4751 31.9309 99.5827 31.9774C99.6465 32.004 99.7138 31.9973 99.7675 31.9708Z" fill="#0F0E16"/>
</g>
</g>
</g>
<g id="Group_356">
<g id="Group_357">
<g id="Group_358">
<path id="Vector_108" d="M97.9694 29.7408C98.0635 29.9202 98.2887 29.99 98.4702 29.897C98.6517 29.8039 98.7223 29.5813 98.6282 29.4018C98.5341 29.2223 98.3089 29.1525 98.1274 29.2456C97.9459 29.3386 97.8753 29.5613 97.9694 29.7408Z" fill="#0F0E16"/>
</g>
</g>
</g>
<g id="Group_359">
<g id="Group_360">
<g id="Group_361">
<g id="Group_362">
<path id="Vector_109" d="M88.2893 39.3752C88.3465 39.3453 88.3902 39.2888 88.4002 39.2223C88.4036 39.209 88.6288 37.8863 89.0254 37.1153C89.0792 37.0123 89.0389 36.8827 88.9313 36.8295C88.8271 36.7763 88.696 36.8195 88.6423 36.9226C88.2154 37.7534 87.9868 39.096 87.9767 39.1525C87.9566 39.2689 88.0372 39.3752 88.1515 39.3951C88.2019 39.4018 88.249 39.3951 88.2893 39.3752Z" fill="#0F0E16"/>
</g>
</g>
</g>
<g id="Group_363">
<g id="Group_364">
<g id="Group_365">
<path id="Vector_110" d="M89.681 38.9C89.6945 38.8933 89.7079 38.8833 89.7214 38.8734C89.8121 38.7969 89.8222 38.664 89.7483 38.5743C89.7415 38.5676 89.1466 37.8564 89.0054 37.1652C88.9819 37.0522 88.8676 36.9757 88.7533 36.999C88.6391 37.0223 88.5618 37.1353 88.5853 37.2482C88.75 38.0459 89.392 38.8102 89.4222 38.8435C89.4827 38.9232 89.5936 38.9432 89.681 38.9Z" fill="#0F0E16"/>
</g>
</g>
</g>
</g>
</g>
</g>
</g>
</g>
</g>
</g>
</g>
<defs>
<clipPath id="clip0_1897_780">
<rect width="128.889" height="120" fill="white" transform="translate(0.111328)"/>
</clipPath>
</defs>
</svg>
