<svg width="368" height="318" viewBox="0 0 368 318" fill="none" xmlns="http://www.w3.org/2000/svg">
<rect x="22" y="8.25244" width="324" height="302.684" fill="white"/>
<g filter="url(#filter0_d_2122_19353)">
<g clip-path="url(#clip0_2122_19353)">
<rect x="37.5098" y="57.9139" width="299.011" height="93.0638" rx="3.23404" fill="white"/>
<rect x="48.8291" y="86.2118" width="46.8936" height="4.85106" rx="0.808511" fill="#EBEBEB"/>
<rect x="48.8291" y="95.1054" width="127.34" height="10.5106" rx="0.808511" fill="#F5F5F5"/>
<rect x="184.255" y="86.2118" width="46.8936" height="4.85106" rx="0.808511" fill="#EBEBEB"/>
<rect x="184.255" y="95.1055" width="127.34" height="10.5106" rx="0.808511" fill="#F5F5F5"/>
<rect x="49.6377" y="65.999" width="46.8936" height="4.85106" rx="0.808511" fill="#EBEBEB"/>
<rect x="184.659" y="65.999" width="46.8936" height="4.85106" rx="0.808511" fill="#EBEBEB"/>
<rect x="48.8291" y="115.318" width="46.8936" height="4.85106" rx="0.808511" fill="#EBEBEB"/>
<rect x="48.8291" y="124.212" width="262.766" height="10.5106" rx="0.808511" fill="#F5F5F5"/>
<mask id="path-11-inside-1_2122_19353" fill="white">
<path d="M47.5098 57.9139H328.871V79.7437H47.5098V57.9139Z"/>
</mask>
<path d="M328.871 78.9352H47.5098V80.5522H328.871V78.9352Z" fill="#EBEBEB" mask="url(#path-11-inside-1_2122_19353)"/>
</g>
</g>
<rect x="40.0957" y="178.552" width="46.8936" height="4.85106" rx="0.808511" fill="#EBEBEB"/>
<rect x="40.0957" y="187.446" width="143.309" height="10.5106" rx="0.808511" fill="#F5F5F5"/>
<rect x="191.489" y="178.552" width="46.8936" height="4.85106" rx="0.808511" fill="#EBEBEB"/>
<rect x="191.489" y="187.445" width="143.309" height="10.5106" rx="0.808511" fill="#F5F5F5"/>
<rect x="40.0957" y="213.02" width="46.8936" height="4.85106" rx="0.808511" fill="#EBEBEB"/>
<rect x="40.0957" y="221.913" width="143.309" height="10.5106" rx="0.808511" fill="#F5F5F5"/>
<rect x="191.489" y="213.02" width="46.8936" height="4.85106" rx="0.808511" fill="#EBEBEB"/>
<rect x="191.489" y="221.913" width="143.309" height="10.5106" rx="0.808511" fill="#F5F5F5"/>
<rect x="40.0957" y="247.488" width="46.8936" height="4.85106" rx="0.808511" fill="#EBEBEB"/>
<rect x="40.0957" y="256.382" width="143.309" height="10.5106" rx="0.808511" fill="#F5F5F5"/>
<rect x="191.489" y="247.488" width="46.8936" height="4.85106" rx="0.808511" fill="#EBEBEB"/>
<rect x="191.489" y="256.382" width="143.309" height="10.5106" rx="0.808511" fill="#F5F5F5"/>
<rect x="146.086" y="281.956" width="82.7234" height="11.2021" rx="0.808511" fill="#ACA0F4"/>
<path d="M22 10.798C22 9.21685 23.2818 7.93504 24.863 7.93504H343.137C344.718 7.93504 346 9.21684 346 10.798V37.2329H22V10.798Z" fill="#7B68EE"/>
<circle cx="35.5994" cy="22.584" r="2.14724" fill="#FF8F8F"/>
<circle cx="42.7566" cy="22.584" r="2.14724" fill="#FECD74"/>
<path d="M47.7666 22.584C47.7666 21.3981 48.728 20.4367 49.9138 20.4367V20.4367C51.0997 20.4367 52.0611 21.3981 52.0611 22.584V22.584C52.0611 23.7699 51.0997 24.7312 49.9138 24.7312V24.7312C48.728 24.7312 47.7666 23.7699 47.7666 22.584V22.584Z" fill="#2EBC86"/>
<path d="M63.5137 22.584C63.5137 21.3981 64.475 20.4367 65.6609 20.4367H300.193C301.379 20.4367 302.34 21.3981 302.34 22.584V22.584C302.34 23.7699 301.379 24.7312 300.193 24.7312H65.6609C64.475 24.7312 63.5137 23.7699 63.5137 22.584V22.584Z" fill="#EBEBEB"/>
<path d="M320.233 22.8524H315.938C315.792 22.8524 315.67 22.7307 315.67 22.584C315.67 22.4372 315.792 22.3156 315.938 22.3156H320.233C320.38 22.3156 320.501 22.4372 320.501 22.584C320.501 22.7307 320.38 22.8524 320.233 22.8524Z" fill="#DEDEDE"/>
<path d="M318.086 24.9996C317.939 24.9996 317.817 24.8779 317.817 24.7312V20.4367C317.817 20.29 317.939 20.1683 318.086 20.1683C318.233 20.1683 318.354 20.29 318.354 20.4367V24.7312C318.354 24.8779 318.233 24.9996 318.086 24.9996Z" fill="#DEDEDE"/>
<path d="M329.931 26.4311H328.428C327.029 26.4311 326.406 25.8084 326.406 24.4091V22.9061C326.406 21.5068 327.029 20.8841 328.428 20.8841H329.931C331.331 20.8841 331.953 21.5068 331.953 22.9061V24.4091C331.953 25.8084 331.331 26.4311 329.931 26.4311ZM328.428 21.4209C327.319 21.4209 326.943 21.7967 326.943 22.9061V24.4091C326.943 25.5185 327.319 25.8943 328.428 25.8943H329.931C331.041 25.8943 331.416 25.5185 331.416 24.4091V22.9061C331.416 21.7967 331.041 21.4209 329.931 21.4209H328.428V21.4209Z" fill="#DEDEDE"/>
<path d="M332.079 24.2839H331.685C331.538 24.2839 331.417 24.1622 331.417 24.0155V22.9061C331.417 21.7967 331.041 21.4209 329.932 21.4209H328.822C328.675 21.4209 328.554 21.2992 328.554 21.1525V20.7588C328.554 19.3595 329.176 18.7368 330.576 18.7368H332.079C333.478 18.7368 334.101 19.3595 334.101 20.7588V22.2619C334.101 23.6612 333.478 24.2839 332.079 24.2839ZM331.954 23.7471H332.079C333.188 23.7471 333.564 23.3713 333.564 22.2619V20.7588C333.564 19.6494 333.188 19.2737 332.079 19.2737H330.576C329.466 19.2737 329.091 19.6494 329.091 20.7588V20.8841H329.932C331.331 20.8841 331.954 21.5068 331.954 22.9061V23.7471Z" fill="#DEDEDE"/>
<defs>
<filter id="filter0_d_2122_19353" x="11.6374" y="35.2756" width="350.755" height="144.809" filterUnits="userSpaceOnUse" color-interpolation-filters="sRGB">
<feFlood flood-opacity="0" result="BackgroundImageFix"/>
<feColorMatrix in="SourceAlpha" type="matrix" values="0 0 0 0 0 0 0 0 0 0 0 0 0 0 0 0 0 0 127 0" result="hardAlpha"/>
<feOffset dy="3.23404"/>
<feGaussianBlur stdDeviation="12.9362"/>
<feColorMatrix type="matrix" values="0 0 0 0 0.0627451 0 0 0 0 0.0941176 0 0 0 0 0.156863 0 0 0 0.1 0"/>
<feBlend mode="normal" in2="BackgroundImageFix" result="effect1_dropShadow_2122_19353"/>
<feBlend mode="normal" in="SourceGraphic" in2="effect1_dropShadow_2122_19353" result="shape"/>
</filter>
<clipPath id="clip0_2122_19353">
<rect x="37.5098" y="57.9139" width="299.011" height="93.0638" rx="3.23404" fill="white"/>
</clipPath>
</defs>
</svg>
