<svg width="436" height="457" viewBox="0 0 436 457" fill="none" xmlns="http://www.w3.org/2000/svg">
<g filter="url(#filter0_d_2116_7377)">
<g clip-path="url(#clip0_2116_7377)">
<rect x="131.915" y="53" width="245.866" height="299.705" rx="3.58929" fill="white"/>
<path d="M131.915 56.5893C131.915 54.607 133.522 53 135.504 53H374.191C376.174 53 377.781 54.607 377.781 56.5893V87.0982H131.915V56.5893Z" fill="#7B68EE"/>
<circle cx="148.963" cy="70.0491" r="2.69196" fill="#FF8F8F"/>
<circle cx="157.937" cy="70.0491" r="2.69196" fill="#FECD74"/>
<path d="M164.218 70.0491C164.218 68.5624 165.423 67.3571 166.91 67.3571V67.3571C168.396 67.3571 169.602 68.5624 169.602 70.0491V70.0491C169.602 71.5358 168.396 72.7411 166.91 72.7411V72.7411C165.423 72.7411 164.218 71.5358 164.218 70.0491V70.0491Z" fill="#2EBC86"/>
<path d="M183.959 70.0491C183.959 68.5624 185.164 67.3571 186.651 67.3571H320.352C321.839 67.3571 323.044 68.5624 323.044 70.0491V70.0491C323.044 71.5358 321.839 72.7411 320.352 72.7411H186.651C185.164 72.7411 183.959 71.5358 183.959 70.0491V70.0491Z" fill="#EBEBEB"/>
<path d="M345.477 70.3856H340.093C339.909 70.3856 339.757 70.2331 339.757 70.0491C339.757 69.8652 339.909 69.7126 340.093 69.7126H345.477C345.661 69.7126 345.814 69.8652 345.814 70.0491C345.814 70.2331 345.661 70.3856 345.477 70.3856Z" fill="#DEDEDE"/>
<path d="M342.785 73.0776C342.601 73.0776 342.449 72.925 342.449 72.7411V67.3571C342.449 67.1732 342.601 67.0206 342.785 67.0206C342.969 67.0206 343.122 67.1732 343.122 67.3571V72.7411C343.122 72.925 342.969 73.0776 342.785 73.0776Z" fill="#DEDEDE"/>
<path d="M357.636 74.8722H355.752C353.997 74.8722 353.217 74.0915 353.217 72.3373V70.4529C353.217 68.6986 353.997 67.918 355.752 67.918H357.636C359.39 67.918 360.171 68.6986 360.171 70.4529V72.3373C360.171 74.0915 359.39 74.8722 357.636 74.8722ZM355.752 68.591C354.361 68.591 353.89 69.0621 353.89 70.4529V72.3373C353.89 73.7281 354.361 74.1992 355.752 74.1992H357.636C359.027 74.1992 359.498 73.7281 359.498 72.3373V70.4529C359.498 69.0621 359.027 68.591 357.636 68.591H355.752V68.591Z" fill="#DEDEDE"/>
<path d="M360.328 72.1802H359.834C359.651 72.1802 359.498 72.0277 359.498 71.8437V70.4529C359.498 69.062 359.027 68.591 357.636 68.591H356.245C356.061 68.591 355.909 68.4384 355.909 68.2545V67.7609C355.909 66.0067 356.689 65.226 358.444 65.226H360.328C362.082 65.226 362.863 66.0067 362.863 67.7609V69.6453C362.863 71.3996 362.082 72.1802 360.328 72.1802ZM360.171 71.5072H360.328C361.719 71.5072 362.19 71.0362 362.19 69.6453V67.7609C362.19 66.3701 361.719 65.899 360.328 65.899H358.444C357.053 65.899 356.582 66.3701 356.582 67.7609V67.918H357.636C359.39 67.918 360.171 68.6986 360.171 70.4529V71.5072Z" fill="#DEDEDE"/>
<rect x="144.477" y="192.085" width="17.9464" height="14.3571" rx="1.79464" fill="#F5F5F5"/>
<rect x="169.602" y="192.085" width="93.7701" height="14.3571" rx="1.79464" fill="#F5F5F5"/>
<rect x="270.551" y="192.085" width="93.7701" height="14.3571" rx="1.79464" fill="#F5F5F5"/>
<rect x="144.477" y="217.21" width="17.9464" height="14.3571" rx="1.79464" fill="#F5F5F5"/>
<rect x="169.602" y="217.21" width="93.7701" height="14.3571" rx="1.79464" fill="#F5F5F5"/>
<rect x="270.551" y="217.21" width="93.7701" height="14.3571" rx="1.79464" fill="#F5F5F5"/>
<rect x="144.477" y="242.335" width="17.9464" height="14.3571" rx="1.79464" fill="#F5F5F5"/>
<rect x="169.602" y="242.335" width="93.7701" height="14.3571" rx="1.79464" fill="#F5F5F5"/>
<rect x="270.551" y="242.335" width="93.7701" height="14.3571" rx="1.79464" fill="#F5F5F5"/>
<rect x="144.477" y="267.46" width="17.9464" height="14.3571" rx="1.79464" fill="#F5F5F5"/>
<rect x="169.602" y="267.46" width="93.7701" height="14.3571" rx="1.79464" fill="#F5F5F5"/>
<rect x="270.551" y="267.46" width="93.7701" height="14.3571" rx="1.79464" fill="#F5F5F5"/>
<rect x="144.477" y="292.585" width="17.9464" height="14.3571" rx="1.79464" fill="#F5F5F5"/>
<rect x="169.602" y="292.585" width="93.7701" height="14.3571" rx="1.79464" fill="#F5F5F5"/>
<rect x="270.551" y="292.585" width="93.7701" height="14.3571" rx="1.79464" fill="#F5F5F5"/>
<rect x="144.477" y="317.71" width="17.9464" height="14.3571" rx="1.79464" fill="#F5F5F5"/>
<rect x="169.602" y="317.71" width="93.7701" height="14.3571" rx="1.79464" fill="#F5F5F5"/>
<rect x="270.551" y="317.71" width="93.7701" height="14.3571" rx="1.79464" fill="#F5F5F5"/>
<rect x="144.477" y="342.835" width="17.9464" height="14.3571" rx="1.79464" fill="#F5F5F5"/>
<rect x="169.602" y="342.835" width="93.7701" height="14.3571" rx="1.79464" fill="#F5F5F5"/>
<rect x="270.551" y="342.835" width="93.7701" height="14.3571" rx="1.79464" fill="#F5F5F5"/>
<g opacity="0.6">
<path d="M254.869 173.719C244.671 173.719 234.958 168.823 228.876 160.618L237.159 154.475C241.362 160.15 247.817 163.399 254.869 163.399V173.719Z" fill="#FF931E"/>
<path d="M254.87 175.01V162.117C266.299 162.117 275.604 152.811 275.604 141.383H288.497C288.497 159.925 273.412 175.01 254.87 175.01Z" fill="#118DF0"/>
<path d="M289.788 141.383H274.322C274.322 130.665 265.596 121.94 254.878 121.94V106.473C274.122 106.473 289.788 122.139 289.788 141.383Z" fill="#FFC947"/>
<path d="M239.585 135.924L218.955 128.559C224.362 113.422 238.797 103.25 254.878 103.25V125.163C248.033 125.163 241.89 129.486 239.585 135.924Z" fill="#30BC90"/>
<path d="M229.915 159.855C225.93 154.483 223.824 148.098 223.824 141.383C223.824 137.795 224.431 134.286 225.626 130.933L232.905 133.533C232.012 136.037 231.553 138.679 231.553 141.374C231.553 146.408 233.13 151.208 236.119 155.237L229.915 159.855Z" fill="#4D5566"/>
</g>
</g>
</g>
<g filter="url(#filter1_d_2116_7377)">
<rect x="70" y="279.125" width="136.393" height="101.397" rx="4.45071" fill="white"/>
<path d="M151.166 283.787C151.958 283.787 152.6 283.145 152.6 282.354C152.6 281.562 151.958 280.92 151.166 280.92C150.374 280.92 149.732 281.562 149.732 282.354C149.732 283.145 150.374 283.787 151.166 283.787Z" fill="#EBF5FF"/>
<path d="M119.66 312.292C119.66 312.82 119.232 313.252 118.7 313.252C118.172 313.252 117.74 312.824 117.74 312.292C117.74 311.764 118.167 311.332 118.7 311.332C119.232 311.332 119.66 311.764 119.66 312.292Z" fill="#84B4FE"/>
<path d="M157.992 307.252L157.417 306.946C157.38 306.925 157.35 306.896 157.333 306.862L157.027 306.288C156.948 306.141 156.742 306.141 156.663 306.288L156.357 306.862C156.336 306.9 156.306 306.93 156.273 306.946L155.698 307.252C155.552 307.332 155.552 307.537 155.698 307.617L156.273 307.923C156.311 307.944 156.34 307.973 156.357 308.007L156.663 308.581C156.742 308.728 156.948 308.728 157.027 308.581L157.333 308.007C157.354 307.969 157.384 307.94 157.417 307.923L157.992 307.617C158.138 307.537 158.138 307.328 157.992 307.252Z" fill="#EBF5FF"/>
<path d="M124.141 288.03L123.416 287.64C123.37 287.615 123.332 287.577 123.311 287.535L122.921 286.81C122.825 286.626 122.561 286.626 122.46 286.81L122.07 287.535C122.045 287.581 122.007 287.619 121.965 287.64L121.24 288.03C121.055 288.126 121.055 288.391 121.24 288.491L121.965 288.881C122.011 288.906 122.049 288.944 122.07 288.986L122.46 289.711C122.556 289.896 122.82 289.896 122.921 289.711L123.311 288.986C123.336 288.94 123.374 288.902 123.416 288.881L124.141 288.491C124.321 288.391 124.321 288.126 124.141 288.03Z" fill="#C1DDF7"/>
<path d="M174.368 302.57L173.492 302.1C173.437 302.071 173.391 302.025 173.362 301.97L172.892 301.094C172.775 300.872 172.456 300.872 172.339 301.094L171.869 301.97C171.84 302.025 171.794 302.071 171.739 302.1L170.863 302.57C170.641 302.687 170.641 303.006 170.863 303.123L171.739 303.593C171.794 303.622 171.84 303.668 171.869 303.722L172.339 304.599C172.456 304.821 172.775 304.821 172.892 304.599L173.362 303.722C173.391 303.668 173.437 303.622 173.492 303.593L174.368 303.123C174.59 303.01 174.59 302.691 174.368 302.57Z" fill="#C1DDF7"/>
<path d="M106.123 299.199L105.322 298.767C105.272 298.742 105.23 298.7 105.205 298.65L104.773 297.849C104.664 297.648 104.375 297.648 104.266 297.849L103.834 298.65C103.809 298.7 103.767 298.742 103.716 298.767L102.916 299.199C102.714 299.308 102.714 299.597 102.916 299.706L103.716 300.138C103.767 300.163 103.809 300.205 103.834 300.255L104.266 301.056C104.375 301.257 104.664 301.257 104.773 301.056L105.205 300.255C105.23 300.205 105.272 300.163 105.322 300.138L106.123 299.706C106.328 299.601 106.328 299.308 106.123 299.199Z" fill="#84B4FE"/>
<path d="M159.656 294.201L159.069 293.887C159.031 293.866 159.002 293.837 158.981 293.799L158.666 293.212C158.587 293.065 158.373 293.065 158.293 293.212L157.979 293.799C157.958 293.837 157.929 293.866 157.891 293.887L157.304 294.201C157.157 294.281 157.157 294.495 157.304 294.574L157.891 294.889C157.929 294.91 157.958 294.939 157.979 294.977L158.293 295.564C158.373 295.711 158.587 295.711 158.666 295.564L158.981 294.977C159.002 294.939 159.031 294.91 159.069 294.889L159.656 294.574C159.803 294.495 159.803 294.281 159.656 294.201Z" fill="#84B4FE"/>
<path d="M144.316 336.566H135.96V375.803H144.316V336.566Z" fill="#FDB022"/>
<path d="M142.345 338.805C142.345 337.119 140.979 335.749 139.289 335.749C137.604 335.749 136.233 337.115 136.233 338.805C136.233 338.805 135.839 346.028 139.289 349.873C142.74 346.033 142.345 338.805 142.345 338.805Z" fill="#EBF5FF"/>
<mask id="mask0_2116_7377" style="mask-type:luminance" maskUnits="userSpaceOnUse" x="74" y="356" width="127" height="25">
<path d="M200.327 356.183H74.4863V380.537H200.327V356.183Z" fill="white"/>
</mask>
<g mask="url(#mask0_2116_7377)">
<path d="M129.659 387.068C135.026 387.068 139.377 382.777 139.377 377.484C139.377 372.191 135.026 367.9 129.659 367.9C124.291 367.9 119.94 372.191 119.94 377.484C119.94 382.777 124.291 387.068 129.659 387.068Z" fill="#FDB022"/>
<path d="M159.392 386.071C164.201 386.071 168.1 382.226 168.1 377.484C168.1 372.742 164.201 368.898 159.392 368.898C154.583 368.898 150.685 372.742 150.685 377.484C150.685 382.226 154.583 386.071 159.392 386.071Z" fill="#FDB022"/>
<path d="M145.029 376.755C148.789 376.755 151.837 373.75 151.837 370.043C151.837 366.336 148.789 363.331 145.029 363.331C141.268 363.331 138.22 366.336 138.22 370.043C138.22 373.75 141.268 376.755 145.029 376.755Z" fill="#FDB022"/>
<path d="M132.619 370.646C135.237 370.646 137.36 368.554 137.36 365.972C137.36 363.39 135.237 361.297 132.619 361.297C130 361.297 127.877 363.39 127.877 365.972C127.877 368.554 130 370.646 132.619 370.646Z" fill="#FDB022"/>
<path d="M144.714 365.301C146.504 365.301 147.955 363.871 147.955 362.106C147.955 360.342 146.504 358.912 144.714 358.912C142.924 358.912 141.473 360.342 141.473 362.106C141.473 363.871 142.924 365.301 144.714 365.301Z" fill="#FDB022"/>
<path d="M138.949 375.636C142.121 375.636 144.693 373.1 144.693 369.972C144.693 366.843 142.121 364.308 138.949 364.308C135.777 364.308 133.206 366.843 133.206 369.972C133.206 373.1 135.777 375.636 138.949 375.636Z" fill="#FDB022"/>
<path d="M93.0973 409.112C102.797 409.112 110.66 401.36 110.66 391.797C110.66 382.235 102.797 374.483 93.0973 374.483C83.398 374.483 75.5352 382.235 75.5352 391.797C75.5352 401.36 83.398 409.112 93.0973 409.112Z" fill="#FDB022"/>
<path d="M114.181 394.858C121.453 394.858 127.349 389.047 127.349 381.878C127.349 374.71 121.453 368.898 114.181 368.898C106.908 368.898 101.012 374.71 101.012 381.878C101.012 389.047 106.908 394.858 114.181 394.858Z" fill="#FDB022"/>
<path d="M178.577 409.062C188.855 409.062 197.187 400.846 197.187 390.712C197.187 380.577 188.855 372.361 178.577 372.361C168.298 372.361 159.966 380.577 159.966 390.712C159.966 400.846 168.298 409.062 178.577 409.062Z" fill="#FDB022"/>
<path d="M132.417 399.394C139.69 399.394 145.586 393.583 145.586 386.414C145.586 379.246 139.69 373.435 132.417 373.435C125.144 373.435 119.249 379.246 119.249 386.414C119.249 393.583 125.144 399.394 132.417 399.394Z" fill="#FDB022"/>
<path d="M148.24 399.394C156.413 399.394 163.039 392.862 163.039 384.804C163.039 376.747 156.413 370.215 148.24 370.215C140.066 370.215 133.44 376.747 133.44 384.804C133.44 392.862 140.066 399.394 148.24 399.394Z" fill="#FDB022"/>
</g>
</g>
<path d="M138.196 331.923C160.497 331.923 178.575 313.677 178.575 291.17C178.575 268.663 160.497 250.417 138.196 250.417C115.895 250.417 97.8164 268.663 97.8164 291.17C97.8164 313.677 115.895 331.923 138.196 331.923Z" fill="#F2F0FD"/>
<path d="M146.827 347.26C144.26 352.661 141.973 355.815 139.588 367.884C139.58 367.906 139.58 367.937 139.572 367.96C139.565 367.929 139.565 367.906 139.557 367.884C137.172 355.815 134.885 352.661 132.318 347.26C129.744 341.835 132.318 335.229 132.318 335.229L139.557 334.719H139.588L146.827 335.229C146.827 335.229 149.401 341.835 146.827 347.26Z" fill="#FDB022"/>
<path d="M139.566 355.191C138.487 351.983 137.4 349.804 136.275 347.564C135.913 346.833 135.535 346.079 135.158 345.286C133.92 342.688 134.433 337.698 134.863 335.877H139.355H143.967C144.405 337.698 145.205 342.681 143.967 345.286C143.59 346.079 143.213 346.833 142.85 347.564C141.733 349.812 140.646 351.983 139.566 355.191Z" fill="#F9A134"/>
<path d="M128.231 316.792C127.944 316.785 125.747 316.769 123.679 317.92C121.067 319.367 118.644 322.666 120.501 330.171C121.928 335.915 122.214 339.946 122.124 342.605C122.101 343.313 121.633 343.786 121.082 343.938C120.486 344.106 119.784 343.9 119.429 343.222C116.251 337.157 110.491 324.762 111.397 316.122C112.001 310.377 115.828 304.701 119.61 300.381C123.158 296.321 126.668 293.456 127.431 292.846C126.917 300.16 127.016 306.949 127.695 312.93V312.937C127.71 313.082 127.725 313.227 127.748 313.371C127.884 314.545 128.05 315.688 128.231 316.792Z" fill="#7B68EE"/>
<path opacity="0.2" d="M128.232 316.792C127.945 316.785 125.748 316.769 123.68 317.92C121.068 319.367 118.645 322.666 120.502 330.171C121.928 335.915 122.215 339.946 122.125 342.605C122.102 343.313 121.634 343.786 121.083 343.938C120.826 343.237 120.705 342.445 120.796 341.561C121.317 336.327 116.297 326.971 116.576 320.67C116.667 318.575 117.308 316.838 118.131 315.444C120.404 311.581 121.151 306.994 120.132 302.621L119.611 300.381C123.159 296.321 126.669 293.456 127.432 292.846C126.918 300.16 127.016 306.949 127.696 312.93V312.937C127.711 313.082 127.726 313.227 127.749 313.371C127.756 313.425 127.764 313.486 127.771 313.539C127.794 313.722 127.817 313.912 127.839 314.095C127.869 314.331 127.9 314.575 127.937 314.811C127.945 314.849 127.945 314.88 127.952 314.91C127.983 315.147 128.02 315.375 128.051 315.604C128.103 316.008 128.164 316.404 128.232 316.792Z" fill="#0F0E16"/>
<path d="M150.492 316.792C150.779 316.785 152.975 316.769 155.044 317.92C157.656 319.367 160.079 322.666 158.222 330.171C156.795 335.915 156.508 339.946 156.599 342.605C156.621 343.313 157.09 343.786 157.641 343.938C158.237 344.106 158.939 343.9 159.294 343.222C162.472 337.157 168.232 324.762 167.326 316.122C166.722 310.377 162.895 304.701 159.113 300.381C155.565 296.321 152.054 293.456 151.292 292.846C151.805 300.16 151.707 306.949 151.028 312.93V312.937C151.013 313.082 150.997 313.227 150.975 313.371C150.839 314.545 150.68 315.688 150.492 316.792Z" fill="#7B68EE"/>
<path opacity="0.2" d="M150.492 316.792C150.779 316.785 152.975 316.769 155.044 317.92C157.656 319.367 160.079 322.666 158.222 330.171C156.795 335.915 156.508 339.946 156.599 342.605C156.621 343.313 157.09 343.786 157.641 343.938C157.897 343.237 158.018 342.445 157.927 341.561C157.407 336.327 162.427 326.971 162.147 320.67C162.057 318.575 161.415 316.838 160.592 315.444C158.32 311.581 157.573 306.994 158.592 302.621L159.113 300.381C155.565 296.321 152.054 293.456 151.292 292.846C151.805 300.16 151.707 306.949 151.028 312.93V312.937C151.013 313.082 150.997 313.227 150.975 313.371C150.967 313.425 150.96 313.486 150.952 313.539C150.93 313.722 150.907 313.912 150.884 314.095C150.854 314.331 150.824 314.575 150.786 314.811C150.779 314.849 150.779 314.88 150.771 314.91C150.741 315.147 150.703 315.375 150.673 315.604C150.62 316.008 150.56 316.404 150.492 316.792Z" fill="#0F0E16"/>
<path d="M148.308 332.197C147.81 334.689 147.508 336.129 147.508 336.129C144.156 337.287 140.804 337.721 137.46 337.424C135.475 337.248 133.482 336.814 131.496 336.129C131.496 336.129 131.172 334.582 130.636 331.923C128.13 319.443 121.011 282.515 121.335 267.308C121.411 263.697 122.158 260.146 123.306 256.779C123.668 255.712 124.068 254.668 124.506 253.64C124.846 252.84 125.201 252.055 125.578 251.286C129.322 243.56 134.614 237.32 137.475 234.242C137.988 233.694 138.66 233.404 139.347 233.366C140.14 233.321 140.948 233.61 141.537 234.242C144.435 237.359 149.825 243.72 153.57 251.575C153.917 252.299 154.241 253.038 154.558 253.785C154.989 254.813 155.389 255.865 155.751 256.931C156.868 260.253 157.593 263.75 157.669 267.308C157.993 282.629 150.769 319.984 148.308 332.197Z" fill="#F2F0FD"/>
<path d="M148.309 332.197C147.811 334.688 147.509 336.128 147.509 336.128C144.157 337.286 140.806 337.721 137.461 337.424C135.476 337.248 133.483 336.814 131.498 336.128C131.498 336.128 131.173 334.582 130.637 331.923C131.573 332.441 134.676 333.927 139.5 333.927C143.644 333.927 146.822 332.829 148.309 332.197Z" fill="#7B68EE"/>
<path d="M155.753 256.931C151.042 258.188 145.071 259.4 139.492 259.4C134.019 259.4 128.078 258.127 123.307 256.779C123.669 255.712 124.07 254.668 124.507 253.64C129.014 254.905 134.525 256.063 139.492 256.063C144.557 256.063 150.091 254.966 154.56 253.785C154.99 254.821 155.39 255.865 155.753 256.931Z" fill="#7B68EE"/>
<path opacity="0.2" d="M137.46 337.424C135.474 337.248 133.481 336.814 131.496 336.129C131.496 336.129 120.95 285.753 121.335 267.308C121.41 263.697 122.158 260.146 123.305 256.779C123.668 255.712 124.068 254.668 124.506 253.64C124.845 252.84 125.2 252.055 125.578 251.286C129.322 243.56 134.614 237.32 137.475 234.242C137.988 233.694 138.66 233.404 139.347 233.366C136.206 240.254 128.673 265.342 137.46 337.424Z" fill="#0F0E16"/>
<path d="M153.572 251.575C151.549 252.131 149.171 252.626 146.461 252.969C144.317 253.236 141.977 253.396 139.433 253.396C133.114 253.396 128.63 252.406 125.581 251.286C129.325 243.56 134.617 237.32 137.478 234.25C138.044 233.64 138.806 233.351 139.569 233.366C140.286 233.381 140.996 233.679 141.532 234.25C144.151 237.061 148.809 242.532 152.447 249.358C152.832 250.082 153.21 250.821 153.572 251.575Z" fill="#7B68EE"/>
<path d="M140.28 343.123C140.144 343.481 139.819 343.664 139.502 343.664C139.185 343.664 138.86 343.481 138.725 343.123C133.614 329.79 136.981 307.878 138.687 299.002C138.777 298.545 139.14 298.317 139.502 298.317C139.864 298.317 140.234 298.545 140.317 299.002C142.023 307.878 145.398 329.79 140.28 343.123Z" fill="#7B68EE"/>
<path opacity="0.2" d="M139.502 298.317V343.664C139.185 343.664 138.86 343.481 138.725 343.123C133.614 329.79 136.981 307.878 138.687 299.002C138.77 298.545 139.14 298.317 139.502 298.317Z" fill="#0F0E16"/>
<path d="M146.386 284.8C150.166 280.986 150.166 274.802 146.386 270.987C142.607 267.173 136.479 267.173 132.7 270.987C128.921 274.802 128.921 280.986 132.7 284.8C136.479 288.615 142.607 288.615 146.386 284.8Z" fill="#7B68EE"/>
<path d="M147.207 277.891C147.207 277.921 147.207 277.959 147.207 277.99C147.154 282.172 143.795 285.563 139.65 285.616C139.62 285.616 139.583 285.616 139.552 285.616C138.835 285.616 138.133 285.517 137.476 285.327C136.276 284.984 135.189 284.351 134.306 283.513C133.551 282.789 132.932 281.921 132.517 280.938C132.117 280.001 131.89 278.972 131.89 277.883C131.89 273.624 135.325 270.158 139.545 270.158C140.617 270.158 141.643 270.378 142.572 270.79C143.538 271.209 144.406 271.826 145.123 272.596C145.954 273.487 146.58 274.584 146.92 275.795C147.101 276.458 147.207 277.167 147.207 277.891Z" fill="#DFDBFB"/>
<path d="M145.116 272.595L134.298 283.513C133.543 282.789 132.924 281.921 132.509 280.938L142.565 270.79C143.538 271.216 144.406 271.833 145.116 272.595Z" fill="#141F57"/>
<path d="M147.206 277.89C147.206 277.921 147.206 277.959 147.206 277.989L139.65 285.616C139.619 285.616 139.582 285.616 139.552 285.616C138.834 285.616 138.132 285.517 137.476 285.326L146.927 275.788C147.101 276.458 147.206 277.167 147.206 277.89Z" fill="#141F57"/>
<path opacity="0.1" d="M146.92 275.795C146.58 274.584 145.954 273.487 145.123 272.596C144.414 271.834 143.546 271.209 142.572 270.79C141.643 270.386 140.624 270.158 139.545 270.158C135.325 270.158 131.89 273.624 131.89 277.883C131.89 278.096 131.898 278.31 131.913 278.515C132.237 274.554 135.536 271.43 139.545 271.43C140.617 271.43 141.643 271.651 142.572 272.062C143.538 272.481 144.406 273.098 145.123 273.868C145.954 274.759 146.58 275.849 146.92 277.068C147.048 277.54 147.139 278.028 147.177 278.531C147.192 278.355 147.199 278.172 147.199 277.997C147.199 277.967 147.199 277.929 147.199 277.898C147.207 277.167 147.101 276.458 146.92 275.795Z" fill="#0F0E16"/>
<path opacity="0.2" d="M153.572 251.575C151.549 252.131 149.171 252.626 146.461 252.969C144.317 253.236 141.977 253.396 139.433 253.396C133.114 253.396 128.63 252.406 125.581 251.286C129.325 243.56 134.617 237.32 137.478 234.25C138.044 233.64 138.806 233.351 139.569 233.366C139.456 233.503 135.319 238.501 135.5 244.589C135.681 250.752 146.378 252.055 152.44 249.358C152.832 250.082 153.21 250.821 153.572 251.575Z" fill="#0F0E16"/>
<defs>
<filter id="filter0_d_2116_7377" x="74.486" y="0.955359" width="360.723" height="414.562" filterUnits="userSpaceOnUse" color-interpolation-filters="sRGB">
<feFlood flood-opacity="0" result="BackgroundImageFix"/>
<feColorMatrix in="SourceAlpha" type="matrix" values="0 0 0 0 0 0 0 0 0 0 0 0 0 0 0 0 0 0 127 0" result="hardAlpha"/>
<feOffset dy="5.38393"/>
<feGaussianBlur stdDeviation="28.7143"/>
<feComposite in2="hardAlpha" operator="out"/>
<feColorMatrix type="matrix" values="0 0 0 0 0.207843 0 0 0 0 0.313726 0 0 0 0 0.435294 0 0 0 0.12 0"/>
<feBlend mode="normal" in2="BackgroundImageFix" result="effect1_dropShadow_2116_7377"/>
<feBlend mode="normal" in="SourceGraphic" in2="effect1_dropShadow_2116_7377" result="shape"/>
</filter>
<filter id="filter1_d_2116_7377" x="-1.21143" y="212.364" width="278.816" height="243.834" filterUnits="userSpaceOnUse" color-interpolation-filters="sRGB">
<feFlood flood-opacity="0" result="BackgroundImageFix"/>
<feColorMatrix in="SourceAlpha" type="matrix" values="0 0 0 0 0 0 0 0 0 0 0 0 0 0 0 0 0 0 127 0" result="hardAlpha"/>
<feOffset dy="4.45071"/>
<feGaussianBlur stdDeviation="35.6057"/>
<feColorMatrix type="matrix" values="0 0 0 0 0.0625882 0 0 0 0 0.0926346 0 0 0 0 0.15702 0 0 0 0.04 0"/>
<feBlend mode="normal" in2="BackgroundImageFix" result="effect1_dropShadow_2116_7377"/>
<feBlend mode="normal" in="SourceGraphic" in2="effect1_dropShadow_2116_7377" result="shape"/>
</filter>
<clipPath id="clip0_2116_7377">
<rect x="131.915" y="53" width="245.866" height="299.705" rx="3.58929" fill="white"/>
</clipPath>
</defs>
</svg>
